<svg width="1009" height="208" viewBox="0 0 1009 208" fill="none" xmlns="http://www.w3.org/2000/svg">
<path d="M112.087 67.835L111.989 72H70.4373V2.665H111.989V6.83H75.4843V34.858H105.864V38.925H75.4843V67.835H112.087ZM160.85 72H156.391C155.934 72 155.574 71.8693 155.313 71.608C155.052 71.314 154.839 71.0363 154.676 70.775L139.878 49.166C139.747 49.754 139.502 50.3257 139.143 50.881L125.031 70.775C124.802 71.069 124.557 71.3467 124.296 71.608C124.067 71.8693 123.757 72 123.365 72H119.151L136.889 47.059L119.837 23.245H124.296C124.753 23.245 125.096 23.343 125.325 23.539C125.554 23.735 125.75 23.9637 125.913 24.225L140.221 44.854C140.286 44.5927 140.384 44.315 140.515 44.021C140.678 43.727 140.842 43.433 141.005 43.139L154.382 24.274C154.578 23.98 154.79 23.735 155.019 23.539C155.248 23.343 155.542 23.245 155.901 23.245H160.164L143.161 46.765L160.85 72ZM175.721 61.367C176.669 62.7717 177.649 63.964 178.661 64.944C179.707 65.8913 180.801 66.6753 181.944 67.296C183.088 67.884 184.296 68.3087 185.57 68.57C186.877 68.8313 188.249 68.962 189.686 68.962C192.561 68.962 195.076 68.4393 197.232 67.394C199.388 66.3487 201.185 64.8787 202.622 62.984C204.092 61.0567 205.187 58.77 205.905 56.124C206.657 53.4453 207.032 50.5053 207.032 47.304C207.032 40.052 205.693 34.7273 203.014 31.33C200.336 27.9 196.497 26.185 191.499 26.185C188.265 26.185 185.342 27.018 182.728 28.684C180.115 30.35 177.779 32.6693 175.721 35.642V61.367ZM175.525 32.016C177.681 29.076 180.197 26.7403 183.071 25.009C185.979 23.2777 189.229 22.412 192.822 22.412C198.8 22.412 203.455 24.4863 206.787 28.635C210.152 32.7837 211.834 39.0067 211.834 47.304C211.834 50.8647 211.361 54.1967 210.413 57.3C209.499 60.3707 208.127 63.0493 206.297 65.336C204.501 67.59 202.279 69.3703 199.633 70.677C197.02 71.9837 193.998 72.637 190.568 72.637C187.269 72.637 184.411 72.0327 181.993 70.824C179.576 69.6153 177.485 67.835 175.721 65.483V89.248H171.017V23.245H173.614C174.431 23.245 174.905 23.6533 175.035 24.47L175.525 32.016ZM230.235 0.704998V72H225.531V0.704998H230.235ZM266.025 22.461C269.52 22.461 272.64 23.0653 275.384 24.274C278.16 25.45 280.496 27.1323 282.391 29.321C284.285 31.5097 285.723 34.1557 286.703 37.259C287.715 40.3297 288.222 43.776 288.222 47.598C288.222 51.42 287.715 54.8663 286.703 57.937C285.723 61.0077 284.285 63.6373 282.391 65.826C280.496 68.0147 278.16 69.697 275.384 70.873C272.64 72.049 269.52 72.637 266.025 72.637C262.529 72.637 259.393 72.049 256.617 70.873C253.873 69.697 251.537 68.0147 249.61 65.826C247.715 63.6373 246.261 61.0077 245.249 57.937C244.269 54.8663 243.779 51.42 243.779 47.598C243.779 43.776 244.269 40.3297 245.249 37.259C246.261 34.1557 247.715 31.5097 249.61 29.321C251.537 27.1323 253.873 25.45 256.617 24.274C259.393 23.0653 262.529 22.461 266.025 22.461ZM266.025 68.962C268.932 68.962 271.464 68.472 273.62 67.492C275.808 66.4793 277.621 65.042 279.059 63.18C280.529 61.318 281.623 59.0803 282.342 56.467C283.06 53.821 283.42 50.8647 283.42 47.598C283.42 44.364 283.06 41.424 282.342 38.778C281.623 36.132 280.529 33.878 279.059 32.016C277.621 30.1213 275.808 28.6677 273.62 27.655C271.464 26.6423 268.932 26.136 266.025 26.136C263.117 26.136 260.569 26.6423 258.381 27.655C256.225 28.6677 254.412 30.1213 252.942 32.016C251.504 33.878 250.41 36.132 249.659 38.778C248.94 41.424 248.581 44.364 248.581 47.598C248.581 50.8647 248.94 53.821 249.659 56.467C250.41 59.0803 251.504 61.318 252.942 63.18C254.412 65.042 256.225 66.4793 258.381 67.492C260.569 68.472 263.117 68.962 266.025 68.962ZM305.824 35.005C306.575 33.0123 307.425 31.2483 308.372 29.713C309.352 28.145 310.463 26.822 311.704 25.744C312.978 24.666 314.383 23.8493 315.918 23.294C317.486 22.706 319.217 22.412 321.112 22.412C322.125 22.412 323.121 22.51 324.101 22.706C325.081 22.8693 325.947 23.1797 326.698 23.637L326.306 26.871C326.143 27.3937 325.832 27.655 325.375 27.655C324.983 27.655 324.379 27.5407 323.562 27.312C322.778 27.0833 321.733 26.969 320.426 26.969C318.531 26.969 316.849 27.263 315.379 27.851C313.942 28.4063 312.635 29.2557 311.459 30.399C310.316 31.5423 309.303 32.9633 308.421 34.662C307.572 36.328 306.788 38.2553 306.069 40.444V72H301.365V23.245H303.864C304.419 23.245 304.811 23.3593 305.04 23.588C305.269 23.8167 305.416 24.2087 305.481 24.764L305.824 35.005ZM341.204 23.245V72H336.549V23.245H341.204ZM343.213 6.438C343.213 7.026 343.082 7.58133 342.821 8.104C342.592 8.594 342.282 9.035 341.89 9.427C341.498 9.819 341.04 10.1293 340.518 10.358C339.995 10.5867 339.44 10.701 338.852 10.701C338.264 10.701 337.708 10.5867 337.186 10.358C336.663 10.1293 336.206 9.819 335.814 9.427C335.422 9.035 335.111 8.594 334.883 8.104C334.654 7.58133 334.54 7.026 334.54 6.438C334.54 5.85 334.654 5.29466 334.883 4.772C335.111 4.21666 335.422 3.743 335.814 3.351C336.206 2.959 336.663 2.64866 337.186 2.42C337.708 2.19133 338.264 2.077 338.852 2.077C339.44 2.077 339.995 2.19133 340.518 2.42C341.04 2.64866 341.498 2.959 341.89 3.351C342.282 3.743 342.592 4.21666 342.821 4.772C343.082 5.29466 343.213 5.85 343.213 6.438ZM362.289 31.771C364.543 28.9617 367.14 26.7077 370.08 25.009C373.053 23.3103 376.352 22.461 379.978 22.461C382.657 22.461 385.009 22.8857 387.034 23.735C389.092 24.5843 390.791 25.8093 392.13 27.41C393.469 29.0107 394.482 30.938 395.168 33.192C395.854 35.446 396.197 37.994 396.197 40.836V72H391.493V40.836C391.493 36.2627 390.448 32.6857 388.357 30.105C386.266 27.4917 383.081 26.185 378.802 26.185C375.633 26.185 372.661 27.0017 369.884 28.635C367.14 30.2357 364.69 32.4733 362.534 35.348V72H357.83V23.245H360.427C361.244 23.245 361.717 23.6533 361.848 24.47L362.289 31.771ZM427.636 50.44C429.726 50.44 431.588 50.146 433.222 49.558C434.855 48.9373 436.227 48.088 437.338 47.01C438.448 45.932 439.298 44.6417 439.886 43.139C440.474 41.6363 440.768 39.9703 440.768 38.141C440.768 36.3117 440.457 34.6457 439.837 33.143C439.249 31.6077 438.383 30.301 437.24 29.223C436.129 28.145 434.757 27.312 433.124 26.724C431.523 26.136 429.694 25.842 427.636 25.842C425.578 25.842 423.732 26.136 422.099 26.724C420.498 27.312 419.126 28.145 417.983 29.223C416.872 30.301 416.023 31.6077 415.435 33.143C414.847 34.6457 414.553 36.3117 414.553 38.141C414.553 39.9703 414.847 41.6363 415.435 43.139C416.023 44.6417 416.872 45.932 417.983 47.01C419.126 48.088 420.498 48.9373 422.099 49.558C423.732 50.146 425.578 50.44 427.636 50.44ZM445.864 75.283C445.864 73.7477 445.455 72.5227 444.639 71.608C443.855 70.6607 442.793 69.9257 441.454 69.403C440.114 68.8803 438.563 68.521 436.799 68.325C435.067 68.0963 433.238 67.933 431.311 67.835C429.416 67.737 427.505 67.639 425.578 67.541C423.65 67.443 421.837 67.247 420.139 66.953C418.897 67.443 417.754 68.0147 416.709 68.668C415.663 69.2887 414.765 70.0073 414.014 70.824C413.262 71.6407 412.674 72.5227 412.25 73.47C411.825 74.45 411.613 75.4953 411.613 76.606C411.613 78.0433 411.972 79.3663 412.691 80.575C413.442 81.8163 414.52 82.878 415.925 83.76C417.362 84.6747 419.11 85.3933 421.168 85.916C423.226 86.4387 425.594 86.7 428.273 86.7C430.755 86.7 433.058 86.4223 435.182 85.867C437.338 85.3117 439.2 84.5277 440.768 83.515C442.368 82.5023 443.61 81.2937 444.492 79.889C445.406 78.4843 445.864 76.949 445.864 75.283ZM450.96 25.401V27.018C450.96 27.7367 450.502 28.1777 449.588 28.341L442.14 28.88C443.054 30.1213 443.757 31.5097 444.247 33.045C444.737 34.5803 444.982 36.2463 444.982 38.043C444.982 40.395 444.557 42.5347 443.708 44.462C442.891 46.3567 441.715 47.99 440.18 49.362C438.677 50.7013 436.848 51.7467 434.692 52.498C432.568 53.2493 430.216 53.625 427.636 53.625C424.859 53.625 422.327 53.2003 420.041 52.351C418.669 53.135 417.574 54.066 416.758 55.144C415.974 56.1893 415.582 57.2347 415.582 58.28C415.582 59.6847 416.072 60.7627 417.052 61.514C418.064 62.2653 419.371 62.8207 420.972 63.18C422.605 63.5067 424.451 63.719 426.509 63.817C428.599 63.915 430.723 64.0293 432.879 64.16C435.035 64.258 437.142 64.454 439.2 64.748C441.29 65.042 443.136 65.5647 444.737 66.316C446.37 67.0347 447.677 68.0637 448.657 69.403C449.669 70.7097 450.176 72.4573 450.176 74.646C450.176 76.6713 449.669 78.615 448.657 80.477C447.644 82.339 446.174 83.9887 444.247 85.426C442.352 86.8633 440.049 88.0067 437.338 88.856C434.626 89.738 431.588 90.179 428.224 90.179C424.794 90.179 421.788 89.8197 419.208 89.101C416.627 88.415 414.455 87.4677 412.691 86.259C410.959 85.083 409.653 83.711 408.771 82.143C407.889 80.575 407.448 78.909 407.448 77.145C407.448 74.5643 408.297 72.3593 409.996 70.53C411.694 68.668 414.014 67.2143 416.954 66.169C415.32 65.6137 413.997 64.8133 412.985 63.768C412.005 62.69 411.515 61.2363 411.515 59.407C411.515 58.721 411.645 58.0023 411.907 57.251C412.168 56.4997 412.56 55.7647 413.083 55.046C413.605 54.2947 414.242 53.5923 414.994 52.939C415.745 52.2857 416.594 51.6977 417.542 51.175C415.222 49.8357 413.409 48.0553 412.103 45.834C410.829 43.6127 410.192 41.0157 410.192 38.043C410.192 35.691 410.6 33.5677 411.417 31.673C412.266 29.7457 413.458 28.096 414.994 26.724C416.529 25.352 418.358 24.2903 420.482 23.539C422.638 22.7877 425.022 22.412 427.636 22.412C429.792 22.412 431.768 22.6733 433.565 23.196C435.394 23.7187 437.027 24.4537 438.465 25.401H450.96ZM544.082 2.665V72H541.73C541.305 72 540.946 71.9347 540.652 71.804C540.391 71.6407 540.129 71.3793 539.868 71.02L494.837 10.848C494.935 11.828 494.984 12.759 494.984 13.641V72H490.574V2.665H493.073C493.53 2.665 493.873 2.73033 494.102 2.861C494.363 2.959 494.641 3.204 494.935 3.596L539.868 63.621C539.77 62.641 539.721 61.71 539.721 60.828V2.665H544.082ZM595.018 42.698C595.018 40.0847 594.643 37.749 593.891 35.691C593.173 33.6003 592.144 31.8363 590.804 30.399C589.465 28.9617 587.864 27.8673 586.002 27.116C584.173 26.332 582.148 25.94 579.926 25.94C577.411 25.94 575.157 26.332 573.164 27.116C571.172 27.9 569.44 29.027 567.97 30.497C566.533 31.967 565.373 33.731 564.491 35.789C563.609 37.847 563.021 40.15 562.727 42.698H595.018ZM562.482 45.687V46.618C562.482 50.2767 562.907 53.4943 563.756 56.271C564.606 59.0477 565.814 61.3833 567.382 63.278C568.95 65.14 570.845 66.5447 573.066 67.492C575.288 68.4393 577.77 68.913 580.514 68.913C582.964 68.913 585.088 68.6517 586.884 68.129C588.681 67.5737 590.184 66.9693 591.392 66.316C592.634 65.63 593.614 65.0257 594.332 64.503C595.051 63.9477 595.574 63.67 595.9 63.67C596.325 63.67 596.652 63.8333 596.88 64.16L598.154 65.728C597.37 66.708 596.325 67.6227 595.018 68.472C593.744 69.3213 592.307 70.0563 590.706 70.677C589.138 71.265 587.44 71.7387 585.61 72.098C583.814 72.4573 582.001 72.637 580.171 72.637C576.839 72.637 573.801 72.0653 571.057 70.922C568.313 69.746 565.961 68.0473 564.001 65.826C562.041 63.6047 560.522 60.8933 559.444 57.692C558.399 54.458 557.876 50.7667 557.876 46.618C557.876 43.1227 558.366 39.905 559.346 36.965C560.359 33.9923 561.796 31.4443 563.658 29.321C565.553 27.165 567.856 25.4827 570.567 24.274C573.311 23.0653 576.415 22.461 579.877 22.461C582.621 22.461 585.169 22.9347 587.521 23.882C589.873 24.8293 591.915 26.2177 593.646 28.047C595.378 29.8437 596.733 32.065 597.713 34.711C598.726 37.357 599.232 40.395 599.232 43.825C599.232 44.5437 599.134 45.0337 598.938 45.295C598.742 45.5563 598.416 45.687 597.958 45.687H562.482ZM647.118 72H642.659C642.201 72 641.842 71.8693 641.581 71.608C641.319 71.314 641.107 71.0363 640.944 70.775L626.146 49.166C626.015 49.754 625.77 50.3257 625.411 50.881L611.299 70.775C611.07 71.069 610.825 71.3467 610.564 71.608C610.335 71.8693 610.025 72 609.633 72H605.419L623.157 47.059L606.105 23.245H610.564C611.021 23.245 611.364 23.343 611.593 23.539C611.821 23.735 612.017 23.9637 612.181 24.225L626.489 44.854C626.554 44.5927 626.652 44.315 626.783 44.021C626.946 43.727 627.109 43.433 627.273 43.139L640.65 24.274C640.846 23.98 641.058 23.735 641.287 23.539C641.515 23.343 641.809 23.245 642.169 23.245H646.432L629.429 46.765L647.118 72ZM670.613 72.784C667.314 72.784 664.733 71.8693 662.871 70.04C661.042 68.2107 660.127 65.385 660.127 61.563V28.243H653.12C652.761 28.243 652.467 28.145 652.238 27.949C652.009 27.753 651.895 27.4753 651.895 27.116V25.303L660.225 24.715L661.401 7.271C661.466 6.977 661.597 6.71567 661.793 6.487C661.989 6.25833 662.267 6.144 662.626 6.144H664.831V24.764H680.217V28.243H664.831V61.318C664.831 62.6573 664.994 63.817 665.321 64.797C665.68 65.7443 666.154 66.5283 666.742 67.149C667.363 67.7697 668.081 68.227 668.898 68.521C669.715 68.815 670.597 68.962 671.544 68.962C672.72 68.962 673.733 68.7987 674.582 68.472C675.431 68.1127 676.166 67.737 676.787 67.345C677.408 66.9203 677.914 66.5447 678.306 66.218C678.698 65.8587 679.008 65.679 679.237 65.679C679.498 65.679 679.76 65.8423 680.021 66.169L681.295 68.227C680.054 69.599 678.469 70.7097 676.542 71.559C674.647 72.3757 672.671 72.784 670.613 72.784ZM753.35 11.093C753.056 11.6483 752.632 11.926 752.076 11.926C751.652 11.926 751.096 11.632 750.41 11.044C749.757 10.4233 748.859 9.75366 747.715 9.035C746.572 8.28366 745.135 7.59766 743.403 6.977C741.705 6.35633 739.598 6.046 737.082 6.046C734.567 6.046 732.346 6.40533 730.418 7.12399C728.524 7.84266 726.923 8.82266 725.616 10.064C724.342 11.3053 723.362 12.7427 722.676 14.376C722.023 16.0093 721.696 17.7243 721.696 19.521C721.696 21.873 722.186 23.8167 723.166 25.352C724.179 26.8873 725.502 28.194 727.135 29.272C728.769 30.35 730.614 31.2647 732.672 32.016C734.763 32.7347 736.903 33.4533 739.091 34.172C741.28 34.8907 743.403 35.691 745.461 36.573C747.552 37.4223 749.414 38.5003 751.047 39.807C752.681 41.1137 753.987 42.7307 754.967 44.658C755.98 46.5527 756.486 48.921 756.486 51.763C756.486 54.6703 755.98 57.4143 754.967 59.995C753.987 62.543 752.55 64.7643 750.655 66.659C748.761 68.5537 746.441 70.0563 743.697 71.167C740.953 72.245 737.817 72.784 734.289 72.784C729.716 72.784 725.78 71.9837 722.48 70.383C719.181 68.7497 716.29 66.5283 713.807 63.719L715.179 61.563C715.571 61.073 716.029 60.828 716.551 60.828C716.845 60.828 717.221 61.024 717.678 61.416C718.136 61.808 718.691 62.298 719.344 62.886C719.998 63.4413 720.782 64.062 721.696 64.748C722.611 65.4013 723.673 66.022 724.881 66.61C726.09 67.1653 727.478 67.639 729.046 68.031C730.614 68.423 732.395 68.619 734.387 68.619C737.131 68.619 739.581 68.2107 741.737 67.394C743.893 66.5447 745.706 65.4013 747.176 63.964C748.679 62.5267 749.822 60.828 750.606 58.868C751.39 56.8753 751.782 54.752 751.782 52.498C751.782 50.048 751.276 48.039 750.263 46.471C749.283 44.8703 747.977 43.5473 746.343 42.502C744.71 41.424 742.848 40.5257 740.757 39.807C738.699 39.0883 736.576 38.386 734.387 37.7C732.199 37.014 730.059 36.2463 727.968 35.397C725.91 34.5477 724.065 33.4697 722.431 32.163C720.798 30.8237 719.475 29.174 718.462 27.214C717.482 25.2213 716.992 22.7387 716.992 19.766C716.992 17.4467 717.433 15.209 718.315 13.053C719.197 10.897 720.488 9.00233 722.186 7.369C723.885 5.703 725.976 4.37999 728.458 3.4C730.974 2.38733 733.832 1.88099 737.033 1.88099C740.627 1.88099 743.844 2.45266 746.686 3.596C749.561 4.73933 752.174 6.487 754.526 8.839L753.35 11.093ZM780.959 72.784C777.659 72.784 775.079 71.8693 773.217 70.04C771.387 68.2107 770.473 65.385 770.473 61.563V28.243H763.466C763.106 28.243 762.812 28.145 762.584 27.949C762.355 27.753 762.241 27.4753 762.241 27.116V25.303L770.571 24.715L771.747 7.271C771.812 6.977 771.943 6.71567 772.139 6.487C772.335 6.25833 772.612 6.144 772.972 6.144H775.177V24.764H790.563V28.243H775.177V61.318C775.177 62.6573 775.34 63.817 775.667 64.797C776.026 65.7443 776.5 66.5283 777.088 67.149C777.708 67.7697 778.427 68.227 779.244 68.521C780.06 68.815 780.942 68.962 781.89 68.962C783.066 68.962 784.078 68.7987 784.928 68.472C785.777 68.1127 786.512 67.737 787.133 67.345C787.753 66.9203 788.26 66.5447 788.652 66.218C789.044 65.8587 789.354 65.679 789.583 65.679C789.844 65.679 790.105 65.8423 790.367 66.169L791.641 68.227C790.399 69.599 788.815 70.7097 786.888 71.559C784.993 72.3757 783.017 72.784 780.959 72.784ZM835.233 42.698C835.233 40.0847 834.857 37.749 834.106 35.691C833.387 33.6003 832.358 31.8363 831.019 30.399C829.68 28.9617 828.079 27.8673 826.217 27.116C824.388 26.332 822.362 25.94 820.141 25.94C817.626 25.94 815.372 26.332 813.379 27.116C811.386 27.9 809.655 29.027 808.185 30.497C806.748 31.967 805.588 33.731 804.706 35.789C803.824 37.847 803.236 40.15 802.942 42.698H835.233ZM802.697 45.687V46.618C802.697 50.2767 803.122 53.4943 803.971 56.271C804.82 59.0477 806.029 61.3833 807.597 63.278C809.165 65.14 811.06 66.5447 813.281 67.492C815.502 68.4393 817.985 68.913 820.729 68.913C823.179 68.913 825.302 68.6517 827.099 68.129C828.896 67.5737 830.398 66.9693 831.607 66.316C832.848 65.63 833.828 65.0257 834.547 64.503C835.266 63.9477 835.788 63.67 836.115 63.67C836.54 63.67 836.866 63.8333 837.095 64.16L838.369 65.728C837.585 66.708 836.54 67.6227 835.233 68.472C833.959 69.3213 832.522 70.0563 830.921 70.677C829.353 71.265 827.654 71.7387 825.825 72.098C824.028 72.4573 822.215 72.637 820.386 72.637C817.054 72.637 814.016 72.0653 811.272 70.922C808.528 69.746 806.176 68.0473 804.216 65.826C802.256 63.6047 800.737 60.8933 799.659 57.692C798.614 54.458 798.091 50.7667 798.091 46.618C798.091 43.1227 798.581 39.905 799.561 36.965C800.574 33.9923 802.011 31.4443 803.873 29.321C805.768 27.165 808.071 25.4827 810.782 24.274C813.526 23.0653 816.629 22.461 820.092 22.461C822.836 22.461 825.384 22.9347 827.736 23.882C830.088 24.8293 832.13 26.2177 833.861 28.047C835.592 29.8437 836.948 32.065 837.928 34.711C838.941 37.357 839.447 40.395 839.447 43.825C839.447 44.5437 839.349 45.0337 839.153 45.295C838.957 45.5563 838.63 45.687 838.173 45.687H802.697ZM856.841 61.367C857.788 62.7717 858.768 63.964 859.781 64.944C860.826 65.8913 861.92 66.6753 863.064 67.296C864.207 67.884 865.416 68.3087 866.69 68.57C867.996 68.8313 869.368 68.962 870.806 68.962C873.68 68.962 876.196 68.4393 878.352 67.394C880.508 66.3487 882.304 64.8787 883.742 62.984C885.212 61.0567 886.306 58.77 887.025 56.124C887.776 53.4453 888.152 50.5053 888.152 47.304C888.152 40.052 886.812 34.7273 884.134 31.33C881.455 27.9 877.617 26.185 872.619 26.185C869.385 26.185 866.461 27.018 863.848 28.684C861.234 30.35 858.899 32.6693 856.841 35.642V61.367ZM856.645 32.016C858.801 29.076 861.316 26.7403 864.191 25.009C867.098 23.2777 870.348 22.412 873.942 22.412C879.92 22.412 884.575 24.4863 887.907 28.635C891.271 32.7837 892.954 39.0067 892.954 47.304C892.954 50.8647 892.48 54.1967 891.533 57.3C890.618 60.3707 889.246 63.0493 887.417 65.336C885.62 67.59 883.399 69.3703 880.753 70.677C878.139 71.9837 875.118 72.637 871.688 72.637C868.388 72.637 865.53 72.0327 863.113 70.824C860.695 69.6153 858.605 67.835 856.841 65.483V89.248H852.137V23.245H854.734C855.55 23.245 856.024 23.6533 856.155 24.47L856.645 32.016ZM933.012 29.272C932.751 29.7293 932.375 29.958 931.885 29.958C931.526 29.958 931.068 29.762 930.513 29.37C929.958 28.9453 929.206 28.488 928.259 27.998C927.344 27.4753 926.201 27.018 924.829 26.626C923.457 26.2013 921.791 25.989 919.831 25.989C918.067 25.989 916.45 26.2503 914.98 26.773C913.543 27.263 912.301 27.9327 911.256 28.782C910.243 29.6313 909.459 30.6277 908.904 31.771C908.349 32.8817 908.071 34.0577 908.071 35.299C908.071 36.8343 908.463 38.1083 909.247 39.121C910.031 40.1337 911.044 40.9993 912.285 41.718C913.559 42.4367 915.013 43.0573 916.646 43.58C918.279 44.1027 919.929 44.6253 921.595 45.148C923.294 45.6707 924.96 46.2587 926.593 46.912C928.226 47.5327 929.664 48.3167 930.905 49.264C932.179 50.2113 933.208 51.371 933.992 52.743C934.776 54.115 935.168 55.781 935.168 57.741C935.168 59.8643 934.792 61.8407 934.041 63.67C933.29 65.4993 932.179 67.0837 930.709 68.423C929.272 69.7623 927.491 70.824 925.368 71.608C923.245 72.392 920.811 72.784 918.067 72.784C914.637 72.784 911.681 72.245 909.198 71.167C906.715 70.0563 904.494 68.619 902.534 66.855L903.612 65.189C903.775 64.9277 903.955 64.7317 904.151 64.601C904.38 64.4703 904.674 64.405 905.033 64.405C905.458 64.405 905.964 64.6663 906.552 65.189C907.173 65.7117 907.989 66.2833 909.002 66.904C910.015 67.492 911.256 68.0473 912.726 68.57C914.229 69.0927 916.074 69.354 918.263 69.354C920.321 69.354 922.134 69.0763 923.702 68.521C925.27 67.933 926.577 67.149 927.622 66.169C928.667 65.189 929.451 64.0457 929.974 62.739C930.529 61.3997 930.807 59.995 930.807 58.525C930.807 56.8917 930.415 55.536 929.631 54.458C928.847 53.38 927.818 52.4653 926.544 51.714C925.27 50.9627 923.816 50.3257 922.183 49.803C920.582 49.2803 918.933 48.7577 917.234 48.235C915.535 47.7123 913.869 47.1407 912.236 46.52C910.635 45.8993 909.198 45.1153 907.924 44.168C906.65 43.2207 905.621 42.0773 904.837 40.738C904.053 39.366 903.661 37.6673 903.661 35.642C903.661 33.9107 904.037 32.2447 904.788 30.644C905.539 29.0433 906.601 27.6387 907.973 26.43C909.378 25.2213 911.076 24.2577 913.069 23.539C915.062 22.8203 917.299 22.461 919.782 22.461C922.755 22.461 925.384 22.8857 927.671 23.735C929.99 24.5843 932.097 25.891 933.992 27.655L933.012 29.272ZM5.52531 190H0.478305V120.665H5.52531V190ZM27.5194 149.771C29.7734 146.962 32.3704 144.708 35.3104 143.009C38.2831 141.31 41.5824 140.461 45.2084 140.461C47.8871 140.461 50.2391 140.886 52.2644 141.735C54.3224 142.584 56.0211 143.809 57.3604 145.41C58.6997 147.011 59.7124 148.938 60.3984 151.192C61.0844 153.446 61.4274 155.994 61.4274 158.836V190H56.7234V158.836C56.7234 154.263 55.6781 150.686 53.5874 148.105C51.4967 145.492 48.3117 144.185 44.0324 144.185C40.8637 144.185 37.8911 145.002 35.1144 146.635C32.3704 148.236 29.9204 150.473 27.7644 153.348V190H23.0604V141.245H25.6574C26.4741 141.245 26.9477 141.653 27.0784 142.47L27.5194 149.771ZM123.528 161.433V190H118.53V161.433L92.854 120.665H97.264C97.7214 120.665 98.097 120.779 98.391 121.008C98.685 121.204 98.93 121.498 99.126 121.89L118.971 153.74C119.396 154.491 119.788 155.226 120.147 155.945C120.506 156.631 120.817 157.317 121.078 158.003C121.339 157.317 121.633 156.631 121.96 155.945C122.287 155.226 122.662 154.491 123.087 153.74L142.932 121.89C143.095 121.531 143.324 121.237 143.618 121.008C143.945 120.779 144.337 120.665 144.794 120.665H149.204L123.528 161.433ZM167.163 140.461C170.659 140.461 173.778 141.065 176.522 142.274C179.299 143.45 181.635 145.132 183.529 147.321C185.424 149.51 186.861 152.156 187.841 155.259C188.854 158.33 189.36 161.776 189.36 165.598C189.36 169.42 188.854 172.866 187.841 175.937C186.861 179.008 185.424 181.637 183.529 183.826C181.635 186.015 179.299 187.697 176.522 188.873C173.778 190.049 170.659 190.637 167.163 190.637C163.668 190.637 160.532 190.049 157.755 188.873C155.011 187.697 152.676 186.015 150.748 183.826C148.854 181.637 147.4 179.008 146.387 175.937C145.407 172.866 144.917 169.42 144.917 165.598C144.917 161.776 145.407 158.33 146.387 155.259C147.4 152.156 148.854 149.51 150.748 147.321C152.676 145.132 155.011 143.45 157.755 142.274C160.532 141.065 163.668 140.461 167.163 140.461ZM167.163 186.962C170.071 186.962 172.602 186.472 174.758 185.492C176.947 184.479 178.76 183.042 180.197 181.18C181.667 179.318 182.762 177.08 183.48 174.467C184.199 171.821 184.558 168.865 184.558 165.598C184.558 162.364 184.199 159.424 183.48 156.778C182.762 154.132 181.667 151.878 180.197 150.016C178.76 148.121 176.947 146.668 174.758 145.655C172.602 144.642 170.071 144.136 167.163 144.136C164.256 144.136 161.708 144.642 159.519 145.655C157.363 146.668 155.55 148.121 154.08 150.016C152.643 151.878 151.549 154.132 150.797 156.778C150.079 159.424 149.719 162.364 149.719 165.598C149.719 168.865 150.079 171.821 150.797 174.467C151.549 177.08 152.643 179.318 154.08 181.18C155.55 183.042 157.363 184.479 159.519 185.492C161.708 186.472 164.256 186.962 167.163 186.962ZM240.332 141.245V190H237.735C236.918 190 236.444 189.575 236.314 188.726L235.873 181.474C233.619 184.283 231.005 186.537 228.033 188.236C225.093 189.935 221.81 190.784 218.184 190.784C215.472 190.784 213.104 190.359 211.079 189.51C209.053 188.661 207.371 187.436 206.032 185.835C204.692 184.234 203.68 182.307 202.994 180.053C202.308 177.799 201.965 175.251 201.965 172.409V141.245H206.669V172.409C206.669 176.982 207.714 180.576 209.805 183.189C211.895 185.77 215.08 187.06 219.36 187.06C222.528 187.06 225.485 186.26 228.229 184.659C231.005 183.026 233.472 180.772 235.628 177.897V141.245H240.332ZM260.844 153.005C261.595 151.012 262.444 149.248 263.392 147.713C264.372 146.145 265.482 144.822 266.724 143.744C267.998 142.666 269.402 141.849 270.938 141.294C272.506 140.706 274.237 140.412 276.132 140.412C277.144 140.412 278.141 140.51 279.121 140.706C280.101 140.869 280.966 141.18 281.718 141.637L281.326 144.871C281.162 145.394 280.852 145.655 280.395 145.655C280.003 145.655 279.398 145.541 278.582 145.312C277.798 145.083 276.752 144.969 275.446 144.969C273.551 144.969 271.869 145.263 270.399 145.851C268.961 146.406 267.655 147.256 266.479 148.399C265.335 149.542 264.323 150.963 263.441 152.662C262.591 154.328 261.807 156.255 261.089 158.444V190H256.385V141.245H258.884C259.439 141.245 259.831 141.359 260.06 141.588C260.288 141.817 260.435 142.209 260.501 142.764L260.844 153.005ZM351.397 129.093C351.103 129.648 350.678 129.926 350.123 129.926C349.699 129.926 349.143 129.632 348.457 129.044C347.804 128.423 346.905 127.754 345.762 127.035C344.619 126.284 343.181 125.598 341.45 124.977C339.751 124.356 337.644 124.046 335.129 124.046C332.614 124.046 330.392 124.405 328.465 125.124C326.57 125.843 324.97 126.823 323.663 128.064C322.389 129.305 321.409 130.743 320.723 132.376C320.07 134.009 319.743 135.724 319.743 137.521C319.743 139.873 320.233 141.817 321.213 143.352C322.226 144.887 323.549 146.194 325.182 147.272C326.815 148.35 328.661 149.265 330.719 150.016C332.81 150.735 334.949 151.453 337.138 152.172C339.327 152.891 341.45 153.691 343.508 154.573C345.599 155.422 347.461 156.5 349.094 157.807C350.727 159.114 352.034 160.731 353.014 162.658C354.027 164.553 354.533 166.921 354.533 169.763C354.533 172.67 354.027 175.414 353.014 177.995C352.034 180.543 350.597 182.764 348.702 184.659C346.807 186.554 344.488 188.056 341.744 189.167C339 190.245 335.864 190.784 332.336 190.784C327.763 190.784 323.826 189.984 320.527 188.383C317.228 186.75 314.337 184.528 311.854 181.719L313.226 179.563C313.618 179.073 314.075 178.828 314.598 178.828C314.892 178.828 315.268 179.024 315.725 179.416C316.182 179.808 316.738 180.298 317.391 180.886C318.044 181.441 318.828 182.062 319.743 182.748C320.658 183.401 321.719 184.022 322.928 184.61C324.137 185.165 325.525 185.639 327.093 186.031C328.661 186.423 330.441 186.619 332.434 186.619C335.178 186.619 337.628 186.211 339.784 185.394C341.94 184.545 343.753 183.401 345.223 181.964C346.726 180.527 347.869 178.828 348.653 176.868C349.437 174.875 349.829 172.752 349.829 170.498C349.829 168.048 349.323 166.039 348.31 164.471C347.33 162.87 346.023 161.547 344.39 160.502C342.757 159.424 340.895 158.526 338.804 157.807C336.746 157.088 334.623 156.386 332.434 155.7C330.245 155.014 328.106 154.246 326.015 153.397C323.957 152.548 322.111 151.47 320.478 150.163C318.845 148.824 317.522 147.174 316.509 145.214C315.529 143.221 315.039 140.739 315.039 137.766C315.039 135.447 315.48 133.209 316.362 131.053C317.244 128.897 318.534 127.002 320.233 125.369C321.932 123.703 324.022 122.38 326.505 121.4C329.02 120.387 331.879 119.881 335.08 119.881C338.673 119.881 341.891 120.453 344.733 121.596C347.608 122.739 350.221 124.487 352.573 126.839L351.397 129.093ZM379.006 190.784C375.706 190.784 373.126 189.869 371.264 188.04C369.434 186.211 368.52 183.385 368.52 179.563V146.243H361.513C361.153 146.243 360.859 146.145 360.631 145.949C360.402 145.753 360.288 145.475 360.288 145.116V143.303L368.618 142.715L369.794 125.271C369.859 124.977 369.99 124.716 370.186 124.487C370.382 124.258 370.659 124.144 371.019 124.144H373.224V142.764H388.61V146.243H373.224V179.318C373.224 180.657 373.387 181.817 373.714 182.797C374.073 183.744 374.547 184.528 375.135 185.149C375.755 185.77 376.474 186.227 377.291 186.521C378.107 186.815 378.989 186.962 379.937 186.962C381.113 186.962 382.125 186.799 382.975 186.472C383.824 186.113 384.559 185.737 385.18 185.345C385.8 184.92 386.307 184.545 386.699 184.218C387.091 183.859 387.401 183.679 387.63 183.679C387.891 183.679 388.152 183.842 388.414 184.169L389.688 186.227C388.446 187.599 386.862 188.71 384.935 189.559C383.04 190.376 381.064 190.784 379.006 190.784ZM426.562 166.431C421.924 166.594 417.922 166.97 414.557 167.558C411.225 168.113 408.465 168.881 406.276 169.861C404.12 170.841 402.52 172.017 401.474 173.389C400.429 174.728 399.906 176.264 399.906 177.995C399.906 179.628 400.168 181.049 400.69 182.258C401.246 183.434 401.964 184.414 402.846 185.198C403.761 185.949 404.806 186.505 405.982 186.864C407.158 187.223 408.383 187.403 409.657 187.403C411.552 187.403 413.283 187.207 414.851 186.815C416.452 186.39 417.922 185.819 419.261 185.1C420.633 184.349 421.907 183.467 423.083 182.454C424.259 181.441 425.419 180.347 426.562 179.171V166.431ZM397.897 148.154C400.445 145.606 403.124 143.679 405.933 142.372C408.743 141.065 411.928 140.412 415.488 140.412C418.102 140.412 420.388 140.837 422.348 141.686C424.308 142.503 425.925 143.695 427.199 145.263C428.506 146.798 429.486 148.677 430.139 150.898C430.793 153.087 431.119 155.537 431.119 158.248V190H429.257C428.277 190 427.673 189.543 427.444 188.628L426.758 182.356C425.419 183.663 424.08 184.839 422.74 185.884C421.434 186.929 420.062 187.811 418.624 188.53C417.187 189.249 415.635 189.804 413.969 190.196C412.303 190.588 410.474 190.784 408.481 190.784C406.815 190.784 405.198 190.539 403.63 190.049C402.062 189.559 400.658 188.808 399.416 187.795C398.208 186.782 397.228 185.492 396.476 183.924C395.758 182.323 395.398 180.412 395.398 178.191C395.398 176.133 395.986 174.222 397.162 172.458C398.338 170.694 400.184 169.159 402.699 167.852C405.215 166.545 408.432 165.5 412.352 164.716C416.305 163.932 421.042 163.475 426.562 163.344V158.248C426.562 153.74 425.582 150.277 423.622 147.86C421.695 145.41 418.82 144.185 414.998 144.185C412.646 144.185 410.637 144.512 408.971 145.165C407.338 145.818 405.95 146.537 404.806 147.321C403.663 148.105 402.732 148.824 402.013 149.477C401.295 150.13 400.69 150.457 400.2 150.457C399.841 150.457 399.547 150.375 399.318 150.212C399.09 150.049 398.894 149.836 398.73 149.575L397.897 148.154ZM451.197 153.005C451.948 151.012 452.798 149.248 453.745 147.713C454.725 146.145 455.836 144.822 457.077 143.744C458.351 142.666 459.756 141.849 461.291 141.294C462.859 140.706 464.59 140.412 466.485 140.412C467.498 140.412 468.494 140.51 469.474 140.706C470.454 140.869 471.32 141.18 472.071 141.637L471.679 144.871C471.516 145.394 471.205 145.655 470.748 145.655C470.356 145.655 469.752 145.541 468.935 145.312C468.151 145.083 467.106 144.969 465.799 144.969C463.904 144.969 462.222 145.263 460.752 145.851C459.315 146.406 458.008 147.256 456.832 148.399C455.689 149.542 454.676 150.963 453.794 152.662C452.945 154.328 452.161 156.255 451.442 158.444V190H446.738V141.245H449.237C449.792 141.245 450.184 141.359 450.413 141.588C450.642 141.817 450.789 142.209 450.854 142.764L451.197 153.005ZM494.711 190.784C491.411 190.784 488.831 189.869 486.969 188.04C485.139 186.211 484.225 183.385 484.225 179.563V146.243H477.218C476.858 146.243 476.564 146.145 476.336 145.949C476.107 145.753 475.993 145.475 475.993 145.116V143.303L484.323 142.715L485.499 125.271C485.564 124.977 485.695 124.716 485.891 124.487C486.087 124.258 486.364 124.144 486.724 124.144H488.929V142.764H504.315V146.243H488.929V179.318C488.929 180.657 489.092 181.817 489.419 182.797C489.778 183.744 490.252 184.528 490.84 185.149C491.46 185.77 492.179 186.227 492.996 186.521C493.812 186.815 494.694 186.962 495.642 186.962C496.818 186.962 497.83 186.799 498.68 186.472C499.529 186.113 500.264 185.737 500.885 185.345C501.505 184.92 502.012 184.545 502.404 184.218C502.796 183.859 503.106 183.679 503.335 183.679C503.596 183.679 503.857 183.842 504.119 184.169L505.393 186.227C504.151 187.599 502.567 188.71 500.64 189.559C498.745 190.376 496.769 190.784 494.711 190.784ZM513.7 158.934H536.485V162.903H513.7V158.934ZM589.074 141.245V190H586.477C585.66 190 585.187 189.575 585.056 188.726L584.615 181.474C582.361 184.283 579.748 186.537 576.775 188.236C573.835 189.935 570.552 190.784 566.926 190.784C564.215 190.784 561.846 190.359 559.821 189.51C557.796 188.661 556.113 187.436 554.774 185.835C553.435 184.234 552.422 182.307 551.736 180.053C551.05 177.799 550.707 175.251 550.707 172.409V141.245H555.411V172.409C555.411 176.982 556.456 180.576 558.547 183.189C560.638 185.77 563.823 187.06 568.102 187.06C571.271 187.06 574.227 186.26 576.971 184.659C579.748 183.026 582.214 180.772 584.37 177.897V141.245H589.074ZM609.831 179.367C610.778 180.772 611.758 181.964 612.771 182.944C613.816 183.891 614.91 184.675 616.054 185.296C617.197 185.884 618.406 186.309 619.68 186.57C620.986 186.831 622.358 186.962 623.796 186.962C626.67 186.962 629.186 186.439 631.342 185.394C633.498 184.349 635.294 182.879 636.732 180.984C638.202 179.057 639.296 176.77 640.015 174.124C640.766 171.445 641.142 168.505 641.142 165.304C641.142 158.052 639.802 152.727 637.124 149.33C634.445 145.9 630.607 144.185 625.609 144.185C622.375 144.185 619.451 145.018 616.838 146.684C614.224 148.35 611.889 150.669 609.831 153.642V179.367ZM609.635 150.016C611.791 147.076 614.306 144.74 617.181 143.009C620.088 141.278 623.338 140.412 626.932 140.412C632.91 140.412 637.565 142.486 640.897 146.635C644.261 150.784 645.944 157.007 645.944 165.304C645.944 168.865 645.47 172.197 644.523 175.3C643.608 178.371 642.236 181.049 640.407 183.336C638.61 185.59 636.389 187.37 633.743 188.677C631.129 189.984 628.108 190.637 624.678 190.637C621.378 190.637 618.52 190.033 616.103 188.824C613.685 187.615 611.595 185.835 609.831 183.483V207.248H605.127V141.245H607.724C608.54 141.245 609.014 141.653 609.145 142.47L609.635 150.016ZM705.868 166.872C705.868 170.759 705.394 174.189 704.447 177.162C703.499 180.135 702.127 182.634 700.331 184.659C698.534 186.684 696.362 188.22 693.814 189.265C691.266 190.278 688.391 190.784 685.19 190.784C683.72 190.784 682.233 190.67 680.731 190.441C679.228 190.212 677.676 189.853 676.076 189.363C676.108 188.906 676.141 188.448 676.174 187.991C676.239 187.534 676.304 187.076 676.37 186.619C676.435 186.325 676.549 186.064 676.713 185.835C676.909 185.606 677.235 185.492 677.693 185.492C677.987 185.492 678.33 185.557 678.722 185.688C679.146 185.786 679.636 185.9 680.192 186.031C680.747 186.162 681.4 186.292 682.152 186.423C682.903 186.521 683.769 186.57 684.749 186.57C687.231 186.57 689.469 186.178 691.462 185.394C693.454 184.61 695.153 183.418 696.558 181.817C697.962 180.184 699.024 178.142 699.743 175.692C700.494 173.209 700.87 170.302 700.87 166.97V120.665H705.868V166.872ZM740.808 140.461C744.303 140.461 747.423 141.065 750.167 142.274C752.943 143.45 755.279 145.132 757.174 147.321C759.068 149.51 760.506 152.156 761.486 155.259C762.498 158.33 763.005 161.776 763.005 165.598C763.005 169.42 762.498 172.866 761.486 175.937C760.506 179.008 759.068 181.637 757.174 183.826C755.279 186.015 752.943 187.697 750.167 188.873C747.423 190.049 744.303 190.637 740.808 190.637C737.312 190.637 734.176 190.049 731.4 188.873C728.656 187.697 726.32 186.015 724.393 183.826C722.498 181.637 721.044 179.008 720.032 175.937C719.052 172.866 718.562 169.42 718.562 165.598C718.562 161.776 719.052 158.33 720.032 155.259C721.044 152.156 722.498 149.51 724.393 147.321C726.32 145.132 728.656 143.45 731.4 142.274C734.176 141.065 737.312 140.461 740.808 140.461ZM740.808 186.962C743.715 186.962 746.247 186.472 748.403 185.492C750.591 184.479 752.404 183.042 753.842 181.18C755.312 179.318 756.406 177.08 757.125 174.467C757.843 171.821 758.203 168.865 758.203 165.598C758.203 162.364 757.843 159.424 757.125 156.778C756.406 154.132 755.312 151.878 753.842 150.016C752.404 148.121 750.591 146.668 748.403 145.655C746.247 144.642 743.715 144.136 740.808 144.136C737.9 144.136 735.352 144.642 733.164 145.655C731.008 146.668 729.195 148.121 727.725 150.016C726.287 151.878 725.193 154.132 724.442 156.778C723.723 159.424 723.364 162.364 723.364 165.598C723.364 168.865 723.723 171.821 724.442 174.467C725.193 177.08 726.287 179.318 727.725 181.18C729.195 183.042 731.008 184.479 733.164 185.492C735.352 186.472 737.9 186.962 740.808 186.962ZM813.976 141.245V190H811.379C810.563 190 810.089 189.575 809.958 188.726L809.517 181.474C807.263 184.283 804.65 186.537 801.677 188.236C798.737 189.935 795.454 190.784 791.828 190.784C789.117 190.784 786.749 190.359 784.723 189.51C782.698 188.661 781.016 187.436 779.676 185.835C778.337 184.234 777.324 182.307 776.638 180.053C775.952 177.799 775.609 175.251 775.609 172.409V141.245H780.313V172.409C780.313 176.982 781.359 180.576 783.449 183.189C785.54 185.77 788.725 187.06 793.004 187.06C796.173 187.06 799.129 186.26 801.873 184.659C804.65 183.026 807.116 180.772 809.272 177.897V141.245H813.976ZM834.488 153.005C835.239 151.012 836.089 149.248 837.036 147.713C838.016 146.145 839.127 144.822 840.368 143.744C841.642 142.666 843.047 141.849 844.582 141.294C846.15 140.706 847.881 140.412 849.776 140.412C850.789 140.412 851.785 140.51 852.765 140.706C853.745 140.869 854.611 141.18 855.362 141.637L854.97 144.871C854.807 145.394 854.496 145.655 854.039 145.655C853.647 145.655 853.043 145.541 852.226 145.312C851.442 145.083 850.397 144.969 849.09 144.969C847.195 144.969 845.513 145.263 844.043 145.851C842.606 146.406 841.299 147.256 840.123 148.399C838.98 149.542 837.967 150.963 837.085 152.662C836.236 154.328 835.452 156.255 834.733 158.444V190H830.029V141.245H832.528C833.083 141.245 833.475 141.359 833.704 141.588C833.933 141.817 834.08 142.209 834.145 142.764L834.488 153.005ZM869.133 149.771C871.387 146.962 873.984 144.708 876.924 143.009C879.896 141.31 883.196 140.461 886.822 140.461C889.5 140.461 891.852 140.886 893.878 141.735C895.936 142.584 897.634 143.809 898.974 145.41C900.313 147.011 901.326 148.938 902.012 151.192C902.698 153.446 903.041 155.994 903.041 158.836V190H898.337V158.836C898.337 154.263 897.291 150.686 895.201 148.105C893.11 145.492 889.925 144.185 885.646 144.185C882.477 144.185 879.504 145.002 876.728 146.635C873.984 148.236 871.534 150.473 869.378 153.348V190H864.674V141.245H867.271C868.087 141.245 868.561 141.653 868.692 142.47L869.133 149.771ZM952.757 160.698C952.757 158.085 952.381 155.749 951.63 153.691C950.911 151.6 949.882 149.836 948.543 148.399C947.203 146.962 945.603 145.867 943.741 145.116C941.911 144.332 939.886 143.94 937.665 143.94C935.149 143.94 932.895 144.332 930.903 145.116C928.91 145.9 927.179 147.027 925.709 148.497C924.271 149.967 923.112 151.731 922.23 153.789C921.348 155.847 920.76 158.15 920.466 160.698H952.757ZM920.221 163.687V164.618C920.221 168.277 920.645 171.494 921.495 174.271C922.344 177.048 923.553 179.383 925.121 181.278C926.689 183.14 928.583 184.545 930.805 185.492C933.026 186.439 935.509 186.913 938.253 186.913C940.703 186.913 942.826 186.652 944.623 186.129C946.419 185.574 947.922 184.969 949.131 184.316C950.372 183.63 951.352 183.026 952.071 182.503C952.789 181.948 953.312 181.67 953.639 181.67C954.063 181.67 954.39 181.833 954.619 182.16L955.893 183.728C955.109 184.708 954.063 185.623 952.757 186.472C951.483 187.321 950.045 188.056 948.445 188.677C946.877 189.265 945.178 189.739 943.349 190.098C941.552 190.457 939.739 190.637 937.91 190.637C934.578 190.637 931.54 190.065 928.796 188.922C926.052 187.746 923.7 186.047 921.74 183.826C919.78 181.605 918.261 178.893 917.183 175.692C916.137 172.458 915.615 168.767 915.615 164.618C915.615 161.123 916.105 157.905 917.085 154.965C918.097 151.992 919.535 149.444 921.397 147.321C923.291 145.165 925.594 143.483 928.306 142.274C931.05 141.065 934.153 140.461 937.616 140.461C940.36 140.461 942.908 140.935 945.26 141.882C947.612 142.829 949.653 144.218 951.385 146.047C953.116 147.844 954.472 150.065 955.452 152.711C956.464 155.357 956.971 158.395 956.971 161.825C956.971 162.544 956.873 163.034 956.677 163.295C956.481 163.556 956.154 163.687 955.697 163.687H920.221ZM1008 141.245L979.975 205.68C979.779 206.137 979.518 206.513 979.191 206.807C978.897 207.101 978.456 207.248 977.868 207.248H974.536L983.111 188.187L962.482 141.245H966.353C966.843 141.245 967.235 141.376 967.529 141.637C967.823 141.866 968.019 142.127 968.117 142.421L984.532 180.347C984.728 180.837 984.892 181.343 985.022 181.866C985.186 182.356 985.333 182.862 985.463 183.385C985.627 182.862 985.79 182.356 985.953 181.866C986.149 181.343 986.345 180.837 986.541 180.347L1002.76 142.421C1002.92 142.062 1003.15 141.784 1003.45 141.588C1003.74 141.359 1004.07 141.245 1004.43 141.245H1008Z" fill="white"/>
</svg>
