<?xml version="1.0" standalone="no"?>
<!DOCTYPE svg PUBLIC "-//W3C//DTD SVG 20010904//EN"
 "http://www.w3.org/TR/2001/REC-SVG-20010904/DTD/svg10.dtd">
<svg version="1.0" xmlns="http://www.w3.org/2000/svg"
 width="225.000000pt" height="225.000000pt" viewBox="0 0 225.000000 225.000000"
 preserveAspectRatio="xMidYMid meet">

<g transform="translate(0.000000,225.000000) scale(0.100000,-0.100000)"
fill="#000000" stroke="none">
<path d="M344 1950 c-72 -28 -137 -89 -170 -158 -23 -47 -28 -71 -28 -132 0
-97 28 -162 95 -225 67 -63 127 -87 216 -87 123 0 228 66 283 177 34 70 35
188 2 260 -29 64 -83 120 -147 153 -69 35 -179 41 -251 12z m191 -119 c188
-85 126 -365 -80 -363 -63 0 -101 18 -143 66 -134 153 38 382 223 297z"/>
<path d="M1700 1961 c-76 -23 -146 -84 -187 -164 -23 -44 -28 -64 -28 -132 1
-104 27 -167 99 -233 70 -63 135 -86 229 -80 122 8 220 76 270 187 32 70 29
181 -7 254 -33 69 -110 140 -173 161 -48 17 -159 20 -203 7z m205 -145 c120
-92 106 -259 -28 -328 -60 -30 -143 -22 -194 18 -45 36 -83 105 -83 151 0 69
52 150 115 179 18 9 54 13 91 11 49 -2 69 -8 99 -31z"/>
<path d="M1049 1656 c-147 -52 -229 -186 -208 -339 21 -155 147 -267 301 -267
128 0 234 64 288 175 36 72 36 198 0 270 -33 68 -99 129 -166 154 -63 24 -159
27 -215 7z m174 -119 c45 -19 105 -89 113 -132 38 -205 -217 -323 -343 -158
-25 33 -28 45 -28 113 0 68 3 80 28 113 53 69 151 96 230 64z"/>
<path d="M280 1302 c-117 -32 -161 -60 -193 -122 -44 -89 -58 -181 -64 -442
l-6 -238 60 0 60 0 6 233 c6 243 21 350 55 396 36 48 103 65 257 66 127 0 146
-2 200 -25 57 -24 61 -28 77 -75 24 -75 40 -219 27 -253 -27 -67 -40 -190 -46
-411 l-6 -234 33 6 c18 4 45 7 60 7 l27 0 6 223 c6 215 20 329 48 389 8 20 29
34 68 50 49 20 74 23 201 23 132 0 150 -2 198 -24 59 -27 74 -48 91 -131 15
-76 31 -292 31 -420 l0 -107 38 -7 c20 -3 48 -6 61 -6 l24 0 -6 202 c-9 286
-32 435 -78 499 -22 32 -24 72 -5 151 20 87 36 104 116 129 60 18 89 20 198
17 111 -3 134 -7 183 -29 54 -26 56 -28 72 -85 23 -84 37 -242 37 -420 l0
-154 38 0 c20 0 48 -3 61 -7 l24 -6 -6 234 c-7 331 -37 463 -116 516 -76 51
-137 66 -295 71 -141 4 -152 3 -233 -23 -144 -47 -168 -79 -208 -281 -5 -20
-6 -21 -57 -8 -84 22 -282 18 -363 -7 -37 -11 -69 -18 -72 -15 -3 2 -11 37
-19 77 -26 140 -64 186 -187 229 -87 32 -303 38 -397 12z"/>
</g>
</svg>
