<?xml version="1.0" standalone="no"?>
<!DOCTYPE svg PUBLIC "-//W3C//DTD SVG 20010904//EN"
 "http://www.w3.org/TR/2001/REC-SVG-20010904/DTD/svg10.dtd">
<svg version="1.0" xmlns="http://www.w3.org/2000/svg"
 width="231.000000pt" height="218.000000pt" viewBox="0 0 231.000000 218.000000"
 preserveAspectRatio="xMidYMid meet">

<g transform="translate(0.000000,218.000000) scale(0.100000,-0.100000)"
fill="#000000" stroke="none">
<path d="M630 2151 c-6 -12 -10 -121 -10 -285 l0 -266 -299 0 c-240 0 -301 -3
-310 -14 -8 -9 -10 -205 -9 -717 l3 -704 83 -3 c82 -3 83 -2 80 20 -3 21 -9
23 -61 26 l-57 3 2 667 3 667 282 3 283 2 2 -342 c3 -326 4 -343 22 -346 10
-2 22 2 27 10 5 7 9 291 9 631 l0 617 475 0 475 0 0 -618 c0 -628 1 -649 36
-635 12 4 14 65 14 344 l0 339 288 -2 287 -3 3 -667 2 -667 -82 -3 c-78 -3
-83 -4 -86 -26 -3 -23 -3 -23 105 -20 l108 3 3 704 c1 512 -1 708 -9 717 -9
11 -71 14 -315 14 l-304 0 0 273 c0 199 -3 276 -12 285 -9 9 -138 12 -520 12
-491 0 -508 -1 -518 -19z"/>
<path d="M789 2009 c-6 -3 -8 -62 -7 -135 l3 -129 370 0 370 0 3 133 c1 72 -1
132 -5 132 -236 4 -727 3 -734 -1z"/>
<path d="M800 1478 l0 -83 80 0 80 0 0 83 0 82 -80 0 -80 0 0 -82z"/>
<path d="M1070 1478 l0 -83 82 2 83 1 3 81 3 81 -86 0 -85 0 0 -82z"/>
<path d="M1342 1479 l3 -81 83 -1 82 -2 0 83 0 82 -85 0 -86 0 3 -81z"/>
<path d="M180 1225 l0 -45 150 0 150 0 0 45 0 45 -150 0 -150 0 0 -45z"/>
<path d="M1820 1225 l0 -45 155 0 155 0 0 45 0 45 -155 0 -155 0 0 -45z"/>
<path d="M800 1171 l0 -79 80 -4 80 -3 0 83 0 82 -80 0 -80 0 0 -79z"/>
<path d="M1070 1170 l0 -80 85 0 85 0 0 80 0 80 -85 0 -85 0 0 -80z"/>
<path d="M1340 1170 l0 -80 85 0 85 0 0 80 0 80 -85 0 -85 0 0 -80z"/>
<path d="M180 1035 l0 -45 150 0 150 0 0 45 0 45 -150 0 -150 0 0 -45z"/>
<path d="M1820 1035 l0 -45 155 0 155 0 0 45 0 45 -155 0 -155 0 0 -45z"/>
<path d="M1043 945 c-65 -33 -93 -84 -93 -169 0 -34 -6 -66 -15 -80 -14 -21
-13 -27 17 -86 46 -90 113 -159 160 -167 79 -12 127 22 194 136 43 74 54 114
34 126 -5 3 -10 34 -10 67 0 120 -60 185 -178 195 -48 4 -66 0 -109 -22z m55
-128 c58 -35 88 -46 148 -53 34 -4 53 -11 51 -18 -19 -49 -18 -56 2 -56 31 0
26 -25 -19 -101 -52 -87 -89 -119 -141 -119 -55 0 -81 20 -139 110 -55 86 -61
110 -29 110 19 0 20 4 14 48 -5 40 -3 52 15 75 26 33 49 34 98 4z"/>
<path d="M180 840 l0 -50 150 0 150 0 0 50 0 50 -150 0 -150 0 0 -50z"/>
<path d="M1827 883 c-4 -3 -7 -26 -7 -50 l0 -43 155 0 155 0 0 50 0 50 -148 0
c-82 0 -152 -3 -155 -7z"/>
<path d="M1565 716 c-93 -40 -152 -205 -114 -315 9 -26 16 -31 43 -31 l33 0
-10 48 c-14 66 -2 131 35 188 28 45 32 47 42 29 20 -36 166 -166 166 -148 0 5
-5 14 -12 21 -6 6 -9 14 -6 18 4 3 15 -7 25 -22 12 -20 17 -44 16 -81 -2 -47
0 -53 18 -53 27 0 39 37 39 118 -1 101 -48 189 -122 228 -34 17 -113 18 -153
0z"/>
<path d="M525 666 c-50 -22 -69 -52 -71 -108 -1 -27 -5 -52 -8 -55 -12 -12 -6
-46 16 -82 75 -126 150 -131 222 -12 37 60 44 85 26 96 -5 3 -9 26 -8 50 1 47
-19 87 -51 104 -33 18 -95 22 -126 7z m49 -101 c27 -14 63 -25 79 -25 26 0 29
-3 25 -25 -4 -17 -1 -25 8 -25 20 0 17 -19 -7 -60 -69 -116 -127 -120 -195
-15 -38 60 -42 75 -18 75 12 0 14 7 9 29 -8 35 9 71 33 71 9 0 39 -11 66 -25z"/>
<path d="M978 380 c-9 -6 -53 -21 -96 -33 -139 -40 -156 -63 -168 -215 -5 -68
-4 -96 6 -107 11 -13 67 -15 421 -15 315 0 410 3 416 13 4 6 6 40 4 75 -1 38
2 69 10 78 8 10 9 25 1 54 -6 24 -6 42 -1 46 17 10 -3 25 -31 22 -15 -1 -35 3
-43 11 -9 7 -58 25 -109 40 -51 16 -100 31 -109 35 -13 6 -21 -10 -44 -89 -16
-52 -31 -95 -35 -95 -4 0 -13 24 -20 53 -10 42 -10 59 -1 76 16 29 -1 51 -39
51 -38 0 -55 -22 -39 -51 9 -17 9 -34 -1 -76 -7 -29 -16 -53 -20 -53 -4 0 -13
19 -20 43 -21 72 -51 147 -58 147 -4 0 -15 -5 -24 -10z"/>
<path d="M1783 278 c9 -13 24 -35 32 -50 15 -28 15 -28 -14 -28 -22 0 -47 -15
-93 -55 -35 -30 -69 -53 -75 -50 -8 3 -13 -5 -13 -20 l0 -25 188 0 189 0 -9
56 c-14 90 -50 128 -167 174 l-54 21 16 -23z"/>
<path d="M470 280 c-8 -4 -40 -13 -70 -20 -30 -7 -65 -20 -77 -28 -27 -17 -45
-77 -41 -135 l3 -42 181 -3 181 -2 7 31 c3 17 6 50 6 73 0 22 5 58 11 80 7 26
7 42 0 49 -6 6 -15 -9 -27 -49 -23 -81 -26 -84 -39 -38 -7 21 -8 43 -3 49 17
19 8 35 -20 35 -27 0 -28 -2 -28 -50 0 -77 -17 -81 -39 -10 -20 67 -24 72 -45
60z"/>
</g>
</svg>
