<?xml version="1.0" standalone="no"?>
<!DOCTYPE svg PUBLIC "-//W3C//DTD SVG 20010904//EN"
 "http://www.w3.org/TR/2001/REC-SVG-20010904/DTD/svg10.dtd">
<svg version="1.0" xmlns="http://www.w3.org/2000/svg"
 width="512.000000pt" height="512.000000pt" viewBox="0 0 512.000000 512.000000"
 preserveAspectRatio="xMidYMid meet">

<g transform="translate(0.000000,512.000000) scale(0.100000,-0.100000)"
fill="#000000" stroke="none">
<path d="M1892 5104 c-467 -78 -840 -455 -917 -925 -98 -609 317 -1185 926
-1284 609 -98 1185 317 1284 926 98 609 -317 1185 -926 1284 -114 18 -255 18
-367 -1z"/>
<path d="M4255 5106 c-37 -17 -70 -52 -84 -89 -6 -16 -11 -77 -11 -136 l0
-109 -57 -28 c-72 -34 -172 -132 -207 -202 -95 -187 -65 -399 77 -550 87 -91
185 -137 324 -151 90 -9 118 -23 157 -75 16 -20 21 -42 21 -86 0 -63 -16 -95
-69 -134 -25 -19 -45 -21 -246 -26 -239 -5 -244 -7 -294 -74 -29 -39 -29 -133
0 -172 44 -60 67 -69 184 -72 l108 -4 4 -108 c3 -117 12 -140 72 -184 39 -29
133 -29 172 0 62 45 69 65 72 198 l4 122 56 29 c72 37 172 135 206 203 95 187
65 399 -77 550 -87 91 -185 137 -324 151 -90 9 -118 23 -157 75 -29 39 -29
133 0 172 50 67 55 69 294 74 201 5 221 7 246 26 53 39 69 71 69 134 0 63 -16
95 -69 134 -23 18 -45 22 -136 24 l-108 4 -4 108 c-3 117 -12 140 -70 183 -34
25 -113 32 -153 13z"/>
<path d="M789 2545 c-193 -36 -361 -125 -505 -269 -147 -147 -234 -314 -269
-513 -22 -125 -22 -992 0 -1076 45 -173 178 -307 350 -352 51 -13 200 -15
1127 -15 l1068 0 0 320 0 320 320 0 320 0 0 160 0 160 320 0 320 0 0 320 0
320 130 0 c72 0 130 2 130 5 0 18 -66 147 -106 206 -93 141 -219 253 -369 327
-149 75 -295 106 -469 100 l-98 -3 -336 -768 c-185 -422 -339 -762 -342 -755
-4 7 -51 194 -105 416 l-99 403 193 193 194 194 -242 161 -241 161 -241 -161
-242 -161 193 -193 193 -193 -103 -413 c-71 -283 -106 -408 -113 -399 -5 8
-156 353 -337 765 l-328 750 -118 2 c-67 1 -152 -5 -195 -12z"/>
<path d="M4800 1280 l0 -1280 160 0 160 0 0 1280 0 1280 -160 0 -160 0 0
-1280z"/>
<path d="M4160 800 l0 -800 160 0 160 0 0 800 0 800 -160 0 -160 0 0 -800z"/>
<path d="M3520 480 l0 -480 160 0 160 0 0 480 0 480 -160 0 -160 0 0 -480z"/>
<path d="M2880 320 l0 -320 160 0 160 0 0 320 0 320 -160 0 -160 0 0 -320z"/>
</g>
</svg>
