<svg width="168" height="46" viewBox="0 0 168 46" fill="none" xmlns="http://www.w3.org/2000/svg">
<path d="M8.79424 13.212L6.76924 7.965C6.70924 7.809 6.64624 7.629 6.58024 7.425C6.51424 7.215 6.45124 6.993 6.39124 6.759C6.26524 7.245 6.13624 7.65 6.00424 7.974L3.97924 13.212H8.79424ZM12.4302 18H11.0802C10.9242 18 10.7982 17.961 10.7022 17.883C10.6062 17.805 10.5342 17.706 10.4862 17.586L9.28024 14.472H3.49324L2.28724 17.586C2.25124 17.694 2.18224 17.79 2.08024 17.874C1.97824 17.958 1.85224 18 1.70224 18H0.352241L5.50924 5.103H7.27324L12.4302 18ZM23.0955 11.052C22.7955 10.65 22.4715 10.371 22.1235 10.215C21.7755 10.053 21.3855 9.972 20.9535 9.972C20.1075 9.972 19.4565 10.275 19.0005 10.881C18.5445 11.487 18.3165 12.351 18.3165 13.473C18.3165 14.067 18.3675 14.577 18.4695 15.003C18.5715 15.423 18.7215 15.771 18.9195 16.047C19.1175 16.317 19.3605 16.515 19.6485 16.641C19.9365 16.767 20.2635 16.83 20.6295 16.83C21.1575 16.83 21.6165 16.71 22.0065 16.47C22.4025 16.23 22.7655 15.891 23.0955 15.453V11.052ZM24.6975 4.743V18H23.7435C23.5155 18 23.3715 17.889 23.3115 17.667L23.1675 16.56C22.7775 17.028 22.3335 17.406 21.8355 17.694C21.3375 17.982 20.7615 18.126 20.1075 18.126C19.5855 18.126 19.1115 18.027 18.6855 17.829C18.2595 17.625 17.8965 17.328 17.5965 16.938C17.2965 16.548 17.0655 16.062 16.9035 15.48C16.7415 14.898 16.6605 14.229 16.6605 13.473C16.6605 12.801 16.7505 12.177 16.9305 11.601C17.1105 11.019 17.3685 10.515 17.7045 10.089C18.0405 9.663 18.4515 9.33 18.9375 9.09C19.4295 8.844 19.9815 8.721 20.5935 8.721C21.1515 8.721 21.6285 8.817 22.0245 9.009C22.4265 9.195 22.7835 9.456 23.0955 9.792V4.743H24.6975ZM38.6398 8.883L34.9228 18H33.4828L29.7658 8.883H31.0708C31.2028 8.883 31.3108 8.916 31.3948 8.982C31.4788 9.048 31.5358 9.126 31.5658 9.216L33.8788 15.084C33.9508 15.306 34.0138 15.522 34.0678 15.732C34.1218 15.942 34.1728 16.152 34.2208 16.362C34.2688 16.152 34.3198 15.942 34.3738 15.732C34.4278 15.522 34.4938 15.306 34.5718 15.084L36.9118 9.216C36.9478 9.12 37.0078 9.042 37.0918 8.982C37.1758 8.916 37.2748 8.883 37.3888 8.883H38.6398ZM45.401 8.883V18H43.799V8.883H45.401ZM45.743 6.021C45.743 6.177 45.71 6.324 45.644 6.462C45.584 6.594 45.5 6.714 45.392 6.822C45.29 6.924 45.167 7.005 45.023 7.065C44.885 7.125 44.738 7.155 44.582 7.155C44.426 7.155 44.279 7.125 44.141 7.065C44.009 7.005 43.892 6.924 43.79 6.822C43.688 6.714 43.607 6.594 43.547 6.462C43.487 6.324 43.457 6.177 43.457 6.021C43.457 5.865 43.487 5.718 43.547 5.58C43.607 5.436 43.688 5.313 43.79 5.211C43.892 5.103 44.009 5.019 44.141 4.959C44.279 4.899 44.426 4.869 44.582 4.869C44.738 4.869 44.885 4.899 45.023 4.959C45.167 5.019 45.29 5.103 45.392 5.211C45.5 5.313 45.584 5.436 45.644 5.58C45.71 5.718 45.743 5.865 45.743 6.021ZM56.9433 10.386C56.8713 10.518 56.7603 10.584 56.6103 10.584C56.5203 10.584 56.4183 10.551 56.3043 10.485C56.1903 10.419 56.0493 10.347 55.8813 10.269C55.7193 10.185 55.5243 10.11 55.2963 10.044C55.0683 9.972 54.7983 9.936 54.4863 9.936C54.2163 9.936 53.9733 9.972 53.7573 10.044C53.5413 10.11 53.3553 10.203 53.1993 10.323C53.0493 10.443 52.9323 10.584 52.8483 10.746C52.7703 10.902 52.7313 11.073 52.7313 11.259C52.7313 11.493 52.7973 11.688 52.9293 11.844C53.0673 12 53.2473 12.135 53.4693 12.249C53.6913 12.363 53.9433 12.465 54.2253 12.555C54.5073 12.639 54.7953 12.732 55.0893 12.834C55.3893 12.93 55.6803 13.038 55.9623 13.158C56.2443 13.278 56.4963 13.428 56.7183 13.608C56.9403 13.788 57.1173 14.01 57.2493 14.274C57.3873 14.532 57.4563 14.844 57.4563 15.21C57.4563 15.63 57.3813 16.02 57.2313 16.38C57.0813 16.734 56.8593 17.043 56.5653 17.307C56.2713 17.565 55.9113 17.769 55.4853 17.919C55.0593 18.069 54.5673 18.144 54.0093 18.144C53.3733 18.144 52.7973 18.042 52.2813 17.838C51.7653 17.628 51.3273 17.361 50.9673 17.037L51.3453 16.425C51.3933 16.347 51.4503 16.287 51.5163 16.245C51.5823 16.203 51.6663 16.182 51.7683 16.182C51.8763 16.182 51.9903 16.224 52.1103 16.308C52.2303 16.392 52.3743 16.485 52.5423 16.587C52.7163 16.689 52.9263 16.782 53.1723 16.866C53.4183 16.95 53.7243 16.992 54.0903 16.992C54.4023 16.992 54.6753 16.953 54.9093 16.875C55.1433 16.791 55.3383 16.68 55.4943 16.542C55.6503 16.404 55.7643 16.245 55.8363 16.065C55.9143 15.885 55.9533 15.693 55.9533 15.489C55.9533 15.237 55.8843 15.03 55.7463 14.868C55.6143 14.7 55.4373 14.559 55.2153 14.445C54.9933 14.325 54.7383 14.223 54.4503 14.139C54.1683 14.049 53.8773 13.956 53.5773 13.86C53.2833 13.764 52.9923 13.656 52.7043 13.536C52.4223 13.41 52.1703 13.254 51.9483 13.068C51.7263 12.882 51.5463 12.654 51.4083 12.384C51.2763 12.108 51.2103 11.775 51.2103 11.385C51.2103 11.037 51.2823 10.704 51.4263 10.386C51.5703 10.062 51.7803 9.78 52.0563 9.54C52.3323 9.294 52.6713 9.099 53.0733 8.955C53.4753 8.811 53.9343 8.739 54.4503 8.739C55.0503 8.739 55.5873 8.835 56.0613 9.027C56.5413 9.213 56.9553 9.471 57.3033 9.801L56.9433 10.386ZM66.8634 8.739C67.5294 8.739 68.1294 8.85 68.6634 9.072C69.1974 9.294 69.6534 9.609 70.0314 10.017C70.4094 10.425 70.6974 10.92 70.8954 11.502C71.0994 12.078 71.2014 12.723 71.2014 13.437C71.2014 14.157 71.0994 14.805 70.8954 15.381C70.6974 15.957 70.4094 16.449 70.0314 16.857C69.6534 17.265 69.1974 17.58 68.6634 17.802C68.1294 18.018 67.5294 18.126 66.8634 18.126C66.1914 18.126 65.5854 18.018 65.0454 17.802C64.5114 17.58 64.0554 17.265 63.6774 16.857C63.2994 16.449 63.0084 15.957 62.8044 15.381C62.6064 14.805 62.5074 14.157 62.5074 13.437C62.5074 12.723 62.6064 12.078 62.8044 11.502C63.0084 10.92 63.2994 10.425 63.6774 10.017C64.0554 9.609 64.5114 9.294 65.0454 9.072C65.5854 8.85 66.1914 8.739 66.8634 8.739ZM66.8634 16.875C67.7634 16.875 68.4354 16.575 68.8794 15.975C69.3234 15.369 69.5454 14.526 69.5454 13.446C69.5454 12.36 69.3234 11.514 68.8794 10.908C68.4354 10.302 67.7634 9.999 66.8634 9.999C66.4074 9.999 66.0084 10.077 65.6664 10.233C65.3304 10.389 65.0484 10.614 64.8204 10.908C64.5984 11.202 64.4304 11.565 64.3164 11.997C64.2084 12.423 64.1544 12.906 64.1544 13.446C64.1544 14.526 64.3764 15.369 64.8204 15.975C65.2704 16.575 65.9514 16.875 66.8634 16.875ZM78.3543 10.71C78.6423 10.086 78.9963 9.6 79.4163 9.252C79.8363 8.898 80.3493 8.721 80.9553 8.721C81.1473 8.721 81.3303 8.742 81.5043 8.784C81.6843 8.826 81.8433 8.892 81.9813 8.982L81.8643 10.179C81.8283 10.329 81.7383 10.404 81.5943 10.404C81.5103 10.404 81.3873 10.386 81.2253 10.35C81.0633 10.314 80.8803 10.296 80.6763 10.296C80.3883 10.296 80.1303 10.338 79.9023 10.422C79.6803 10.506 79.4793 10.632 79.2993 10.8C79.1253 10.962 78.9663 11.166 78.8223 11.412C78.6843 11.652 78.5583 11.928 78.4443 12.24V18H76.8333V8.883H77.7513C77.9253 8.883 78.0453 8.916 78.1113 8.982C78.1773 9.048 78.2223 9.162 78.2463 9.324L78.3543 10.71ZM94.8559 8.883L89.7709 20.691C89.7169 20.811 89.6479 20.907 89.5639 20.979C89.4859 21.051 89.3629 21.087 89.1949 21.087H88.0069L89.6719 17.469L85.9099 8.883H87.2959C87.4339 8.883 87.5419 8.919 87.6199 8.991C87.7039 9.057 87.7609 9.132 87.7909 9.216L90.2299 14.958C90.3259 15.21 90.4069 15.474 90.4729 15.75C90.5569 15.468 90.6469 15.201 90.7429 14.949L93.1099 9.216C93.1459 9.12 93.2059 9.042 93.2899 8.982C93.3799 8.916 93.4789 8.883 93.5869 8.883H94.8559ZM112.542 16.614C113.04 16.614 113.469 16.557 113.829 16.443C114.189 16.329 114.483 16.17 114.711 15.966C114.945 15.756 115.116 15.51 115.224 15.228C115.332 14.94 115.386 14.625 115.386 14.283C115.386 13.617 115.149 13.092 114.675 12.708C114.201 12.318 113.49 12.123 112.542 12.123H109.752V16.614H112.542ZM109.752 6.48V10.881H112.056C112.548 10.881 112.974 10.827 113.334 10.719C113.7 10.611 114 10.461 114.234 10.269C114.474 10.077 114.651 9.846 114.765 9.576C114.879 9.3 114.936 9 114.936 8.676C114.936 7.914 114.708 7.359 114.252 7.011C113.796 6.657 113.088 6.48 112.128 6.48H109.752ZM112.128 5.103C112.92 5.103 113.601 5.181 114.171 5.337C114.747 5.493 115.218 5.715 115.584 6.003C115.956 6.291 116.229 6.645 116.403 7.065C116.577 7.479 116.664 7.947 116.664 8.469C116.664 8.787 116.613 9.093 116.511 9.387C116.415 9.675 116.268 9.945 116.07 10.197C115.872 10.449 115.62 10.677 115.314 10.881C115.014 11.079 114.66 11.241 114.252 11.367C115.2 11.547 115.911 11.886 116.385 12.384C116.865 12.876 117.105 13.524 117.105 14.328C117.105 14.874 117.003 15.372 116.799 15.822C116.601 16.272 116.307 16.659 115.917 16.983C115.533 17.307 115.059 17.559 114.495 17.739C113.931 17.913 113.289 18 112.569 18H108.015V5.103H112.128ZM126.576 8.739C127.242 8.739 127.842 8.85 128.376 9.072C128.91 9.294 129.366 9.609 129.744 10.017C130.122 10.425 130.41 10.92 130.608 11.502C130.812 12.078 130.914 12.723 130.914 13.437C130.914 14.157 130.812 14.805 130.608 15.381C130.41 15.957 130.122 16.449 129.744 16.857C129.366 17.265 128.91 17.58 128.376 17.802C127.842 18.018 127.242 18.126 126.576 18.126C125.904 18.126 125.298 18.018 124.758 17.802C124.224 17.58 123.768 17.265 123.39 16.857C123.012 16.449 122.721 15.957 122.517 15.381C122.319 14.805 122.22 14.157 122.22 13.437C122.22 12.723 122.319 12.078 122.517 11.502C122.721 10.92 123.012 10.425 123.39 10.017C123.768 9.609 124.224 9.294 124.758 9.072C125.298 8.85 125.904 8.739 126.576 8.739ZM126.576 16.875C127.476 16.875 128.148 16.575 128.592 15.975C129.036 15.369 129.258 14.526 129.258 13.446C129.258 12.36 129.036 11.514 128.592 10.908C128.148 10.302 127.476 9.999 126.576 9.999C126.12 9.999 125.721 10.077 125.379 10.233C125.043 10.389 124.761 10.614 124.533 10.908C124.311 11.202 124.143 11.565 124.029 11.997C123.921 12.423 123.867 12.906 123.867 13.446C123.867 14.526 124.089 15.369 124.533 15.975C124.983 16.575 125.664 16.875 126.576 16.875ZM141.487 13.896C140.749 13.92 140.119 13.98 139.597 14.076C139.081 14.166 138.658 14.286 138.328 14.436C138.004 14.586 137.767 14.763 137.617 14.967C137.473 15.171 137.401 15.399 137.401 15.651C137.401 15.891 137.44 16.098 137.518 16.272C137.596 16.446 137.701 16.59 137.833 16.704C137.971 16.812 138.13 16.893 138.31 16.947C138.496 16.995 138.694 17.019 138.904 17.019C139.186 17.019 139.444 16.992 139.678 16.938C139.912 16.878 140.131 16.794 140.335 16.686C140.545 16.578 140.743 16.449 140.929 16.299C141.121 16.149 141.307 15.978 141.487 15.786V13.896ZM136.312 10.17C136.816 9.684 137.359 9.321 137.941 9.081C138.523 8.841 139.168 8.721 139.876 8.721C140.386 8.721 140.839 8.805 141.235 8.973C141.631 9.141 141.964 9.375 142.234 9.675C142.504 9.975 142.708 10.338 142.846 10.764C142.984 11.19 143.053 11.658 143.053 12.168V18H142.342C142.186 18 142.066 17.976 141.982 17.928C141.898 17.874 141.832 17.772 141.784 17.622L141.604 16.758C141.364 16.98 141.13 17.178 140.902 17.352C140.674 17.52 140.434 17.664 140.182 17.784C139.93 17.898 139.66 17.985 139.372 18.045C139.09 18.111 138.775 18.144 138.427 18.144C138.073 18.144 137.74 18.096 137.428 18C137.116 17.898 136.843 17.748 136.609 17.55C136.381 17.352 136.198 17.103 136.06 16.803C135.928 16.497 135.862 16.137 135.862 15.723C135.862 15.363 135.961 15.018 136.159 14.688C136.357 14.352 136.678 14.055 137.122 13.797C137.566 13.539 138.145 13.329 138.859 13.167C139.573 12.999 140.449 12.903 141.487 12.879V12.168C141.487 11.46 141.334 10.926 141.028 10.566C140.722 10.2 140.275 10.017 139.687 10.017C139.291 10.017 138.958 10.068 138.688 10.17C138.424 10.266 138.193 10.377 137.995 10.503C137.803 10.623 137.635 10.734 137.491 10.836C137.353 10.932 137.215 10.98 137.077 10.98C136.969 10.98 136.876 10.953 136.798 10.899C136.72 10.839 136.654 10.767 136.6 10.683L136.312 10.17ZM150.614 10.71C150.902 10.086 151.256 9.6 151.676 9.252C152.096 8.898 152.609 8.721 153.215 8.721C153.407 8.721 153.59 8.742 153.764 8.784C153.944 8.826 154.103 8.892 154.241 8.982L154.124 10.179C154.088 10.329 153.998 10.404 153.854 10.404C153.77 10.404 153.647 10.386 153.485 10.35C153.323 10.314 153.14 10.296 152.936 10.296C152.648 10.296 152.39 10.338 152.162 10.422C151.94 10.506 151.739 10.632 151.559 10.8C151.385 10.962 151.226 11.166 151.082 11.412C150.944 11.652 150.818 11.928 150.704 12.24V18H149.093V8.883H150.011C150.185 8.883 150.305 8.916 150.371 8.982C150.437 9.048 150.482 9.162 150.506 9.324L150.614 10.71ZM164.838 11.052C164.538 10.65 164.214 10.371 163.866 10.215C163.518 10.053 163.128 9.972 162.696 9.972C161.85 9.972 161.199 10.275 160.743 10.881C160.287 11.487 160.059 12.351 160.059 13.473C160.059 14.067 160.11 14.577 160.212 15.003C160.314 15.423 160.464 15.771 160.662 16.047C160.86 16.317 161.103 16.515 161.391 16.641C161.679 16.767 162.006 16.83 162.372 16.83C162.9 16.83 163.359 16.71 163.749 16.47C164.145 16.23 164.508 15.891 164.838 15.453V11.052ZM166.44 4.743V18H165.486C165.258 18 165.114 17.889 165.054 17.667L164.91 16.56C164.52 17.028 164.076 17.406 163.578 17.694C163.08 17.982 162.504 18.126 161.85 18.126C161.328 18.126 160.854 18.027 160.428 17.829C160.002 17.625 159.639 17.328 159.339 16.938C159.039 16.548 158.808 16.062 158.646 15.48C158.484 14.898 158.403 14.229 158.403 13.473C158.403 12.801 158.493 12.177 158.673 11.601C158.853 11.019 159.111 10.515 159.447 10.089C159.783 9.663 160.194 9.33 160.68 9.09C161.172 8.844 161.724 8.721 162.336 8.721C162.894 8.721 163.371 8.817 163.767 9.009C164.169 9.195 164.526 9.456 164.838 9.792V4.743H166.44Z" fill="black"/>
<line x1="5" y1="44.5" x2="163" y2="44.5" stroke="#51BB52" stroke-width="3"/>
</svg>
