<svg width="316" height="72" viewBox="0 0 316 72" fill="none" xmlns="http://www.w3.org/2000/svg">
<path d="M0 72H149.353V65H0V72Z" fill="url(#paint0_linear)"/>
<path d="M25.96 39.37L19.7725 23.3375C19.5892 22.8608 19.3967 22.3108 19.195 21.6875C18.9933 21.0458 18.8008 20.3675 18.6175 19.6525C18.2325 21.1375 17.8383 22.375 17.435 23.365L11.2475 39.37H25.96ZM37.07 54H32.945C32.4683 54 32.0833 53.8808 31.79 53.6425C31.4967 53.4042 31.2767 53.1017 31.13 52.735L27.445 43.22H9.7625L6.0775 52.735C5.9675 53.065 5.75667 53.3583 5.445 53.615C5.13333 53.8717 4.74833 54 4.29 54H0.165L15.9225 14.5925H21.3125L37.07 54ZM83.4054 26.1425L74.3854 54H70.5079C70.0312 54 69.7012 53.6883 69.5179 53.065L63.3579 34.1725C63.2112 33.7508 63.092 33.3292 63.0004 32.9075C62.9087 32.4675 62.817 32.0367 62.7254 31.615C62.6337 32.0367 62.542 32.4675 62.4504 32.9075C62.3587 33.3292 62.2395 33.76 62.0929 34.2L55.8229 53.065C55.6579 53.6883 55.2912 54 54.7229 54H51.0379L42.0179 26.1425H45.8679C46.2529 26.1425 46.5737 26.2433 46.8304 26.445C47.1054 26.6467 47.2887 26.885 47.3804 27.16L52.7154 45.09C53.027 46.41 53.2745 47.6567 53.4579 48.83C53.6229 48.225 53.7879 47.6108 53.9529 46.9875C54.1362 46.3642 54.3287 45.7317 54.5304 45.09L60.4154 27.05C60.507 26.775 60.6629 26.5458 60.8829 26.3625C61.1212 26.1792 61.4054 26.0875 61.7354 26.0875H63.8804C64.247 26.0875 64.5495 26.1792 64.7879 26.3625C65.0262 26.5458 65.1912 26.775 65.2829 27.05L71.0304 45.09C71.232 45.7317 71.4154 46.3642 71.5804 46.9875C71.7454 47.6108 71.9012 48.225 72.0479 48.83C72.1395 48.225 72.2495 47.62 72.3779 47.015C72.5245 46.3917 72.6804 45.75 72.8454 45.09L78.2904 27.16C78.382 26.8667 78.5562 26.6283 78.8129 26.445C79.0695 26.2433 79.372 26.1425 79.7204 26.1425H83.4054ZM108.447 41.46C106.192 41.5333 104.267 41.7167 102.672 42.01C101.095 42.285 99.8025 42.6517 98.7942 43.11C97.8042 43.5683 97.08 44.1092 96.6217 44.7325C96.1817 45.3558 95.9617 46.0525 95.9617 46.8225C95.9617 47.5558 96.0808 48.1883 96.3192 48.72C96.5575 49.2517 96.8783 49.6917 97.2817 50.04C97.7033 50.37 98.1892 50.6175 98.7392 50.7825C99.3075 50.9292 99.9125 51.0025 100.554 51.0025C101.416 51.0025 102.204 50.92 102.919 50.755C103.634 50.5717 104.303 50.315 104.927 49.985C105.568 49.655 106.173 49.2608 106.742 48.8025C107.328 48.3442 107.897 47.8217 108.447 47.235V41.46ZM92.6342 30.075C94.1742 28.59 95.8333 27.4808 97.6117 26.7475C99.39 26.0142 101.361 25.6475 103.524 25.6475C105.083 25.6475 106.467 25.9042 107.677 26.4175C108.887 26.9308 109.904 27.6458 110.729 28.5625C111.554 29.4792 112.178 30.5883 112.599 31.89C113.021 33.1917 113.232 34.6217 113.232 36.18V54H111.059C110.583 54 110.216 53.9267 109.959 53.78C109.703 53.615 109.501 53.3033 109.354 52.845L108.804 50.205C108.071 50.8833 107.356 51.4883 106.659 52.02C105.963 52.5333 105.229 52.9733 104.459 53.34C103.689 53.6883 102.864 53.9542 101.984 54.1375C101.123 54.3392 100.16 54.44 99.0967 54.44C98.015 54.44 96.9975 54.2933 96.0442 54C95.0908 53.6883 94.2567 53.23 93.5417 52.625C92.845 52.02 92.2858 51.2592 91.8642 50.3425C91.4608 49.4075 91.2592 48.3075 91.2592 47.0425C91.2592 45.9425 91.5617 44.8883 92.1667 43.88C92.7717 42.8533 93.7525 41.9458 95.1092 41.1575C96.4658 40.3692 98.235 39.7275 100.417 39.2325C102.598 38.7192 105.275 38.4258 108.447 38.3525V36.18C108.447 34.0167 107.979 32.385 107.044 31.285C106.109 30.1667 104.743 29.6075 102.947 29.6075C101.737 29.6075 100.719 29.7633 99.8942 30.075C99.0875 30.3683 98.3817 30.7075 97.7767 31.0925C97.19 31.4592 96.6767 31.7983 96.2367 32.11C95.815 32.4033 95.3933 32.55 94.9717 32.55C94.6417 32.55 94.3575 32.4675 94.1192 32.3025C93.8808 32.1192 93.6792 31.8992 93.5142 31.6425L92.6342 30.075ZM130.836 31.725C131.716 29.8183 132.797 28.3333 134.081 27.27C135.364 26.1883 136.931 25.6475 138.783 25.6475C139.37 25.6475 139.929 25.7117 140.461 25.84C141.011 25.9683 141.496 26.17 141.918 26.445L141.561 30.1025C141.451 30.5608 141.176 30.79 140.736 30.79C140.479 30.79 140.103 30.735 139.608 30.625C139.113 30.515 138.554 30.46 137.931 30.46C137.051 30.46 136.262 30.5883 135.566 30.845C134.887 31.1017 134.273 31.4867 133.723 32C133.191 32.495 132.706 33.1183 132.266 33.87C131.844 34.6033 131.459 35.4467 131.111 36.4V54H126.188V26.1425H128.993C129.525 26.1425 129.891 26.2433 130.093 26.445C130.295 26.6467 130.432 26.995 130.506 27.49L130.836 31.725ZM169.239 37.0325C169.239 35.8958 169.074 34.86 168.744 33.925C168.433 32.9717 167.965 32.1558 167.342 31.4775C166.737 30.7808 165.994 30.2492 165.114 29.8825C164.234 29.4975 163.235 29.305 162.117 29.305C159.77 29.305 157.909 29.9925 156.534 31.3675C155.178 32.7242 154.334 34.6125 154.004 37.0325H169.239ZM173.199 50.095C172.594 50.8283 171.87 51.47 171.027 52.02C170.183 52.5517 169.276 52.9917 168.304 53.34C167.351 53.6883 166.361 53.945 165.334 54.11C164.308 54.2933 163.29 54.385 162.282 54.385C160.357 54.385 158.578 54.0642 156.947 53.4225C155.333 52.7625 153.931 51.8092 152.739 50.5625C151.566 49.2975 150.649 47.7392 149.989 45.8875C149.329 44.0358 148.999 41.9092 148.999 39.5075C148.999 37.5642 149.293 35.7492 149.879 34.0625C150.484 32.3758 151.346 30.9183 152.464 29.69C153.583 28.4433 154.948 27.4717 156.562 26.775C158.175 26.06 159.99 25.7025 162.007 25.7025C163.675 25.7025 165.215 25.9867 166.627 26.555C168.057 27.105 169.285 27.9117 170.312 28.975C171.357 30.02 172.173 31.3217 172.759 32.88C173.346 34.42 173.639 36.18 173.639 38.16C173.639 38.93 173.557 39.4433 173.392 39.7C173.227 39.9567 172.915 40.085 172.457 40.085H153.839C153.894 41.845 154.133 43.3758 154.554 44.6775C154.994 45.9792 155.599 47.07 156.369 47.95C157.139 48.8117 158.056 49.4625 159.119 49.9025C160.183 50.3242 161.374 50.535 162.694 50.535C163.923 50.535 164.977 50.3975 165.857 50.1225C166.755 49.8292 167.525 49.5175 168.167 49.1875C168.808 48.8575 169.34 48.555 169.762 48.28C170.202 47.9867 170.578 47.84 170.889 47.84C171.293 47.84 171.604 47.9958 171.824 48.3075L173.199 50.095ZM189.772 30.185C190.377 29.5067 191.019 28.8925 191.697 28.3425C192.375 27.7925 193.09 27.325 193.842 26.94C194.612 26.5367 195.419 26.2342 196.262 26.0325C197.124 25.8125 198.049 25.7025 199.039 25.7025C200.561 25.7025 201.899 25.9592 203.054 26.4725C204.228 26.9675 205.199 27.6825 205.969 28.6175C206.758 29.5342 207.354 30.6433 207.757 31.945C208.16 33.2467 208.362 34.6858 208.362 36.2625V54H203.439V36.2625C203.439 34.1542 202.954 32.5225 201.982 31.3675C201.029 30.1942 199.571 29.6075 197.609 29.6075C196.161 29.6075 194.804 29.9558 193.539 30.6525C192.293 31.3492 191.138 32.2933 190.074 33.485V54H185.152V26.1425H188.094C188.791 26.1425 189.222 26.4817 189.387 27.16L189.772 30.185ZM239.966 37.0325C239.966 35.8958 239.801 34.86 239.471 33.925C239.159 32.9717 238.692 32.1558 238.068 31.4775C237.463 30.7808 236.721 30.2492 235.841 29.8825C234.961 29.4975 233.962 29.305 232.843 29.305C230.497 29.305 228.636 29.9925 227.261 31.3675C225.904 32.7242 225.061 34.6125 224.731 37.0325H239.966ZM243.926 50.095C243.321 50.8283 242.597 51.47 241.753 52.02C240.91 52.5517 240.003 52.9917 239.031 53.34C238.078 53.6883 237.088 53.945 236.061 54.11C235.034 54.2933 234.017 54.385 233.008 54.385C231.083 54.385 229.305 54.0642 227.673 53.4225C226.06 52.7625 224.658 51.8092 223.466 50.5625C222.293 49.2975 221.376 47.7392 220.716 45.8875C220.056 44.0358 219.726 41.9092 219.726 39.5075C219.726 37.5642 220.019 35.7492 220.606 34.0625C221.211 32.3758 222.073 30.9183 223.191 29.69C224.309 28.4433 225.675 27.4717 227.288 26.775C228.902 26.06 230.717 25.7025 232.733 25.7025C234.402 25.7025 235.942 25.9867 237.353 26.555C238.783 27.105 240.012 27.9117 241.038 28.975C242.083 30.02 242.899 31.3217 243.486 32.88C244.073 34.42 244.366 36.18 244.366 38.16C244.366 38.93 244.283 39.4433 244.118 39.7C243.953 39.9567 243.642 40.085 243.183 40.085H224.566C224.621 41.845 224.859 43.3758 225.281 44.6775C225.721 45.9792 226.326 47.07 227.096 47.95C227.866 48.8117 228.783 49.4625 229.846 49.9025C230.909 50.3242 232.101 50.535 233.421 50.535C234.649 50.535 235.703 50.3975 236.583 50.1225C237.482 49.8292 238.252 49.5175 238.893 49.1875C239.535 48.8575 240.067 48.555 240.488 48.28C240.928 47.9867 241.304 47.84 241.616 47.84C242.019 47.84 242.331 47.9958 242.551 48.3075L243.926 50.095ZM272.103 30.735C271.883 31.1383 271.544 31.34 271.086 31.34C270.811 31.34 270.499 31.2392 270.151 31.0375C269.803 30.8358 269.372 30.6158 268.858 30.3775C268.363 30.1208 267.768 29.8917 267.071 29.69C266.374 29.47 265.549 29.36 264.596 29.36C263.771 29.36 263.028 29.47 262.368 29.69C261.708 29.8917 261.14 30.1758 260.663 30.5425C260.205 30.9092 259.848 31.34 259.591 31.835C259.353 32.3117 259.233 32.8342 259.233 33.4025C259.233 34.1175 259.435 34.7133 259.838 35.19C260.26 35.6667 260.81 36.0792 261.488 36.4275C262.167 36.7758 262.937 37.0875 263.798 37.3625C264.66 37.6192 265.54 37.9033 266.438 38.215C267.355 38.5083 268.244 38.8383 269.106 39.205C269.968 39.5717 270.738 40.03 271.416 40.58C272.094 41.13 272.635 41.8083 273.038 42.615C273.46 43.4033 273.671 44.3567 273.671 45.475C273.671 46.7583 273.442 47.95 272.983 49.05C272.525 50.1317 271.847 51.0758 270.948 51.8825C270.05 52.6708 268.95 53.2942 267.648 53.7525C266.347 54.2108 264.843 54.44 263.138 54.44C261.195 54.44 259.435 54.1283 257.858 53.505C256.282 52.8633 254.943 52.0475 253.843 51.0575L254.998 49.1875C255.145 48.9492 255.319 48.7658 255.521 48.6375C255.723 48.5092 255.979 48.445 256.291 48.445C256.621 48.445 256.969 48.5733 257.336 48.83C257.703 49.0867 258.143 49.3708 258.656 49.6825C259.188 49.9942 259.829 50.2783 260.581 50.535C261.333 50.7917 262.268 50.92 263.386 50.92C264.339 50.92 265.173 50.8008 265.888 50.5625C266.603 50.3058 267.199 49.9667 267.676 49.545C268.153 49.1233 268.501 48.6375 268.721 48.0875C268.959 47.5375 269.078 46.9508 269.078 46.3275C269.078 45.5575 268.868 44.925 268.446 44.43C268.043 43.9167 267.502 43.4858 266.823 43.1375C266.145 42.7708 265.366 42.4592 264.486 42.2025C263.624 41.9275 262.735 41.6433 261.818 41.35C260.92 41.0567 260.031 40.7267 259.151 40.36C258.289 39.975 257.519 39.4983 256.841 38.93C256.163 38.3617 255.613 37.665 255.191 36.84C254.788 35.9967 254.586 34.9792 254.586 33.7875C254.586 32.7242 254.806 31.7067 255.246 30.735C255.686 29.745 256.328 28.8833 257.171 28.15C258.014 27.3983 259.05 26.8025 260.278 26.3625C261.507 25.9225 262.909 25.7025 264.486 25.7025C266.319 25.7025 267.96 25.9958 269.408 26.5825C270.875 27.1508 272.14 27.9392 273.203 28.9475L272.103 30.735ZM301.397 30.735C301.177 31.1383 300.838 31.34 300.38 31.34C300.105 31.34 299.793 31.2392 299.445 31.0375C299.097 30.8358 298.666 30.6158 298.152 30.3775C297.657 30.1208 297.062 29.8917 296.365 29.69C295.668 29.47 294.843 29.36 293.89 29.36C293.065 29.36 292.322 29.47 291.662 29.69C291.002 29.8917 290.434 30.1758 289.957 30.5425C289.499 30.9092 289.142 31.34 288.885 31.835C288.647 32.3117 288.527 32.8342 288.527 33.4025C288.527 34.1175 288.729 34.7133 289.132 35.19C289.554 35.6667 290.104 36.0792 290.782 36.4275C291.461 36.7758 292.231 37.0875 293.092 37.3625C293.954 37.6192 294.834 37.9033 295.732 38.215C296.649 38.5083 297.538 38.8383 298.4 39.205C299.262 39.5717 300.032 40.03 300.71 40.58C301.388 41.13 301.929 41.8083 302.332 42.615C302.754 43.4033 302.965 44.3567 302.965 45.475C302.965 46.7583 302.736 47.95 302.277 49.05C301.819 50.1317 301.141 51.0758 300.242 51.8825C299.344 52.6708 298.244 53.2942 296.942 53.7525C295.641 54.2108 294.137 54.44 292.432 54.44C290.489 54.44 288.729 54.1283 287.152 53.505C285.576 52.8633 284.237 52.0475 283.137 51.0575L284.292 49.1875C284.439 48.9492 284.613 48.7658 284.815 48.6375C285.017 48.5092 285.273 48.445 285.585 48.445C285.915 48.445 286.263 48.5733 286.63 48.83C286.997 49.0867 287.437 49.3708 287.95 49.6825C288.482 49.9942 289.123 50.2783 289.875 50.535C290.627 50.7917 291.562 50.92 292.68 50.92C293.633 50.92 294.467 50.8008 295.182 50.5625C295.897 50.3058 296.493 49.9667 296.97 49.545C297.447 49.1233 297.795 48.6375 298.015 48.0875C298.253 47.5375 298.372 46.9508 298.372 46.3275C298.372 45.5575 298.162 44.925 297.74 44.43C297.337 43.9167 296.796 43.4858 296.117 43.1375C295.439 42.7708 294.66 42.4592 293.78 42.2025C292.918 41.9275 292.029 41.6433 291.112 41.35C290.214 41.0567 289.325 40.7267 288.445 40.36C287.583 39.975 286.813 39.4983 286.135 38.93C285.457 38.3617 284.907 37.665 284.485 36.84C284.082 35.9967 283.88 34.9792 283.88 33.7875C283.88 32.7242 284.1 31.7067 284.54 30.735C284.98 29.745 285.622 28.8833 286.465 28.15C287.308 27.3983 288.344 26.8025 289.572 26.3625C290.801 25.9225 292.203 25.7025 293.78 25.7025C295.613 25.7025 297.254 25.9958 298.702 26.5825C300.169 27.1508 301.434 27.9392 302.497 28.9475L301.397 30.735Z" fill="black"/>
<defs>
<linearGradient id="paint0_linear" x1="169.664" y1="65.431" x2="159.382" y2="21.2732" gradientUnits="userSpaceOnUse">
<stop stop-color="#458ACC"/>
<stop offset="1" stop-color="#B6D15D"/>
</linearGradient>
</defs>
</svg>
