<svg width="345" height="72" viewBox="0 0 254 72" fill="none" xmlns="http://www.w3.org/2000/svg">
<path d="M0 72H129.783V65H0V72Z" fill="url(#paint0_linear)"/>
<path d="M39.1875 34.31C39.1875 37.2617 38.72 39.9475 37.785 42.3675C36.85 44.7875 35.53 46.8592 33.825 48.5825C32.12 50.3058 30.0667 51.6442 27.665 52.5975C25.2817 53.5325 22.6417 54 19.745 54H5.0325V14.5925H19.745C22.6417 14.5925 25.2817 15.0692 27.665 16.0225C30.0667 16.9575 32.12 18.2958 33.825 20.0375C35.53 21.7608 36.85 23.8325 37.785 26.2525C38.72 28.6725 39.1875 31.3583 39.1875 34.31ZM33.715 34.31C33.715 31.89 33.385 29.7267 32.725 27.82C32.065 25.9133 31.13 24.3 29.92 22.98C28.71 21.66 27.2433 20.6517 25.52 19.955C23.7967 19.2583 21.8717 18.91 19.745 18.91H10.3675V49.6825H19.745C21.8717 49.6825 23.7967 49.3342 25.52 48.6375C27.2433 47.9408 28.71 46.9417 29.92 45.64C31.13 44.32 32.065 42.7067 32.725 40.8C33.385 38.8933 33.715 36.73 33.715 34.31ZM69.4873 37.0325C69.4873 35.8958 69.3223 34.86 68.9923 33.925C68.6807 32.9717 68.2132 32.1558 67.5898 31.4775C66.9848 30.7808 66.2423 30.2492 65.3623 29.8825C64.4823 29.4975 63.4832 29.305 62.3648 29.305C60.0182 29.305 58.1573 29.9925 56.7823 31.3675C55.4257 32.7242 54.5823 34.6125 54.2523 37.0325H69.4873ZM73.4473 50.095C72.8423 50.8283 72.1182 51.47 71.2748 52.02C70.4315 52.5517 69.524 52.9917 68.5523 53.34C67.599 53.6883 66.609 53.945 65.5823 54.11C64.5557 54.2933 63.5382 54.385 62.5298 54.385C60.6048 54.385 58.8265 54.0642 57.1948 53.4225C55.5815 52.7625 54.179 51.8092 52.9873 50.5625C51.814 49.2975 50.8973 47.7392 50.2373 45.8875C49.5773 44.0358 49.2473 41.9092 49.2473 39.5075C49.2473 37.5642 49.5407 35.7492 50.1273 34.0625C50.7323 32.3758 51.594 30.9183 52.7123 29.69C53.8307 28.4433 55.1965 27.4717 56.8098 26.775C58.4232 26.06 60.2382 25.7025 62.2548 25.7025C63.9232 25.7025 65.4632 25.9867 66.8748 26.555C68.3048 27.105 69.5332 27.9117 70.5598 28.975C71.6048 30.02 72.4207 31.3217 73.0073 32.88C73.594 34.42 73.8873 36.18 73.8873 38.16C73.8873 38.93 73.8048 39.4433 73.6398 39.7C73.4748 39.9567 73.1632 40.085 72.7048 40.085H54.0873C54.1423 41.845 54.3807 43.3758 54.8023 44.6775C55.2423 45.9792 55.8473 47.07 56.6173 47.95C57.3873 48.8117 58.304 49.4625 59.3673 49.9025C60.4307 50.3242 61.6223 50.535 62.9423 50.535C64.1707 50.535 65.2248 50.3975 66.1048 50.1225C67.0032 49.8292 67.7732 49.5175 68.4148 49.1875C69.0565 48.8575 69.5882 48.555 70.0098 48.28C70.4498 47.9867 70.8257 47.84 71.1373 47.84C71.5407 47.84 71.8523 47.9958 72.0723 48.3075L73.4473 50.095ZM100.497 41.46C98.2425 41.5333 96.3175 41.7167 94.7225 42.01C93.1458 42.285 91.8533 42.6517 90.845 43.11C89.855 43.5683 89.1308 44.1092 88.6725 44.7325C88.2325 45.3558 88.0125 46.0525 88.0125 46.8225C88.0125 47.5558 88.1316 48.1883 88.37 48.72C88.6083 49.2517 88.9291 49.6917 89.3325 50.04C89.7541 50.37 90.24 50.6175 90.79 50.7825C91.3583 50.9292 91.9633 51.0025 92.605 51.0025C93.4666 51.0025 94.255 50.92 94.97 50.755C95.685 50.5717 96.3541 50.315 96.9775 49.985C97.6191 49.655 98.2241 49.2608 98.7925 48.8025C99.3791 48.3442 99.9475 47.8217 100.497 47.235V41.46ZM84.685 30.075C86.225 28.59 87.8841 27.4808 89.6625 26.7475C91.4408 26.0142 93.4116 25.6475 95.575 25.6475C97.1333 25.6475 98.5175 25.9042 99.7275 26.4175C100.937 26.9308 101.955 27.6458 102.78 28.5625C103.605 29.4792 104.228 30.5883 104.65 31.89C105.072 33.1917 105.282 34.6217 105.282 36.18V54H103.11C102.633 54 102.267 53.9267 102.01 53.78C101.753 53.615 101.552 53.3033 101.405 52.845L100.855 50.205C100.122 50.8833 99.4066 51.4883 98.71 52.02C98.0133 52.5333 97.28 52.9733 96.51 53.34C95.74 53.6883 94.915 53.9542 94.035 54.1375C93.1733 54.3392 92.2108 54.44 91.1475 54.44C90.0658 54.44 89.0483 54.2933 88.095 54C87.1416 53.6883 86.3075 53.23 85.5925 52.625C84.8958 52.02 84.3366 51.2592 83.915 50.3425C83.5116 49.4075 83.31 48.3075 83.31 47.0425C83.31 45.9425 83.6125 44.8883 84.2175 43.88C84.8225 42.8533 85.8033 41.9458 87.16 41.1575C88.5166 40.3692 90.2858 39.7275 92.4675 39.2325C94.6491 38.7192 97.3258 38.4258 100.497 38.3525V36.18C100.497 34.0167 100.03 32.385 99.095 31.285C98.16 30.1667 96.7941 29.6075 94.9975 29.6075C93.7875 29.6075 92.77 29.7633 91.945 30.075C91.1383 30.3683 90.4325 30.7075 89.8275 31.0925C89.2408 31.4592 88.7275 31.7983 88.2875 32.11C87.8658 32.4033 87.4441 32.55 87.0225 32.55C86.6925 32.55 86.4083 32.4675 86.17 32.3025C85.9316 32.1192 85.73 31.8992 85.565 31.6425L84.685 30.075ZM123.299 13.4925V54H118.404V13.4925H123.299ZM138.607 54V30.3225L135.527 29.965C135.124 29.8733 134.803 29.7358 134.564 29.5525C134.326 29.3508 134.207 29.0667 134.207 28.7V26.6925H138.607V25.2075C138.607 23.6675 138.836 22.21 139.294 20.835C139.771 19.4417 140.486 18.2317 141.439 17.205C142.393 16.1783 143.584 15.3625 145.014 14.7575C146.444 14.1525 148.113 13.85 150.019 13.85C151.431 13.85 152.788 13.905 154.089 14.015C155.409 14.125 156.684 14.1892 157.912 14.2075H161.239V54H156.372V17.645C155.382 17.6083 154.383 17.5625 153.374 17.5075C152.384 17.4525 151.514 17.425 150.762 17.425C148.379 17.425 146.545 18.1125 145.262 19.4875C143.997 20.8442 143.364 22.7508 143.364 25.2075V26.6925H150.597V30.24H143.502V54H138.607ZM186.421 25.7025C188.456 25.7025 190.289 26.0417 191.921 26.72C193.552 27.3983 194.946 28.3608 196.101 29.6075C197.256 30.8542 198.136 32.3667 198.741 34.145C199.364 35.905 199.676 37.8758 199.676 40.0575C199.676 42.2575 199.364 44.2375 198.741 45.9975C198.136 47.7575 197.256 49.2608 196.101 50.5075C194.946 51.7542 193.552 52.7167 191.921 53.395C190.289 54.055 188.456 54.385 186.421 54.385C184.367 54.385 182.516 54.055 180.866 53.395C179.234 52.7167 177.841 51.7542 176.686 50.5075C175.531 49.2608 174.642 47.7575 174.018 45.9975C173.413 44.2375 173.111 42.2575 173.111 40.0575C173.111 37.8758 173.413 35.905 174.018 34.145C174.642 32.3667 175.531 30.8542 176.686 29.6075C177.841 28.3608 179.234 27.3983 180.866 26.72C182.516 26.0417 184.367 25.7025 186.421 25.7025ZM186.421 50.5625C189.171 50.5625 191.224 49.6458 192.581 47.8125C193.937 45.9608 194.616 43.385 194.616 40.085C194.616 36.7667 193.937 34.1817 192.581 32.33C191.224 30.4783 189.171 29.5525 186.421 29.5525C185.027 29.5525 183.808 29.7908 182.763 30.2675C181.737 30.7442 180.875 31.4317 180.178 32.33C179.5 33.2283 178.987 34.3375 178.638 35.6575C178.308 36.9592 178.143 38.435 178.143 40.085C178.143 43.385 178.822 45.9608 180.178 47.8125C181.553 49.6458 183.634 50.5625 186.421 50.5625ZM249.372 26.1425L240.352 54H236.475C235.998 54 235.668 53.6883 235.485 53.065L229.325 34.1725C229.178 33.7508 229.059 33.3292 228.967 32.9075C228.875 32.4675 228.784 32.0367 228.692 31.615C228.6 32.0367 228.509 32.4675 228.417 32.9075C228.325 33.3292 228.206 33.76 228.06 34.2L221.79 53.065C221.625 53.6883 221.258 54 220.69 54H217.005L207.985 26.1425H211.835C212.22 26.1425 212.54 26.2433 212.797 26.445C213.072 26.6467 213.255 26.885 213.347 27.16L218.682 45.09C218.994 46.41 219.241 47.6567 219.425 48.83C219.59 48.225 219.755 47.6108 219.92 46.9875C220.103 46.3642 220.295 45.7317 220.497 45.09L226.382 27.05C226.474 26.775 226.63 26.5458 226.85 26.3625C227.088 26.1792 227.372 26.0875 227.702 26.0875H229.847C230.214 26.0875 230.516 26.1792 230.755 26.3625C230.993 26.5458 231.158 26.775 231.25 27.05L236.997 45.09C237.199 45.7317 237.382 46.3642 237.547 46.9875C237.712 47.6108 237.868 48.225 238.015 48.83C238.106 48.225 238.216 47.62 238.345 47.015C238.491 46.3917 238.647 45.75 238.812 45.09L244.257 27.16C244.349 26.8667 244.523 26.6283 244.78 26.445C245.036 26.2433 245.339 26.1425 245.687 26.1425H249.372Z" fill="black"/>
<defs>
<linearGradient id="paint0_linear" x1="147.432" y1="65.431" x2="135.794" y2="21.9975" gradientUnits="userSpaceOnUse">
<stop stop-color="#458ACC"/>
<stop offset="1" stop-color="#B6D15D"/>
</linearGradient>
</defs>
</svg>
