<svg width="158" height="46" viewBox="0 0 158 46" fill="none" xmlns="http://www.w3.org/2000/svg">
<path d="M28.4031 7.119C28.3491 7.209 28.2921 7.278 28.2321 7.326C28.1721 7.368 28.0941 7.389 27.9981 7.389C27.8961 7.389 27.7761 7.338 27.6381 7.236C27.5061 7.134 27.3351 7.023 27.1251 6.903C26.9211 6.777 26.6721 6.663 26.3781 6.561C26.0901 6.459 25.7391 6.408 25.3251 6.408C24.9351 6.408 24.5901 6.462 24.2901 6.57C23.9901 6.672 23.7381 6.813 23.5341 6.993C23.3361 7.173 23.1861 7.386 23.0841 7.632C22.9821 7.872 22.9311 8.133 22.9311 8.415C22.9311 8.775 23.0181 9.075 23.1921 9.315C23.3721 9.549 23.6061 9.75 23.8941 9.918C24.1881 10.086 24.5181 10.233 24.8841 10.359C25.2561 10.479 25.6341 10.605 26.0181 10.737C26.4081 10.869 26.7861 11.019 27.1521 11.187C27.5241 11.349 27.8541 11.556 28.1421 11.808C28.4361 12.06 28.6701 12.369 28.8441 12.735C29.0241 13.101 29.1141 13.551 29.1141 14.085C29.1141 14.649 29.0181 15.18 28.8261 15.678C28.6341 16.17 28.3521 16.599 27.9801 16.965C27.6141 17.331 27.1611 17.619 26.6211 17.829C26.0871 18.039 25.4781 18.144 24.7941 18.144C23.9601 18.144 23.1981 17.994 22.5081 17.694C21.8241 17.388 21.2391 16.977 20.7531 16.461L21.2571 15.633C21.3051 15.567 21.3621 15.513 21.4281 15.471C21.5001 15.423 21.5781 15.399 21.6621 15.399C21.7881 15.399 21.9321 15.468 22.0941 15.606C22.2561 15.738 22.4571 15.885 22.6971 16.047C22.9431 16.209 23.2371 16.359 23.5791 16.497C23.9271 16.629 24.3501 16.695 24.8481 16.695C25.2621 16.695 25.6311 16.638 25.9551 16.524C26.2791 16.41 26.5521 16.251 26.7741 16.047C27.0021 15.837 27.1761 15.588 27.2961 15.3C27.4161 15.012 27.4761 14.691 27.4761 14.337C27.4761 13.947 27.3861 13.629 27.2061 13.383C27.0321 13.131 26.8011 12.921 26.5131 12.753C26.2251 12.585 25.8951 12.444 25.5231 12.33C25.1571 12.21 24.7791 12.09 24.3891 11.97C24.0051 11.844 23.6271 11.7 23.2551 11.538C22.8891 11.376 22.5621 11.166 22.2741 10.908C21.9861 10.65 21.7521 10.329 21.5721 9.945C21.3981 9.555 21.3111 9.075 21.3111 8.505C21.3111 8.049 21.3981 7.608 21.5721 7.182C21.7521 6.756 22.0101 6.378 22.3461 6.048C22.6821 5.718 23.0961 5.454 23.5881 5.256C24.0861 5.058 24.6561 4.959 25.2981 4.959C26.0181 4.959 26.6751 5.073 27.2691 5.301C27.8631 5.529 28.3821 5.859 28.8261 6.291L28.4031 7.119ZM44.032 15.336C44.128 15.336 44.215 15.375 44.293 15.453L44.977 16.2C44.449 16.812 43.807 17.289 43.051 17.631C42.301 17.973 41.395 18.144 40.333 18.144C39.403 18.144 38.56 17.985 37.804 17.667C37.048 17.343 36.403 16.893 35.869 16.317C35.335 15.735 34.921 15.039 34.627 14.229C34.333 13.419 34.186 12.528 34.186 11.556C34.186 10.584 34.342 9.693 34.654 8.883C34.972 8.073 35.416 7.377 35.986 6.795C36.556 6.213 37.237 5.763 38.029 5.445C38.827 5.121 39.706 4.959 40.666 4.959C41.614 4.959 42.43 5.106 43.114 5.4C43.804 5.694 44.416 6.093 44.95 6.597L44.383 7.398C44.341 7.458 44.293 7.509 44.239 7.551C44.185 7.587 44.107 7.605 44.005 7.605C43.927 7.605 43.843 7.578 43.753 7.524C43.669 7.464 43.567 7.392 43.447 7.308C43.327 7.224 43.186 7.134 43.024 7.038C42.862 6.942 42.67 6.852 42.448 6.768C42.226 6.684 41.968 6.615 41.674 6.561C41.38 6.501 41.041 6.471 40.657 6.471C39.967 6.471 39.334 6.591 38.758 6.831C38.188 7.065 37.696 7.401 37.282 7.839C36.868 8.277 36.544 8.811 36.31 9.441C36.082 10.071 35.968 10.776 35.968 11.556C35.968 12.36 36.082 13.077 36.31 13.707C36.544 14.337 36.859 14.871 37.255 15.309C37.657 15.741 38.131 16.071 38.677 16.299C39.223 16.527 39.811 16.641 40.441 16.641C40.825 16.641 41.17 16.62 41.476 16.578C41.782 16.53 42.064 16.458 42.322 16.362C42.586 16.266 42.829 16.146 43.051 16.002C43.279 15.852 43.507 15.675 43.735 15.471C43.837 15.381 43.936 15.336 44.032 15.336ZM61.3222 18H59.5672V12.132H52.6192V18H50.8642V5.103H52.6192V10.854H59.5672V5.103H61.3222V18ZM76.0167 5.103V6.525H69.8247V10.809H74.8377V12.177H69.8247V16.578H76.0167V18H68.0697V5.103H76.0167ZM93.3067 11.556C93.3067 12.522 93.1537 13.401 92.8477 14.193C92.5417 14.985 92.1097 15.663 91.5517 16.227C90.9937 16.791 90.3247 17.229 89.5447 17.541C88.7647 17.847 87.9007 18 86.9527 18H82.1287V5.103H86.9527C87.9007 5.103 88.7647 5.259 89.5447 5.571C90.3247 5.877 90.9937 6.315 91.5517 6.885C92.1097 7.449 92.5417 8.127 92.8477 8.919C93.1537 9.711 93.3067 10.59 93.3067 11.556ZM91.5157 11.556C91.5157 10.764 91.4077 10.056 91.1917 9.432C90.9757 8.808 90.6697 8.28 90.2737 7.848C89.8777 7.416 89.3977 7.086 88.8337 6.858C88.2697 6.63 87.6427 6.516 86.9527 6.516H83.8837V16.587H86.9527C87.6427 16.587 88.2697 16.473 88.8337 16.245C89.3977 16.017 89.8777 15.69 90.2737 15.264C90.6697 14.832 90.9757 14.304 91.1917 13.68C91.4077 13.056 91.5157 12.348 91.5157 11.556ZM104.294 16.614C104.828 16.614 105.305 16.524 105.725 16.344C106.145 16.164 106.499 15.912 106.787 15.588C107.081 15.264 107.303 14.877 107.453 14.427C107.609 13.977 107.687 13.482 107.687 12.942V5.103H109.424V12.942C109.424 13.686 109.304 14.376 109.064 15.012C108.83 15.648 108.491 16.2 108.047 16.668C107.609 17.13 107.072 17.493 106.436 17.757C105.8 18.021 105.086 18.153 104.294 18.153C103.502 18.153 102.788 18.021 102.152 17.757C101.516 17.493 100.976 17.13 100.532 16.668C100.088 16.2 99.7464 15.648 99.5064 15.012C99.2724 14.376 99.1554 13.686 99.1554 12.942V5.103H100.892V12.933C100.892 13.473 100.967 13.968 101.117 14.418C101.273 14.868 101.495 15.255 101.783 15.579C102.077 15.903 102.434 16.158 102.854 16.344C103.28 16.524 103.76 16.614 104.294 16.614ZM117.776 16.533H123.356V18H116.03V5.103H117.776V16.533ZM136.823 5.103V6.525H130.631V10.809H135.644V12.177H130.631V16.578H136.823V18H128.876V5.103H136.823Z" fill="black"/>
<line y1="44.5" x2="158" y2="44.5" stroke="#51BB52" stroke-width="3"/>
</svg>
