<svg width="855" height="191" viewBox="0 0 855 191" fill="none" xmlns="http://www.w3.org/2000/svg">
<path d="M169.927 2.665V6.83H133.422V34.858H163.802V38.925H133.422V67.835H169.927V72H128.375V2.665H169.927ZM195.34 47.059L178.386 23.245H182.845C183.303 23.245 183.629 23.343 183.825 23.539C184.054 23.735 184.25 23.9637 184.413 24.225L198.721 44.903C198.852 44.3477 199.13 43.7597 199.554 43.139L212.931 24.274C213.095 23.98 213.291 23.735 213.519 23.539C213.781 23.343 214.075 23.245 214.401 23.245H218.713L201.661 46.814L219.399 72H214.94C214.483 72 214.124 71.8693 213.862 71.608C213.601 71.314 213.389 71.0363 213.225 70.775L198.427 49.215C198.264 49.8683 198.019 50.4237 197.692 50.881L183.482 70.873C183.254 71.167 183.009 71.4283 182.747 71.657C182.519 71.8857 182.225 72 181.865 72H177.7L195.34 47.059ZM229.095 89.248V23.245H231.643C232.068 23.245 232.411 23.343 232.672 23.539C232.934 23.7023 233.081 24.0127 233.113 24.47L233.554 32.016C235.71 29.076 238.226 26.7403 241.1 25.009C244.008 23.2777 247.258 22.412 250.851 22.412C256.862 22.412 261.533 24.4863 264.865 28.635C268.197 32.7837 269.863 39.0067 269.863 47.304C269.863 50.8647 269.39 54.1967 268.442 57.3C267.528 60.3707 266.172 63.0493 264.375 65.336C262.579 67.59 260.357 69.3703 257.711 70.677C255.098 71.9837 252.076 72.637 248.646 72.637C245.314 72.637 242.44 72.0327 240.022 70.824C237.605 69.6153 235.514 67.8187 233.75 65.434V89.248H229.095ZM249.528 26.185C246.294 26.185 243.354 27.0343 240.708 28.733C238.095 30.399 235.776 32.7347 233.75 35.74V61.318C235.612 64.1273 237.67 66.1037 239.924 67.247C242.211 68.3903 244.808 68.962 247.715 68.962C250.59 68.962 253.105 68.4393 255.261 67.394C257.417 66.3487 259.214 64.8787 260.651 62.984C262.121 61.0567 263.216 58.77 263.934 56.124C264.686 53.4453 265.061 50.5053 265.061 47.304C265.061 40.052 263.722 34.7273 261.043 31.33C258.397 27.9 254.559 26.185 249.528 26.185ZM287.568 0.704998V72H282.913V0.704998H287.568ZM323.367 22.461C326.863 22.461 329.982 23.0653 332.726 24.274C335.503 25.45 337.839 27.1323 339.733 29.321C341.628 31.5097 343.065 34.1557 344.045 37.259C345.058 40.3297 345.564 43.776 345.564 47.598C345.564 51.42 345.058 54.8663 344.045 57.937C343.065 61.0077 341.628 63.6373 339.733 65.826C337.839 68.0147 335.503 69.697 332.726 70.873C329.982 72.049 326.863 72.637 323.367 72.637C319.872 72.637 316.736 72.049 313.959 70.873C311.215 69.697 308.88 68.0147 306.952 65.826C305.058 63.6373 303.604 61.0077 302.591 57.937C301.611 54.8663 301.121 51.42 301.121 47.598C301.121 43.776 301.611 40.3297 302.591 37.259C303.604 34.1557 305.058 31.5097 306.952 29.321C308.88 27.1323 311.215 25.45 313.959 24.274C316.736 23.0653 319.872 22.461 323.367 22.461ZM323.367 68.962C326.275 68.962 328.806 68.472 330.962 67.492C333.151 66.4793 334.964 65.042 336.401 63.18C337.871 61.318 338.966 59.0803 339.684 56.467C340.403 53.821 340.762 50.8647 340.762 47.598C340.762 44.364 340.403 41.424 339.684 38.778C338.966 36.132 337.871 33.878 336.401 32.016C334.964 30.1213 333.151 28.6677 330.962 27.655C328.806 26.6423 326.275 26.136 323.367 26.136C320.46 26.136 317.912 26.6423 315.723 27.655C313.567 28.6677 311.754 30.1213 310.284 32.016C308.847 33.878 307.753 36.132 307.001 38.778C306.283 41.424 305.923 44.364 305.923 47.598C305.923 50.8647 306.283 53.821 307.001 56.467C307.753 59.0803 308.847 61.318 310.284 63.18C311.754 65.042 313.567 66.4793 315.723 67.492C317.912 68.472 320.46 68.962 323.367 68.962ZM357.816 72V23.245H360.266C360.821 23.245 361.213 23.3593 361.442 23.588C361.703 23.8167 361.85 24.2087 361.883 24.764L362.275 35.054C363.843 31.1013 365.934 28.0143 368.547 25.793C371.16 23.539 374.378 22.412 378.2 22.412C379.67 22.412 381.026 22.5753 382.267 22.902C383.508 23.196 384.684 23.637 385.795 24.225L385.158 27.459C385.06 27.9817 384.733 28.243 384.178 28.243C383.982 28.243 383.704 28.1777 383.345 28.047C382.986 27.9163 382.528 27.7693 381.973 27.606C381.45 27.4427 380.797 27.2957 380.013 27.165C379.229 27.0343 378.331 26.969 377.318 26.969C373.627 26.969 370.589 28.1123 368.204 30.399C365.852 32.6857 363.941 35.985 362.471 40.297V72H357.816ZM402.794 23.245V72H398.139V23.245H402.794ZM404.852 6.438C404.852 7.026 404.721 7.58133 404.46 8.104C404.231 8.594 403.921 9.035 403.529 9.427C403.137 9.819 402.68 10.1293 402.157 10.358C401.634 10.5867 401.079 10.701 400.491 10.701C399.903 10.701 399.348 10.5867 398.825 10.358C398.302 10.1293 397.845 9.819 397.453 9.427C397.061 9.035 396.751 8.594 396.522 8.104C396.293 7.58133 396.179 7.026 396.179 6.438C396.179 5.85 396.293 5.29466 396.522 4.772C396.751 4.21666 397.061 3.743 397.453 3.351C397.845 2.959 398.302 2.64866 398.825 2.42C399.348 2.19133 399.903 2.077 400.491 2.077C401.079 2.077 401.634 2.19133 402.157 2.42C402.68 2.64866 403.137 2.959 403.529 3.351C403.921 3.743 404.231 4.21666 404.46 4.772C404.721 5.29466 404.852 5.85 404.852 6.438ZM420.023 72V23.245H422.571C423.42 23.245 423.91 23.6533 424.041 24.47L424.482 31.82C426.703 29.0107 429.284 26.7567 432.224 25.058C435.197 23.3267 438.496 22.461 442.122 22.461C444.801 22.461 447.153 22.8857 449.178 23.735C451.236 24.5843 452.935 25.8093 454.274 27.41C455.613 29.0107 456.626 30.938 457.312 33.192C457.998 35.446 458.341 37.994 458.341 40.836V72H453.686V40.836C453.686 36.2627 452.641 32.6857 450.55 30.105C448.459 27.4917 445.258 26.185 440.946 26.185C437.745 26.185 434.772 27.018 432.028 28.684C429.284 30.3173 426.834 32.5713 424.678 35.446V72H420.023ZM489.114 22.412C491.238 22.412 493.198 22.6733 494.994 23.196C496.824 23.7187 498.457 24.4537 499.894 25.401H512.389V27.018C512.389 27.8347 511.932 28.2757 511.017 28.341L503.618 28.88C504.533 30.1213 505.235 31.526 505.725 33.094C506.215 34.6293 506.46 36.279 506.46 38.043C506.46 40.395 506.036 42.5347 505.186 44.462C504.337 46.3567 503.145 47.99 501.609 49.362C500.107 50.7013 498.294 51.7467 496.17 52.498C494.047 53.2493 491.695 53.625 489.114 53.625C486.305 53.625 483.757 53.2003 481.47 52.351C480.098 53.135 479.02 54.066 478.236 55.144C477.452 56.222 477.06 57.2673 477.06 58.28C477.06 59.6847 477.55 60.7627 478.53 61.514C479.51 62.2653 480.801 62.8207 482.401 63.18C484.035 63.5067 485.88 63.719 487.938 63.817C490.029 63.915 492.136 64.0293 494.259 64.16C496.415 64.258 498.522 64.454 500.58 64.748C502.671 65.042 504.517 65.5647 506.117 66.316C507.751 67.0347 509.057 68.0637 510.037 69.403C511.017 70.7097 511.507 72.4573 511.507 74.646C511.507 76.6713 511.001 78.615 509.988 80.477C508.976 82.339 507.506 83.9887 505.578 85.426C503.684 86.8633 501.381 88.0067 498.669 88.856C495.958 89.738 492.92 90.179 489.555 90.179C486.125 90.179 483.12 89.8197 480.539 89.101C477.959 88.415 475.786 87.4677 474.022 86.259C472.291 85.083 470.984 83.711 470.102 82.143C469.22 80.575 468.779 78.909 468.779 77.145C468.779 74.5643 469.629 72.343 471.327 70.481C473.026 68.619 475.362 67.1817 478.334 66.169C476.701 65.6137 475.394 64.8133 474.414 63.768C473.467 62.7227 472.993 61.269 472.993 59.407C472.993 58.721 473.124 58.0023 473.385 57.251C473.647 56.4997 474.039 55.7647 474.561 55.046C475.084 54.2947 475.705 53.5923 476.423 52.939C477.175 52.2857 478.04 51.6977 479.02 51.175C476.701 49.8357 474.888 48.0553 473.581 45.834C472.307 43.6127 471.67 41.0157 471.67 38.043C471.67 35.691 472.079 33.5677 472.895 31.673C473.745 29.7457 474.921 28.096 476.423 26.724C477.959 25.352 479.804 24.2903 481.96 23.539C484.116 22.7877 486.501 22.412 489.114 22.412ZM507.195 75.283C507.195 73.7477 506.787 72.5227 505.97 71.608C505.186 70.6607 504.125 69.9257 502.785 69.403C501.446 68.8803 499.894 68.521 498.13 68.325C496.399 68.0963 494.57 67.933 492.642 67.835C490.748 67.737 488.837 67.639 486.909 67.541C484.982 67.443 483.185 67.247 481.519 66.953C480.278 67.443 479.118 68.0147 478.04 68.668C476.995 69.2887 476.097 70.0073 475.345 70.824C474.594 71.608 474.006 72.4737 473.581 73.421C473.157 74.401 472.944 75.4627 472.944 76.606C472.944 78.0433 473.304 79.3663 474.022 80.575C474.774 81.8163 475.852 82.878 477.256 83.76C478.694 84.6747 480.441 85.3933 482.499 85.916C484.557 86.4387 486.926 86.7 489.604 86.7C492.087 86.7 494.39 86.4223 496.513 85.867C498.669 85.3117 500.531 84.5277 502.099 83.515C503.7 82.5023 504.941 81.2937 505.823 79.889C506.738 78.4843 507.195 76.949 507.195 75.283ZM489.114 50.44C491.205 50.44 493.067 50.146 494.7 49.558C496.334 48.9373 497.706 48.088 498.816 47.01C499.927 45.932 500.76 44.6417 501.315 43.139C501.903 41.6363 502.197 39.9703 502.197 38.141C502.197 36.3117 501.903 34.6457 501.315 33.143C500.727 31.6077 499.862 30.301 498.718 29.223C497.608 28.145 496.236 27.312 494.602 26.724C493.002 26.136 491.172 25.842 489.114 25.842C487.056 25.842 485.211 26.136 483.577 26.724C481.944 27.312 480.556 28.145 479.412 29.223C478.302 30.301 477.452 31.6077 476.864 33.143C476.276 34.6457 475.982 36.3117 475.982 38.141C475.982 39.9703 476.276 41.6363 476.864 43.139C477.452 44.6417 478.302 45.932 479.412 47.01C480.556 48.088 481.944 48.9373 483.577 49.558C485.211 50.146 487.056 50.44 489.114 50.44ZM546.272 2.665C546.73 2.665 547.089 2.73033 547.35 2.861C547.612 2.959 547.889 3.204 548.183 3.596L593.067 63.67C592.969 62.69 592.92 61.7427 592.92 60.828V2.665H597.33V72H594.929C594.178 72 593.574 71.6733 593.116 71.02L548.036 10.848C548.134 11.828 548.183 12.759 548.183 13.641V72H543.822V2.665H546.272ZM633.919 22.461C636.663 22.461 639.195 22.9347 641.514 23.882C643.866 24.8293 645.892 26.2177 647.59 28.047C649.322 29.8437 650.661 32.065 651.608 34.711C652.588 37.357 653.078 40.395 653.078 43.825C653.078 44.5437 652.964 45.0337 652.735 45.295C652.539 45.5563 652.213 45.687 651.755 45.687H616.524V46.618C616.524 50.2767 616.949 53.4943 617.798 56.271C618.648 59.0477 619.856 61.3833 621.424 63.278C622.992 65.14 624.887 66.5447 627.108 67.492C629.33 68.4393 631.812 68.913 634.556 68.913C637.006 68.913 639.13 68.6517 640.926 68.129C642.723 67.5737 644.226 66.9693 645.434 66.316C646.676 65.63 647.656 65.0257 648.374 64.503C649.093 63.9477 649.616 63.67 649.942 63.67C650.367 63.67 650.694 63.8333 650.922 64.16L652.196 65.728C651.412 66.708 650.367 67.6227 649.06 68.472C647.786 69.3213 646.349 70.0563 644.748 70.677C643.18 71.265 641.482 71.7387 639.652 72.098C637.856 72.4573 636.043 72.637 634.213 72.637C630.881 72.637 627.843 72.0653 625.099 70.922C622.355 69.746 620.003 68.0473 618.043 65.826C616.083 63.6047 614.564 60.8933 613.486 57.692C612.441 54.458 611.918 50.7667 611.918 46.618C611.918 43.1227 612.408 39.905 613.388 36.965C614.401 33.9923 615.838 31.4443 617.7 29.321C619.595 27.165 621.898 25.4827 624.609 24.274C627.353 23.0653 630.457 22.461 633.919 22.461ZM633.968 25.94C631.453 25.94 629.199 26.332 627.206 27.116C625.214 27.9 623.482 29.027 622.012 30.497C620.575 31.967 619.399 33.731 618.484 35.789C617.602 37.847 617.014 40.15 616.72 42.698H648.864C648.864 40.0847 648.505 37.749 647.786 35.691C647.068 33.6003 646.055 31.8363 644.748 30.399C643.442 28.9617 641.874 27.8673 640.044 27.116C638.215 26.332 636.19 25.94 633.968 25.94ZM658.737 23.245H662.314C662.772 23.245 663.147 23.3757 663.441 23.637C663.735 23.8657 663.931 24.127 664.029 24.421L676.328 62.886C676.557 63.6373 676.737 64.356 676.867 65.042C676.998 65.728 677.129 66.414 677.259 67.1C677.423 66.414 677.602 65.728 677.798 65.042C677.994 64.356 678.223 63.6373 678.484 62.886L691.567 24.078C691.796 23.3593 692.253 23 692.939 23H694.85C695.569 23 696.043 23.3593 696.271 24.078L709.158 62.886C709.648 64.356 710.04 65.777 710.334 67.149C710.465 66.463 710.596 65.777 710.726 65.091C710.89 64.3723 711.102 63.6373 711.363 62.886L723.711 24.421C723.973 23.637 724.528 23.245 725.377 23.245H728.807L712.49 72H709.06C708.538 72 708.162 71.657 707.933 70.971L694.556 31.379C694.393 30.889 694.246 30.399 694.115 29.909C693.985 29.419 693.87 28.929 693.772 28.439C693.674 28.929 693.56 29.419 693.429 29.909C693.331 30.399 693.201 30.889 693.037 31.379L679.513 70.971C679.317 71.657 678.925 72 678.337 72H675.054L658.737 23.245ZM5.27012 190H0.223118V120.665H5.27012V190ZM25.3433 190V141.245H27.8913C28.7406 141.245 29.2306 141.653 29.3613 142.47L29.8023 149.82C32.0236 147.011 34.6043 144.757 37.5443 143.058C40.5169 141.327 43.8163 140.461 47.4423 140.461C50.1209 140.461 52.4729 140.886 54.4983 141.735C56.5563 142.584 58.2549 143.809 59.5943 145.41C60.9336 147.011 61.9463 148.938 62.6323 151.192C63.3183 153.446 63.6613 155.994 63.6613 158.836V190H59.0063V158.836C59.0063 154.263 57.9609 150.686 55.8703 148.105C53.7796 145.492 50.5783 144.185 46.2663 144.185C43.0649 144.185 40.0923 145.018 37.3483 146.684C34.6043 148.317 32.1543 150.571 29.9983 153.446V190H25.3433ZM95.1017 190H90.9857L70.4057 141.245H74.0807C74.538 141.245 74.8973 141.376 75.1587 141.637C75.4527 141.866 75.665 142.127 75.7957 142.421L91.8677 180.886C92.1943 181.637 92.4393 182.356 92.6027 183.042C92.766 183.728 92.9293 184.414 93.0927 185.1C93.256 184.414 93.4193 183.728 93.5827 183.042C93.7787 182.323 94.0237 181.605 94.3177 180.886L110.488 142.421C110.651 142.062 110.863 141.784 111.125 141.588C111.419 141.359 111.762 141.245 112.154 141.245H115.682L95.1017 190ZM142.388 140.461C145.132 140.461 147.664 140.935 149.983 141.882C152.335 142.829 154.361 144.218 156.059 146.047C157.791 147.844 159.13 150.065 160.077 152.711C161.057 155.357 161.547 158.395 161.547 161.825C161.547 162.544 161.433 163.034 161.204 163.295C161.008 163.556 160.682 163.687 160.224 163.687H124.993V164.618C124.993 168.277 125.418 171.494 126.267 174.271C127.117 177.048 128.325 179.383 129.893 181.278C131.461 183.14 133.356 184.545 135.577 185.492C137.799 186.439 140.281 186.913 143.025 186.913C145.475 186.913 147.599 186.652 149.395 186.129C151.192 185.574 152.695 184.969 153.903 184.316C155.145 183.63 156.125 183.026 156.843 182.503C157.562 181.948 158.085 181.67 158.411 181.67C158.836 181.67 159.163 181.833 159.391 182.16L160.665 183.728C159.881 184.708 158.836 185.623 157.529 186.472C156.255 187.321 154.818 188.056 153.217 188.677C151.649 189.265 149.951 189.739 148.121 190.098C146.325 190.457 144.512 190.637 142.682 190.637C139.35 190.637 136.312 190.065 133.568 188.922C130.824 187.746 128.472 186.047 126.512 183.826C124.552 181.605 123.033 178.893 121.955 175.692C120.91 172.458 120.387 168.767 120.387 164.618C120.387 161.123 120.877 157.905 121.857 154.965C122.87 151.992 124.307 149.444 126.169 147.321C128.064 145.165 130.367 143.483 133.078 142.274C135.822 141.065 138.926 140.461 142.388 140.461ZM142.437 143.94C139.922 143.94 137.668 144.332 135.675 145.116C133.683 145.9 131.951 147.027 130.481 148.497C129.044 149.967 127.868 151.731 126.953 153.789C126.071 155.847 125.483 158.15 125.189 160.698H157.333C157.333 158.085 156.974 155.749 156.255 153.691C155.537 151.6 154.524 149.836 153.217 148.399C151.911 146.962 150.343 145.867 148.513 145.116C146.684 144.332 144.659 143.94 142.437 143.94ZM200.918 147.272C200.689 147.729 200.33 147.958 199.84 147.958C199.481 147.958 199.007 147.762 198.419 147.37C197.864 146.945 197.112 146.488 196.165 145.998C195.25 145.475 194.107 145.018 192.735 144.626C191.396 144.201 189.746 143.989 187.786 143.989C186.022 143.989 184.405 144.25 182.935 144.773C181.498 145.263 180.256 145.933 179.211 146.782C178.198 147.631 177.398 148.628 176.81 149.771C176.255 150.882 175.977 152.058 175.977 153.299C175.977 154.834 176.369 156.108 177.153 157.121C177.937 158.134 178.966 158.999 180.24 159.718C181.514 160.437 182.951 161.057 184.552 161.58C186.185 162.103 187.851 162.625 189.55 163.148C191.249 163.671 192.898 164.259 194.499 164.912C196.132 165.533 197.586 166.317 198.86 167.264C200.134 168.211 201.163 169.371 201.947 170.743C202.731 172.115 203.123 173.781 203.123 175.741C203.123 177.864 202.731 179.841 201.947 181.67C201.196 183.499 200.085 185.084 198.615 186.423C197.178 187.762 195.397 188.824 193.274 189.608C191.151 190.392 188.733 190.784 186.022 190.784C182.592 190.784 179.636 190.245 177.153 189.167C174.67 188.056 172.449 186.619 170.489 184.855L171.616 183.189C171.779 182.928 171.959 182.732 172.155 182.601C172.351 182.47 172.629 182.405 172.988 182.405C173.413 182.405 173.935 182.666 174.556 183.189C175.177 183.712 175.977 184.283 176.957 184.904C177.97 185.492 179.211 186.047 180.681 186.57C182.184 187.093 184.029 187.354 186.218 187.354C188.276 187.354 190.089 187.076 191.657 186.521C193.225 185.933 194.532 185.149 195.577 184.169C196.622 183.189 197.406 182.046 197.929 180.739C198.484 179.4 198.762 177.995 198.762 176.525C198.762 174.892 198.37 173.536 197.586 172.458C196.802 171.38 195.773 170.465 194.499 169.714C193.225 168.963 191.771 168.326 190.138 167.803C188.537 167.28 186.871 166.758 185.14 166.235C183.441 165.712 181.775 165.141 180.142 164.52C178.541 163.899 177.104 163.115 175.83 162.168C174.556 161.221 173.527 160.077 172.743 158.738C171.959 157.366 171.567 155.667 171.567 153.642C171.567 151.911 171.943 150.245 172.694 148.644C173.445 147.043 174.507 145.639 175.879 144.43C177.284 143.221 178.982 142.258 180.975 141.539C182.968 140.82 185.205 140.461 187.688 140.461C190.661 140.461 193.29 140.886 195.577 141.735C197.896 142.584 200.02 143.891 201.947 145.655L200.918 147.272ZM229.503 190.784C226.204 190.784 223.623 189.869 221.761 188.04C219.932 186.211 219.017 183.385 219.017 179.563V146.243H212.01C211.651 146.243 211.357 146.145 211.128 145.949C210.9 145.753 210.785 145.475 210.785 145.116V143.303L219.115 142.715L220.291 125.271C220.324 124.977 220.438 124.716 220.634 124.487C220.863 124.258 221.157 124.144 221.516 124.144H223.721V142.764H239.058V146.243H223.721V179.318C223.721 180.657 223.885 181.817 224.211 182.797C224.571 183.744 225.044 184.528 225.632 185.149C226.253 185.77 226.972 186.227 227.788 186.521C228.605 186.815 229.487 186.962 230.434 186.962C231.61 186.962 232.623 186.799 233.472 186.472C234.322 186.113 235.057 185.737 235.677 185.345C236.298 184.92 236.804 184.545 237.196 184.218C237.588 183.859 237.899 183.679 238.127 183.679C238.389 183.679 238.65 183.842 238.911 184.169L240.185 186.227C238.944 187.599 237.36 188.71 235.432 189.559C233.538 190.376 231.561 190.784 229.503 190.784ZM251.107 190V141.245H253.655C254.504 141.245 254.994 141.653 255.125 142.47L255.566 149.526C256.513 148.187 257.526 146.962 258.604 145.851C259.682 144.74 260.825 143.793 262.034 143.009C263.275 142.192 264.582 141.572 265.954 141.147C267.359 140.69 268.829 140.461 270.364 140.461C273.925 140.461 276.767 141.506 278.89 143.597C281.013 145.655 282.451 148.53 283.202 152.221C283.79 150.196 284.607 148.448 285.652 146.978C286.73 145.508 287.955 144.299 289.327 143.352C290.699 142.372 292.185 141.653 293.786 141.196C295.419 140.706 297.085 140.461 298.784 140.461C301.201 140.461 303.374 140.869 305.301 141.686C307.228 142.47 308.862 143.646 310.201 145.214C311.573 146.782 312.618 148.709 313.337 150.996C314.056 153.283 314.415 155.896 314.415 158.836V190H309.711V158.836C309.711 154.067 308.682 150.441 306.624 147.958C304.566 145.443 301.626 144.185 297.804 144.185C296.105 144.185 294.472 144.495 292.904 145.116C291.369 145.737 289.997 146.668 288.788 147.909C287.612 149.118 286.665 150.637 285.946 152.466C285.26 154.295 284.917 156.419 284.917 158.836V190H280.262V158.836C280.262 154.099 279.315 150.473 277.42 147.958C275.525 145.443 272.765 144.185 269.139 144.185C266.493 144.185 264.043 144.985 261.789 146.586C259.535 148.154 257.526 150.343 255.762 153.152V190H251.107ZM347.48 140.461C350.224 140.461 352.756 140.935 355.075 141.882C357.427 142.829 359.452 144.218 361.151 146.047C362.882 147.844 364.222 150.065 365.169 152.711C366.149 155.357 366.639 158.395 366.639 161.825C366.639 162.544 366.525 163.034 366.296 163.295C366.1 163.556 365.773 163.687 365.316 163.687H330.085V164.618C330.085 168.277 330.51 171.494 331.359 174.271C332.208 177.048 333.417 179.383 334.985 181.278C336.553 183.14 338.448 184.545 340.669 185.492C342.89 186.439 345.373 186.913 348.117 186.913C350.567 186.913 352.69 186.652 354.487 186.129C356.284 185.574 357.786 184.969 358.995 184.316C360.236 183.63 361.216 183.026 361.935 182.503C362.654 181.948 363.176 181.67 363.503 181.67C363.928 181.67 364.254 181.833 364.483 182.16L365.757 183.728C364.973 184.708 363.928 185.623 362.621 186.472C361.347 187.321 359.91 188.056 358.309 188.677C356.741 189.265 355.042 189.739 353.213 190.098C351.416 190.457 349.603 190.637 347.774 190.637C344.442 190.637 341.404 190.065 338.66 188.922C335.916 187.746 333.564 186.047 331.604 183.826C329.644 181.605 328.125 178.893 327.047 175.692C326.002 172.458 325.479 168.767 325.479 164.618C325.479 161.123 325.969 157.905 326.949 154.965C327.962 151.992 329.399 149.444 331.261 147.321C333.156 145.165 335.459 143.483 338.17 142.274C340.914 141.065 344.017 140.461 347.48 140.461ZM347.529 143.94C345.014 143.94 342.76 144.332 340.767 145.116C338.774 145.9 337.043 147.027 335.573 148.497C334.136 149.967 332.96 151.731 332.045 153.789C331.163 155.847 330.575 158.15 330.281 160.698H362.425C362.425 158.085 362.066 155.749 361.347 153.691C360.628 151.6 359.616 149.836 358.309 148.399C357.002 146.962 355.434 145.867 353.605 145.116C351.776 144.332 349.75 143.94 347.529 143.94ZM379.158 190V141.245H381.706C382.555 141.245 383.045 141.653 383.176 142.47L383.617 149.82C385.838 147.011 388.419 144.757 391.359 143.058C394.331 141.327 397.631 140.461 401.257 140.461C403.935 140.461 406.287 140.886 408.313 141.735C410.371 142.584 412.069 143.809 413.409 145.41C414.748 147.011 415.761 148.938 416.447 151.192C417.133 153.446 417.476 155.994 417.476 158.836V190H412.821V158.836C412.821 154.263 411.775 150.686 409.685 148.105C407.594 145.492 404.393 144.185 400.081 144.185C396.879 144.185 393.907 145.018 391.163 146.684C388.419 148.317 385.969 150.571 383.813 153.446V190H379.158ZM445.505 190.784C442.206 190.784 439.625 189.869 437.763 188.04C435.934 186.211 435.019 183.385 435.019 179.563V146.243H428.012C427.653 146.243 427.359 146.145 427.13 145.949C426.902 145.753 426.787 145.475 426.787 145.116V143.303L435.117 142.715L436.293 125.271C436.326 124.977 436.44 124.716 436.636 124.487C436.865 124.258 437.159 124.144 437.518 124.144H439.723V142.764H455.06V146.243H439.723V179.318C439.723 180.657 439.887 181.817 440.213 182.797C440.573 183.744 441.046 184.528 441.634 185.149C442.255 185.77 442.974 186.227 443.79 186.521C444.607 186.815 445.489 186.962 446.436 186.962C447.612 186.962 448.625 186.799 449.474 186.472C450.324 186.113 451.059 185.737 451.679 185.345C452.3 184.92 452.806 184.545 453.198 184.218C453.59 183.859 453.901 183.679 454.129 183.679C454.391 183.679 454.652 183.842 454.913 184.169L456.187 186.227C454.946 187.599 453.362 188.71 451.434 189.559C449.54 190.376 447.563 190.784 445.505 190.784ZM541.918 190H536.871V156.778H493.457V190H488.41V120.665H493.457V153.005H536.871V120.665H541.918V190ZM578.703 140.461C582.199 140.461 585.318 141.065 588.062 142.274C590.839 143.45 593.175 145.132 595.069 147.321C596.964 149.51 598.401 152.156 599.381 155.259C600.394 158.33 600.9 161.776 600.9 165.598C600.9 169.42 600.394 172.866 599.381 175.937C598.401 179.008 596.964 181.637 595.069 183.826C593.175 186.015 590.839 187.697 588.062 188.873C585.318 190.049 582.199 190.637 578.703 190.637C575.208 190.637 572.072 190.049 569.295 188.873C566.551 187.697 564.216 186.015 562.288 183.826C560.394 181.637 558.94 179.008 557.927 175.937C556.947 172.866 556.457 169.42 556.457 165.598C556.457 161.776 556.947 158.33 557.927 155.259C558.94 152.156 560.394 149.51 562.288 147.321C564.216 145.132 566.551 143.45 569.295 142.274C572.072 141.065 575.208 140.461 578.703 140.461ZM578.703 186.962C581.611 186.962 584.142 186.472 586.298 185.492C588.487 184.479 590.3 183.042 591.737 181.18C593.207 179.318 594.302 177.08 595.02 174.467C595.739 171.821 596.098 168.865 596.098 165.598C596.098 162.364 595.739 159.424 595.02 156.778C594.302 154.132 593.207 151.878 591.737 150.016C590.3 148.121 588.487 146.668 586.298 145.655C584.142 144.642 581.611 144.136 578.703 144.136C575.796 144.136 573.248 144.642 571.059 145.655C568.903 146.668 567.09 148.121 565.62 150.016C564.183 151.878 563.089 154.132 562.337 156.778C561.619 159.424 561.259 162.364 561.259 165.598C561.259 168.865 561.619 171.821 562.337 174.467C563.089 177.08 564.183 179.318 565.62 181.18C567.09 183.042 568.903 184.479 571.059 185.492C573.248 186.472 575.796 186.962 578.703 186.962ZM613.152 190V141.245H615.602C616.157 141.245 616.549 141.359 616.778 141.588C617.039 141.817 617.186 142.209 617.219 142.764L617.611 153.054C619.179 149.101 621.27 146.014 623.883 143.793C626.496 141.539 629.714 140.412 633.536 140.412C635.006 140.412 636.362 140.575 637.603 140.902C638.844 141.196 640.02 141.637 641.131 142.225L640.494 145.459C640.396 145.982 640.069 146.243 639.514 146.243C639.318 146.243 639.04 146.178 638.681 146.047C638.322 145.916 637.864 145.769 637.309 145.606C636.786 145.443 636.133 145.296 635.349 145.165C634.565 145.034 633.667 144.969 632.654 144.969C628.963 144.969 625.925 146.112 623.54 148.399C621.188 150.686 619.277 153.985 617.807 158.297V190H613.152ZM658.13 141.245V190H653.475V141.245H658.13ZM660.188 124.438C660.188 125.026 660.057 125.581 659.796 126.104C659.567 126.594 659.257 127.035 658.865 127.427C658.473 127.819 658.016 128.129 657.493 128.358C656.97 128.587 656.415 128.701 655.827 128.701C655.239 128.701 654.684 128.587 654.161 128.358C653.638 128.129 653.181 127.819 652.789 127.427C652.397 127.035 652.087 126.594 651.858 126.104C651.629 125.581 651.515 125.026 651.515 124.438C651.515 123.85 651.629 123.295 651.858 122.772C652.087 122.217 652.397 121.743 652.789 121.351C653.181 120.959 653.638 120.649 654.161 120.42C654.684 120.191 655.239 120.077 655.827 120.077C656.415 120.077 656.97 120.191 657.493 120.42C658.016 120.649 658.473 120.959 658.865 121.351C659.257 121.743 659.567 122.217 659.796 122.772C660.057 123.295 660.188 123.85 660.188 124.438ZM707.895 143.205C707.895 143.891 707.666 144.512 707.209 145.067L676.682 186.325H706.67V190H671.047V188.138C671.047 187.583 671.292 186.978 671.782 186.325L702.407 144.92H672.664V141.245H707.895V143.205ZM738.24 140.461C741.736 140.461 744.855 141.065 747.599 142.274C750.376 143.45 752.712 145.132 754.606 147.321C756.501 149.51 757.938 152.156 758.918 155.259C759.931 158.33 760.437 161.776 760.437 165.598C760.437 169.42 759.931 172.866 758.918 175.937C757.938 179.008 756.501 181.637 754.606 183.826C752.712 186.015 750.376 187.697 747.599 188.873C744.855 190.049 741.736 190.637 738.24 190.637C734.745 190.637 731.609 190.049 728.832 188.873C726.088 187.697 723.753 186.015 721.825 183.826C719.931 181.637 718.477 179.008 717.464 175.937C716.484 172.866 715.994 169.42 715.994 165.598C715.994 161.776 716.484 158.33 717.464 155.259C718.477 152.156 719.931 149.51 721.825 147.321C723.753 145.132 726.088 143.45 728.832 142.274C731.609 141.065 734.745 140.461 738.24 140.461ZM738.24 186.962C741.148 186.962 743.679 186.472 745.835 185.492C748.024 184.479 749.837 183.042 751.274 181.18C752.744 179.318 753.839 177.08 754.557 174.467C755.276 171.821 755.635 168.865 755.635 165.598C755.635 162.364 755.276 159.424 754.557 156.778C753.839 154.132 752.744 151.878 751.274 150.016C749.837 148.121 748.024 146.668 745.835 145.655C743.679 144.642 741.148 144.136 738.24 144.136C735.333 144.136 732.785 144.642 730.596 145.655C728.44 146.668 726.627 148.121 725.157 150.016C723.72 151.878 722.626 154.132 721.874 156.778C721.156 159.424 720.796 162.364 720.796 165.598C720.796 168.865 721.156 171.821 721.874 174.467C722.626 177.08 723.72 179.318 725.157 181.18C726.627 183.042 728.44 184.479 730.596 185.492C732.785 186.472 735.333 186.962 738.24 186.962ZM772.689 190V141.245H775.237C776.086 141.245 776.576 141.653 776.707 142.47L777.148 149.82C779.369 147.011 781.95 144.757 784.89 143.058C787.863 141.327 791.162 140.461 794.788 140.461C797.467 140.461 799.819 140.886 801.844 141.735C803.902 142.584 805.601 143.809 806.94 145.41C808.279 147.011 809.292 148.938 809.978 151.192C810.664 153.446 811.007 155.994 811.007 158.836V190H806.352V158.836C806.352 154.263 805.307 150.686 803.216 148.105C801.125 145.492 797.924 144.185 793.612 144.185C790.411 144.185 787.438 145.018 784.694 146.684C781.95 148.317 779.5 150.571 777.344 153.446V190H772.689ZM852.561 147.272C852.332 147.729 851.973 147.958 851.483 147.958C851.123 147.958 850.65 147.762 850.062 147.37C849.506 146.945 848.755 146.488 847.808 145.998C846.893 145.475 845.75 145.018 844.378 144.626C843.038 144.201 841.389 143.989 839.429 143.989C837.665 143.989 836.048 144.25 834.578 144.773C833.14 145.263 831.899 145.933 830.854 146.782C829.841 147.631 829.041 148.628 828.453 149.771C827.897 150.882 827.62 152.058 827.62 153.299C827.62 154.834 828.012 156.108 828.796 157.121C829.58 158.134 830.609 158.999 831.883 159.718C833.157 160.437 834.594 161.057 836.195 161.58C837.828 162.103 839.494 162.625 841.193 163.148C842.891 163.671 844.541 164.259 846.142 164.912C847.775 165.533 849.229 166.317 850.503 167.264C851.777 168.211 852.806 169.371 853.59 170.743C854.374 172.115 854.766 173.781 854.766 175.741C854.766 177.864 854.374 179.841 853.59 181.67C852.838 183.499 851.728 185.084 850.258 186.423C848.82 187.762 847.04 188.824 844.917 189.608C842.793 190.392 840.376 190.784 837.665 190.784C834.235 190.784 831.278 190.245 828.796 189.167C826.313 188.056 824.092 186.619 822.132 184.855L823.259 183.189C823.422 182.928 823.602 182.732 823.798 182.601C823.994 182.47 824.271 182.405 824.631 182.405C825.055 182.405 825.578 182.666 826.199 183.189C826.819 183.712 827.62 184.283 828.6 184.904C829.612 185.492 830.854 186.047 832.324 186.57C833.826 187.093 835.672 187.354 837.861 187.354C839.919 187.354 841.732 187.076 843.3 186.521C844.868 185.933 846.174 185.149 847.22 184.169C848.265 183.189 849.049 182.046 849.572 180.739C850.127 179.4 850.405 177.995 850.405 176.525C850.405 174.892 850.013 173.536 849.229 172.458C848.445 171.38 847.416 170.465 846.142 169.714C844.868 168.963 843.414 168.326 841.781 167.803C840.18 167.28 838.514 166.758 836.783 166.235C835.084 165.712 833.418 165.141 831.785 164.52C830.184 163.899 828.747 163.115 827.473 162.168C826.199 161.221 825.17 160.077 824.386 158.738C823.602 157.366 823.21 155.667 823.21 153.642C823.21 151.911 823.585 150.245 824.337 148.644C825.088 147.043 826.15 145.639 827.522 144.43C828.926 143.221 830.625 142.258 832.618 141.539C834.61 140.82 836.848 140.461 839.331 140.461C842.303 140.461 844.933 140.886 847.22 141.735C849.539 142.584 851.662 143.891 853.59 145.655L852.561 147.272Z" fill="white"/>
</svg>
