<svg width="242" height="72" viewBox="0 0 242 72" fill="none" xmlns="http://www.w3.org/2000/svg">
<path d="M0 72H129.783V65H0V72Z" fill="url(#paint0_linear)"/>
<path d="M10.3675 18.9375V32.715H26.565V37.06H10.3675V54H5.0325V14.5925H29.315V18.9375H10.3675ZM61.3426 26.1425V54H58.4276C57.731 54 57.291 53.6608 57.1076 52.9825L56.7226 49.985C55.5126 51.3233 54.156 52.405 52.6526 53.23C51.1493 54.0367 49.426 54.44 47.4826 54.44C45.961 54.44 44.6135 54.1925 43.4401 53.6975C42.2851 53.1842 41.3135 52.4692 40.5251 51.5525C39.7368 50.6358 39.141 49.5267 38.7376 48.225C38.3526 46.9233 38.1601 45.4842 38.1601 43.9075V26.1425H43.0551V43.9075C43.0551 46.0158 43.5318 47.6475 44.4851 48.8025C45.4568 49.9575 46.9326 50.535 48.9126 50.535C50.361 50.535 51.7085 50.1958 52.9551 49.5175C54.2201 48.8208 55.3843 47.8675 56.4476 46.6575V26.1425H61.3426ZM79.2241 30.185C79.8291 29.5067 80.4707 28.8925 81.1491 28.3425C81.8274 27.7925 82.5424 27.325 83.2941 26.94C84.0641 26.5367 84.8707 26.2342 85.7141 26.0325C86.5757 25.8125 87.5016 25.7025 88.4916 25.7025C90.0132 25.7025 91.3516 25.9592 92.5066 26.4725C93.6799 26.9675 94.6516 27.6825 95.4216 28.6175C96.2099 29.5342 96.8057 30.6433 97.2091 31.945C97.6124 33.2467 97.8141 34.6858 97.8141 36.2625V54H92.8916V36.2625C92.8916 34.1542 92.4057 32.5225 91.4341 31.3675C90.4807 30.1942 89.0232 29.6075 87.0616 29.6075C85.6132 29.6075 84.2566 29.9558 82.9916 30.6525C81.7449 31.3492 80.5899 32.2933 79.5266 33.485V54H74.6041V26.1425H77.5466C78.2432 26.1425 78.6741 26.4817 78.8391 27.16L79.2241 30.185ZM128.923 32.77C128.006 31.5417 127.016 30.6892 125.953 30.2125C124.89 29.7175 123.698 29.47 122.378 29.47C119.793 29.47 117.804 30.3958 116.411 32.2475C115.017 34.0992 114.321 36.7392 114.321 40.1675C114.321 41.9825 114.476 43.5408 114.788 44.8425C115.1 46.1258 115.558 47.1892 116.163 48.0325C116.768 48.8575 117.511 49.4625 118.391 49.8475C119.271 50.2325 120.27 50.425 121.388 50.425C123.001 50.425 124.404 50.0583 125.596 49.325C126.806 48.5917 127.915 47.5558 128.923 46.2175V32.77ZM133.818 13.4925V54H130.903C130.206 54 129.766 53.6608 129.583 52.9825L129.143 49.6C127.951 51.03 126.595 52.185 125.073 53.065C123.551 53.945 121.791 54.385 119.793 54.385C118.198 54.385 116.75 54.0825 115.448 53.4775C114.146 52.8542 113.037 51.9467 112.121 50.755C111.204 49.5633 110.498 48.0783 110.003 46.3C109.508 44.5217 109.261 42.4775 109.261 40.1675C109.261 38.1142 109.536 36.2075 110.086 34.4475C110.636 32.6692 111.424 31.1292 112.451 29.8275C113.477 28.5258 114.733 27.5083 116.218 26.775C117.721 26.0233 119.408 25.6475 121.278 25.6475C122.983 25.6475 124.441 25.9408 125.651 26.5275C126.879 27.0958 127.97 27.8933 128.923 28.92V13.4925H133.818ZM152.219 26.1425V54H147.324V26.1425H152.219ZM153.264 17.3975C153.264 17.8742 153.164 18.3233 152.962 18.745C152.779 19.1483 152.522 19.515 152.192 19.845C151.88 20.1567 151.504 20.4042 151.064 20.5875C150.643 20.7708 150.194 20.8625 149.717 20.8625C149.24 20.8625 148.791 20.7708 148.369 20.5875C147.966 20.4042 147.609 20.1567 147.297 19.845C146.985 19.515 146.738 19.1483 146.554 18.745C146.371 18.3233 146.279 17.8742 146.279 17.3975C146.279 16.9208 146.371 16.4717 146.554 16.05C146.738 15.61 146.985 15.2342 147.297 14.9225C147.609 14.5925 147.966 14.3358 148.369 14.1525C148.791 13.9692 149.24 13.8775 149.717 13.8775C150.194 13.8775 150.643 13.9692 151.064 14.1525C151.504 14.3358 151.88 14.5925 152.192 14.9225C152.522 15.2342 152.779 15.61 152.962 16.05C153.164 16.4717 153.264 16.9208 153.264 17.3975ZM170.382 30.185C170.987 29.5067 171.629 28.8925 172.307 28.3425C172.986 27.7925 173.701 27.325 174.452 26.94C175.222 26.5367 176.029 26.2342 176.872 26.0325C177.734 25.8125 178.66 25.7025 179.65 25.7025C181.171 25.7025 182.51 25.9592 183.665 26.4725C184.838 26.9675 185.81 27.6825 186.58 28.6175C187.368 29.5342 187.964 30.6433 188.367 31.945C188.771 33.2467 188.972 34.6858 188.972 36.2625V54H184.05V36.2625C184.05 34.1542 183.564 32.5225 182.592 31.3675C181.639 30.1942 180.181 29.6075 178.22 29.6075C176.771 29.6075 175.415 29.9558 174.15 30.6525C172.903 31.3492 171.748 32.2933 170.685 33.485V54H165.762V26.1425H168.705C169.401 26.1425 169.832 26.4817 169.997 27.16L170.382 30.185ZM211.639 40.3875C212.629 40.3875 213.5 40.25 214.251 39.975C215.003 39.7 215.635 39.315 216.149 38.82C216.662 38.325 217.047 37.7383 217.304 37.06C217.56 36.3633 217.689 35.6025 217.689 34.7775C217.689 33.0725 217.166 31.7158 216.121 30.7075C215.095 29.6992 213.6 29.195 211.639 29.195C209.659 29.195 208.146 29.6992 207.101 30.7075C206.075 31.7158 205.561 33.0725 205.561 34.7775C205.561 35.6025 205.69 36.3633 205.946 37.06C206.221 37.7383 206.615 38.325 207.129 38.82C207.642 39.315 208.275 39.7 209.026 39.975C209.778 40.25 210.649 40.3875 211.639 40.3875ZM220.466 55.5125C220.466 54.8342 220.274 54.2842 219.889 53.8625C219.504 53.4408 218.981 53.1108 218.321 52.8725C217.68 52.6342 216.928 52.4692 216.066 52.3775C215.205 52.2675 214.288 52.185 213.316 52.13C212.363 52.075 211.391 52.02 210.401 51.965C209.411 51.91 208.458 51.8183 207.541 51.69C206.515 52.1667 205.671 52.7717 205.011 53.505C204.37 54.22 204.049 55.0633 204.049 56.035C204.049 56.6583 204.205 57.2358 204.516 57.7675C204.846 58.3175 205.341 58.785 206.001 59.17C206.661 59.5733 207.486 59.885 208.476 60.105C209.485 60.3433 210.667 60.4625 212.024 60.4625C213.344 60.4625 214.526 60.3433 215.571 60.105C216.616 59.8667 217.496 59.5275 218.211 59.0875C218.945 58.6475 219.504 58.125 219.889 57.52C220.274 56.915 220.466 56.2458 220.466 55.5125ZM225.444 27.2425V29.0575C225.444 29.6625 225.059 30.0475 224.289 30.2125L221.126 30.625C221.75 31.835 222.061 33.1733 222.061 34.64C222.061 35.9967 221.795 37.2342 221.264 38.3525C220.75 39.4525 220.035 40.3967 219.119 41.185C218.202 41.9733 217.102 42.5783 215.819 43C214.535 43.4217 213.142 43.6325 211.639 43.6325C210.337 43.6325 209.109 43.4767 207.954 43.165C207.367 43.5317 206.918 43.9258 206.606 44.3475C206.295 44.7508 206.139 45.1633 206.139 45.585C206.139 46.245 206.405 46.7492 206.936 47.0975C207.486 47.4275 208.201 47.6658 209.081 47.8125C209.961 47.9592 210.96 48.0508 212.079 48.0875C213.215 48.1242 214.37 48.1883 215.544 48.28C216.735 48.3533 217.89 48.4908 219.009 48.6925C220.145 48.8942 221.154 49.2242 222.034 49.6825C222.914 50.1408 223.62 50.7733 224.151 51.58C224.701 52.3867 224.976 53.4317 224.976 54.715C224.976 55.9067 224.674 57.0617 224.069 58.18C223.482 59.2983 222.63 60.2883 221.511 61.15C220.393 62.03 219.018 62.7267 217.386 63.24C215.773 63.7717 213.949 64.0375 211.914 64.0375C209.879 64.0375 208.1 63.8358 206.579 63.4325C205.057 63.0292 203.792 62.4883 202.784 61.81C201.775 61.1317 201.015 60.3433 200.501 59.445C200.006 58.565 199.759 57.6392 199.759 56.6675C199.759 55.2925 200.19 54.1283 201.051 53.175C201.913 52.2217 203.095 51.4608 204.599 50.8925C203.774 50.5258 203.114 50.04 202.619 49.435C202.142 48.8117 201.904 47.9775 201.904 46.9325C201.904 46.5292 201.977 46.1167 202.124 45.695C202.27 45.255 202.49 44.8242 202.784 44.4025C203.095 43.9625 203.471 43.55 203.911 43.165C204.351 42.78 204.865 42.4408 205.451 42.1475C204.076 41.3775 203.004 40.36 202.234 39.095C201.464 37.8117 201.079 36.3267 201.079 34.64C201.079 33.2833 201.335 32.055 201.849 30.955C202.38 29.8367 203.114 28.8925 204.049 28.1225C204.984 27.3342 206.093 26.7292 207.376 26.3075C208.678 25.8858 210.099 25.675 211.639 25.675C212.849 25.675 213.976 25.8125 215.021 26.0875C216.066 26.3442 217.02 26.7292 217.881 27.2425H225.444Z" fill="black"/>
<defs>
<linearGradient id="paint0_linear" x1="147.432" y1="65.431" x2="135.794" y2="21.9975" gradientUnits="userSpaceOnUse">
<stop stop-color="#458ACC"/>
<stop offset="1" stop-color="#B6D15D"/>
</linearGradient>
</defs>
</svg>
