<svg width="253" height="95" viewBox="0 0 253 95" fill="none" xmlns="http://www.w3.org/2000/svg">
<path d="M115.065 32.6357H112.113V10.8315H115.065V32.6357ZM122.322 19.4588C122.657 19.0835 123.012 18.7437 123.387 18.4394C123.762 18.1351 124.158 17.8764 124.574 17.6634C125 17.4402 125.446 17.2728 125.913 17.1612C126.39 17.0395 126.902 16.9787 127.45 16.9787C128.292 16.9787 129.032 17.1207 129.671 17.4047C130.32 17.6786 130.858 18.0742 131.284 18.5915C131.72 19.0987 132.05 19.7124 132.273 20.4326C132.496 21.1529 132.608 21.9492 132.608 22.8215V32.6357H129.884V22.8215C129.884 21.655 129.615 20.7522 129.078 20.1131C128.55 19.4639 127.744 19.1393 126.658 19.1393C125.857 19.1393 125.106 19.332 124.406 19.7175C123.717 20.103 123.078 20.6254 122.489 21.2847V32.6357H119.766V17.2221H121.394C121.779 17.2221 122.018 17.4098 122.109 17.7851L122.322 19.4588ZM149.615 17.2221L143.331 32.6357H140.897L134.612 17.2221H136.819C137.042 17.2221 137.224 17.2779 137.367 17.3895C137.509 17.5011 137.605 17.6329 137.656 17.7851L141.566 27.7058C141.688 28.0811 141.794 28.4463 141.886 28.8014C141.977 29.1564 142.063 29.5114 142.144 29.8665C142.225 29.5114 142.312 29.1564 142.403 28.8014C142.494 28.4463 142.606 28.0811 142.738 27.7058L146.694 17.7851C146.755 17.6228 146.856 17.4909 146.998 17.3895C147.14 17.2779 147.308 17.2221 147.5 17.2221H149.615ZM162 23.2476C162 22.6187 161.908 22.0455 161.726 21.5282C161.553 21.0007 161.295 20.5493 160.95 20.174C160.615 19.7885 160.204 19.4943 159.717 19.2915C159.23 19.0784 158.677 18.9719 158.059 18.9719C156.76 18.9719 155.731 19.3523 154.97 20.1131C154.219 20.8638 153.753 21.9086 153.57 23.2476H162ZM164.191 30.4751C163.856 30.8808 163.455 31.2359 162.989 31.5402C162.522 31.8344 162.02 32.0778 161.482 32.2706C160.955 32.4633 160.407 32.6053 159.839 32.6966C159.271 32.798 158.708 32.8488 158.15 32.8488C157.085 32.8488 156.101 32.6712 155.198 32.3162C154.305 31.951 153.529 31.4235 152.87 30.7338C152.221 30.0338 151.714 29.1716 151.348 28.1471C150.983 27.1225 150.801 25.9458 150.801 24.617C150.801 23.5417 150.963 22.5375 151.288 21.6043C151.622 20.671 152.099 19.8646 152.718 19.1849C153.337 18.4952 154.092 17.9575 154.985 17.5721C155.878 17.1765 156.882 16.9787 157.998 16.9787C158.921 16.9787 159.773 17.1359 160.554 17.4503C161.345 17.7547 162.025 18.201 162.593 18.7893C163.171 19.3675 163.623 20.0878 163.947 20.95C164.272 21.8021 164.434 22.7759 164.434 23.8714C164.434 24.2975 164.388 24.5815 164.297 24.7235C164.206 24.8655 164.033 24.9365 163.78 24.9365H153.479C153.509 25.9103 153.641 26.7574 153.874 27.4776C154.118 28.1978 154.452 28.8014 154.879 29.2883C155.305 29.765 155.812 30.1251 156.4 30.3686C156.988 30.6019 157.648 30.7185 158.378 30.7185C159.058 30.7185 159.641 30.6425 160.128 30.4903C160.625 30.328 161.051 30.1556 161.406 29.973C161.761 29.7904 162.055 29.623 162.289 29.4708C162.532 29.3085 162.74 29.2274 162.912 29.2274C163.136 29.2274 163.308 29.3136 163.43 29.4861L164.191 30.4751ZM176.738 19.7632C176.616 19.9863 176.429 20.0979 176.175 20.0979C176.023 20.0979 175.851 20.0421 175.658 19.9305C175.465 19.8189 175.227 19.6972 174.943 19.5653C174.669 19.4233 174.339 19.2965 173.954 19.1849C173.568 19.0632 173.112 19.0024 172.584 19.0024C172.128 19.0024 171.717 19.0632 171.352 19.1849C170.987 19.2965 170.672 19.4538 170.408 19.6566C170.155 19.8595 169.957 20.0979 169.815 20.3718C169.683 20.6355 169.617 20.9246 169.617 21.2391C169.617 21.6347 169.729 21.9644 169.952 22.2281C170.185 22.4919 170.49 22.7201 170.865 22.9128C171.24 23.1056 171.666 23.278 172.143 23.4302C172.62 23.5722 173.107 23.7294 173.604 23.9019C174.111 24.0642 174.603 24.2467 175.08 24.4496C175.556 24.6525 175.982 24.9061 176.358 25.2104C176.733 25.5147 177.032 25.8901 177.256 26.3364C177.489 26.7726 177.605 27.3001 177.605 27.9188C177.605 28.6289 177.479 29.2883 177.225 29.8969C176.971 30.4954 176.596 31.0178 176.099 31.4641C175.602 31.9003 174.993 32.2452 174.273 32.4988C173.553 32.7524 172.721 32.8792 171.778 32.8792C170.703 32.8792 169.729 32.7067 168.856 32.3619C167.984 32.0068 167.244 31.5554 166.635 31.0076L167.274 29.973C167.355 29.8411 167.451 29.7397 167.563 29.6687C167.675 29.5976 167.817 29.5621 167.989 29.5621C168.172 29.5621 168.364 29.6332 168.567 29.7752C168.77 29.9172 169.014 30.0744 169.298 30.2469C169.592 30.4193 169.947 30.5765 170.363 30.7185C170.779 30.8606 171.296 30.9316 171.915 30.9316C172.442 30.9316 172.904 30.8656 173.299 30.7338C173.695 30.5917 174.025 30.4041 174.288 30.1708C174.552 29.9375 174.745 29.6687 174.867 29.3643C174.999 29.06 175.064 28.7354 175.064 28.3905C175.064 27.9645 174.948 27.6145 174.714 27.3406C174.491 27.0566 174.192 26.8182 173.817 26.6255C173.441 26.4226 173.01 26.2502 172.523 26.1082C172.047 25.956 171.555 25.7988 171.047 25.6365C170.55 25.4742 170.058 25.2916 169.572 25.0887C169.095 24.8757 168.669 24.6119 168.293 24.2975C167.918 23.983 167.614 23.5975 167.38 23.1411C167.157 22.6744 167.046 22.1115 167.046 21.4521C167.046 20.8638 167.167 20.3008 167.411 19.7632C167.654 19.2154 168.009 18.7386 168.476 18.3329C168.943 17.917 169.516 17.5873 170.195 17.3438C170.875 17.1004 171.651 16.9787 172.523 16.9787C173.538 16.9787 174.446 17.141 175.247 17.4656C176.059 17.78 176.758 18.2162 177.347 18.7741L176.738 19.7632ZM185.658 32.8792C184.441 32.8792 183.503 32.5394 182.843 31.8597C182.194 31.1801 181.869 30.2012 181.869 28.9231V19.4893H180.013C179.851 19.4893 179.714 19.4436 179.602 19.3523C179.491 19.2509 179.435 19.0987 179.435 18.8958V17.8155L181.961 17.496L182.585 12.7334C182.615 12.5813 182.681 12.4596 182.782 12.3683C182.894 12.2668 183.036 12.2161 183.208 12.2161H184.578V17.5264H189.036V19.4893H184.578V28.7405C184.578 29.3897 184.735 29.8715 185.05 30.186C185.364 30.5005 185.77 30.6577 186.267 30.6577C186.551 30.6577 186.794 30.6222 186.997 30.5512C187.21 30.47 187.393 30.3838 187.545 30.2925C187.697 30.2012 187.824 30.1201 187.925 30.0491C188.037 29.9679 188.133 29.9273 188.214 29.9273C188.356 29.9273 188.483 30.0135 188.595 30.186L189.386 31.4793C188.919 31.9155 188.356 32.2604 187.697 32.514C187.038 32.7575 186.358 32.8792 185.658 32.8792ZM202.48 17.2221V32.6357H199.771V17.2221H202.48ZM203.058 12.3835C203.058 12.6472 203.002 12.8957 202.89 13.129C202.789 13.3522 202.647 13.5551 202.464 13.7377C202.292 13.9101 202.084 14.0471 201.84 14.1485C201.607 14.2499 201.359 14.3007 201.095 14.3007C200.831 14.3007 200.583 14.2499 200.349 14.1485C200.126 14.0471 199.928 13.9101 199.756 13.7377C199.583 13.5551 199.447 13.3522 199.345 13.129C199.244 12.8957 199.193 12.6472 199.193 12.3835C199.193 12.1197 199.244 11.8712 199.345 11.6379C199.447 11.3944 199.583 11.1865 199.756 11.014C199.928 10.8315 200.126 10.6894 200.349 10.588C200.583 10.4866 200.831 10.4358 201.095 10.4358C201.359 10.4358 201.607 10.4866 201.84 10.588C202.084 10.6894 202.292 10.8315 202.464 11.014C202.647 11.1865 202.789 11.3944 202.89 11.6379C203.002 11.8712 203.058 12.1197 203.058 12.3835ZM209.486 19.4588C209.821 19.0835 210.176 18.7437 210.551 18.4394C210.926 18.1351 211.322 17.8764 211.738 17.6634C212.164 17.4402 212.61 17.2728 213.077 17.1612C213.554 17.0395 214.066 16.9787 214.614 16.9787C215.456 16.9787 216.196 17.1207 216.835 17.4047C217.484 17.6786 218.022 18.0742 218.448 18.5915C218.884 19.0987 219.214 19.7124 219.437 20.4326C219.66 21.1529 219.772 21.9492 219.772 22.8215V32.6357H217.048V22.8215C217.048 21.655 216.779 20.7522 216.242 20.1131C215.714 19.4639 214.908 19.1393 213.822 19.1393C213.021 19.1393 212.27 19.332 211.571 19.7175C210.881 20.103 210.242 20.6254 209.653 21.2847V32.6357H206.93V17.2221H208.558C208.943 17.2221 209.182 17.4098 209.273 17.7851L209.486 19.4588ZM115.065 62.6357H112.113V40.8315H115.065V62.6357ZM122.322 49.4588C122.657 49.0835 123.012 48.7437 123.387 48.4394C123.762 48.1351 124.158 47.8764 124.574 47.6634C125 47.4402 125.446 47.2728 125.913 47.1612C126.39 47.0395 126.902 46.9787 127.45 46.9787C128.292 46.9787 129.032 47.1207 129.671 47.4047C130.32 47.6786 130.858 48.0742 131.284 48.5915C131.72 49.0987 132.05 49.7124 132.273 50.4326C132.496 51.1529 132.608 51.9492 132.608 52.8215V62.6357H129.884V52.8215C129.884 51.655 129.615 50.7522 129.078 50.1131C128.55 49.4639 127.744 49.1393 126.658 49.1393C125.857 49.1393 125.106 49.332 124.406 49.7175C123.717 50.103 123.078 50.6254 122.489 51.2847V62.6357H119.766V47.2221H121.394C121.779 47.2221 122.018 47.4098 122.109 47.7851L122.322 49.4588ZM139.291 49.4588C139.626 49.0835 139.981 48.7437 140.356 48.4394C140.732 48.1351 141.127 47.8764 141.543 47.6634C141.969 47.4402 142.415 47.2728 142.882 47.1612C143.359 47.0395 143.871 46.9787 144.419 46.9787C145.261 46.9787 146.001 47.1207 146.64 47.4047C147.29 47.6786 147.827 48.0742 148.253 48.5915C148.689 49.0987 149.019 49.7124 149.242 50.4326C149.465 51.1529 149.577 51.9492 149.577 52.8215V62.6357H146.853V52.8215C146.853 51.655 146.585 50.7522 146.047 50.1131C145.519 49.4639 144.713 49.1393 143.628 49.1393C142.826 49.1393 142.076 49.332 141.376 49.7175C140.686 50.103 140.047 50.6254 139.458 51.2847V62.6357H136.735V47.2221H138.363C138.748 47.2221 138.987 47.4098 139.078 47.7851L139.291 49.4588ZM160.201 46.9787C161.327 46.9787 162.342 47.1663 163.244 47.5416C164.147 47.917 164.918 48.4495 165.557 49.1393C166.196 49.8291 166.683 50.666 167.018 51.6499C167.363 52.6237 167.535 53.7142 167.535 54.9213C167.535 56.1386 167.363 57.2341 167.018 58.2079C166.683 59.1817 166.196 60.0135 165.557 60.7033C164.918 61.3931 164.147 61.9257 163.244 62.301C162.342 62.6662 161.327 62.8488 160.201 62.8488C159.065 62.8488 158.041 62.6662 157.128 62.301C156.225 61.9257 155.454 61.3931 154.815 60.7033C154.176 60.0135 153.684 59.1817 153.339 58.2079C153.004 57.2341 152.837 56.1386 152.837 54.9213C152.837 53.7142 153.004 52.6237 153.339 51.6499C153.684 50.666 154.176 49.8291 154.815 49.1393C155.454 48.4495 156.225 47.917 157.128 47.5416C158.041 47.1663 159.065 46.9787 160.201 46.9787ZM160.201 60.7338C161.723 60.7338 162.859 60.2266 163.61 59.2122C164.36 58.1876 164.736 56.7624 164.736 54.9365C164.736 53.1005 164.36 51.6702 163.61 50.6457C162.859 49.6211 161.723 49.1089 160.201 49.1089C159.43 49.1089 158.756 49.2407 158.177 49.5045C157.609 49.7682 157.133 50.1486 156.747 50.6457C156.372 51.1427 156.088 51.7564 155.895 52.4868C155.713 53.207 155.621 54.0236 155.621 54.9365C155.621 56.7624 155.997 58.1876 156.747 59.2122C157.508 60.2266 158.659 60.7338 160.201 60.7338ZM183.762 47.2221L177.478 62.6357H175.043L168.759 47.2221H170.965C171.188 47.2221 171.371 47.2779 171.513 47.3895C171.655 47.5011 171.751 47.6329 171.802 47.7851L175.713 57.7058C175.834 58.0811 175.941 58.4463 176.032 58.8014C176.123 59.1564 176.21 59.5114 176.291 59.8665C176.372 59.5114 176.458 59.1564 176.549 58.8014C176.641 58.4463 176.752 58.0811 176.884 57.7058L180.84 47.7851C180.901 47.6228 181.003 47.4909 181.145 47.3895C181.287 47.2779 181.454 47.2221 181.647 47.2221H183.762ZM194.272 55.6973C193.025 55.7379 191.959 55.8393 191.077 56.0016C190.205 56.1538 189.489 56.3567 188.932 56.6103C188.384 56.8639 187.983 57.1631 187.729 57.508C187.486 57.8529 187.364 58.2384 187.364 58.6644C187.364 59.0702 187.43 59.4201 187.562 59.7143C187.694 60.0085 187.871 60.2519 188.095 60.4447C188.328 60.6273 188.597 60.7642 188.901 60.8555C189.216 60.9366 189.55 60.9772 189.905 60.9772C190.382 60.9772 190.818 60.9316 191.214 60.8403C191.61 60.7388 191.98 60.5968 192.325 60.4142C192.68 60.2316 193.014 60.0135 193.329 59.76C193.654 59.5064 193.968 59.2173 194.272 58.8926V55.6973ZM185.523 49.398C186.375 48.5763 187.293 47.9626 188.277 47.5569C189.261 47.1511 190.352 46.9482 191.549 46.9482C192.411 46.9482 193.177 47.0902 193.846 47.3743C194.516 47.6583 195.079 48.0539 195.535 48.5611C195.992 49.0683 196.337 49.682 196.57 50.4022C196.803 51.1224 196.92 51.9137 196.92 52.7759V62.6357H195.718C195.454 62.6357 195.251 62.5952 195.109 62.514C194.967 62.4227 194.856 62.2503 194.774 61.9967L194.47 60.536C194.064 60.9113 193.669 61.246 193.283 61.5402C192.898 61.8242 192.492 62.0677 192.066 62.2706C191.64 62.4633 191.183 62.6104 190.697 62.7118C190.22 62.8234 189.687 62.8792 189.099 62.8792C188.5 62.8792 187.937 62.798 187.41 62.6357C186.882 62.4633 186.421 62.2097 186.025 61.875C185.64 61.5402 185.33 61.1192 185.097 60.612C184.874 60.0947 184.762 59.4861 184.762 58.7861C184.762 58.1775 184.93 57.5942 185.265 57.0363C185.599 56.4683 186.142 55.9661 186.893 55.53C187.643 55.0938 188.622 54.7387 189.829 54.4648C191.036 54.1808 192.517 54.0185 194.272 53.9779V52.7759C194.272 51.5789 194.014 50.6761 193.496 50.0675C192.979 49.4487 192.223 49.1393 191.229 49.1393C190.56 49.1393 189.997 49.2255 189.54 49.398C189.094 49.5603 188.703 49.7479 188.369 49.961C188.044 50.1638 187.76 50.3515 187.516 50.5239C187.283 50.6862 187.05 50.7674 186.817 50.7674C186.634 50.7674 186.477 50.7217 186.345 50.6305C186.213 50.529 186.101 50.4073 186.01 50.2653L185.523 49.398ZM215.14 62.6357H212.432V49.4893H204.489V58.7405C204.489 59.3897 204.646 59.8715 204.961 60.186C205.275 60.5005 205.681 60.6577 206.178 60.6577C206.462 60.6577 206.706 60.6222 206.909 60.5512C207.122 60.47 207.304 60.3838 207.456 60.2925C207.608 60.2012 207.735 60.1201 207.837 60.0491C207.948 59.9679 208.045 59.9273 208.126 59.9273C208.268 59.9273 208.395 60.0135 208.506 60.186L209.297 61.4793C208.831 61.9155 208.268 62.2604 207.608 62.514C206.949 62.7575 206.269 62.8792 205.57 62.8792C204.352 62.8792 203.414 62.5394 202.755 61.8597C202.105 61.1801 201.781 60.2012 201.781 58.9231V49.4893H199.924C199.762 49.4893 199.625 49.4436 199.514 49.3523C199.402 49.2509 199.346 49.0987 199.346 48.8958V47.8155L201.872 47.4808L202.496 42.7334C202.526 42.5813 202.592 42.4596 202.694 42.3683C202.805 42.2668 202.947 42.2161 203.12 42.2161H204.489V47.5264H215.14V62.6357ZM215.81 42.277C215.81 42.5407 215.754 42.7892 215.642 43.0225C215.541 43.2457 215.399 43.4435 215.216 43.616C215.044 43.7884 214.841 43.9253 214.608 44.0268C214.374 44.1282 214.126 44.1789 213.862 44.1789C213.598 44.1789 213.35 44.1282 213.117 44.0268C212.893 43.9253 212.696 43.7884 212.523 43.616C212.351 43.4435 212.214 43.2457 212.112 43.0225C212.011 42.7892 211.96 42.5407 211.96 42.277C211.96 42.0132 212.011 41.7647 212.112 41.5314C212.214 41.2879 212.351 41.08 212.523 40.9075C212.696 40.7249 212.893 40.5829 213.117 40.4815C213.35 40.3801 213.598 40.3293 213.862 40.3293C214.126 40.3293 214.374 40.3801 214.608 40.4815C214.841 40.5829 215.044 40.7249 215.216 40.9075C215.399 41.08 215.541 41.2879 215.642 41.5314C215.754 41.7647 215.81 42.0132 215.81 42.277ZM226.087 46.9787C227.213 46.9787 228.227 47.1663 229.13 47.5416C230.033 47.917 230.804 48.4495 231.443 49.1393C232.082 49.8291 232.569 50.666 232.904 51.6499C233.248 52.6237 233.421 53.7142 233.421 54.9213C233.421 56.1386 233.248 57.2341 232.904 58.2079C232.569 59.1817 232.082 60.0135 231.443 60.7033C230.804 61.3931 230.033 61.9257 229.13 62.301C228.227 62.6662 227.213 62.8488 226.087 62.8488C224.951 62.8488 223.926 62.6662 223.013 62.301C222.111 61.9257 221.34 61.3931 220.701 60.7033C220.061 60.0135 219.569 59.1817 219.225 58.2079C218.89 57.2341 218.722 56.1386 218.722 54.9213C218.722 53.7142 218.89 52.6237 219.225 51.6499C219.569 50.666 220.061 49.8291 220.701 49.1393C221.34 48.4495 222.111 47.917 223.013 47.5416C223.926 47.1663 224.951 46.9787 226.087 46.9787ZM226.087 60.7338C227.608 60.7338 228.745 60.2266 229.495 59.2122C230.246 58.1876 230.621 56.7624 230.621 54.9365C230.621 53.1005 230.246 51.6702 229.495 50.6457C228.745 49.6211 227.608 49.1089 226.087 49.1089C225.316 49.1089 224.641 49.2407 224.063 49.5045C223.495 49.7682 223.018 50.1486 222.633 50.6457C222.258 51.1427 221.974 51.7564 221.781 52.4868C221.598 53.207 221.507 54.0236 221.507 54.9365C221.507 56.7624 221.882 58.1876 222.633 59.2122C223.394 60.2266 224.545 60.7338 226.087 60.7338ZM239.412 49.4588C239.747 49.0835 240.102 48.7437 240.478 48.4394C240.853 48.1351 241.248 47.8764 241.664 47.6634C242.09 47.4402 242.537 47.2728 243.003 47.1612C243.48 47.0395 243.992 46.9787 244.54 46.9787C245.382 46.9787 246.123 47.1207 246.762 47.4047C247.411 47.6786 247.948 48.0742 248.375 48.5915C248.811 49.0987 249.14 49.7124 249.364 50.4326C249.587 51.1529 249.698 51.9492 249.698 52.8215V62.6357H246.975V52.8215C246.975 51.655 246.706 50.7522 246.168 50.1131C245.641 49.4639 244.834 49.1393 243.749 49.1393C242.948 49.1393 242.197 49.332 241.497 49.7175C240.807 50.103 240.168 50.6254 239.58 51.2847V62.6357H236.856V47.2221H238.484C238.87 47.2221 239.108 47.4098 239.199 47.7851L239.412 49.4588Z" fill="#009540"/>
<path d="M117.769 86.0791H116.318V82.6956H112.688V86.0791H111.237V78.3376H112.688V81.6676H116.318V78.3376H117.769V86.0791ZM125.284 78.3376V79.4833H121.852V81.6302H124.556V82.7384H121.852V84.9281H125.284V86.0791H120.401V78.3376H125.284ZM134.404 86.0791H133.291C133.166 86.0791 133.062 86.0488 132.98 85.9881C132.902 85.9238 132.844 85.8453 132.809 85.7525L132.231 84.1732H129.024L128.446 85.7525C128.417 85.8346 128.36 85.9096 128.274 85.9774C128.192 86.0452 128.09 86.0791 127.969 86.0791H126.85L129.891 78.3376H131.363L134.404 86.0791ZM129.393 83.156H131.861L130.919 80.5808C130.876 80.4666 130.828 80.3328 130.774 80.1793C130.724 80.0223 130.674 79.8527 130.624 79.6707C130.575 79.8527 130.525 80.0223 130.475 80.1793C130.428 80.3363 130.382 80.4738 130.335 80.5915L129.393 83.156ZM137.712 84.8906H140.812V86.0791H136.272V78.3376H137.712V84.8906ZM147.389 78.3376V79.5208H145.06V86.0791H143.62V79.5208H141.28V78.3376H147.389ZM155.904 86.0791H154.453V82.6956H150.823V86.0791H149.372V78.3376H150.823V81.6676H154.453V78.3376H155.904V86.0791ZM167.133 78.3376V79.5208H164.804V86.0791H163.364V79.5208H161.024V78.3376H167.133ZM173.999 78.3376V79.4833H170.567V81.6302H173.271V82.7384H170.567V84.9281H173.999V86.0791H169.116V78.3376H173.999ZM181.636 84.2535C181.714 84.2535 181.782 84.2838 181.839 84.3445L182.407 84.9602C182.093 85.3492 181.705 85.6472 181.245 85.8542C180.788 86.0613 180.239 86.1648 179.596 86.1648C179.021 86.1648 178.504 86.0666 178.044 85.8703C177.587 85.674 177.196 85.401 176.871 85.0512C176.546 84.7014 176.296 84.2838 176.122 83.7984C175.95 83.313 175.865 82.783 175.865 82.2084C175.865 81.6266 175.961 81.0948 176.154 80.613C176.346 80.1276 176.618 79.71 176.967 79.3602C177.317 79.0104 177.735 78.7392 178.22 78.5464C178.709 78.3501 179.248 78.252 179.837 78.252C180.412 78.252 180.913 78.3448 181.341 78.5304C181.773 78.7124 182.143 78.9551 182.45 79.2585L181.968 79.9277C181.939 79.9705 181.902 80.008 181.855 80.0401C181.813 80.0722 181.752 80.0883 181.673 80.0883C181.591 80.0883 181.507 80.0562 181.422 79.9919C181.336 79.9277 181.227 79.8581 181.095 79.7831C180.963 79.7082 180.795 79.6386 180.592 79.5743C180.392 79.5101 180.137 79.478 179.826 79.478C179.462 79.478 179.127 79.5422 178.82 79.6707C178.516 79.7956 178.254 79.9759 178.033 80.2114C177.815 80.447 177.644 80.7343 177.519 81.0734C177.398 81.4089 177.337 81.7872 177.337 82.2084C177.337 82.6438 177.398 83.0311 177.519 83.3701C177.644 83.7092 177.812 83.9947 178.022 84.2267C178.233 84.4587 178.481 84.6372 178.766 84.7621C179.052 84.8834 179.359 84.9441 179.687 84.9441C179.883 84.9441 180.06 84.9334 180.217 84.912C180.378 84.8906 180.524 84.8567 180.656 84.8103C180.792 84.7639 180.918 84.705 181.036 84.6336C181.158 84.5586 181.277 84.4676 181.395 84.3606C181.431 84.3284 181.468 84.3035 181.507 84.2856C181.547 84.2642 181.589 84.2535 181.636 84.2535ZM191.1 86.0791H189.649V82.6956H186.019V86.0791H184.569V78.3376H186.019V81.6676H189.649V78.3376H191.1V86.0791ZM201.756 78.3376V79.4833H198.325V81.6302H201.028V82.7384H198.325V84.9281H201.756V86.0791H196.874V78.3376H201.756ZM203.312 78.3376H204.474C204.598 78.3376 204.7 78.368 204.779 78.4286C204.857 78.4893 204.916 78.5678 204.955 78.6642L206.776 83.3862C206.836 83.5397 206.893 83.7092 206.947 83.8948C207.004 84.0768 207.058 84.2695 207.108 84.473C207.19 84.0625 207.291 83.7003 207.413 83.3862L209.228 78.6642C209.26 78.5821 209.317 78.5072 209.399 78.4393C209.481 78.3715 209.583 78.3376 209.704 78.3376H210.866L207.739 86.0791H206.438L203.312 78.3376ZM217.627 78.3376V79.4833H214.196V81.6302H216.899V82.7384H214.196V84.9281H217.627V86.0791H212.745V78.3376H217.627ZM220.698 78.3376C220.762 78.3376 220.816 78.3412 220.858 78.3483C220.901 78.3519 220.939 78.3626 220.971 78.3805C221.006 78.3947 221.04 78.4179 221.073 78.4501C221.105 78.4786 221.14 78.5179 221.18 78.5678L225.243 83.7449C225.229 83.62 225.218 83.4986 225.211 83.3808C225.207 83.2595 225.206 83.147 225.206 83.0435V78.3376H226.474V86.0791H225.73C225.616 86.0791 225.521 86.0613 225.447 86.0256C225.372 85.9899 225.298 85.9256 225.227 85.8328L221.18 80.6772C221.19 80.7914 221.197 80.9056 221.201 81.0198C221.208 81.1305 221.212 81.2322 221.212 81.325V86.0791H219.943V78.3376H220.698ZM234.562 78.3376V79.5208H232.234V86.0791H230.793V79.5208H228.454V78.3376H234.562Z" fill="#FFFD3A"/>
<line x1="96.0852" y1="1.10851e-07" x2="96.0852" y2="94.6763" stroke="#FFFD3A" stroke-width="5.07194"/>
<path d="M25.858 67.0622V36.235H29.0837C29.8547 36.235 30.3416 36.6103 30.5444 37.3609L30.9705 40.7084C32.3095 39.2274 33.8006 38.0304 35.4439 37.1175C37.1075 36.2045 39.0247 35.748 41.1955 35.748C42.8794 35.748 44.3604 36.0321 45.6385 36.6001C46.937 37.1479 48.0122 37.9391 48.8643 38.9738C49.7367 39.9882 50.396 41.2156 50.8424 42.656C51.2887 44.0965 51.5119 45.6891 51.5119 47.4338V67.0622H46.095V47.4338C46.095 45.1007 45.5574 43.2951 44.4821 42.017C43.4272 40.7186 41.8042 40.0693 39.6131 40.0693C38.0103 40.0693 36.5091 40.4548 35.1092 41.2257C33.7296 41.9967 32.4515 43.0415 31.2748 44.3602V67.0622H25.858Z" fill="#009540"/>
<path d="M10.1437 27.0503L10.1437 67.0623" stroke="#FFFD3A" stroke-width="5.07194"/>
<line y1="27.8957" x2="19.1607" y2="27.8957" stroke="#FFFD3A" stroke-width="5.07194"/>
<line y1="64.526" x2="19.1607" y2="64.526" stroke="#FFFD3A" stroke-width="5.07194"/>
<path d="M68.7524 27.0503L68.7524 67.0623" stroke="#FFFD3A" stroke-width="5.07194"/>
<line x1="58.6088" y1="27.8957" x2="77.7694" y2="27.8957" stroke="#FFFD3A" stroke-width="5.07194"/>
<line x1="58.6088" y1="64.5265" x2="77.7694" y2="64.5265" stroke="#FFFD3A" stroke-width="5.07194"/>
</svg>
