<svg width="208" height="84" viewBox="0 0 208 84" fill="none" xmlns="http://www.w3.org/2000/svg">
<path d="M100.874 28.9404H98.2864V9.82523H100.874V28.9404ZM107.236 17.3886C107.529 17.0596 107.841 16.7617 108.17 16.4949C108.499 16.2281 108.846 16.0013 109.21 15.8146C109.584 15.6189 109.975 15.4722 110.384 15.3744C110.802 15.2677 111.251 15.2143 111.731 15.2143C112.469 15.2143 113.119 15.3388 113.679 15.5878C114.248 15.8279 114.719 16.1747 115.093 16.6283C115.475 17.0729 115.764 17.6109 115.96 18.2423C116.156 18.8737 116.253 19.5718 116.253 20.3366V28.9404H113.866V20.3366C113.866 19.3139 113.63 18.5224 113.159 17.9622C112.696 17.3931 111.989 17.1085 111.038 17.1085C110.335 17.1085 109.677 17.2774 109.063 17.6154C108.459 17.9533 107.899 18.4113 107.383 18.9893V28.9404H104.995V15.4277H106.422C106.76 15.4277 106.969 15.5923 107.049 15.9213L107.236 17.3886ZM131.163 15.4277L125.654 28.9404H123.52L118.011 15.4277H119.945C120.141 15.4277 120.301 15.4766 120.425 15.5745C120.55 15.6723 120.634 15.7879 120.679 15.9213L124.107 24.6185C124.214 24.9475 124.307 25.2677 124.387 25.5789C124.467 25.8902 124.543 26.2014 124.614 26.5127C124.685 26.2014 124.76 25.8902 124.841 25.5789C124.921 25.2677 125.018 24.9475 125.134 24.6185L128.602 15.9213C128.656 15.779 128.744 15.6634 128.869 15.5745C128.993 15.4766 129.14 15.4277 129.309 15.4277H131.163ZM142.02 20.7101C142.02 20.1587 141.94 19.6563 141.78 19.2028C141.629 18.7403 141.402 18.3446 141.1 18.0156C140.806 17.6776 140.446 17.4197 140.019 17.2419C139.593 17.0551 139.108 16.9618 138.565 16.9618C137.427 16.9618 136.524 17.2952 135.858 17.9622C135.199 18.6203 134.79 19.5362 134.63 20.7101H142.02ZM143.941 27.0463C143.648 27.402 143.296 27.7132 142.887 27.98C142.478 28.2379 142.038 28.4513 141.567 28.6203C141.104 28.7893 140.624 28.9138 140.126 28.9938C139.628 29.0827 139.135 29.1272 138.645 29.1272C137.712 29.1272 136.849 28.9716 136.058 28.6603C135.275 28.3402 134.595 27.8777 134.017 27.273C133.448 26.6594 133.003 25.9035 132.683 25.0053C132.363 24.1072 132.203 23.0756 132.203 21.9106C132.203 20.968 132.345 20.0876 132.629 19.2694C132.923 18.4513 133.341 17.7443 133.883 17.1485C134.426 16.5438 135.088 16.0725 135.871 15.7345C136.653 15.3877 137.534 15.2143 138.512 15.2143C139.321 15.2143 140.068 15.3521 140.753 15.6278C141.447 15.8946 142.043 16.2859 142.541 16.8017C143.047 17.3086 143.443 17.94 143.728 18.6959C144.012 19.4429 144.155 20.2966 144.155 21.257C144.155 21.6305 144.115 21.8795 144.035 22.004C143.954 22.1285 143.803 22.1908 143.581 22.1908H134.55C134.577 23.0445 134.693 23.787 134.897 24.4184C135.111 25.0498 135.404 25.5789 135.777 26.0058C136.151 26.4238 136.596 26.7394 137.111 26.9529C137.627 27.1574 138.205 27.2597 138.846 27.2597C139.441 27.2597 139.953 27.193 140.38 27.0596C140.815 26.9173 141.189 26.7661 141.5 26.6061C141.811 26.446 142.069 26.2993 142.274 26.1659C142.487 26.0236 142.669 25.9524 142.821 25.9524C143.016 25.9524 143.167 26.028 143.274 26.1792L143.941 27.0463ZM154.941 17.6554C154.835 17.851 154.67 17.9489 154.448 17.9489C154.314 17.9489 154.163 17.8999 153.994 17.8021C153.825 17.7043 153.616 17.5976 153.367 17.482C153.127 17.3575 152.838 17.2463 152.5 17.1485C152.162 17.0418 151.762 16.9884 151.3 16.9884C150.899 16.9884 150.539 17.0418 150.219 17.1485C149.899 17.2463 149.623 17.3842 149.392 17.562C149.17 17.7399 148.996 17.9489 148.872 18.189C148.756 18.4202 148.698 18.6736 148.698 18.9493C148.698 19.2961 148.796 19.5851 148.992 19.8164C149.196 20.0476 149.463 20.2477 149.792 20.4166C150.121 20.5856 150.495 20.7368 150.913 20.8702C151.331 20.9947 151.758 21.1325 152.193 21.2837C152.638 21.426 153.069 21.586 153.487 21.7639C153.905 21.9418 154.279 22.1641 154.608 22.4309C154.937 22.6976 155.199 23.0267 155.395 23.418C155.599 23.8004 155.702 24.2628 155.702 24.8053C155.702 25.4278 155.59 26.0058 155.368 26.5394C155.146 27.064 154.817 27.522 154.381 27.9133C153.945 28.2957 153.412 28.5981 152.78 28.8204C152.149 29.0427 151.42 29.1539 150.593 29.1539C149.65 29.1539 148.796 29.0027 148.031 28.7003C147.267 28.3891 146.618 27.9933 146.084 27.5131L146.644 26.6061C146.715 26.4904 146.8 26.4015 146.898 26.3393C146.995 26.277 147.12 26.2459 147.271 26.2459C147.431 26.2459 147.6 26.3081 147.778 26.4326C147.956 26.5571 148.169 26.695 148.418 26.8462C148.676 26.9973 148.987 27.1352 149.352 27.2597C149.717 27.3842 150.17 27.4464 150.713 27.4464C151.175 27.4464 151.58 27.3886 151.927 27.273C152.273 27.1485 152.562 26.984 152.794 26.7795C153.025 26.5749 153.194 26.3393 153.301 26.0725C153.416 25.8057 153.474 25.5211 153.474 25.2188C153.474 24.8453 153.372 24.5385 153.167 24.2984C152.971 24.0494 152.709 23.8404 152.38 23.6714C152.051 23.4936 151.673 23.3424 151.246 23.2179C150.828 23.0845 150.397 22.9466 149.952 22.8044C149.517 22.6621 149.085 22.502 148.658 22.3241C148.24 22.1374 147.867 21.9062 147.538 21.6305C147.209 21.3548 146.942 21.0169 146.738 20.6167C146.542 20.2076 146.444 19.7141 146.444 19.1361C146.444 18.6203 146.551 18.1267 146.764 17.6554C146.978 17.1752 147.289 16.7572 147.698 16.4015C148.107 16.0369 148.61 15.7479 149.205 15.5344C149.801 15.321 150.481 15.2143 151.246 15.2143C152.136 15.2143 152.931 15.3566 153.634 15.6412C154.345 15.9168 154.959 16.2992 155.475 16.7883L154.941 17.6554ZM162.761 29.1539C161.694 29.1539 160.871 28.8559 160.293 28.2601C159.724 27.6643 159.44 26.8061 159.44 25.6856V17.4153H157.812C157.67 17.4153 157.55 17.3753 157.452 17.2952C157.354 17.2063 157.305 17.0729 157.305 16.8951V15.948L159.52 15.6678L160.067 11.4926C160.093 11.3593 160.151 11.2525 160.24 11.1725C160.338 11.0836 160.462 11.0391 160.614 11.0391H161.814V15.6945H165.723V17.4153H161.814V25.5256C161.814 26.0947 161.952 26.5171 162.228 26.7928C162.503 27.0685 162.859 27.2063 163.295 27.2063C163.544 27.2063 163.757 27.1752 163.935 27.1129C164.122 27.0418 164.282 26.9662 164.415 26.8862C164.549 26.8061 164.66 26.735 164.749 26.6728C164.847 26.6016 164.931 26.566 165.002 26.566C165.127 26.566 165.238 26.6416 165.336 26.7928L166.029 27.9266C165.62 28.309 165.127 28.6114 164.549 28.8337C163.971 29.0471 163.375 29.1539 162.761 29.1539ZM177.508 15.4277V28.9404H175.134V15.4277H177.508ZM178.015 11.1858C178.015 11.4171 177.966 11.6349 177.868 11.8395C177.779 12.0351 177.655 12.213 177.495 12.373C177.343 12.5242 177.161 12.6443 176.948 12.7332C176.743 12.8221 176.525 12.8666 176.294 12.8666C176.063 12.8666 175.845 12.8221 175.64 12.7332C175.445 12.6443 175.271 12.5242 175.12 12.373C174.969 12.213 174.849 12.0351 174.76 11.8395C174.671 11.6349 174.627 11.4171 174.627 11.1858C174.627 10.9546 174.671 10.7368 174.76 10.5322C174.849 10.3188 174.969 10.1365 175.12 9.9853C175.271 9.82523 175.445 9.70073 175.64 9.6118C175.845 9.52288 176.063 9.47841 176.294 9.47841C176.525 9.47841 176.743 9.52288 176.948 9.6118C177.161 9.70073 177.343 9.82523 177.495 9.9853C177.655 10.1365 177.779 10.3188 177.868 10.5322C177.966 10.7368 178.015 10.9546 178.015 11.1858ZM183.65 17.3886C183.944 17.0596 184.255 16.7617 184.584 16.4949C184.913 16.2281 185.26 16.0013 185.625 15.8146C185.998 15.6189 186.389 15.4722 186.798 15.3744C187.216 15.2677 187.665 15.2143 188.146 15.2143C188.884 15.2143 189.533 15.3388 190.093 15.5878C190.662 15.8279 191.134 16.1747 191.507 16.6283C191.89 17.0729 192.179 17.6109 192.374 18.2423C192.57 18.8737 192.668 19.5718 192.668 20.3366V28.9404H190.28V20.3366C190.28 19.3139 190.044 18.5224 189.573 17.9622C189.111 17.3931 188.404 17.1085 187.452 17.1085C186.749 17.1085 186.091 17.2774 185.478 17.6154C184.873 17.9533 184.313 18.4113 183.797 18.9893V28.9404H181.409V15.4277H182.837C183.175 15.4277 183.384 15.5923 183.464 15.9213L183.65 17.3886ZM100.874 55.9404H98.2864V36.8252H100.874V55.9404ZM107.236 44.3886C107.529 44.0596 107.841 43.7617 108.17 43.4949C108.499 43.2281 108.846 43.0013 109.21 42.8146C109.584 42.6189 109.975 42.4722 110.384 42.3744C110.802 42.2677 111.251 42.2143 111.731 42.2143C112.469 42.2143 113.119 42.3388 113.679 42.5878C114.248 42.8279 114.719 43.1747 115.093 43.6283C115.475 44.0729 115.764 44.6109 115.96 45.2423C116.156 45.8737 116.253 46.5718 116.253 47.3366V55.9404H113.866V47.3366C113.866 46.3139 113.63 45.5224 113.159 44.9622C112.696 44.3931 111.989 44.1085 111.038 44.1085C110.335 44.1085 109.677 44.2774 109.063 44.6154C108.459 44.9533 107.899 45.4113 107.383 45.9893V55.9404H104.995V42.4277H106.422C106.76 42.4277 106.969 42.5923 107.049 42.9213L107.236 44.3886ZM125.567 42.2143C126.554 42.2143 127.444 42.3788 128.235 42.7079C129.027 43.0369 129.702 43.5038 130.263 44.1085C130.823 44.7132 131.25 45.4469 131.543 46.3095C131.846 47.1632 131.997 48.1192 131.997 49.1774C131.997 50.2446 131.846 51.205 131.543 52.0587C131.25 52.9124 130.823 53.6416 130.263 54.2463C129.702 54.8511 129.027 55.3179 128.235 55.647C127.444 55.9671 126.554 56.1272 125.567 56.1272C124.571 56.1272 123.673 55.9671 122.873 55.647C122.081 55.3179 121.405 54.8511 120.845 54.2463C120.285 53.6416 119.854 52.9124 119.551 52.0587C119.258 51.205 119.111 50.2446 119.111 49.1774C119.111 48.1192 119.258 47.1632 119.551 46.3095C119.854 45.4469 120.285 44.7132 120.845 44.1085C121.405 43.5038 122.081 43.0369 122.873 42.7079C123.673 42.3788 124.571 42.2143 125.567 42.2143ZM125.567 54.273C126.901 54.273 127.897 53.8284 128.555 52.9391C129.213 52.0409 129.542 50.7915 129.542 49.1908C129.542 47.5811 129.213 46.3273 128.555 45.4291C127.897 44.5309 126.901 44.0818 125.567 44.0818C124.891 44.0818 124.3 44.1974 123.793 44.4286C123.295 44.6598 122.877 44.9933 122.539 45.4291C122.21 45.8648 121.961 46.4028 121.792 47.0431C121.632 47.6745 121.552 48.3904 121.552 49.1908C121.552 50.7915 121.881 52.0409 122.539 52.9391C123.206 53.8284 124.216 54.273 125.567 54.273ZM146.222 42.4277L140.713 55.9404H138.579L133.07 42.4277H135.004C135.199 42.4277 135.36 42.4766 135.484 42.5745C135.609 42.6723 135.693 42.7879 135.737 42.9213L139.166 51.6185C139.272 51.9475 139.366 52.2677 139.446 52.5789C139.526 52.8902 139.601 53.2014 139.673 53.5127C139.744 53.2014 139.819 52.8902 139.899 52.5789C139.979 52.2677 140.077 51.9475 140.193 51.6185L143.661 42.9213C143.714 42.779 143.803 42.6634 143.928 42.5745C144.052 42.4766 144.199 42.4277 144.368 42.4277H146.222ZM155.436 49.8577C154.343 49.8933 153.409 49.9822 152.635 50.1245C151.87 50.2579 151.243 50.4358 150.754 50.6581C150.274 50.8804 149.923 51.1427 149.701 51.4451C149.487 51.7474 149.38 52.0854 149.38 52.4589C149.38 52.8146 149.438 53.1214 149.554 53.3793C149.669 53.6372 149.825 53.8506 150.021 54.0196C150.225 54.1796 150.461 54.2997 150.728 54.3797C151.003 54.4509 151.297 54.4864 151.608 54.4864C152.026 54.4864 152.408 54.4464 152.755 54.3664C153.102 54.2775 153.427 54.153 153.729 53.9929C154.04 53.8328 154.334 53.6416 154.609 53.4193C154.894 53.197 155.17 52.9435 155.436 52.659V49.8577ZM147.766 44.3353C148.513 43.6149 149.318 43.0769 150.181 42.7212C151.043 42.3655 151.999 42.1876 153.049 42.1876C153.805 42.1876 154.476 42.3121 155.063 42.5611C155.65 42.8101 156.143 43.1569 156.544 43.6016C156.944 44.0462 157.246 44.5843 157.451 45.2156C157.655 45.847 157.758 46.5407 157.758 47.2966V55.9404H156.704C156.472 55.9404 156.295 55.9049 156.17 55.8337C156.046 55.7537 155.948 55.6025 155.877 55.3802L155.61 54.0996C155.254 54.4286 154.907 54.7221 154.569 54.98C154.231 55.229 153.876 55.4424 153.502 55.6203C153.129 55.7893 152.729 55.9182 152.302 56.0071C151.884 56.1049 151.417 56.1539 150.901 56.1539C150.376 56.1539 149.883 56.0827 149.42 55.9404C148.958 55.7893 148.553 55.5669 148.207 55.2735C147.869 54.98 147.597 54.6109 147.393 54.1663C147.197 53.7128 147.099 53.1792 147.099 52.5656C147.099 52.032 147.246 51.5207 147.54 51.0316C147.833 50.5336 148.309 50.0934 148.967 49.711C149.625 49.3286 150.483 49.0173 151.541 48.7772C152.6 48.5282 153.898 48.3859 155.436 48.3504V47.2966C155.436 46.2472 155.21 45.4558 154.756 44.9222C154.303 44.3797 153.64 44.1085 152.769 44.1085C152.182 44.1085 151.688 44.1841 151.288 44.3353C150.897 44.4775 150.554 44.6421 150.261 44.8288C149.976 45.0067 149.727 45.1712 149.514 45.3224C149.309 45.4646 149.105 45.5358 148.9 45.5358C148.74 45.5358 148.602 45.4958 148.487 45.4157C148.371 45.3268 148.273 45.2201 148.193 45.0956L147.766 44.3353ZM173.731 55.9404H171.356V44.4153H164.393V52.5256C164.393 53.0947 164.531 53.5171 164.807 53.7928C165.083 54.0685 165.438 54.2063 165.874 54.2063C166.123 54.2063 166.336 54.1752 166.514 54.1129C166.701 54.0418 166.861 53.9662 166.995 53.8862C167.128 53.8061 167.239 53.735 167.328 53.6728C167.426 53.6016 167.51 53.566 167.581 53.566C167.706 53.566 167.817 53.6416 167.915 53.7928L168.609 54.9266C168.2 55.309 167.706 55.6114 167.128 55.8337C166.55 56.0471 165.954 56.1539 165.34 56.1539C164.273 56.1539 163.451 55.8559 162.873 55.2601C162.304 54.6643 162.019 53.8061 162.019 52.6856V44.4153H160.392C160.249 44.4153 160.129 44.3753 160.031 44.2952C159.934 44.2063 159.885 44.0729 159.885 43.8951V42.948L162.099 42.6545L162.646 38.4926C162.673 38.3593 162.73 38.2525 162.819 38.1725C162.917 38.0836 163.042 38.0391 163.193 38.0391H164.393V42.6945H173.731V55.9404ZM174.318 38.0925C174.318 38.3237 174.269 38.5416 174.171 38.7461C174.082 38.9417 173.958 39.1151 173.798 39.2663C173.646 39.4175 173.469 39.5376 173.264 39.6265C173.059 39.7154 172.842 39.7599 172.61 39.7599C172.379 39.7599 172.161 39.7154 171.957 39.6265C171.761 39.5376 171.588 39.4175 171.437 39.2663C171.285 39.1151 171.165 38.9417 171.076 38.7461C170.987 38.5416 170.943 38.3237 170.943 38.0925C170.943 37.8613 170.987 37.6434 171.076 37.4388C171.165 37.2254 171.285 37.0431 171.437 36.8919C171.588 36.7319 171.761 36.6074 171.957 36.5184C172.161 36.4295 172.379 36.385 172.61 36.385C172.842 36.385 173.059 36.4295 173.264 36.5184C173.469 36.6074 173.646 36.7319 173.798 36.8919C173.958 37.0431 174.082 37.2254 174.171 37.4388C174.269 37.6434 174.318 37.8613 174.318 38.0925ZM183.327 42.2143C184.315 42.2143 185.204 42.3788 185.995 42.7079C186.787 43.0369 187.463 43.5038 188.023 44.1085C188.583 44.7132 189.01 45.4469 189.303 46.3095C189.606 47.1632 189.757 48.1192 189.757 49.1774C189.757 50.2446 189.606 51.205 189.303 52.0587C189.01 52.9124 188.583 53.6416 188.023 54.2463C187.463 54.8511 186.787 55.3179 185.995 55.647C185.204 55.9671 184.315 56.1272 183.327 56.1272C182.331 56.1272 181.433 55.9671 180.633 55.647C179.841 55.3179 179.166 54.8511 178.605 54.2463C178.045 53.6416 177.614 52.9124 177.311 52.0587C177.018 51.205 176.871 50.2446 176.871 49.1774C176.871 48.1192 177.018 47.1632 177.311 46.3095C177.614 45.4469 178.045 44.7132 178.605 44.1085C179.166 43.5038 179.841 43.0369 180.633 42.7079C181.433 42.3788 182.331 42.2143 183.327 42.2143ZM183.327 54.273C184.661 54.273 185.657 53.8284 186.315 52.9391C186.974 52.0409 187.303 50.7915 187.303 49.1908C187.303 47.5811 186.974 46.3273 186.315 45.4291C185.657 44.5309 184.661 44.0818 183.327 44.0818C182.652 44.0818 182.06 44.1974 181.553 44.4286C181.055 44.6598 180.637 44.9933 180.299 45.4291C179.97 45.8648 179.721 46.4028 179.552 47.0431C179.392 47.6745 179.312 48.3904 179.312 49.1908C179.312 50.7915 179.641 52.0409 180.299 52.9391C180.966 53.8284 181.976 54.273 183.327 54.273ZM195.01 44.3886C195.303 44.0596 195.614 43.7617 195.943 43.4949C196.272 43.2281 196.619 43.0013 196.984 42.8146C197.357 42.6189 197.749 42.4722 198.158 42.3744C198.576 42.2677 199.025 42.2143 199.505 42.2143C200.243 42.2143 200.892 42.3388 201.452 42.5878C202.022 42.8279 202.493 43.1747 202.866 43.6283C203.249 44.0729 203.538 44.6109 203.733 45.2423C203.929 45.8737 204.027 46.5718 204.027 47.3366V55.9404H201.639V47.3366C201.639 46.3139 201.404 45.5224 200.932 44.9622C200.47 44.3931 199.763 44.1085 198.811 44.1085C198.109 44.1085 197.451 44.2774 196.837 44.6154C196.232 44.9533 195.672 45.4113 195.156 45.9893V55.9404H192.769V42.4277H194.196C194.534 42.4277 194.743 42.5923 194.823 42.9213L195.01 44.3886Z" fill="white"/>
<path d="M103.31 67.9096V74.6963H102.043V71.73H98.8561V74.6963H97.5889V67.9096H98.8561V70.8289H102.043V67.9096H103.31ZM107.028 68.914V70.796H109.402V71.7676H107.028V73.6872H110.041V74.6963H105.76V67.9096H110.041V68.914H107.028ZM115.684 72.1337L114.858 69.8761C114.817 69.776 114.775 69.6571 114.731 69.5194C114.688 69.3817 114.644 69.2331 114.6 69.0735C114.559 69.2331 114.517 69.3833 114.473 69.5241C114.429 69.6618 114.387 69.7822 114.346 69.8855L113.525 72.1337H115.684ZM117.913 74.6963H116.937C116.828 74.6963 116.739 74.6697 116.67 74.6165C116.601 74.5602 116.549 74.4913 116.515 74.41L116.008 73.0254H113.197L112.69 74.41C112.665 74.482 112.616 74.5477 112.544 74.6071C112.472 74.6666 112.383 74.6963 112.277 74.6963H111.291L113.962 67.9096H115.248L117.913 74.6963ZM123.53 73.6543V74.6963H119.555V67.9096H120.817V73.6543H123.53ZM129.267 68.9468H127.221V74.6963H125.958V68.9468H123.912V67.9096H129.267V68.9468ZM136.815 67.9096V74.6963H135.548V71.73H132.361V74.6963H131.094V67.9096H132.361V70.8289H135.548V67.9096H136.815ZM146.943 68.9468H144.896V74.6963H143.634V68.9468H141.588V67.9096H146.943V68.9468ZM150.037 68.914V70.796H152.412V71.7676H150.037V73.6872H153.05V74.6963H148.77V67.9096H153.05V68.914H150.037ZM159.621 73.0958C159.69 73.0958 159.751 73.1224 159.805 73.1756L160.302 73.7154C160.027 74.0564 159.687 74.3177 159.284 74.4992C158.883 74.6806 158.401 74.7714 157.838 74.7714C157.334 74.7714 156.88 74.6853 156.477 74.5132C156.076 74.3412 155.734 74.1018 155.449 73.7951C155.164 73.4885 154.945 73.1224 154.792 72.6969C154.642 72.2713 154.567 71.8067 154.567 71.3029C154.567 70.7929 154.648 70.3267 154.811 69.9043C154.973 69.4787 155.202 69.1126 155.496 68.806C155.793 68.4994 156.147 68.2616 156.557 68.0926C156.967 67.9205 157.42 67.8345 157.918 67.8345C158.412 67.8345 158.85 67.9158 159.232 68.0785C159.617 68.2412 159.944 68.454 160.213 68.7168L159.79 69.3035C159.765 69.3411 159.733 69.3739 159.692 69.4021C159.654 69.4302 159.601 69.4443 159.532 69.4443C159.485 69.4443 159.437 69.4318 159.387 69.4068C159.337 69.3786 159.282 69.3458 159.223 69.3082C159.163 69.2675 159.094 69.2237 159.016 69.1768C158.938 69.1299 158.847 69.0876 158.744 69.0501C158.641 69.0094 158.52 68.9765 158.382 68.9515C158.248 68.9233 158.091 68.9093 157.913 68.9093C157.61 68.9093 157.331 68.964 157.078 69.0735C156.827 69.1799 156.611 69.3364 156.43 69.5429C156.248 69.7463 156.108 69.9966 156.008 70.2938C155.907 70.588 155.857 70.9243 155.857 71.3029C155.857 71.6847 155.911 72.0242 156.017 72.3214C156.126 72.6187 156.273 72.869 156.458 73.0724C156.643 73.2757 156.86 73.4322 157.11 73.5417C157.361 73.6481 157.63 73.7013 157.918 73.7013C158.09 73.7013 158.245 73.6919 158.382 73.6731C158.523 73.6543 158.651 73.6246 158.767 73.5839C158.886 73.5433 158.997 73.4916 159.1 73.4291C159.207 73.3633 159.312 73.2836 159.415 73.1897C159.446 73.1615 159.479 73.1396 159.514 73.124C159.548 73.1052 159.584 73.0958 159.621 73.0958ZM167.827 67.9096V74.6963H166.56V71.73H163.373V74.6963H162.106V67.9096H163.373V70.8289H166.56V67.9096H167.827ZM98.8561 77.914V79.796H101.231V80.7676H98.8561V82.6872H101.869V83.6963H97.5889V76.9096H101.869V77.914H98.8561ZM109.742 76.9096L107.001 83.6963H105.861L103.12 76.9096H104.133C104.243 76.9096 104.332 76.9362 104.401 76.9893C104.47 77.0425 104.521 77.1114 104.556 77.1959L106.156 81.3355C106.209 81.47 106.26 81.6187 106.306 81.7814C106.357 81.9409 106.403 82.1083 106.447 82.2836C106.485 82.1083 106.526 81.9409 106.569 81.7814C106.613 81.6187 106.662 81.47 106.715 81.3355L108.306 77.1959C108.331 77.1239 108.379 77.0582 108.451 76.9987C108.526 76.9393 108.617 76.9096 108.724 76.9096H109.742ZM112.65 77.914V79.796H115.025V80.7676H112.65V82.6872H115.664V83.6963H111.383V76.9096H115.664V77.914H112.65ZM123.443 76.9096V83.6963H122.795C122.695 83.6963 122.61 83.6806 122.541 83.6494C122.476 83.6149 122.412 83.5586 122.349 83.4804L118.805 78.9559C118.824 79.1624 118.834 79.3533 118.834 79.5285V83.6963H117.721V76.9096H118.383C118.436 76.9096 118.482 76.9127 118.519 76.9189C118.56 76.9221 118.594 76.9315 118.622 76.9471C118.654 76.9596 118.683 76.98 118.712 77.0081C118.74 77.0332 118.771 77.0676 118.805 77.1114L122.363 81.6546C122.354 81.5451 122.346 81.4372 122.34 81.3308C122.333 81.2244 122.33 81.1258 122.33 81.0351V76.9096H123.443ZM130.633 77.9468H128.587V83.6963H127.324V77.9468H125.278V76.9096H130.633V77.9468Z" fill="white"/>
<line x1="84.2353" y1="9.71798e-08" x2="84.2353" y2="83" stroke="white" stroke-width="4.44643"/>
<path d="M22.6689 58.7921V31.7667H25.4968C26.1727 31.7667 26.5995 32.0957 26.7774 32.7538L27.1509 35.6884C28.3248 34.3901 29.632 33.3407 31.0726 32.5404C32.5311 31.74 34.2118 31.3398 36.1149 31.3398C37.5911 31.3398 38.8895 31.5888 40.01 32.0868C41.1483 32.5671 42.0909 33.2607 42.8379 34.1678C43.6027 35.0571 44.1807 36.1331 44.572 37.3959C44.9633 38.6587 45.1589 40.0548 45.1589 41.5844V58.7921H40.4102V41.5844C40.4102 39.5391 39.9388 37.9561 38.9962 36.8356C38.0713 35.6973 36.6485 35.1282 34.7276 35.1282C33.3225 35.1282 32.0064 35.4661 30.7792 36.142C29.5698 36.8178 28.4493 37.7338 27.4177 38.8899V58.7921H22.6689Z" fill="white"/>
<path d="M8.89257 23.7139L8.89257 58.7912" stroke="white" stroke-width="4.44643"/>
<line y1="24.4545" x2="16.7976" y2="24.4545" stroke="white" stroke-width="4.44643"/>
<line y1="56.5678" x2="16.7976" y2="56.5678" stroke="white" stroke-width="4.44643"/>
<path d="M60.2732 23.7139L60.2732 58.7912" stroke="white" stroke-width="4.44643"/>
<line x1="51.3806" y1="24.4545" x2="68.1783" y2="24.4545" stroke="white" stroke-width="4.44643"/>
<line x1="51.3806" y1="56.5678" x2="68.1783" y2="56.5678" stroke="white" stroke-width="4.44643"/>
</svg>
