<svg width="797" height="209" viewBox="0 0 797 209" fill="none" xmlns="http://www.w3.org/2000/svg">
<path d="M42.3109 67.835L42.2129 72H0.660922V2.665H42.2129V6.83H5.70792V34.858H36.0879V38.925H5.70792V67.835H42.3109ZM91.0736 72H86.6146C86.1572 72 85.7979 71.8693 85.5366 71.608C85.2752 71.314 85.0629 71.0363 84.8996 70.775L70.1016 49.166C69.9709 49.754 69.7259 50.3257 69.3666 50.881L55.2546 70.775C55.0259 71.069 54.7809 71.3467 54.5196 71.608C54.2909 71.8693 53.9806 72 53.5886 72H49.3746L67.1126 47.059L50.0606 23.245H54.5196C54.9769 23.245 55.3199 23.343 55.5486 23.539C55.7772 23.735 55.9732 23.9637 56.1366 24.225L70.4446 44.854C70.5099 44.5927 70.6079 44.315 70.7386 44.021C70.9019 43.727 71.0652 43.433 71.2286 43.139L84.6056 24.274C84.8016 23.98 85.0139 23.735 85.2426 23.539C85.4712 23.343 85.7652 23.245 86.1246 23.245H90.3876L73.3846 46.765L91.0736 72ZM105.945 61.367C106.892 62.7717 107.872 63.964 108.885 64.944C109.93 65.8913 111.025 66.6753 112.168 67.296C113.311 67.884 114.52 68.3087 115.794 68.57C117.101 68.8313 118.473 68.962 119.91 68.962C122.785 68.962 125.3 68.4393 127.456 67.394C129.612 66.3487 131.409 64.8787 132.846 62.984C134.316 61.0567 135.41 58.77 136.129 56.124C136.88 53.4453 137.256 50.5053 137.256 47.304C137.256 40.052 135.917 34.7273 133.238 31.33C130.559 27.9 126.721 26.185 121.723 26.185C118.489 26.185 115.565 27.018 112.952 28.684C110.339 30.35 108.003 32.6693 105.945 35.642V61.367ZM105.749 32.016C107.905 29.076 110.42 26.7403 113.295 25.009C116.202 23.2777 119.453 22.412 123.046 22.412C129.024 22.412 133.679 24.4863 137.011 28.635C140.376 32.7837 142.058 39.0067 142.058 47.304C142.058 50.8647 141.584 54.1967 140.637 57.3C139.722 60.3707 138.35 63.0493 136.521 65.336C134.724 67.59 132.503 69.3703 129.857 70.677C127.244 71.9837 124.222 72.637 120.792 72.637C117.493 72.637 114.634 72.0327 112.217 70.824C109.8 69.6153 107.709 67.835 105.945 65.483V89.248H101.241V23.245H103.838C104.655 23.245 105.128 23.6533 105.259 24.47L105.749 32.016ZM160.458 0.704998V72H155.754V0.704998H160.458ZM196.248 22.461C199.744 22.461 202.863 23.0653 205.607 24.274C208.384 25.45 210.72 27.1323 212.614 29.321C214.509 31.5097 215.946 34.1557 216.926 37.259C217.939 40.3297 218.445 43.776 218.445 47.598C218.445 51.42 217.939 54.8663 216.926 57.937C215.946 61.0077 214.509 63.6373 212.614 65.826C210.72 68.0147 208.384 69.697 205.607 70.873C202.863 72.049 199.744 72.637 196.248 72.637C192.753 72.637 189.617 72.049 186.84 70.873C184.096 69.697 181.761 68.0147 179.833 65.826C177.939 63.6373 176.485 61.0077 175.472 57.937C174.492 54.8663 174.002 51.42 174.002 47.598C174.002 43.776 174.492 40.3297 175.472 37.259C176.485 34.1557 177.939 31.5097 179.833 29.321C181.761 27.1323 184.096 25.45 186.84 24.274C189.617 23.0653 192.753 22.461 196.248 22.461ZM196.248 68.962C199.156 68.962 201.687 68.472 203.843 67.492C206.032 66.4793 207.845 65.042 209.282 63.18C210.752 61.318 211.847 59.0803 212.565 56.467C213.284 53.821 213.643 50.8647 213.643 47.598C213.643 44.364 213.284 41.424 212.565 38.778C211.847 36.132 210.752 33.878 209.282 32.016C207.845 30.1213 206.032 28.6677 203.843 27.655C201.687 26.6423 199.156 26.136 196.248 26.136C193.341 26.136 190.793 26.6423 188.604 27.655C186.448 28.6677 184.635 30.1213 183.165 32.016C181.728 33.878 180.634 36.132 179.882 38.778C179.164 41.424 178.804 44.364 178.804 47.598C178.804 50.8647 179.164 53.821 179.882 56.467C180.634 59.0803 181.728 61.318 183.165 63.18C184.635 65.042 186.448 66.4793 188.604 67.492C190.793 68.472 193.341 68.962 196.248 68.962ZM236.048 35.005C236.799 33.0123 237.648 31.2483 238.596 29.713C239.576 28.145 240.686 26.822 241.928 25.744C243.202 24.666 244.606 23.8493 246.142 23.294C247.71 22.706 249.441 22.412 251.336 22.412C252.348 22.412 253.345 22.51 254.325 22.706C255.305 22.8693 256.17 23.1797 256.922 23.637L256.53 26.871C256.366 27.3937 256.056 27.655 255.599 27.655C255.207 27.655 254.602 27.5407 253.786 27.312C253.002 27.0833 251.956 26.969 250.65 26.969C248.755 26.969 247.073 27.263 245.603 27.851C244.165 28.4063 242.859 29.2557 241.683 30.399C240.539 31.5423 239.527 32.9633 238.645 34.662C237.795 36.328 237.011 38.2553 236.293 40.444V72H231.589V23.245H234.088C234.643 23.245 235.035 23.3593 235.264 23.588C235.492 23.8167 235.639 24.2087 235.705 24.764L236.048 35.005ZM271.427 23.245V72H266.772V23.245H271.427ZM273.436 6.438C273.436 7.026 273.306 7.58133 273.044 8.104C272.816 8.594 272.505 9.035 272.113 9.427C271.721 9.819 271.264 10.1293 270.741 10.358C270.219 10.5867 269.663 10.701 269.075 10.701C268.487 10.701 267.932 10.5867 267.409 10.358C266.887 10.1293 266.429 9.819 266.037 9.427C265.645 9.035 265.335 8.594 265.106 8.104C264.878 7.58133 264.763 7.026 264.763 6.438C264.763 5.85 264.878 5.29466 265.106 4.772C265.335 4.21666 265.645 3.743 266.037 3.351C266.429 2.959 266.887 2.64866 267.409 2.42C267.932 2.19133 268.487 2.077 269.075 2.077C269.663 2.077 270.219 2.19133 270.741 2.42C271.264 2.64866 271.721 2.959 272.113 3.351C272.505 3.743 272.816 4.21666 273.044 4.772C273.306 5.29466 273.436 5.85 273.436 6.438ZM292.513 31.771C294.767 28.9617 297.364 26.7077 300.304 25.009C303.276 23.3103 306.576 22.461 310.202 22.461C312.88 22.461 315.232 22.8857 317.258 23.735C319.316 24.5843 321.014 25.8093 322.354 27.41C323.693 29.0107 324.706 30.938 325.392 33.192C326.078 35.446 326.421 37.994 326.421 40.836V72H321.717V40.836C321.717 36.2627 320.671 32.6857 318.581 30.105C316.49 27.4917 313.305 26.185 309.026 26.185C305.857 26.185 302.884 27.0017 300.108 28.635C297.364 30.2357 294.914 32.4733 292.758 35.348V72H288.054V23.245H290.651C291.467 23.245 291.941 23.6533 292.072 24.47L292.513 31.771ZM357.859 50.44C359.95 50.44 361.812 50.146 363.445 49.558C365.079 48.9373 366.451 48.088 367.561 47.01C368.672 45.932 369.521 44.6417 370.109 43.139C370.697 41.6363 370.991 39.9703 370.991 38.141C370.991 36.3117 370.681 34.6457 370.06 33.143C369.472 31.6077 368.607 30.301 367.463 29.223C366.353 28.145 364.981 27.312 363.347 26.724C361.747 26.136 359.917 25.842 357.859 25.842C355.801 25.842 353.956 26.136 352.322 26.724C350.722 27.312 349.35 28.145 348.206 29.223C347.096 30.301 346.246 31.6077 345.658 33.143C345.07 34.6457 344.776 36.3117 344.776 38.141C344.776 39.9703 345.07 41.6363 345.658 43.139C346.246 44.6417 347.096 45.932 348.206 47.01C349.35 48.088 350.722 48.9373 352.322 49.558C353.956 50.146 355.801 50.44 357.859 50.44ZM376.087 75.283C376.087 73.7477 375.679 72.5227 374.862 71.608C374.078 70.6607 373.017 69.9257 371.677 69.403C370.338 68.8803 368.786 68.521 367.022 68.325C365.291 68.0963 363.462 67.933 361.534 67.835C359.64 67.737 357.729 67.639 355.801 67.541C353.874 67.443 352.061 67.247 350.362 66.953C349.121 67.443 347.978 68.0147 346.932 68.668C345.887 69.2887 344.989 70.0073 344.237 70.824C343.486 71.6407 342.898 72.5227 342.473 73.47C342.049 74.45 341.836 75.4953 341.836 76.606C341.836 78.0433 342.196 79.3663 342.914 80.575C343.666 81.8163 344.744 82.878 346.148 83.76C347.586 84.6747 349.333 85.3933 351.391 85.916C353.449 86.4387 355.818 86.7 358.496 86.7C360.979 86.7 363.282 86.4223 365.405 85.867C367.561 85.3117 369.423 84.5277 370.991 83.515C372.592 82.5023 373.833 81.2937 374.715 79.889C375.63 78.4843 376.087 76.949 376.087 75.283ZM381.183 25.401V27.018C381.183 27.7367 380.726 28.1777 379.811 28.341L372.363 28.88C373.278 30.1213 373.98 31.5097 374.47 33.045C374.96 34.5803 375.205 36.2463 375.205 38.043C375.205 40.395 374.781 42.5347 373.931 44.462C373.115 46.3567 371.939 47.99 370.403 49.362C368.901 50.7013 367.071 51.7467 364.915 52.498C362.792 53.2493 360.44 53.625 357.859 53.625C355.083 53.625 352.551 53.2003 350.264 52.351C348.892 53.135 347.798 54.066 346.981 55.144C346.197 56.1893 345.805 57.2347 345.805 58.28C345.805 59.6847 346.295 60.7627 347.275 61.514C348.288 62.2653 349.595 62.8207 351.195 63.18C352.829 63.5067 354.674 63.719 356.732 63.817C358.823 63.915 360.946 64.0293 363.102 64.16C365.258 64.258 367.365 64.454 369.423 64.748C371.514 65.042 373.36 65.5647 374.96 66.316C376.594 67.0347 377.9 68.0637 378.88 69.403C379.893 70.7097 380.399 72.4573 380.399 74.646C380.399 76.6713 379.893 78.615 378.88 80.477C377.868 82.339 376.398 83.9887 374.47 85.426C372.576 86.8633 370.273 88.0067 367.561 88.856C364.85 89.738 361.812 90.179 358.447 90.179C355.017 90.179 352.012 89.8197 349.431 89.101C346.851 88.415 344.678 87.4677 342.914 86.259C341.183 85.083 339.876 83.711 338.994 82.143C338.112 80.575 337.671 78.909 337.671 77.145C337.671 74.5643 338.521 72.3593 340.219 70.53C341.918 68.668 344.237 67.2143 347.177 66.169C345.544 65.6137 344.221 64.8133 343.208 63.768C342.228 62.69 341.738 61.2363 341.738 59.407C341.738 58.721 341.869 58.0023 342.13 57.251C342.392 56.4997 342.784 55.7647 343.306 55.046C343.829 54.2947 344.466 53.5923 345.217 52.939C345.969 52.2857 346.818 51.6977 347.765 51.175C345.446 49.8357 343.633 48.0553 342.326 45.834C341.052 43.6127 340.415 41.0157 340.415 38.043C340.415 35.691 340.824 33.5677 341.64 31.673C342.49 29.7457 343.682 28.096 345.217 26.724C346.753 25.352 348.582 24.2903 350.705 23.539C352.861 22.7877 355.246 22.412 357.859 22.412C360.015 22.412 361.992 22.6733 363.788 23.196C365.618 23.7187 367.251 24.4537 368.688 25.401H381.183ZM462.911 6.928H438.558V72H433.511V6.928H409.011V2.665H462.911V6.928ZM476.22 31.477C478.474 28.733 481.039 26.5443 483.913 24.911C486.821 23.2777 490.071 22.461 493.664 22.461C496.343 22.461 498.695 22.8857 500.72 23.735C502.778 24.5843 504.477 25.8093 505.816 27.41C507.156 29.0107 508.168 30.938 508.854 33.192C509.54 35.446 509.883 37.994 509.883 40.836V72H505.179V40.836C505.179 36.2627 504.134 32.6857 502.043 30.105C499.953 27.4917 496.768 26.185 492.488 26.185C489.32 26.185 486.347 27.0017 483.57 28.635C480.826 30.2357 478.376 32.4733 476.22 35.348V72H471.516V0.704998H476.22V31.477ZM559.599 42.698C559.599 40.0847 559.224 37.749 558.472 35.691C557.754 33.6003 556.725 31.8363 555.385 30.399C554.046 28.9617 552.445 27.8673 550.583 27.116C548.754 26.332 546.729 25.94 544.507 25.94C541.992 25.94 539.738 26.332 537.745 27.116C535.753 27.9 534.021 29.027 532.551 30.497C531.114 31.967 529.954 33.731 529.072 35.789C528.19 37.847 527.602 40.15 527.308 42.698H559.599ZM527.063 45.687V46.618C527.063 50.2767 527.488 53.4943 528.337 56.271C529.187 59.0477 530.395 61.3833 531.963 63.278C533.531 65.14 535.426 66.5447 537.647 67.492C539.869 68.4393 542.351 68.913 545.095 68.913C547.545 68.913 549.669 68.6517 551.465 68.129C553.262 67.5737 554.765 66.9693 555.973 66.316C557.215 65.63 558.195 65.0257 558.913 64.503C559.632 63.9477 560.155 63.67 560.481 63.67C560.906 63.67 561.233 63.8333 561.461 64.16L562.735 65.728C561.951 66.708 560.906 67.6227 559.599 68.472C558.325 69.3213 556.888 70.0563 555.287 70.677C553.719 71.265 552.021 71.7387 550.191 72.098C548.395 72.4573 546.582 72.637 544.752 72.637C541.42 72.637 538.382 72.0653 535.638 70.922C532.894 69.746 530.542 68.0473 528.582 65.826C526.622 63.6047 525.103 60.8933 524.025 57.692C522.98 54.458 522.457 50.7667 522.457 46.618C522.457 43.1227 522.947 39.905 523.927 36.965C524.94 33.9923 526.377 31.4443 528.239 29.321C530.134 27.165 532.437 25.4827 535.148 24.274C537.892 23.0653 540.996 22.461 544.458 22.461C547.202 22.461 549.75 22.9347 552.102 23.882C554.454 24.8293 556.496 26.2177 558.227 28.047C559.959 29.8437 561.314 32.065 562.294 34.711C563.307 37.357 563.813 40.395 563.813 43.825C563.813 44.5437 563.715 45.0337 563.519 45.295C563.323 45.5563 562.997 45.687 562.539 45.687H527.063ZM658.821 2.665V72H656.469C656.045 72 655.685 71.9347 655.391 71.804C655.13 71.6407 654.869 71.3793 654.607 71.02L609.576 10.848C609.674 11.828 609.723 12.759 609.723 13.641V72H605.313V2.665H607.812C608.27 2.665 608.613 2.73033 608.841 2.861C609.103 2.959 609.38 3.204 609.674 3.596L654.607 63.621C654.509 62.641 654.46 61.71 654.46 60.828V2.665H658.821ZM709.758 42.698C709.758 40.0847 709.382 37.749 708.631 35.691C707.912 33.6003 706.883 31.8363 705.544 30.399C704.204 28.9617 702.604 27.8673 700.742 27.116C698.912 26.332 696.887 25.94 694.666 25.94C692.15 25.94 689.896 26.332 687.904 27.116C685.911 27.9 684.18 29.027 682.71 30.497C681.272 31.967 680.113 33.731 679.231 35.789C678.349 37.847 677.761 40.15 677.467 42.698H709.758ZM677.222 45.687V46.618C677.222 50.2767 677.646 53.4943 678.496 56.271C679.345 59.0477 680.554 61.3833 682.122 63.278C683.69 65.14 685.584 66.5447 687.806 67.492C690.027 68.4393 692.51 68.913 695.254 68.913C697.704 68.913 699.827 68.6517 701.624 68.129C703.42 67.5737 704.923 66.9693 706.132 66.316C707.373 65.63 708.353 65.0257 709.072 64.503C709.79 63.9477 710.313 63.67 710.64 63.67C711.064 63.67 711.391 63.8333 711.62 64.16L712.894 65.728C712.11 66.708 711.064 67.6227 709.758 68.472C708.484 69.3213 707.046 70.0563 705.446 70.677C703.878 71.265 702.179 71.7387 700.35 72.098C698.553 72.4573 696.74 72.637 694.911 72.637C691.579 72.637 688.541 72.0653 685.797 70.922C683.053 69.746 680.701 68.0473 678.741 65.826C676.781 63.6047 675.262 60.8933 674.184 57.692C673.138 54.458 672.616 50.7667 672.616 46.618C672.616 43.1227 673.106 39.905 674.086 36.965C675.098 33.9923 676.536 31.4443 678.398 29.321C680.292 27.165 682.595 25.4827 685.307 24.274C688.051 23.0653 691.154 22.461 694.617 22.461C697.361 22.461 699.909 22.9347 702.261 23.882C704.613 24.8293 706.654 26.2177 708.386 28.047C710.117 29.8437 711.473 32.065 712.453 34.711C713.465 37.357 713.972 40.395 713.972 43.825C713.972 44.5437 713.874 45.0337 713.678 45.295C713.482 45.5563 713.155 45.687 712.698 45.687H677.222ZM761.857 72H757.398C756.94 72 756.581 71.8693 756.32 71.608C756.058 71.314 755.846 71.0363 755.683 70.775L740.885 49.166C740.754 49.754 740.509 50.3257 740.15 50.881L726.038 70.775C725.809 71.069 725.564 71.3467 725.303 71.608C725.074 71.8693 724.764 72 724.372 72H720.158L737.896 47.059L720.844 23.245H725.303C725.76 23.245 726.103 23.343 726.332 23.539C726.56 23.735 726.756 23.9637 726.92 24.225L741.228 44.854C741.293 44.5927 741.391 44.315 741.522 44.021C741.685 43.727 741.848 43.433 742.012 43.139L755.389 24.274C755.585 23.98 755.797 23.735 756.026 23.539C756.254 23.343 756.548 23.245 756.908 23.245H761.171L744.168 46.765L761.857 72ZM785.352 72.784C782.053 72.784 779.472 71.8693 777.61 70.04C775.781 68.2107 774.866 65.385 774.866 61.563V28.243H767.859C767.5 28.243 767.206 28.145 766.977 27.949C766.749 27.753 766.634 27.4753 766.634 27.116V25.303L774.964 24.715L776.14 7.271C776.206 6.977 776.336 6.71567 776.532 6.487C776.728 6.25833 777.006 6.144 777.365 6.144H779.57V24.764H794.956V28.243H779.57V61.318C779.57 62.6573 779.734 63.817 780.06 64.797C780.42 65.7443 780.893 66.5283 781.481 67.149C782.102 67.7697 782.821 68.227 783.637 68.521C784.454 68.815 785.336 68.962 786.283 68.962C787.459 68.962 788.472 68.7987 789.321 68.472C790.171 68.1127 790.906 67.737 791.526 67.345C792.147 66.9203 792.653 66.5447 793.045 66.218C793.437 65.8587 793.748 65.679 793.976 65.679C794.238 65.679 794.499 65.8423 794.76 66.169L796.034 68.227C794.793 69.599 793.209 70.7097 791.281 71.559C789.387 72.3757 787.41 72.784 785.352 72.784ZM53.6801 185.982C59.7561 185.982 64.3457 184.675 67.4491 182.062C70.5851 179.416 72.1531 175.708 72.1531 170.939C72.1531 168.75 71.7284 166.79 70.8791 165.059C70.0624 163.295 68.8701 161.809 67.3021 160.6C65.7341 159.359 63.8067 158.411 61.5201 157.758C59.2334 157.105 56.6364 156.778 53.7291 156.778H36.2851V185.982H53.6801ZM36.2851 124.634V153.103H51.2791C54.4804 153.103 57.2081 152.695 59.4621 151.878C61.7487 151.061 63.6107 149.983 65.0481 148.644C66.5181 147.305 67.5961 145.786 68.2821 144.087C68.9681 142.388 69.3111 140.641 69.3111 138.844C69.3111 134.173 67.8247 130.645 64.8521 128.26C61.9121 125.843 57.3551 124.634 51.1811 124.634H36.2851ZM51.1811 120.665C55.1337 120.665 58.5637 121.057 61.4711 121.841C64.3784 122.625 66.7794 123.785 68.6741 125.32C70.5687 126.823 71.9734 128.668 72.8881 130.857C73.8027 133.046 74.2601 135.528 74.2601 138.305C74.2601 140.134 73.9334 141.898 73.2801 143.597C72.6594 145.296 71.7447 146.864 70.5361 148.301C69.3601 149.738 67.8901 150.996 66.1261 152.074C64.3947 153.119 62.4021 153.92 60.1481 154.475C65.6034 155.259 69.7847 157.072 72.6921 159.914C75.6321 162.723 77.1021 166.431 77.1021 171.037C77.1021 173.977 76.5794 176.623 75.5341 178.975C74.4887 181.327 72.9697 183.32 70.9771 184.953C68.9844 186.586 66.5344 187.844 63.6271 188.726C60.7197 189.575 57.4204 190 53.7291 190H31.2381V120.665H51.1811ZM94.9986 141.245V190H90.3436V141.245H94.9986ZM97.0076 124.438C97.0076 125.026 96.8769 125.581 96.6156 126.104C96.3869 126.594 96.0766 127.035 95.6846 127.427C95.2926 127.819 94.8352 128.129 94.3126 128.358C93.7899 128.587 93.2346 128.701 92.6466 128.701C92.0586 128.701 91.5032 128.587 90.9806 128.358C90.4579 128.129 90.0006 127.819 89.6086 127.427C89.2166 127.035 88.9062 126.594 88.6776 126.104C88.4489 125.581 88.3346 125.026 88.3346 124.438C88.3346 123.85 88.4489 123.295 88.6776 122.772C88.9062 122.217 89.2166 121.743 89.6086 121.351C90.0006 120.959 90.4579 120.649 90.9806 120.42C91.5032 120.191 92.0586 120.077 92.6466 120.077C93.2346 120.077 93.7899 120.191 94.3126 120.42C94.8352 120.649 95.2926 120.959 95.6846 121.351C96.0766 121.743 96.3869 122.217 96.6156 122.772C96.8769 123.295 97.0076 123.85 97.0076 124.438ZM127.55 168.44C129.641 168.44 131.503 168.146 133.136 167.558C134.769 166.937 136.141 166.088 137.252 165.01C138.363 163.932 139.212 162.642 139.8 161.139C140.388 159.636 140.682 157.97 140.682 156.141C140.682 154.312 140.372 152.646 139.751 151.143C139.163 149.608 138.297 148.301 137.154 147.223C136.043 146.145 134.671 145.312 133.038 144.724C131.437 144.136 129.608 143.842 127.55 143.842C125.492 143.842 123.646 144.136 122.013 144.724C120.412 145.312 119.04 146.145 117.897 147.223C116.786 148.301 115.937 149.608 115.349 151.143C114.761 152.646 114.467 154.312 114.467 156.141C114.467 157.97 114.761 159.636 115.349 161.139C115.937 162.642 116.786 163.932 117.897 165.01C119.04 166.088 120.412 166.937 122.013 167.558C123.646 168.146 125.492 168.44 127.55 168.44ZM145.778 193.283C145.778 191.748 145.37 190.523 144.553 189.608C143.769 188.661 142.707 187.926 141.368 187.403C140.029 186.88 138.477 186.521 136.713 186.325C134.982 186.096 133.152 185.933 131.225 185.835C129.33 185.737 127.419 185.639 125.492 185.541C123.565 185.443 121.752 185.247 120.053 184.953C118.812 185.443 117.668 186.015 116.623 186.668C115.578 187.289 114.679 188.007 113.928 188.824C113.177 189.641 112.589 190.523 112.164 191.47C111.739 192.45 111.527 193.495 111.527 194.606C111.527 196.043 111.886 197.366 112.605 198.575C113.356 199.816 114.434 200.878 115.839 201.76C117.276 202.675 119.024 203.393 121.082 203.916C123.14 204.439 125.508 204.7 128.187 204.7C130.67 204.7 132.973 204.422 135.096 203.867C137.252 203.312 139.114 202.528 140.682 201.515C142.283 200.502 143.524 199.294 144.406 197.889C145.321 196.484 145.778 194.949 145.778 193.283ZM150.874 143.401V145.018C150.874 145.737 150.417 146.178 149.502 146.341L142.054 146.88C142.969 148.121 143.671 149.51 144.161 151.045C144.651 152.58 144.896 154.246 144.896 156.043C144.896 158.395 144.471 160.535 143.622 162.462C142.805 164.357 141.629 165.99 140.094 167.362C138.591 168.701 136.762 169.747 134.606 170.498C132.483 171.249 130.131 171.625 127.55 171.625C124.773 171.625 122.242 171.2 119.955 170.351C118.583 171.135 117.489 172.066 116.672 173.144C115.888 174.189 115.496 175.235 115.496 176.28C115.496 177.685 115.986 178.763 116.966 179.514C117.979 180.265 119.285 180.821 120.886 181.18C122.519 181.507 124.365 181.719 126.423 181.817C128.514 181.915 130.637 182.029 132.793 182.16C134.949 182.258 137.056 182.454 139.114 182.748C141.205 183.042 143.05 183.565 144.651 184.316C146.284 185.035 147.591 186.064 148.571 187.403C149.584 188.71 150.09 190.457 150.09 192.646C150.09 194.671 149.584 196.615 148.571 198.477C147.558 200.339 146.088 201.989 144.161 203.426C142.266 204.863 139.963 206.007 137.252 206.856C134.541 207.738 131.503 208.179 128.138 208.179C124.708 208.179 121.703 207.82 119.122 207.101C116.541 206.415 114.369 205.468 112.605 204.259C110.874 203.083 109.567 201.711 108.685 200.143C107.803 198.575 107.362 196.909 107.362 195.145C107.362 192.564 108.211 190.359 109.91 188.53C111.609 186.668 113.928 185.214 116.868 184.169C115.235 183.614 113.912 182.813 112.899 181.768C111.919 180.69 111.429 179.236 111.429 177.407C111.429 176.721 111.56 176.002 111.821 175.251C112.082 174.5 112.474 173.765 112.997 173.046C113.52 172.295 114.157 171.592 114.908 170.939C115.659 170.286 116.509 169.698 117.456 169.175C115.137 167.836 113.324 166.055 112.017 163.834C110.743 161.613 110.106 159.016 110.106 156.043C110.106 153.691 110.514 151.568 111.331 149.673C112.18 147.746 113.373 146.096 114.908 144.724C116.443 143.352 118.273 142.29 120.396 141.539C122.552 140.788 124.937 140.412 127.55 140.412C129.706 140.412 131.682 140.673 133.479 141.196C135.308 141.719 136.942 142.454 138.379 143.401H150.874ZM252.081 155.308C252.081 160.665 251.281 165.533 249.68 169.91C248.079 174.255 245.825 177.979 242.918 181.082C240.011 184.153 236.515 186.537 232.432 188.236C228.381 189.902 223.906 190.735 219.006 190.735C214.106 190.735 209.631 189.902 205.58 188.236C201.529 186.537 198.05 184.153 195.143 181.082C192.236 177.979 189.982 174.255 188.381 169.91C186.78 165.533 185.98 160.665 185.98 155.308C185.98 149.983 186.78 145.149 188.381 140.804C189.982 136.427 192.236 132.703 195.143 129.632C198.05 126.529 201.529 124.128 205.58 122.429C209.631 120.73 214.106 119.881 219.006 119.881C223.906 119.881 228.381 120.73 232.432 122.429C236.515 124.095 240.011 126.48 242.918 129.583C245.825 132.686 248.079 136.427 249.68 140.804C251.281 145.149 252.081 149.983 252.081 155.308ZM246.887 155.308C246.887 150.473 246.217 146.129 244.878 142.274C243.539 138.419 241.644 135.153 239.194 132.474C236.744 129.795 233.804 127.754 230.374 126.349C226.944 124.912 223.155 124.193 219.006 124.193C214.89 124.193 211.117 124.912 207.687 126.349C204.257 127.754 201.301 129.795 198.818 132.474C196.368 135.153 194.457 138.419 193.085 142.274C191.746 146.129 191.076 150.473 191.076 155.308C191.076 160.175 191.746 164.536 193.085 168.391C194.457 172.213 196.368 175.463 198.818 178.142C201.301 180.821 204.257 182.862 207.687 184.267C211.117 185.672 214.89 186.374 219.006 186.374C223.155 186.374 226.944 185.672 230.374 184.267C233.804 182.862 236.744 180.821 239.194 178.142C241.644 175.463 243.539 172.213 244.878 168.391C246.217 164.536 246.887 160.175 246.887 155.308ZM269.358 179.367C270.305 180.772 271.285 181.964 272.298 182.944C273.343 183.891 274.438 184.675 275.581 185.296C276.724 185.884 277.933 186.309 279.207 186.57C280.514 186.831 281.886 186.962 283.323 186.962C286.198 186.962 288.713 186.439 290.869 185.394C293.025 184.349 294.822 182.879 296.259 180.984C297.729 179.057 298.823 176.77 299.542 174.124C300.293 171.445 300.669 168.505 300.669 165.304C300.669 158.052 299.33 152.727 296.651 149.33C293.972 145.9 290.134 144.185 285.136 144.185C281.902 144.185 278.978 145.018 276.365 146.684C273.752 148.35 271.416 150.669 269.358 153.642V179.367ZM269.162 150.016C271.318 147.076 273.833 144.74 276.708 143.009C279.615 141.278 282.866 140.412 286.459 140.412C292.437 140.412 297.092 142.486 300.424 146.635C303.789 150.784 305.471 157.007 305.471 165.304C305.471 168.865 304.997 172.197 304.05 175.3C303.136 178.371 301.764 181.049 299.934 183.336C298.138 185.59 295.916 187.37 293.27 188.677C290.657 189.984 287.635 190.637 284.205 190.637C280.906 190.637 278.047 190.033 275.63 188.824C273.213 187.615 271.122 185.835 269.358 183.483V207.248H264.654V141.245H267.251C268.068 141.245 268.541 141.653 268.672 142.47L269.162 150.016ZM323.43 179.367C324.378 180.772 325.358 181.964 326.37 182.944C327.416 183.891 328.51 184.675 329.653 185.296C330.797 185.884 332.005 186.309 333.279 186.57C334.586 186.831 335.958 186.962 337.395 186.962C340.27 186.962 342.785 186.439 344.941 185.394C347.097 184.349 348.894 182.879 350.331 180.984C351.801 179.057 352.896 176.77 353.614 174.124C354.366 171.445 354.741 168.505 354.741 165.304C354.741 158.052 353.402 152.727 350.723 149.33C348.045 145.9 344.206 144.185 339.208 144.185C335.974 144.185 333.051 145.018 330.437 146.684C327.824 148.35 325.488 150.669 323.43 153.642V179.367ZM323.234 150.016C325.39 147.076 327.906 144.74 330.78 143.009C333.688 141.278 336.938 140.412 340.531 140.412C346.509 140.412 351.164 142.486 354.496 146.635C357.861 150.784 359.543 157.007 359.543 165.304C359.543 168.865 359.07 172.197 358.122 175.3C357.208 178.371 355.836 181.049 354.006 183.336C352.21 185.59 349.988 187.37 347.342 188.677C344.729 189.984 341.707 190.637 338.277 190.637C334.978 190.637 332.12 190.033 329.702 188.824C327.285 187.615 325.194 185.835 323.43 183.483V207.248H318.726V141.245H321.323C322.14 141.245 322.614 141.653 322.744 142.47L323.234 150.016ZM392.105 140.461C395.6 140.461 398.72 141.065 401.464 142.274C404.24 143.45 406.576 145.132 408.471 147.321C410.365 149.51 411.803 152.156 412.783 155.259C413.795 158.33 414.302 161.776 414.302 165.598C414.302 169.42 413.795 172.866 412.783 175.937C411.803 179.008 410.365 181.637 408.471 183.826C406.576 186.015 404.24 187.697 401.464 188.873C398.72 190.049 395.6 190.637 392.105 190.637C388.609 190.637 385.473 190.049 382.697 188.873C379.953 187.697 377.617 186.015 375.69 183.826C373.795 181.637 372.341 179.008 371.329 175.937C370.349 172.866 369.859 169.42 369.859 165.598C369.859 161.776 370.349 158.33 371.329 155.259C372.341 152.156 373.795 149.51 375.69 147.321C377.617 145.132 379.953 143.45 382.697 142.274C385.473 141.065 388.609 140.461 392.105 140.461ZM392.105 186.962C395.012 186.962 397.544 186.472 399.7 185.492C401.888 184.479 403.701 183.042 405.139 181.18C406.609 179.318 407.703 177.08 408.422 174.467C409.14 171.821 409.5 168.865 409.5 165.598C409.5 162.364 409.14 159.424 408.422 156.778C407.703 154.132 406.609 151.878 405.139 150.016C403.701 148.121 401.888 146.668 399.7 145.655C397.544 144.642 395.012 144.136 392.105 144.136C389.197 144.136 386.649 144.642 384.461 145.655C382.305 146.668 380.492 148.121 379.022 150.016C377.584 151.878 376.49 154.132 375.739 156.778C375.02 159.424 374.661 162.364 374.661 165.598C374.661 168.865 375.02 171.821 375.739 174.467C376.49 177.08 377.584 179.318 379.022 181.18C380.492 183.042 382.305 184.479 384.461 185.492C386.649 186.472 389.197 186.962 392.105 186.962ZM431.904 153.005C432.656 151.012 433.505 149.248 434.452 147.713C435.432 146.145 436.543 144.822 437.784 143.744C439.058 142.666 440.463 141.849 441.998 141.294C443.566 140.706 445.298 140.412 447.192 140.412C448.205 140.412 449.201 140.51 450.181 140.706C451.161 140.869 452.027 141.18 452.778 141.637L452.386 144.871C452.223 145.394 451.913 145.655 451.455 145.655C451.063 145.655 450.459 145.541 449.642 145.312C448.858 145.083 447.813 144.969 446.506 144.969C444.612 144.969 442.929 145.263 441.459 145.851C440.022 146.406 438.715 147.256 437.539 148.399C436.396 149.542 435.383 150.963 434.501 152.662C433.652 154.328 432.868 156.255 432.149 158.444V190H427.445V141.245H429.944C430.5 141.245 430.892 141.359 431.12 141.588C431.349 141.817 431.496 142.209 431.561 142.764L431.904 153.005ZM475.418 190.784C472.118 190.784 469.538 189.869 467.676 188.04C465.846 186.211 464.932 183.385 464.932 179.563V146.243H457.925C457.565 146.243 457.271 146.145 457.043 145.949C456.814 145.753 456.7 145.475 456.7 145.116V143.303L465.03 142.715L466.206 125.271C466.271 124.977 466.402 124.716 466.598 124.487C466.794 124.258 467.071 124.144 467.431 124.144H469.636V142.764H485.022V146.243H469.636V179.318C469.636 180.657 469.799 181.817 470.126 182.797C470.485 183.744 470.959 184.528 471.547 185.149C472.167 185.77 472.886 186.227 473.703 186.521C474.519 186.815 475.401 186.962 476.349 186.962C477.525 186.962 478.537 186.799 479.387 186.472C480.236 186.113 480.971 185.737 481.592 185.345C482.212 184.92 482.719 184.545 483.111 184.218C483.503 183.859 483.813 183.679 484.042 183.679C484.303 183.679 484.564 183.842 484.826 184.169L486.1 186.227C484.858 187.599 483.274 188.71 481.347 189.559C479.452 190.376 477.476 190.784 475.418 190.784ZM533.51 141.245V190H530.913C530.096 190 529.622 189.575 529.492 188.726L529.051 181.474C526.797 184.283 524.183 186.537 521.211 188.236C518.271 189.935 514.988 190.784 511.362 190.784C508.65 190.784 506.282 190.359 504.257 189.51C502.231 188.661 500.549 187.436 499.21 185.835C497.87 184.234 496.858 182.307 496.172 180.053C495.486 177.799 495.143 175.251 495.143 172.409V141.245H499.847V172.409C499.847 176.982 500.892 180.576 502.983 183.189C505.073 185.77 508.258 187.06 512.538 187.06C515.706 187.06 518.663 186.26 521.407 184.659C524.183 183.026 526.65 180.772 528.806 177.897V141.245H533.51ZM554.021 149.771C556.275 146.962 558.872 144.708 561.812 143.009C564.785 141.31 568.084 140.461 571.71 140.461C574.389 140.461 576.741 140.886 578.766 141.735C580.824 142.584 582.523 143.809 583.862 145.41C585.202 147.011 586.214 148.938 586.9 151.192C587.586 153.446 587.929 155.994 587.929 158.836V190H583.225V158.836C583.225 154.263 582.18 150.686 580.089 148.105C577.999 145.492 574.814 144.185 570.534 144.185C567.366 144.185 564.393 145.002 561.616 146.635C558.872 148.236 556.422 150.473 554.266 153.348V190H549.562V141.245H552.159C552.976 141.245 553.45 141.653 553.58 142.47L554.021 149.771ZM608.637 141.245V190H603.982V141.245H608.637ZM610.646 124.438C610.646 125.026 610.516 125.581 610.254 126.104C610.026 126.594 609.715 127.035 609.323 127.427C608.931 127.819 608.474 128.129 607.951 128.358C607.429 128.587 606.873 128.701 606.285 128.701C605.697 128.701 605.142 128.587 604.619 128.358C604.097 128.129 603.639 127.819 603.247 127.427C602.855 127.035 602.545 126.594 602.316 126.104C602.088 125.581 601.973 125.026 601.973 124.438C601.973 123.85 602.088 123.295 602.316 122.772C602.545 122.217 602.855 121.743 603.247 121.351C603.639 120.959 604.097 120.649 604.619 120.42C605.142 120.191 605.697 120.077 606.285 120.077C606.873 120.077 607.429 120.191 607.951 120.42C608.474 120.649 608.931 120.959 609.323 121.351C609.715 121.743 610.026 122.217 610.254 122.772C610.516 123.295 610.646 123.85 610.646 124.438ZM665.738 190H661.034V146.243H632.81V179.318C632.81 180.657 632.973 181.817 633.3 182.797C633.659 183.744 634.133 184.528 634.721 185.149C635.341 185.77 636.06 186.227 636.877 186.521C637.693 186.815 638.575 186.962 639.523 186.962C640.699 186.962 641.711 186.799 642.561 186.472C643.41 186.113 644.145 185.737 644.766 185.345C645.386 184.92 645.893 184.545 646.285 184.218C646.677 183.859 646.987 183.679 647.216 183.679C647.477 183.679 647.738 183.842 648 184.169L649.274 186.227C648.032 187.599 646.448 188.71 644.521 189.559C642.626 190.376 640.65 190.784 638.592 190.784C635.292 190.784 632.712 189.869 630.85 188.04C629.02 186.211 628.106 183.385 628.106 179.563V146.243H621.099C620.739 146.243 620.445 146.145 620.217 145.949C619.988 145.753 619.874 145.475 619.874 145.116V143.303L628.204 142.715L629.38 125.271C629.445 124.977 629.576 124.716 629.772 124.487C629.968 124.258 630.245 124.144 630.605 124.144H632.81V142.764H665.738V190ZM667.894 123.85C667.894 124.438 667.763 124.993 667.502 125.516C667.273 126.006 666.946 126.447 666.522 126.839C666.13 127.231 665.672 127.541 665.15 127.77C664.627 127.999 664.072 128.113 663.484 128.113C662.896 128.113 662.34 127.999 661.818 127.77C661.295 127.541 660.838 127.231 660.446 126.839C660.054 126.447 659.743 126.006 659.515 125.516C659.286 124.993 659.172 124.438 659.172 123.85C659.172 123.262 659.286 122.707 659.515 122.184C659.743 121.629 660.054 121.155 660.446 120.763C660.838 120.371 661.295 120.061 661.818 119.832C662.34 119.603 662.896 119.489 663.484 119.489C664.072 119.489 664.627 119.603 665.15 119.832C665.672 120.061 666.13 120.371 666.522 120.763C666.946 121.155 667.273 121.629 667.502 122.184C667.763 122.707 667.894 123.262 667.894 123.85ZM716.505 160.698C716.505 158.085 716.129 155.749 715.378 153.691C714.659 151.6 713.63 149.836 712.291 148.399C710.951 146.962 709.351 145.867 707.489 145.116C705.659 144.332 703.634 143.94 701.413 143.94C698.897 143.94 696.643 144.332 694.651 145.116C692.658 145.9 690.927 147.027 689.457 148.497C688.019 149.967 686.86 151.731 685.978 153.789C685.096 155.847 684.508 158.15 684.214 160.698H716.505ZM683.969 163.687V164.618C683.969 168.277 684.393 171.494 685.243 174.271C686.092 177.048 687.301 179.383 688.869 181.278C690.437 183.14 692.331 184.545 694.553 185.492C696.774 186.439 699.257 186.913 702.001 186.913C704.451 186.913 706.574 186.652 708.371 186.129C710.167 185.574 711.67 184.969 712.879 184.316C714.12 183.63 715.1 183.026 715.819 182.503C716.537 181.948 717.06 181.67 717.387 181.67C717.811 181.67 718.138 181.833 718.367 182.16L719.641 183.728C718.857 184.708 717.811 185.623 716.505 186.472C715.231 187.321 713.793 188.056 712.193 188.677C710.625 189.265 708.926 189.739 707.097 190.098C705.3 190.457 703.487 190.637 701.658 190.637C698.326 190.637 695.288 190.065 692.544 188.922C689.8 187.746 687.448 186.047 685.488 183.826C683.528 181.605 682.009 178.893 680.931 175.692C679.885 172.458 679.363 168.767 679.363 164.618C679.363 161.123 679.853 157.905 680.833 154.965C681.845 151.992 683.283 149.444 685.145 147.321C687.039 145.165 689.342 143.483 692.054 142.274C694.798 141.065 697.901 140.461 701.364 140.461C704.108 140.461 706.656 140.935 709.008 141.882C711.36 142.829 713.401 144.218 715.133 146.047C716.864 147.844 718.22 150.065 719.2 152.711C720.212 155.357 720.719 158.395 720.719 161.825C720.719 162.544 720.621 163.034 720.425 163.295C720.229 163.556 719.902 163.687 719.445 163.687H683.969ZM760.211 147.272C759.95 147.729 759.574 147.958 759.084 147.958C758.725 147.958 758.267 147.762 757.712 147.37C757.157 146.945 756.405 146.488 755.458 145.998C754.543 145.475 753.4 145.018 752.028 144.626C750.656 144.201 748.99 143.989 747.03 143.989C745.266 143.989 743.649 144.25 742.179 144.773C740.742 145.263 739.5 145.933 738.455 146.782C737.442 147.631 736.658 148.628 736.103 149.771C735.548 150.882 735.27 152.058 735.27 153.299C735.27 154.834 735.662 156.108 736.446 157.121C737.23 158.134 738.243 158.999 739.484 159.718C740.758 160.437 742.212 161.057 743.845 161.58C745.478 162.103 747.128 162.625 748.794 163.148C750.493 163.671 752.159 164.259 753.792 164.912C755.425 165.533 756.863 166.317 758.104 167.264C759.378 168.211 760.407 169.371 761.191 170.743C761.975 172.115 762.367 173.781 762.367 175.741C762.367 177.864 761.991 179.841 761.24 181.67C760.489 183.499 759.378 185.084 757.908 186.423C756.471 187.762 754.69 188.824 752.567 189.608C750.444 190.392 748.01 190.784 745.266 190.784C741.836 190.784 738.88 190.245 736.397 189.167C733.914 188.056 731.693 186.619 729.733 184.855L730.811 183.189C730.974 182.928 731.154 182.732 731.35 182.601C731.579 182.47 731.873 182.405 732.232 182.405C732.657 182.405 733.163 182.666 733.751 183.189C734.372 183.712 735.188 184.283 736.201 184.904C737.214 185.492 738.455 186.047 739.925 186.57C741.428 187.093 743.273 187.354 745.462 187.354C747.52 187.354 749.333 187.076 750.901 186.521C752.469 185.933 753.776 185.149 754.821 184.169C755.866 183.189 756.65 182.046 757.173 180.739C757.728 179.4 758.006 177.995 758.006 176.525C758.006 174.892 757.614 173.536 756.83 172.458C756.046 171.38 755.017 170.465 753.743 169.714C752.469 168.963 751.015 168.326 749.382 167.803C747.781 167.28 746.132 166.758 744.433 166.235C742.734 165.712 741.068 165.141 739.435 164.52C737.834 163.899 736.397 163.115 735.123 162.168C733.849 161.221 732.82 160.077 732.036 158.738C731.252 157.366 730.86 155.667 730.86 153.642C730.86 151.911 731.236 150.245 731.987 148.644C732.738 147.043 733.8 145.639 735.172 144.43C736.577 143.221 738.275 142.258 740.268 141.539C742.261 140.82 744.498 140.461 746.981 140.461C749.954 140.461 752.583 140.886 754.87 141.735C757.189 142.584 759.296 143.891 761.191 145.655L760.211 147.272Z" fill="white"/>
</svg>
