<svg width="363" height="220" viewBox="0 0 363 220" fill="none" xmlns="http://www.w3.org/2000/svg">
<path d="M5.92 51H2.315V1.475H5.92V51ZM21.6301 22.265C23.2401 20.2583 25.0951 18.6483 27.1951 17.435C29.3184 16.2217 31.6751 15.615 34.2651 15.615C36.1784 15.615 37.8584 15.9183 39.3051 16.525C40.7751 17.1317 41.9884 18.0067 42.9451 19.15C43.9017 20.2933 44.6251 21.67 45.1151 23.28C45.6051 24.89 45.8501 26.71 45.8501 28.74V51H42.4901V28.74C42.4901 25.4733 41.7434 22.9183 40.2501 21.075C38.7567 19.2083 36.4817 18.275 33.4251 18.275C31.1617 18.275 29.0384 18.8583 27.0551 20.025C25.0951 21.1683 23.3451 22.7667 21.8051 24.82V51H18.4451V16.175H20.3001C20.8834 16.175 21.2217 16.4667 21.3151 17.05L21.6301 22.265ZM84.2128 16.175L69.5128 51H66.5728L51.8728 16.175H54.4978C54.8245 16.175 55.0928 16.2683 55.3028 16.455C55.5128 16.6183 55.6528 16.805 55.7228 17.015L67.2378 44.49C67.5878 45.5167 67.8678 46.5317 68.0778 47.535C68.2878 46.5317 68.5795 45.5167 68.9528 44.49L80.5028 17.015C80.6195 16.7583 80.7711 16.56 80.9578 16.42C81.1678 16.2567 81.4128 16.175 81.6928 16.175H84.2128ZM114.994 30.07C114.994 28.2033 114.726 26.535 114.189 25.065C113.676 23.5717 112.941 22.3117 111.984 21.285C111.028 20.2583 109.884 19.4767 108.554 18.94C107.248 18.38 105.801 18.1 104.214 18.1C102.418 18.1 100.808 18.38 99.3842 18.94C97.9609 19.5 96.7242 20.305 95.6742 21.355C94.6476 22.405 93.8192 23.665 93.1892 25.135C92.5592 26.605 92.1392 28.25 91.9292 30.07H114.994ZM91.7542 32.205V32.87C91.7542 35.4833 92.0576 37.7817 92.6642 39.765C93.2709 41.7483 94.1342 43.4167 95.2542 44.77C96.3742 46.1 97.7276 47.1033 99.3142 47.78C100.901 48.4567 102.674 48.795 104.634 48.795C106.384 48.795 107.901 48.6083 109.184 48.235C110.468 47.8383 111.541 47.4067 112.404 46.94C113.291 46.45 113.991 46.0183 114.504 45.645C115.018 45.2483 115.391 45.05 115.624 45.05C115.928 45.05 116.161 45.1667 116.324 45.4L117.234 46.52C116.674 47.22 115.928 47.8733 114.994 48.48C114.084 49.0867 113.058 49.6117 111.914 50.055C110.794 50.475 109.581 50.8133 108.274 51.07C106.991 51.3267 105.696 51.455 104.389 51.455C102.009 51.455 99.8392 51.0467 97.8792 50.23C95.9192 49.39 94.2392 48.1767 92.8392 46.59C91.4392 45.0033 90.3542 43.0667 89.5842 40.78C88.8376 38.47 88.4642 35.8333 88.4642 32.87C88.4642 30.3733 88.8142 28.075 89.5142 25.975C90.2376 23.8517 91.2642 22.0317 92.5942 20.515C93.9476 18.975 95.5926 17.7733 97.5292 16.91C99.4892 16.0467 101.706 15.615 104.179 15.615C106.139 15.615 107.959 15.9533 109.639 16.63C111.319 17.3067 112.778 18.2983 114.014 19.605C115.251 20.8883 116.219 22.475 116.919 24.365C117.643 26.255 118.004 28.425 118.004 30.875C118.004 31.3883 117.934 31.7383 117.794 31.925C117.654 32.1117 117.421 32.205 117.094 32.205H91.7542ZM146.213 20.48C146.026 20.8067 145.758 20.97 145.408 20.97C145.151 20.97 144.825 20.83 144.428 20.55C144.031 20.2467 143.495 19.92 142.818 19.57C142.165 19.1967 141.348 18.87 140.368 18.59C139.388 18.2867 138.198 18.135 136.798 18.135C135.538 18.135 134.383 18.3217 133.333 18.695C132.306 19.045 131.42 19.5233 130.673 20.13C129.95 20.7367 129.39 21.4483 128.993 22.265C128.596 23.0583 128.398 23.8983 128.398 24.785C128.398 25.8817 128.678 26.7917 129.238 27.515C129.798 28.2383 130.521 28.8567 131.408 29.37C132.318 29.8833 133.356 30.3267 134.523 30.7C135.69 31.0733 136.868 31.4467 138.058 31.82C139.271 32.1933 140.461 32.6133 141.628 33.08C142.795 33.5233 143.821 34.0833 144.708 34.76C145.618 35.4367 146.353 36.265 146.913 37.245C147.473 38.225 147.753 39.415 147.753 40.815C147.753 42.3317 147.485 43.7433 146.948 45.05C146.411 46.3567 145.618 47.4883 144.568 48.445C143.541 49.4017 142.27 50.16 140.753 50.72C139.236 51.28 137.498 51.56 135.538 51.56C133.088 51.56 130.976 51.175 129.203 50.405C127.43 49.6117 125.843 48.585 124.443 47.325L125.213 46.135C125.33 45.9483 125.458 45.8083 125.598 45.715C125.761 45.6217 125.971 45.575 126.228 45.575C126.531 45.575 126.893 45.7617 127.313 46.135C127.756 46.5083 128.34 46.9167 129.063 47.36C129.786 47.78 130.673 48.1767 131.723 48.55C132.796 48.9233 134.115 49.11 135.678 49.11C137.148 49.11 138.443 48.9117 139.563 48.515C140.683 48.095 141.616 47.535 142.363 46.835C143.11 46.135 143.67 45.3183 144.043 44.385C144.44 43.4283 144.638 42.425 144.638 41.375C144.638 40.2083 144.358 39.24 143.798 38.47C143.238 37.7 142.503 37.0467 141.593 36.51C140.683 35.9733 139.645 35.5183 138.478 35.145C137.335 34.7717 136.156 34.3983 134.943 34.025C133.73 33.6517 132.54 33.2433 131.373 32.8C130.23 32.3567 129.203 31.7967 128.293 31.12C127.383 30.4433 126.648 29.6267 126.088 28.67C125.528 27.69 125.248 26.4767 125.248 25.03C125.248 23.7933 125.516 22.6033 126.053 21.46C126.59 20.3167 127.348 19.3133 128.328 18.45C129.331 17.5867 130.545 16.8983 131.968 16.385C133.391 15.8717 134.99 15.615 136.763 15.615C138.886 15.615 140.765 15.9183 142.398 16.525C144.055 17.1317 145.56 18.065 146.913 19.325L146.213 20.48ZM166.324 51.56C163.968 51.56 162.124 50.9067 160.794 49.6C159.488 48.2933 158.834 46.275 158.834 43.545V19.745H153.829C153.573 19.745 153.363 19.675 153.199 19.535C153.036 19.395 152.954 19.1967 152.954 18.94V17.645L158.904 17.225L159.744 4.765C159.791 4.555 159.884 4.36833 160.024 4.205C160.164 4.04166 160.363 3.96 160.619 3.96H162.194V17.26H173.184V19.745H162.194V43.37C162.194 44.3267 162.311 45.155 162.544 45.855C162.801 46.5317 163.139 47.0917 163.559 47.535C164.003 47.9783 164.516 48.305 165.099 48.515C165.683 48.725 166.313 48.83 166.989 48.83C167.829 48.83 168.553 48.7133 169.159 48.48C169.766 48.2233 170.291 47.955 170.734 47.675C171.178 47.3717 171.539 47.1033 171.819 46.87C172.099 46.6133 172.321 46.485 172.484 46.485C172.671 46.485 172.858 46.6017 173.044 46.835L173.954 48.305C173.068 49.285 171.936 50.0783 170.559 50.685C169.206 51.2683 167.794 51.56 166.324 51.56ZM203.513 16.175V51H200.188V16.175H203.513ZM204.948 4.17C204.948 4.59 204.854 4.98667 204.668 5.36C204.504 5.71 204.283 6.025 204.003 6.305C203.723 6.585 203.396 6.80666 203.023 6.97C202.649 7.13333 202.253 7.215 201.833 7.215C201.413 7.215 201.016 7.13333 200.643 6.97C200.269 6.80666 199.943 6.585 199.663 6.305C199.383 6.025 199.161 5.71 198.998 5.36C198.834 4.98667 198.753 4.59 198.753 4.17C198.753 3.75 198.834 3.35333 198.998 2.98C199.161 2.58333 199.383 2.245 199.663 1.965C199.943 1.685 200.269 1.46333 200.643 1.3C201.016 1.13666 201.413 1.055 201.833 1.055C202.253 1.055 202.649 1.13666 203.023 1.3C203.396 1.46333 203.723 1.685 204.003 1.965C204.283 2.245 204.504 2.58333 204.668 2.98C204.854 3.35333 204.948 3.75 204.948 4.17ZM218.573 22.265C220.183 20.2583 222.038 18.6483 224.138 17.435C226.262 16.2217 228.618 15.615 231.208 15.615C233.122 15.615 234.802 15.9183 236.248 16.525C237.718 17.1317 238.932 18.0067 239.888 19.15C240.845 20.2933 241.568 21.67 242.058 23.28C242.548 24.89 242.793 26.71 242.793 28.74V51H239.433V28.74C239.433 25.4733 238.687 22.9183 237.193 21.075C235.7 19.2083 233.425 18.275 230.368 18.275C228.105 18.275 225.982 18.8583 223.998 20.025C222.038 21.1683 220.288 22.7667 218.748 24.82V51H215.388V16.175H217.243C217.827 16.175 218.165 16.4667 218.258 17.05L218.573 22.265ZM282.399 51.56C280.042 51.56 278.199 50.9067 276.869 49.6C275.562 48.2933 274.909 46.275 274.909 43.545V19.745H269.904C269.647 19.745 269.437 19.675 269.274 19.535C269.11 19.395 269.029 19.1967 269.029 18.94V17.645L274.979 17.225L275.819 4.765C275.865 4.555 275.959 4.36833 276.099 4.205C276.239 4.04166 276.437 3.96 276.694 3.96H278.269V17.26H289.259V19.745H278.269V43.37C278.269 44.3267 278.385 45.155 278.619 45.855C278.875 46.5317 279.214 47.0917 279.634 47.535C280.077 47.9783 280.59 48.305 281.174 48.515C281.757 48.725 282.387 48.83 283.064 48.83C283.904 48.83 284.627 48.7133 285.234 48.48C285.84 48.2233 286.365 47.955 286.809 47.675C287.252 47.3717 287.614 47.1033 287.894 46.87C288.174 46.6133 288.395 46.485 288.559 46.485C288.745 46.485 288.932 46.6017 289.119 46.835L290.029 48.305C289.142 49.285 288.01 50.0783 286.634 50.685C285.28 51.2683 283.869 51.56 282.399 51.56ZM300.233 22.055C301.843 20.095 303.674 18.5317 305.728 17.365C307.804 16.1983 310.126 15.615 312.693 15.615C314.606 15.615 316.286 15.9183 317.733 16.525C319.203 17.1317 320.416 18.0067 321.373 19.15C322.329 20.2933 323.053 21.67 323.543 23.28C324.033 24.89 324.278 26.71 324.278 28.74V51H320.918V28.74C320.918 25.4733 320.171 22.9183 318.678 21.075C317.184 19.2083 314.909 18.275 311.853 18.275C309.589 18.275 307.466 18.8583 305.483 20.025C303.523 21.1683 301.773 22.7667 300.233 24.82V51H296.873V0.0749985H300.233V22.055ZM359.789 30.07C359.789 28.2033 359.521 26.535 358.984 25.065C358.471 23.5717 357.736 22.3117 356.779 21.285C355.822 20.2583 354.679 19.4767 353.349 18.94C352.042 18.38 350.596 18.1 349.009 18.1C347.212 18.1 345.602 18.38 344.179 18.94C342.756 19.5 341.519 20.305 340.469 21.355C339.442 22.405 338.614 23.665 337.984 25.135C337.354 26.605 336.934 28.25 336.724 30.07H359.789ZM336.549 32.205V32.87C336.549 35.4833 336.852 37.7817 337.459 39.765C338.066 41.7483 338.929 43.4167 340.049 44.77C341.169 46.1 342.522 47.1033 344.109 47.78C345.696 48.4567 347.469 48.795 349.429 48.795C351.179 48.795 352.696 48.6083 353.979 48.235C355.262 47.8383 356.336 47.4067 357.199 46.94C358.086 46.45 358.786 46.0183 359.299 45.645C359.812 45.2483 360.186 45.05 360.419 45.05C360.722 45.05 360.956 45.1667 361.119 45.4L362.029 46.52C361.469 47.22 360.722 47.8733 359.789 48.48C358.879 49.0867 357.852 49.6117 356.709 50.055C355.589 50.475 354.376 50.8133 353.069 51.07C351.786 51.3267 350.491 51.455 349.184 51.455C346.804 51.455 344.634 51.0467 342.674 50.23C340.714 49.39 339.034 48.1767 337.634 46.59C336.234 45.0033 335.149 43.0667 334.379 40.78C333.632 38.47 333.259 35.8333 333.259 32.87C333.259 30.3733 333.609 28.075 334.309 25.975C335.032 23.8517 336.059 22.0317 337.389 20.515C338.742 18.975 340.387 17.7733 342.324 16.91C344.284 16.0467 346.501 15.615 348.974 15.615C350.934 15.615 352.754 15.9533 354.434 16.63C356.114 17.3067 357.572 18.2983 358.809 19.605C360.046 20.8883 361.014 22.475 361.714 24.365C362.437 26.255 362.799 28.425 362.799 30.875C362.799 31.3883 362.729 31.7383 362.589 31.925C362.449 32.1117 362.216 32.205 361.889 32.205H336.549ZM4.1 127.405C5.45333 129.412 6.935 130.823 8.545 131.64C10.1783 132.433 12.01 132.83 14.04 132.83C16.1167 132.83 17.925 132.457 19.465 131.71C21.0283 130.963 22.3233 129.902 23.35 128.525C24.4 127.125 25.1817 125.433 25.695 123.45C26.2083 121.467 26.465 119.238 26.465 116.765C26.465 111.958 25.5083 108.342 23.595 105.915C21.6817 103.488 18.9983 102.275 15.545 102.275C13.0717 102.275 10.9133 102.87 9.07 104.06C7.22667 105.25 5.57 106.907 4.1 109.03V127.405ZM4.1 106.23C5.61667 104.177 7.39 102.567 9.42 101.4C11.45 100.21 13.8067 99.615 16.49 99.615C18.59 99.615 20.4683 100 22.125 100.77C23.7817 101.54 25.1817 102.648 26.325 104.095C27.4917 105.542 28.3783 107.327 28.985 109.45C29.5917 111.55 29.895 113.942 29.895 116.625C29.895 119.448 29.5567 122.027 28.88 124.36C28.2033 126.67 27.2117 128.653 25.905 130.31C24.6217 131.943 23.0467 133.215 21.18 134.125C19.3133 135.012 17.1783 135.455 14.775 135.455C12.3017 135.455 10.19 134.988 8.44 134.055C6.71333 133.098 5.22 131.687 3.96 129.82L3.715 134.125C3.645 134.708 3.33 135 2.77 135H0.74V84.075H4.1V106.23ZM63.7247 114.07C63.7247 112.203 63.4564 110.535 62.9197 109.065C62.4064 107.572 61.6714 106.312 60.7147 105.285C59.758 104.258 58.6147 103.477 57.2847 102.94C55.978 102.38 54.5314 102.1 52.9447 102.1C51.148 102.1 49.538 102.38 48.1147 102.94C46.6914 103.5 45.4547 104.305 44.4047 105.355C43.378 106.405 42.5497 107.665 41.9197 109.135C41.2897 110.605 40.8697 112.25 40.6597 114.07H63.7247ZM40.4847 116.205V116.87C40.4847 119.483 40.788 121.782 41.3947 123.765C42.0014 125.748 42.8647 127.417 43.9847 128.77C45.1047 130.1 46.458 131.103 48.0447 131.78C49.6314 132.457 51.4047 132.795 53.3647 132.795C55.1147 132.795 56.6314 132.608 57.9147 132.235C59.198 131.838 60.2714 131.407 61.1347 130.94C62.0214 130.45 62.7214 130.018 63.2347 129.645C63.748 129.248 64.1214 129.05 64.3547 129.05C64.658 129.05 64.8914 129.167 65.0547 129.4L65.9647 130.52C65.4047 131.22 64.658 131.873 63.7247 132.48C62.8147 133.087 61.788 133.612 60.6447 134.055C59.5247 134.475 58.3114 134.813 57.0047 135.07C55.7214 135.327 54.4264 135.455 53.1197 135.455C50.7397 135.455 48.5697 135.047 46.6097 134.23C44.6497 133.39 42.9697 132.177 41.5697 130.59C40.1697 129.003 39.0847 127.067 38.3147 124.78C37.568 122.47 37.1947 119.833 37.1947 116.87C37.1947 114.373 37.5447 112.075 38.2447 109.975C38.968 107.852 39.9947 106.032 41.3247 104.515C42.678 102.975 44.323 101.773 46.2597 100.91C48.2197 100.047 50.4364 99.615 52.9097 99.615C54.8697 99.615 56.6897 99.9533 58.3697 100.63C60.0497 101.307 61.508 102.298 62.7447 103.605C63.9814 104.888 64.9497 106.475 65.6497 108.365C66.373 110.255 66.7347 112.425 66.7347 114.875C66.7347 115.388 66.6647 115.738 66.5247 115.925C66.3847 116.112 66.1514 116.205 65.8247 116.205H40.4847ZM94.9436 104.48C94.7569 104.807 94.4886 104.97 94.1386 104.97C93.8819 104.97 93.5553 104.83 93.1586 104.55C92.7619 104.247 92.2253 103.92 91.5486 103.57C90.8953 103.197 90.0786 102.87 89.0986 102.59C88.1186 102.287 86.9286 102.135 85.5286 102.135C84.2686 102.135 83.1136 102.322 82.0636 102.695C81.0369 103.045 80.1503 103.523 79.4036 104.13C78.6803 104.737 78.1203 105.448 77.7236 106.265C77.3269 107.058 77.1286 107.898 77.1286 108.785C77.1286 109.882 77.4086 110.792 77.9686 111.515C78.5286 112.238 79.2519 112.857 80.1386 113.37C81.0486 113.883 82.0869 114.327 83.2536 114.7C84.4203 115.073 85.5986 115.447 86.7886 115.82C88.0019 116.193 89.1919 116.613 90.3586 117.08C91.5253 117.523 92.5519 118.083 93.4386 118.76C94.3486 119.437 95.0836 120.265 95.6436 121.245C96.2036 122.225 96.4836 123.415 96.4836 124.815C96.4836 126.332 96.2153 127.743 95.6786 129.05C95.1419 130.357 94.3486 131.488 93.2986 132.445C92.2719 133.402 91.0003 134.16 89.4836 134.72C87.9669 135.28 86.2286 135.56 84.2686 135.56C81.8186 135.56 79.7069 135.175 77.9336 134.405C76.1603 133.612 74.5736 132.585 73.1736 131.325L73.9436 130.135C74.0603 129.948 74.1886 129.808 74.3286 129.715C74.4919 129.622 74.7019 129.575 74.9586 129.575C75.2619 129.575 75.6236 129.762 76.0436 130.135C76.4869 130.508 77.0703 130.917 77.7936 131.36C78.5169 131.78 79.4036 132.177 80.4536 132.55C81.5269 132.923 82.8453 133.11 84.4086 133.11C85.8786 133.11 87.1736 132.912 88.2936 132.515C89.4136 132.095 90.3469 131.535 91.0936 130.835C91.8403 130.135 92.4003 129.318 92.7736 128.385C93.1703 127.428 93.3686 126.425 93.3686 125.375C93.3686 124.208 93.0886 123.24 92.5286 122.47C91.9686 121.7 91.2336 121.047 90.3236 120.51C89.4136 119.973 88.3753 119.518 87.2086 119.145C86.0653 118.772 84.8869 118.398 83.6736 118.025C82.4603 117.652 81.2703 117.243 80.1036 116.8C78.9603 116.357 77.9336 115.797 77.0236 115.12C76.1136 114.443 75.3786 113.627 74.8186 112.67C74.2586 111.69 73.9786 110.477 73.9786 109.03C73.9786 107.793 74.2469 106.603 74.7836 105.46C75.3203 104.317 76.0786 103.313 77.0586 102.45C78.0619 101.587 79.2753 100.898 80.6986 100.385C82.1219 99.8717 83.7203 99.615 85.4936 99.615C87.6169 99.615 89.4953 99.9183 91.1286 100.525C92.7853 101.132 94.2903 102.065 95.6436 103.325L94.9436 104.48ZM115.055 135.56C112.698 135.56 110.855 134.907 109.525 133.6C108.218 132.293 107.565 130.275 107.565 127.545V103.745H102.56C102.303 103.745 102.093 103.675 101.93 103.535C101.767 103.395 101.685 103.197 101.685 102.94V101.645L107.635 101.225L108.475 88.765C108.522 88.555 108.615 88.3683 108.755 88.205C108.895 88.0417 109.093 87.96 109.35 87.96H110.925V101.26H121.915V103.745H110.925V127.37C110.925 128.327 111.042 129.155 111.275 129.855C111.532 130.532 111.87 131.092 112.29 131.535C112.733 131.978 113.247 132.305 113.83 132.515C114.413 132.725 115.043 132.83 115.72 132.83C116.56 132.83 117.283 132.713 117.89 132.48C118.497 132.223 119.022 131.955 119.465 131.675C119.908 131.372 120.27 131.103 120.55 130.87C120.83 130.613 121.052 130.485 121.215 130.485C121.402 130.485 121.588 130.602 121.775 130.835L122.685 132.305C121.798 133.285 120.667 134.078 119.29 134.685C117.937 135.268 116.525 135.56 115.055 135.56ZM152.243 100.175V135H148.918V100.175H152.243ZM153.678 88.17C153.678 88.59 153.585 88.9867 153.398 89.36C153.235 89.71 153.013 90.025 152.733 90.305C152.453 90.585 152.126 90.8067 151.753 90.97C151.38 91.1333 150.983 91.215 150.563 91.215C150.143 91.215 149.746 91.1333 149.373 90.97C149 90.8067 148.673 90.585 148.393 90.305C148.113 90.025 147.891 89.71 147.728 89.36C147.565 88.9867 147.483 88.59 147.483 88.17C147.483 87.75 147.565 87.3533 147.728 86.98C147.891 86.5833 148.113 86.245 148.393 85.965C148.673 85.685 149 85.4633 149.373 85.3C149.746 85.1367 150.143 85.055 150.563 85.055C150.983 85.055 151.38 85.1367 151.753 85.3C152.126 85.4633 152.453 85.685 152.733 85.965C153.013 86.245 153.235 86.5833 153.398 86.98C153.585 87.3533 153.678 87.75 153.678 88.17ZM167.304 106.265C168.914 104.258 170.769 102.648 172.869 101.435C174.992 100.222 177.349 99.615 179.939 99.615C181.852 99.615 183.532 99.9183 184.979 100.525C186.449 101.132 187.662 102.007 188.619 103.15C189.576 104.293 190.299 105.67 190.789 107.28C191.279 108.89 191.524 110.71 191.524 112.74V135H188.164V112.74C188.164 109.473 187.417 106.918 185.924 105.075C184.431 103.208 182.156 102.275 179.099 102.275C176.836 102.275 174.712 102.858 172.729 104.025C170.769 105.168 169.019 106.767 167.479 108.82V135H164.119V100.175H165.974C166.557 100.175 166.896 100.467 166.989 101.05L167.304 106.265ZM5.92 219H2.315V169.475H5.92V219ZM21.6301 190.265C23.2401 188.258 25.0951 186.648 27.1951 185.435C29.3184 184.222 31.6751 183.615 34.2651 183.615C36.1784 183.615 37.8584 183.918 39.3051 184.525C40.7751 185.132 41.9884 186.007 42.9451 187.15C43.9017 188.293 44.6251 189.67 45.1151 191.28C45.6051 192.89 45.8501 194.71 45.8501 196.74V219H42.4901V196.74C42.4901 193.473 41.7434 190.918 40.2501 189.075C38.7567 187.208 36.4817 186.275 33.4251 186.275C31.1617 186.275 29.0384 186.858 27.0551 188.025C25.0951 189.168 23.3451 190.767 21.8051 192.82V219H18.4451V184.175H20.3001C20.8834 184.175 21.2217 184.467 21.3151 185.05L21.6301 190.265ZM60.1164 190.265C61.7264 188.258 63.5814 186.648 65.6814 185.435C67.8047 184.222 70.1614 183.615 72.7514 183.615C74.6647 183.615 76.3447 183.918 77.7914 184.525C79.2614 185.132 80.4747 186.007 81.4314 187.15C82.3881 188.293 83.1114 189.67 83.6014 191.28C84.0914 192.89 84.3364 194.71 84.3364 196.74V219H80.9764V196.74C80.9764 193.473 80.2297 190.918 78.7364 189.075C77.2431 187.208 74.9681 186.275 71.9114 186.275C69.6481 186.275 67.5247 186.858 65.5414 188.025C63.5814 189.168 61.8314 190.767 60.2914 192.82V219H56.9314V184.175H58.7864C59.3697 184.175 59.7081 184.467 59.8014 185.05L60.1164 190.265ZM109.208 183.615C111.704 183.615 113.933 184.047 115.893 184.91C117.876 185.75 119.544 186.952 120.898 188.515C122.251 190.078 123.278 191.968 123.978 194.185C124.701 196.378 125.063 198.84 125.063 201.57C125.063 204.3 124.701 206.762 123.978 208.955C123.278 211.148 122.251 213.027 120.898 214.59C119.544 216.153 117.876 217.355 115.893 218.195C113.933 219.035 111.704 219.455 109.208 219.455C106.711 219.455 104.471 219.035 102.488 218.195C100.528 217.355 98.8594 216.153 97.4827 214.59C96.1294 213.027 95.0911 211.148 94.3677 208.955C93.6677 206.762 93.3177 204.3 93.3177 201.57C93.3177 198.84 93.6677 196.378 94.3677 194.185C95.0911 191.968 96.1294 190.078 97.4827 188.515C98.8594 186.952 100.528 185.75 102.488 184.91C104.471 184.047 106.711 183.615 109.208 183.615ZM109.208 216.83C111.284 216.83 113.093 216.48 114.633 215.78C116.196 215.057 117.491 214.03 118.518 212.7C119.568 211.37 120.349 209.772 120.863 207.905C121.376 206.015 121.633 203.903 121.633 201.57C121.633 199.26 121.376 197.16 120.863 195.27C120.349 193.38 119.568 191.77 118.518 190.44C117.491 189.087 116.196 188.048 114.633 187.325C113.093 186.602 111.284 186.24 109.208 186.24C107.131 186.24 105.311 186.602 103.748 187.325C102.208 188.048 100.913 189.087 99.8627 190.44C98.8361 191.77 98.0544 193.38 97.5177 195.27C97.0044 197.16 96.7477 199.26 96.7477 201.57C96.7477 203.903 97.0044 206.015 97.5177 207.905C98.0544 209.772 98.8361 211.37 99.8627 212.7C100.913 214.03 102.208 215.057 103.748 215.78C105.311 216.48 107.131 216.83 109.208 216.83ZM161.596 184.175L146.896 219H143.956L129.256 184.175H131.881C132.207 184.175 132.476 184.268 132.686 184.455C132.896 184.618 133.036 184.805 133.106 185.015L144.621 212.49C144.971 213.517 145.251 214.532 145.461 215.535C145.671 214.532 145.962 213.517 146.336 212.49L157.886 185.015C158.002 184.758 158.154 184.56 158.341 184.42C158.551 184.257 158.796 184.175 159.076 184.175H161.596ZM187.579 202.165C184.265 202.282 181.407 202.55 179.004 202.97C176.624 203.367 174.652 203.915 173.089 204.615C171.549 205.315 170.405 206.155 169.659 207.135C168.912 208.092 168.539 209.188 168.539 210.425C168.539 211.592 168.725 212.607 169.099 213.47C169.495 214.31 170.009 215.01 170.639 215.57C171.292 216.107 172.039 216.503 172.879 216.76C173.719 217.017 174.594 217.145 175.504 217.145C176.857 217.145 178.094 217.005 179.214 216.725C180.357 216.422 181.407 216.013 182.364 215.5C183.344 214.963 184.254 214.333 185.094 213.61C185.934 212.887 186.762 212.105 187.579 211.265V202.165ZM167.104 189.11C168.924 187.29 170.837 185.913 172.844 184.98C174.85 184.047 177.125 183.58 179.669 183.58C181.535 183.58 183.169 183.883 184.569 184.49C185.969 185.073 187.124 185.925 188.034 187.045C188.967 188.142 189.667 189.483 190.134 191.07C190.6 192.633 190.834 194.383 190.834 196.32V219H189.504C188.804 219 188.372 218.673 188.209 218.02L187.719 213.54C186.762 214.473 185.805 215.313 184.849 216.06C183.915 216.807 182.935 217.437 181.909 217.95C180.882 218.463 179.774 218.86 178.584 219.14C177.394 219.42 176.087 219.56 174.664 219.56C173.474 219.56 172.319 219.385 171.199 219.035C170.079 218.685 169.075 218.148 168.189 217.425C167.325 216.702 166.625 215.78 166.089 214.66C165.575 213.517 165.319 212.152 165.319 210.565C165.319 209.095 165.739 207.73 166.579 206.47C167.419 205.21 168.737 204.113 170.534 203.18C172.33 202.247 174.629 201.5 177.429 200.94C180.252 200.38 183.635 200.053 187.579 199.96V196.32C187.579 193.1 186.879 190.627 185.479 188.9C184.102 187.15 182.049 186.275 179.319 186.275C177.639 186.275 176.204 186.508 175.014 186.975C173.847 187.442 172.855 187.955 172.039 188.515C171.222 189.075 170.557 189.588 170.044 190.055C169.53 190.522 169.099 190.755 168.749 190.755C168.492 190.755 168.282 190.697 168.119 190.58C167.955 190.463 167.815 190.312 167.699 190.125L167.104 189.11ZM230.49 219H227.13V187.745H206.97V211.37C206.97 212.327 207.087 213.155 207.32 213.855C207.577 214.532 207.915 215.092 208.335 215.535C208.778 215.978 209.292 216.305 209.875 216.515C210.458 216.725 211.088 216.83 211.765 216.83C212.605 216.83 213.328 216.713 213.935 216.48C214.542 216.223 215.067 215.955 215.51 215.675C215.953 215.372 216.315 215.103 216.595 214.87C216.875 214.613 217.097 214.485 217.26 214.485C217.447 214.485 217.633 214.602 217.82 214.835L218.73 216.305C217.843 217.285 216.712 218.078 215.335 218.685C213.982 219.268 212.57 219.56 211.1 219.56C208.743 219.56 206.9 218.907 205.57 217.6C204.263 216.293 203.61 214.275 203.61 211.545V187.745H198.605C198.348 187.745 198.138 187.675 197.975 187.535C197.812 187.395 197.73 187.197 197.73 186.94V185.645L203.68 185.225L204.52 172.765C204.567 172.555 204.66 172.368 204.8 172.205C204.94 172.042 205.138 171.96 205.395 171.96H206.97V185.26H230.49V219ZM232.03 171.75C232.03 172.17 231.937 172.567 231.75 172.94C231.587 173.29 231.353 173.605 231.05 173.885C230.77 174.165 230.443 174.387 230.07 174.55C229.697 174.713 229.3 174.795 228.88 174.795C228.46 174.795 228.063 174.713 227.69 174.55C227.317 174.387 226.99 174.165 226.71 173.885C226.43 173.605 226.208 173.29 226.045 172.94C225.882 172.567 225.8 172.17 225.8 171.75C225.8 171.33 225.882 170.933 226.045 170.56C226.208 170.163 226.43 169.825 226.71 169.545C226.99 169.265 227.317 169.043 227.69 168.88C228.063 168.717 228.46 168.635 228.88 168.635C229.3 168.635 229.697 168.717 230.07 168.88C230.443 169.043 230.77 169.265 231.05 169.545C231.353 169.825 231.587 170.163 231.75 170.56C231.937 170.933 232.03 171.33 232.03 171.75ZM256.112 183.615C258.609 183.615 260.837 184.047 262.797 184.91C264.78 185.75 266.449 186.952 267.802 188.515C269.155 190.078 270.182 191.968 270.882 194.185C271.605 196.378 271.967 198.84 271.967 201.57C271.967 204.3 271.605 206.762 270.882 208.955C270.182 211.148 269.155 213.027 267.802 214.59C266.449 216.153 264.78 217.355 262.797 218.195C260.837 219.035 258.609 219.455 256.112 219.455C253.615 219.455 251.375 219.035 249.392 218.195C247.432 217.355 245.764 216.153 244.387 214.59C243.034 213.027 241.995 211.148 241.272 208.955C240.572 206.762 240.222 204.3 240.222 201.57C240.222 198.84 240.572 196.378 241.272 194.185C241.995 191.968 243.034 190.078 244.387 188.515C245.764 186.952 247.432 185.75 249.392 184.91C251.375 184.047 253.615 183.615 256.112 183.615ZM256.112 216.83C258.189 216.83 259.997 216.48 261.537 215.78C263.1 215.057 264.395 214.03 265.422 212.7C266.472 211.37 267.254 209.772 267.767 207.905C268.28 206.015 268.537 203.903 268.537 201.57C268.537 199.26 268.28 197.16 267.767 195.27C267.254 193.38 266.472 191.77 265.422 190.44C264.395 189.087 263.1 188.048 261.537 187.325C259.997 186.602 258.189 186.24 256.112 186.24C254.035 186.24 252.215 186.602 250.652 187.325C249.112 188.048 247.817 189.087 246.767 190.44C245.74 191.77 244.959 193.38 244.422 195.27C243.909 197.16 243.652 199.26 243.652 201.57C243.652 203.903 243.909 206.015 244.422 207.905C244.959 209.772 245.74 211.37 246.767 212.7C247.817 214.03 249.112 215.057 250.652 215.78C252.215 216.48 254.035 216.83 256.112 216.83ZM284.54 190.265C286.15 188.258 288.005 186.648 290.105 185.435C292.229 184.222 294.585 183.615 297.175 183.615C299.089 183.615 300.769 183.918 302.215 184.525C303.685 185.132 304.899 186.007 305.855 187.15C306.812 188.293 307.535 189.67 308.025 191.28C308.515 192.89 308.76 194.71 308.76 196.74V219H305.4V196.74C305.4 193.473 304.654 190.918 303.16 189.075C301.667 187.208 299.392 186.275 296.335 186.275C294.072 186.275 291.949 186.858 289.965 188.025C288.005 189.168 286.255 190.767 284.715 192.82V219H281.355V184.175H283.21C283.794 184.175 284.132 184.467 284.225 185.05L284.54 190.265Z" fill="black"/>
</svg>
