<svg width="341" height="139" viewBox="0 0 341 139" fill="none" xmlns="http://www.w3.org/2000/svg">
<path d="M0 139H129.783V132H0V139Z" fill="url(#paint0_linear)"/>
<path d="M27.39 49.5175V54H5.0325V14.5925H10.34V49.5175H27.39ZM54.2872 37.0325C54.2872 35.8958 54.1222 34.86 53.7922 33.925C53.4805 32.9717 53.013 32.1558 52.3897 31.4775C51.7846 30.7808 51.0421 30.2492 50.1621 29.8825C49.2821 29.4975 48.283 29.305 47.1646 29.305C44.818 29.305 42.9571 29.9925 41.5821 31.3675C40.2255 32.7242 39.3821 34.6125 39.0521 37.0325H54.2872ZM58.2472 50.095C57.6422 50.8283 56.918 51.47 56.0747 52.02C55.2313 52.5517 54.3238 52.9917 53.3521 53.34C52.3988 53.6883 51.4088 53.945 50.3821 54.11C49.3555 54.2933 48.338 54.385 47.3296 54.385C45.4046 54.385 43.6263 54.0642 41.9946 53.4225C40.3813 52.7625 38.9788 51.8092 37.7871 50.5625C36.6138 49.2975 35.6971 47.7392 35.0371 45.8875C34.3771 44.0358 34.0471 41.9092 34.0471 39.5075C34.0471 37.5642 34.3405 35.7492 34.9271 34.0625C35.5321 32.3758 36.3938 30.9183 37.5121 29.69C38.6305 28.4433 39.9963 27.4717 41.6096 26.775C43.223 26.06 45.038 25.7025 47.0546 25.7025C48.723 25.7025 50.263 25.9867 51.6746 26.555C53.1046 27.105 54.333 27.9117 55.3596 28.975C56.4046 30.02 57.2205 31.3217 57.8071 32.88C58.3938 34.42 58.6871 36.18 58.6871 38.16C58.6871 38.93 58.6046 39.4433 58.4396 39.7C58.2746 39.9567 57.963 40.085 57.5046 40.085H38.8871C38.9421 41.845 39.1805 43.3758 39.6021 44.6775C40.0421 45.9792 40.6471 47.07 41.4171 47.95C42.1871 48.8117 43.1038 49.4625 44.1671 49.9025C45.2305 50.3242 46.4221 50.535 47.7421 50.535C48.9705 50.535 50.0246 50.3975 50.9046 50.1225C51.803 49.8292 52.573 49.5175 53.2146 49.1875C53.8563 48.8575 54.388 48.555 54.8097 48.28C55.2496 47.9867 55.6255 47.84 55.9372 47.84C56.3405 47.84 56.6521 47.9958 56.8721 48.3075L58.2472 50.095ZM85.2973 41.46C83.0423 41.5333 81.1173 41.7167 79.5223 42.01C77.9456 42.285 76.6531 42.6517 75.6448 43.11C74.6548 43.5683 73.9306 44.1092 73.4723 44.7325C73.0323 45.3558 72.8123 46.0525 72.8123 46.8225C72.8123 47.5558 72.9314 48.1883 73.1698 48.72C73.4081 49.2517 73.7289 49.6917 74.1323 50.04C74.5539 50.37 75.0398 50.6175 75.5898 50.7825C76.1581 50.9292 76.7631 51.0025 77.4048 51.0025C78.2664 51.0025 79.0548 50.92 79.7698 50.755C80.4848 50.5717 81.1539 50.315 81.7773 49.985C82.4189 49.655 83.0239 49.2608 83.5923 48.8025C84.1789 48.3442 84.7473 47.8217 85.2973 47.235V41.46ZM69.4848 30.075C71.0248 28.59 72.6839 27.4808 74.4623 26.7475C76.2406 26.0142 78.2114 25.6475 80.3748 25.6475C81.9331 25.6475 83.3173 25.9042 84.5273 26.4175C85.7373 26.9308 86.7548 27.6458 87.5798 28.5625C88.4048 29.4792 89.0281 30.5883 89.4498 31.89C89.8714 33.1917 90.0823 34.6217 90.0823 36.18V54H87.9098C87.4331 54 87.0664 53.9267 86.8098 53.78C86.5531 53.615 86.3514 53.3033 86.2048 52.845L85.6548 50.205C84.9214 50.8833 84.2064 51.4883 83.5098 52.02C82.8131 52.5333 82.0798 52.9733 81.3098 53.34C80.5398 53.6883 79.7148 53.9542 78.8348 54.1375C77.9731 54.3392 77.0106 54.44 75.9473 54.44C74.8656 54.44 73.8481 54.2933 72.8948 54C71.9414 53.6883 71.1073 53.23 70.3923 52.625C69.6956 52.02 69.1364 51.2592 68.7148 50.3425C68.3114 49.4075 68.1098 48.3075 68.1098 47.0425C68.1098 45.9425 68.4123 44.8883 69.0173 43.88C69.6223 42.8533 70.6031 41.9458 71.9598 41.1575C73.3164 40.3692 75.0856 39.7275 77.2673 39.2325C79.4489 38.7192 82.1256 38.4258 85.2973 38.3525V36.18C85.2973 34.0167 84.8298 32.385 83.8948 31.285C82.9598 30.1667 81.5939 29.6075 79.7973 29.6075C78.5873 29.6075 77.5698 29.7633 76.7448 30.075C75.9381 30.3683 75.2323 30.7075 74.6273 31.0925C74.0406 31.4592 73.5273 31.7983 73.0873 32.11C72.6656 32.4033 72.2439 32.55 71.8223 32.55C71.4923 32.55 71.2081 32.4675 70.9698 32.3025C70.7314 32.1192 70.5298 31.8992 70.3648 31.6425L69.4848 30.075ZM121.189 32.77C120.272 31.5417 119.282 30.6892 118.219 30.2125C117.155 29.7175 115.964 29.47 114.644 29.47C112.059 29.47 110.069 30.3958 108.676 32.2475C107.283 34.0992 106.586 36.7392 106.586 40.1675C106.586 41.9825 106.742 43.5408 107.054 44.8425C107.365 46.1258 107.824 47.1892 108.429 48.0325C109.034 48.8575 109.776 49.4625 110.656 49.8475C111.536 50.2325 112.535 50.425 113.654 50.425C115.267 50.425 116.669 50.0583 117.861 49.325C119.071 48.5917 120.18 47.5558 121.189 46.2175V32.77ZM126.084 13.4925V54H123.169C122.472 54 122.032 53.6608 121.849 52.9825L121.409 49.6C120.217 51.03 118.86 52.185 117.339 53.065C115.817 53.945 114.057 54.385 112.059 54.385C110.464 54.385 109.015 54.0825 107.714 53.4775C106.412 52.8542 105.303 51.9467 104.386 50.755C103.469 49.5633 102.764 48.0783 102.269 46.3C101.774 44.5217 101.526 42.4775 101.526 40.1675C101.526 38.1142 101.801 36.2075 102.351 34.4475C102.901 32.6692 103.689 31.1292 104.716 29.8275C105.743 28.5258 106.999 27.5083 108.484 26.775C109.987 26.0233 111.674 25.6475 113.544 25.6475C115.249 25.6475 116.706 25.9408 117.916 26.5275C119.144 27.0958 120.235 27.8933 121.189 28.92V13.4925H126.084ZM37.0425 101.052V116.177C35.0625 117.607 32.945 118.68 30.69 119.395C28.4533 120.092 25.9967 120.44 23.32 120.44C20.1483 120.44 17.2883 119.954 14.74 118.982C12.1917 117.992 10.01 116.617 8.195 114.857C6.39833 113.079 5.01417 110.952 4.0425 108.477C3.07083 106.002 2.585 103.28 2.585 100.31C2.585 97.3033 3.0525 94.5625 3.9875 92.0875C4.94083 89.6125 6.28833 87.495 8.03 85.735C9.77167 83.9567 11.8892 82.5817 14.3825 81.61C16.8758 80.6383 19.6625 80.1525 22.7425 80.1525C24.3008 80.1525 25.7492 80.2717 27.0875 80.51C28.4258 80.73 29.6633 81.06 30.8 81.5C31.9367 81.9217 32.9908 82.4442 33.9625 83.0675C34.9342 83.6725 35.8417 84.36 36.685 85.13L35.1725 87.55C34.9342 87.9167 34.6225 88.155 34.2375 88.265C33.8708 88.3567 33.4583 88.265 33 87.99C32.56 87.7333 32.0558 87.4217 31.4875 87.055C30.9192 86.6883 30.2225 86.34 29.3975 86.01C28.5908 85.6617 27.6283 85.3683 26.51 85.13C25.41 84.8917 24.0992 84.7725 22.5775 84.7725C20.3592 84.7725 18.3517 85.1392 16.555 85.8725C14.7583 86.5875 13.2275 87.6233 11.9625 88.98C10.6975 90.3183 9.72583 91.95 9.0475 93.875C8.36917 95.7817 8.03 97.9267 8.03 100.31C8.03 102.785 8.37833 105.003 9.075 106.965C9.79 108.908 10.7983 110.567 12.1 111.942C13.42 113.299 15.015 114.335 16.885 115.05C18.755 115.765 20.8542 116.122 23.1825 116.122C25.0158 116.122 26.6383 115.921 28.05 115.517C29.48 115.096 30.8733 114.518 32.23 113.785V105.122H26.0975C25.7492 105.122 25.465 105.022 25.245 104.82C25.0433 104.618 24.9425 104.371 24.9425 104.077V101.052H37.0425ZM67.876 103.032C67.876 101.896 67.711 100.86 67.381 99.925C67.0694 98.9717 66.6019 98.1558 65.9785 97.4775C65.3735 96.7808 64.631 96.2492 63.751 95.8825C62.871 95.4975 61.8718 95.305 60.7535 95.305C58.4068 95.305 56.546 95.9925 55.171 97.3675C53.8143 98.7242 52.971 100.612 52.641 103.032H67.876ZM71.836 116.095C71.231 116.828 70.5069 117.47 69.6635 118.02C68.8202 118.552 67.9127 118.992 66.941 119.34C65.9877 119.688 64.9977 119.945 63.971 120.11C62.9444 120.293 61.9269 120.385 60.9185 120.385C58.9935 120.385 57.2152 120.064 55.5835 119.422C53.9702 118.762 52.5677 117.809 51.376 116.562C50.2027 115.297 49.286 113.739 48.626 111.887C47.966 110.036 47.636 107.909 47.636 105.507C47.636 103.564 47.9293 101.749 48.516 100.062C49.121 98.3758 49.9827 96.9183 51.101 95.69C52.2193 94.4433 53.5852 93.4717 55.1985 92.775C56.8118 92.06 58.6268 91.7025 60.6435 91.7025C62.3118 91.7025 63.8518 91.9867 65.2635 92.555C66.6935 93.105 67.9219 93.9117 68.9485 94.975C69.9935 96.02 70.8093 97.3217 71.396 98.88C71.9827 100.42 72.276 102.18 72.276 104.16C72.276 104.93 72.1935 105.443 72.0285 105.7C71.8635 105.957 71.5518 106.085 71.0935 106.085H52.476C52.531 107.845 52.7693 109.376 53.191 110.677C53.631 111.979 54.236 113.07 55.006 113.95C55.776 114.812 56.6927 115.462 57.756 115.902C58.8193 116.324 60.011 116.535 61.331 116.535C62.5593 116.535 63.6135 116.397 64.4935 116.122C65.3919 115.829 66.1619 115.517 66.8035 115.187C67.4452 114.857 67.9769 114.555 68.3985 114.28C68.8385 113.987 69.2144 113.84 69.526 113.84C69.9293 113.84 70.241 113.996 70.461 114.307L71.836 116.095ZM88.4086 96.185C89.0136 95.5067 89.6553 94.8925 90.3336 94.3425C91.012 93.7925 91.727 93.325 92.4786 92.94C93.2486 92.5367 94.0553 92.2342 94.8986 92.0325C95.7603 91.8125 96.6861 91.7025 97.6761 91.7025C99.1978 91.7025 100.536 91.9592 101.691 92.4725C102.864 92.9675 103.836 93.6825 104.606 94.6175C105.394 95.5342 105.99 96.6433 106.394 97.945C106.797 99.2467 106.999 100.686 106.999 102.262V120H102.076V102.262C102.076 100.154 101.59 98.5225 100.619 97.3675C99.6653 96.1942 98.2078 95.6075 96.2461 95.6075C94.7978 95.6075 93.4411 95.9558 92.1761 96.6525C90.9295 97.3492 89.7745 98.2933 88.7111 99.485V120H83.7886V92.1425H86.7311C87.4278 92.1425 87.8586 92.4817 88.0236 93.16L88.4086 96.185ZM138.603 103.032C138.603 101.896 138.438 100.86 138.108 99.925C137.796 98.9717 137.328 98.1558 136.705 97.4775C136.1 96.7808 135.358 96.2492 134.478 95.8825C133.598 95.4975 132.598 95.305 131.48 95.305C129.133 95.305 127.273 95.9925 125.898 97.3675C124.541 98.7242 123.698 100.612 123.368 103.032H138.603ZM142.563 116.095C141.958 116.828 141.233 117.47 140.39 118.02C139.547 118.552 138.639 118.992 137.668 119.34C136.714 119.688 135.724 119.945 134.698 120.11C133.671 120.293 132.653 120.385 131.645 120.385C129.72 120.385 127.942 120.064 126.31 119.422C124.697 118.762 123.294 117.809 122.103 116.562C120.929 115.297 120.013 113.739 119.353 111.887C118.693 110.036 118.363 107.909 118.363 105.507C118.363 103.564 118.656 101.749 119.243 100.062C119.848 98.3758 120.709 96.9183 121.828 95.69C122.946 94.4433 124.312 93.4717 125.925 92.775C127.538 92.06 129.353 91.7025 131.37 91.7025C133.038 91.7025 134.578 91.9867 135.99 92.555C137.42 93.105 138.648 93.9117 139.675 94.975C140.72 96.02 141.536 97.3217 142.123 98.88C142.709 100.42 143.003 102.18 143.003 104.16C143.003 104.93 142.92 105.443 142.755 105.7C142.59 105.957 142.278 106.085 141.82 106.085H123.203C123.258 107.845 123.496 109.376 123.918 110.677C124.358 111.979 124.963 113.07 125.733 113.95C126.503 114.812 127.419 115.462 128.483 115.902C129.546 116.324 130.738 116.535 132.058 116.535C133.286 116.535 134.34 116.397 135.22 116.122C136.118 115.829 136.888 115.517 137.53 115.187C138.172 114.857 138.703 114.555 139.125 114.28C139.565 113.987 139.941 113.84 140.253 113.84C140.656 113.84 140.968 113.996 141.188 114.307L142.563 116.095ZM159.163 97.725C160.043 95.8183 161.124 94.3333 162.408 93.27C163.691 92.1883 165.259 91.6475 167.11 91.6475C167.697 91.6475 168.256 91.7117 168.788 91.84C169.338 91.9683 169.824 92.17 170.245 92.445L169.888 96.1025C169.778 96.5608 169.503 96.79 169.063 96.79C168.806 96.79 168.43 96.735 167.935 96.625C167.44 96.515 166.881 96.46 166.258 96.46C165.378 96.46 164.589 96.5883 163.893 96.845C163.214 97.1017 162.6 97.4867 162.05 98C161.519 98.495 161.033 99.1183 160.593 99.87C160.171 100.603 159.786 101.447 159.438 102.4V120H154.515V92.1425H157.32C157.852 92.1425 158.219 92.2433 158.42 92.445C158.622 92.6467 158.759 92.995 158.833 93.49L159.163 97.725ZM194.717 107.46C192.462 107.533 190.537 107.717 188.942 108.01C187.366 108.285 186.073 108.652 185.065 109.11C184.075 109.568 183.351 110.109 182.892 110.732C182.452 111.356 182.232 112.052 182.232 112.822C182.232 113.556 182.351 114.188 182.59 114.72C182.828 115.252 183.149 115.692 183.552 116.04C183.974 116.37 184.46 116.617 185.01 116.782C185.578 116.929 186.183 117.002 186.825 117.002C187.686 117.002 188.475 116.92 189.19 116.755C189.905 116.572 190.574 116.315 191.197 115.985C191.839 115.655 192.444 115.261 193.012 114.802C193.599 114.344 194.167 113.822 194.717 113.235V107.46ZM178.905 96.075C180.445 94.59 182.104 93.4808 183.882 92.7475C185.661 92.0142 187.631 91.6475 189.795 91.6475C191.353 91.6475 192.737 91.9042 193.947 92.4175C195.157 92.9308 196.175 93.6458 197 94.5625C197.825 95.4792 198.448 96.5883 198.87 97.89C199.291 99.1917 199.502 100.622 199.502 102.18V120H197.33C196.853 120 196.486 119.927 196.23 119.78C195.973 119.615 195.771 119.303 195.625 118.845L195.075 116.205C194.341 116.883 193.626 117.488 192.93 118.02C192.233 118.533 191.5 118.973 190.73 119.34C189.96 119.688 189.135 119.954 188.255 120.138C187.393 120.339 186.431 120.44 185.367 120.44C184.286 120.44 183.268 120.293 182.315 120C181.361 119.688 180.527 119.23 179.812 118.625C179.116 118.02 178.556 117.259 178.135 116.342C177.731 115.407 177.53 114.307 177.53 113.042C177.53 111.942 177.832 110.888 178.437 109.88C179.042 108.853 180.023 107.946 181.38 107.157C182.736 106.369 184.506 105.727 186.687 105.232C188.869 104.719 191.546 104.426 194.717 104.352V102.18C194.717 100.017 194.25 98.385 193.315 97.285C192.38 96.1667 191.014 95.6075 189.217 95.6075C188.007 95.6075 186.99 95.7633 186.165 96.075C185.358 96.3683 184.652 96.7075 184.047 97.0925C183.461 97.4592 182.947 97.7983 182.507 98.11C182.086 98.4033 181.664 98.55 181.242 98.55C180.912 98.55 180.628 98.4675 180.39 98.3025C180.151 98.1192 179.95 97.8992 179.785 97.6425L178.905 96.075ZM237.933 120H233.038V96.24H218.683V112.96C218.683 114.133 218.967 115.004 219.535 115.572C220.103 116.141 220.837 116.425 221.735 116.425C222.248 116.425 222.688 116.361 223.055 116.232C223.44 116.086 223.77 115.93 224.045 115.765C224.32 115.6 224.549 115.453 224.733 115.325C224.934 115.178 225.108 115.105 225.255 115.105C225.512 115.105 225.741 115.261 225.943 115.572L227.373 117.91C226.529 118.698 225.512 119.322 224.32 119.78C223.128 120.22 221.9 120.44 220.635 120.44C218.435 120.44 216.739 119.826 215.548 118.597C214.374 117.369 213.788 115.6 213.788 113.29V96.24H210.433C210.139 96.24 209.892 96.1575 209.69 95.9925C209.488 95.8092 209.388 95.5342 209.388 95.1675V93.215L213.953 92.61L215.08 84.03C215.135 83.755 215.254 83.535 215.438 83.37C215.639 83.1867 215.896 83.095 216.208 83.095H218.683V92.6925H237.933V120ZM239.143 83.205C239.143 83.6817 239.042 84.1308 238.84 84.5525C238.657 84.9558 238.4 85.3133 238.07 85.625C237.758 85.9367 237.392 86.1842 236.97 86.3675C236.548 86.5508 236.099 86.6425 235.623 86.6425C235.146 86.6425 234.697 86.5508 234.275 86.3675C233.872 86.1842 233.514 85.9367 233.203 85.625C232.891 85.3133 232.643 84.9558 232.46 84.5525C232.277 84.1308 232.185 83.6817 232.185 83.205C232.185 82.7283 232.277 82.2792 232.46 81.8575C232.643 81.4175 232.891 81.0417 233.203 80.73C233.514 80.4 233.872 80.1433 234.275 79.96C234.697 79.7767 235.146 79.685 235.623 79.685C236.099 79.685 236.548 79.7767 236.97 79.96C237.392 80.1433 237.758 80.4 238.07 80.73C238.4 81.0417 238.657 81.4175 238.84 81.8575C239.042 82.2792 239.143 82.7283 239.143 83.205ZM263.217 91.7025C265.252 91.7025 267.085 92.0417 268.717 92.72C270.348 93.3983 271.742 94.3608 272.897 95.6075C274.052 96.8542 274.932 98.3667 275.537 100.145C276.16 101.905 276.472 103.876 276.472 106.057C276.472 108.257 276.16 110.237 275.537 111.997C274.932 113.757 274.052 115.261 272.897 116.507C271.742 117.754 270.348 118.717 268.717 119.395C267.085 120.055 265.252 120.385 263.217 120.385C261.163 120.385 259.312 120.055 257.662 119.395C256.03 118.717 254.637 117.754 253.482 116.507C252.327 115.261 251.438 113.757 250.814 111.997C250.209 110.237 249.907 108.257 249.907 106.057C249.907 103.876 250.209 101.905 250.814 100.145C251.438 98.3667 252.327 96.8542 253.482 95.6075C254.637 94.3608 256.03 93.3983 257.662 92.72C259.312 92.0417 261.163 91.7025 263.217 91.7025ZM263.217 116.562C265.967 116.562 268.02 115.646 269.377 113.812C270.733 111.961 271.412 109.385 271.412 106.085C271.412 102.767 270.733 100.182 269.377 98.33C268.02 96.4783 265.967 95.5525 263.217 95.5525C261.823 95.5525 260.604 95.7908 259.559 96.2675C258.533 96.7442 257.671 97.4317 256.974 98.33C256.296 99.2283 255.783 100.337 255.434 101.657C255.104 102.959 254.939 104.435 254.939 106.085C254.939 109.385 255.618 111.961 256.974 113.812C258.349 115.646 260.43 116.562 263.217 116.562ZM292.8 96.185C293.405 95.5067 294.047 94.8925 294.725 94.3425C295.404 93.7925 296.119 93.325 296.87 92.94C297.64 92.5367 298.447 92.2342 299.29 92.0325C300.152 91.8125 301.078 91.7025 302.068 91.7025C303.589 91.7025 304.928 91.9592 306.083 92.4725C307.256 92.9675 308.228 93.6825 308.998 94.6175C309.786 95.5342 310.382 96.6433 310.785 97.945C311.189 99.2467 311.39 100.686 311.39 102.262V120H306.468V102.262C306.468 100.154 305.982 98.5225 305.01 97.3675C304.057 96.1942 302.599 95.6075 300.638 95.6075C299.189 95.6075 297.833 95.9558 296.568 96.6525C295.321 97.3492 294.166 98.2933 293.103 99.485V120H288.18V92.1425H291.123C291.819 92.1425 292.25 92.4817 292.415 93.16L292.8 96.185Z" fill="black"/>
<defs>
<linearGradient id="paint0_linear" x1="147.432" y1="132.431" x2="135.794" y2="88.9975" gradientUnits="userSpaceOnUse">
<stop stop-color="#458ACC"/>
<stop offset="1" stop-color="#B6D15D"/>
</linearGradient>
</defs>
</svg>
