<svg width="394" height="117" viewBox="0 0 394 117" fill="none" xmlns="http://www.w3.org/2000/svg">
<path d="M34.96 1.5925V41H32.2925C31.8708 41 31.5133 40.9267 31.22 40.78C30.945 40.6333 30.67 40.3858 30.395 40.0375L7.5975 10.3375C7.63417 10.7958 7.66167 11.245 7.68 11.685C7.69833 12.125 7.7075 12.5375 7.7075 12.9225V41H3.0325V1.5925H5.7825C6.02083 1.5925 6.2225 1.61083 6.3875 1.6475C6.5525 1.66583 6.69917 1.71166 6.8275 1.785C6.95583 1.84 7.08417 1.93166 7.2125 2.06C7.34083 2.17 7.47833 2.31666 7.625 2.5L30.4225 32.1725C30.3858 31.6958 30.3492 31.2375 30.3125 30.7975C30.2942 30.3392 30.285 29.9083 30.285 29.505V1.5925H34.96ZM67.1651 24.0325C67.1651 22.8958 67.0001 21.86 66.6701 20.925C66.3584 19.9717 65.8909 19.1558 65.2676 18.4775C64.6626 17.7808 63.9201 17.2492 63.0401 16.8825C62.1601 16.4975 61.1609 16.305 60.0426 16.305C57.6959 16.305 55.8351 16.9925 54.4601 18.3675C53.1034 19.7242 52.2601 21.6125 51.9301 24.0325H67.1651ZM71.1251 37.095C70.5201 37.8283 69.7959 38.47 68.9526 39.02C68.1092 39.5517 67.2017 39.9917 66.2301 40.34C65.2767 40.6883 64.2867 40.945 63.2601 41.11C62.2334 41.2933 61.2159 41.385 60.2076 41.385C58.2826 41.385 56.5042 41.0642 54.8726 40.4225C53.2592 39.7625 51.8567 38.8092 50.6651 37.5625C49.4917 36.2975 48.5751 34.7392 47.9151 32.8875C47.2551 31.0358 46.9251 28.9092 46.9251 26.5075C46.9251 24.5642 47.2184 22.7492 47.8051 21.0625C48.4101 19.3758 49.2717 17.9183 50.3901 16.69C51.5084 15.4433 52.8742 14.4717 54.4876 13.775C56.1009 13.06 57.9159 12.7025 59.9326 12.7025C61.6009 12.7025 63.1409 12.9867 64.5526 13.555C65.9826 14.105 67.2109 14.9117 68.2376 15.975C69.2826 17.02 70.0984 18.3217 70.6851 19.88C71.2717 21.42 71.5651 23.18 71.5651 25.16C71.5651 25.93 71.4826 26.4433 71.3176 26.7C71.1526 26.9567 70.8409 27.085 70.3826 27.085H51.7651C51.8201 28.845 52.0584 30.3758 52.4801 31.6775C52.9201 32.9792 53.5251 34.07 54.2951 34.95C55.0651 35.8117 55.9817 36.4625 57.0451 36.9025C58.1084 37.3242 59.3001 37.535 60.6201 37.535C61.8484 37.535 62.9026 37.3975 63.7826 37.1225C64.6809 36.8292 65.4509 36.5175 66.0926 36.1875C66.7342 35.8575 67.2659 35.555 67.6876 35.28C68.1276 34.9867 68.5034 34.84 68.8151 34.84C69.2184 34.84 69.5301 34.9958 69.7501 35.3075L71.1251 37.095ZM91.4154 41.44C89.2154 41.44 87.5195 40.8258 86.3279 39.5975C85.1545 38.3692 84.5679 36.6 84.5679 34.29V17.24H81.2129C80.9195 17.24 80.672 17.1575 80.4704 16.9925C80.2687 16.8092 80.1679 16.5342 80.1679 16.1675V14.215L84.7329 13.6375L85.8604 5.03C85.9154 4.755 86.0345 4.535 86.2179 4.37C86.4195 4.18667 86.6762 4.095 86.9879 4.095H89.4629V13.6925H97.5204V17.24H89.4629V33.96C89.4629 35.1333 89.747 36.0042 90.3154 36.5725C90.8837 37.1408 91.617 37.425 92.5154 37.425C93.0287 37.425 93.4687 37.3608 93.8354 37.2325C94.2204 37.0858 94.5504 36.93 94.8254 36.765C95.1004 36.6 95.3295 36.4533 95.5129 36.325C95.7145 36.1783 95.8887 36.105 96.0354 36.105C96.292 36.105 96.5212 36.2608 96.7229 36.5725L98.1529 38.91C97.3095 39.6983 96.292 40.3217 95.1004 40.78C93.9087 41.22 92.6804 41.44 91.4154 41.44ZM146.492 13.1425L137.472 41H133.595C133.118 41 132.788 40.6883 132.605 40.065L126.445 21.1725C126.298 20.7508 126.179 20.3292 126.087 19.9075C125.996 19.4675 125.904 19.0367 125.812 18.615C125.721 19.0367 125.629 19.4675 125.537 19.9075C125.446 20.3292 125.326 20.76 125.18 21.2L118.91 40.065C118.745 40.6883 118.378 41 117.81 41H114.125L105.105 13.1425H108.955C109.34 13.1425 109.661 13.2433 109.917 13.445C110.192 13.6467 110.376 13.885 110.467 14.16L115.802 32.09C116.114 33.41 116.361 34.6567 116.545 35.83C116.71 35.225 116.875 34.6108 117.04 33.9875C117.223 33.3642 117.416 32.7317 117.617 32.09L123.502 14.05C123.594 13.775 123.75 13.5458 123.97 13.3625C124.208 13.1792 124.492 13.0875 124.822 13.0875H126.967C127.334 13.0875 127.636 13.1792 127.875 13.3625C128.113 13.5458 128.278 13.775 128.37 14.05L134.117 32.09C134.319 32.7317 134.502 33.3642 134.667 33.9875C134.832 34.6108 134.988 35.225 135.135 35.83C135.226 35.225 135.336 34.62 135.465 34.015C135.611 33.3917 135.767 32.75 135.932 32.09L141.377 14.16C141.469 13.8667 141.643 13.6283 141.9 13.445C142.156 13.2433 142.459 13.1425 142.807 13.1425H146.492ZM168.125 12.7025C170.16 12.7025 171.993 13.0417 173.625 13.72C175.257 14.3983 176.65 15.3608 177.805 16.6075C178.96 17.8542 179.84 19.3667 180.445 21.145C181.068 22.905 181.38 24.8758 181.38 27.0575C181.38 29.2575 181.068 31.2375 180.445 32.9975C179.84 34.7575 178.96 36.2608 177.805 37.5075C176.65 38.7542 175.257 39.7167 173.625 40.395C171.993 41.055 170.16 41.385 168.125 41.385C166.072 41.385 164.22 41.055 162.57 40.395C160.938 39.7167 159.545 38.7542 158.39 37.5075C157.235 36.2608 156.346 34.7575 155.722 32.9975C155.117 31.2375 154.815 29.2575 154.815 27.0575C154.815 24.8758 155.117 22.905 155.722 21.145C156.346 19.3667 157.235 17.8542 158.39 16.6075C159.545 15.3608 160.938 14.3983 162.57 13.72C164.22 13.0417 166.072 12.7025 168.125 12.7025ZM168.125 37.5625C170.875 37.5625 172.928 36.6458 174.285 34.8125C175.642 32.9608 176.32 30.385 176.32 27.085C176.32 23.7667 175.642 21.1817 174.285 19.33C172.928 17.4783 170.875 16.5525 168.125 16.5525C166.732 16.5525 165.512 16.7908 164.467 17.2675C163.441 17.7442 162.579 18.4317 161.882 19.33C161.204 20.2283 160.691 21.3375 160.342 22.6575C160.012 23.9592 159.847 25.435 159.847 27.085C159.847 30.385 160.526 32.9608 161.882 34.8125C163.257 36.6458 165.338 37.5625 168.125 37.5625ZM197.736 18.725C198.616 16.8183 199.698 15.3333 200.981 14.27C202.264 13.1883 203.832 12.6475 205.683 12.6475C206.27 12.6475 206.829 12.7117 207.361 12.84C207.911 12.9683 208.397 13.17 208.818 13.445L208.461 17.1025C208.351 17.5608 208.076 17.79 207.636 17.79C207.379 17.79 207.003 17.735 206.508 17.625C206.013 17.515 205.454 17.46 204.831 17.46C203.951 17.46 203.163 17.5883 202.466 17.845C201.788 18.1017 201.173 18.4867 200.623 19C200.092 19.495 199.606 20.1183 199.166 20.87C198.744 21.6033 198.359 22.4467 198.011 23.4V41H193.088V13.1425H195.893C196.425 13.1425 196.792 13.2433 196.993 13.445C197.195 13.6467 197.333 13.995 197.406 14.49L197.736 18.725ZM223.545 0.492499V24.335H224.81C225.177 24.335 225.479 24.2892 225.718 24.1975C225.974 24.0875 226.24 23.8767 226.515 23.565L235.315 14.1325C235.572 13.8208 235.838 13.5825 236.113 13.4175C236.406 13.2342 236.791 13.1425 237.268 13.1425H241.695L231.438 24.06C230.943 24.6833 230.411 25.1692 229.843 25.5175C230.173 25.7375 230.466 25.9942 230.723 26.2875C230.998 26.5625 231.254 26.8833 231.493 27.25L242.383 41H238.01C237.588 41 237.222 40.9358 236.91 40.8075C236.617 40.6608 236.36 40.4042 236.14 40.0375L226.983 28.625C226.708 28.24 226.433 27.9925 226.158 27.8825C225.901 27.7542 225.498 27.69 224.948 27.69H223.545V41H218.623V0.492499H223.545ZM257.222 13.1425V41H252.327V13.1425H257.222ZM258.267 4.3975C258.267 4.87416 258.166 5.32333 257.965 5.745C257.781 6.14833 257.525 6.515 257.195 6.845C256.883 7.15667 256.507 7.40417 256.067 7.5875C255.646 7.77083 255.196 7.8625 254.72 7.8625C254.243 7.8625 253.794 7.77083 253.372 7.5875C252.969 7.40417 252.611 7.15667 252.3 6.845C251.988 6.515 251.741 6.14833 251.557 5.745C251.374 5.32333 251.282 4.87416 251.282 4.3975C251.282 3.92083 251.374 3.47166 251.557 3.05C251.741 2.61 251.988 2.23416 252.3 1.9225C252.611 1.5925 252.969 1.33583 253.372 1.1525C253.794 0.969164 254.243 0.877497 254.72 0.877497C255.196 0.877497 255.646 0.969164 256.067 1.1525C256.507 1.33583 256.883 1.5925 257.195 1.9225C257.525 2.23416 257.781 2.61 257.965 3.05C258.166 3.47166 258.267 3.92083 258.267 4.3975ZM275.385 17.185C275.99 16.5067 276.632 15.8925 277.31 15.3425C277.989 14.7925 278.704 14.325 279.455 13.94C280.225 13.5367 281.032 13.2342 281.875 13.0325C282.737 12.8125 283.663 12.7025 284.653 12.7025C286.174 12.7025 287.513 12.9592 288.668 13.4725C289.841 13.9675 290.813 14.6825 291.583 15.6175C292.371 16.5342 292.967 17.6433 293.37 18.945C293.774 20.2467 293.975 21.6858 293.975 23.2625V41H289.053V23.2625C289.053 21.1542 288.567 19.5225 287.595 18.3675C286.642 17.1942 285.184 16.6075 283.223 16.6075C281.774 16.6075 280.418 16.9558 279.153 17.6525C277.906 18.3492 276.751 19.2933 275.688 20.485V41H270.765V13.1425H273.708C274.404 13.1425 274.835 13.4817 275 14.16L275.385 17.185ZM316.642 27.3875C317.632 27.3875 318.502 27.25 319.254 26.975C320.006 26.7 320.638 26.315 321.152 25.82C321.665 25.325 322.05 24.7383 322.307 24.06C322.563 23.3633 322.692 22.6025 322.692 21.7775C322.692 20.0725 322.169 18.7158 321.124 17.7075C320.097 16.6992 318.603 16.195 316.642 16.195C314.662 16.195 313.149 16.6992 312.104 17.7075C311.077 18.7158 310.564 20.0725 310.564 21.7775C310.564 22.6025 310.692 23.3633 310.949 24.06C311.224 24.7383 311.618 25.325 312.132 25.82C312.645 26.315 313.277 26.7 314.029 26.975C314.781 27.25 315.652 27.3875 316.642 27.3875ZM325.469 42.5125C325.469 41.8342 325.277 41.2842 324.892 40.8625C324.507 40.4408 323.984 40.1108 323.324 39.8725C322.682 39.6342 321.931 39.4692 321.069 39.3775C320.207 39.2675 319.291 39.185 318.319 39.13C317.366 39.075 316.394 39.02 315.404 38.965C314.414 38.91 313.461 38.8183 312.544 38.69C311.517 39.1667 310.674 39.7717 310.014 40.505C309.372 41.22 309.052 42.0633 309.052 43.035C309.052 43.6583 309.207 44.2358 309.519 44.7675C309.849 45.3175 310.344 45.785 311.004 46.17C311.664 46.5733 312.489 46.885 313.479 47.105C314.487 47.3433 315.67 47.4625 317.027 47.4625C318.347 47.4625 319.529 47.3433 320.574 47.105C321.619 46.8667 322.499 46.5275 323.214 46.0875C323.947 45.6475 324.507 45.125 324.892 44.52C325.277 43.915 325.469 43.2458 325.469 42.5125ZM330.447 14.2425V16.0575C330.447 16.6625 330.062 17.0475 329.292 17.2125L326.129 17.625C326.752 18.835 327.064 20.1733 327.064 21.64C327.064 22.9967 326.798 24.2342 326.267 25.3525C325.753 26.4525 325.038 27.3967 324.122 28.185C323.205 28.9733 322.105 29.5783 320.822 30C319.538 30.4217 318.145 30.6325 316.642 30.6325C315.34 30.6325 314.112 30.4767 312.957 30.165C312.37 30.5317 311.921 30.9258 311.609 31.3475C311.297 31.7508 311.142 32.1633 311.142 32.585C311.142 33.245 311.407 33.7492 311.939 34.0975C312.489 34.4275 313.204 34.6658 314.084 34.8125C314.964 34.9592 315.963 35.0508 317.082 35.0875C318.218 35.1242 319.373 35.1883 320.547 35.28C321.738 35.3533 322.893 35.4908 324.012 35.6925C325.148 35.8942 326.157 36.2242 327.037 36.6825C327.917 37.1408 328.622 37.7733 329.154 38.58C329.704 39.3867 329.979 40.4317 329.979 41.715C329.979 42.9067 329.677 44.0617 329.072 45.18C328.485 46.2983 327.632 47.2883 326.514 48.15C325.396 49.03 324.021 49.7267 322.389 50.24C320.776 50.7717 318.952 51.0375 316.917 51.0375C314.882 51.0375 313.103 50.8358 311.582 50.4325C310.06 50.0292 308.795 49.4883 307.787 48.81C306.778 48.1317 306.017 47.3433 305.504 46.445C305.009 45.565 304.762 44.6392 304.762 43.6675C304.762 42.2925 305.192 41.1283 306.054 40.175C306.916 39.2217 308.098 38.4608 309.602 37.8925C308.777 37.5258 308.117 37.04 307.622 36.435C307.145 35.8117 306.907 34.9775 306.907 33.9325C306.907 33.5292 306.98 33.1167 307.127 32.695C307.273 32.255 307.493 31.8242 307.787 31.4025C308.098 30.9625 308.474 30.55 308.914 30.165C309.354 29.78 309.867 29.4408 310.454 29.1475C309.079 28.3775 308.007 27.36 307.237 26.095C306.467 24.8117 306.082 23.3267 306.082 21.64C306.082 20.2833 306.338 19.055 306.852 17.955C307.383 16.8367 308.117 15.8925 309.052 15.1225C309.987 14.3342 311.096 13.7292 312.379 13.3075C313.681 12.8858 315.102 12.675 316.642 12.675C317.852 12.675 318.979 12.8125 320.024 13.0875C321.069 13.3442 322.022 13.7292 322.884 14.2425H330.447ZM39.4425 87.31C39.4425 90.2617 38.975 92.975 38.04 95.45C37.105 97.9067 35.785 100.024 34.08 101.802C32.375 103.581 30.3217 104.965 27.92 105.955C25.5367 106.927 22.8967 107.413 20 107.413C17.1033 107.413 14.4633 106.927 12.08 105.955C9.69667 104.965 7.6525 103.581 5.9475 101.802C4.2425 100.024 2.9225 97.9067 1.9875 95.45C1.0525 92.975 0.585 90.2617 0.585 87.31C0.585 84.3583 1.0525 81.6542 1.9875 79.1975C2.9225 76.7225 4.2425 74.5958 5.9475 72.8175C7.6525 71.0208 9.69667 69.6275 12.08 68.6375C14.4633 67.6475 17.1033 67.1525 20 67.1525C22.8967 67.1525 25.5367 67.6475 27.92 68.6375C30.3217 69.6275 32.375 71.0208 34.08 72.8175C35.785 74.5958 37.105 76.7225 38.04 79.1975C38.975 81.6542 39.4425 84.3583 39.4425 87.31ZM33.97 87.31C33.97 84.89 33.64 82.7175 32.98 80.7925C32.32 78.8675 31.385 77.245 30.175 75.925C28.965 74.5867 27.4983 73.56 25.775 72.845C24.0517 72.13 22.1267 71.7725 20 71.7725C17.8917 71.7725 15.9758 72.13 14.2525 72.845C12.5292 73.56 11.0533 74.5867 9.825 75.925C8.615 77.245 7.68 78.8675 7.02 80.7925C6.36 82.7175 6.03 84.89 6.03 87.31C6.03 89.73 6.36 91.9025 7.02 93.8275C7.68 95.7342 8.615 97.3567 9.825 98.695C11.0533 100.015 12.5292 101.032 14.2525 101.747C15.9758 102.444 17.8917 102.792 20 102.792C22.1267 102.792 24.0517 102.444 25.775 101.747C27.4983 101.032 28.965 100.015 30.175 98.695C31.385 97.3567 32.32 95.7342 32.98 93.8275C33.64 91.9025 33.97 89.73 33.97 87.31ZM55.8059 100.29C56.7042 101.5 57.685 102.352 58.7484 102.847C59.8117 103.342 61.0034 103.59 62.3234 103.59C64.9267 103.59 66.925 102.664 68.3184 100.812C69.7117 98.9608 70.4084 96.3208 70.4084 92.8925C70.4084 91.0775 70.2434 89.5192 69.9134 88.2175C69.6017 86.9158 69.1434 85.8525 68.5384 85.0275C67.9334 84.1842 67.1909 83.57 66.3109 83.185C65.4309 82.8 64.4317 82.6075 63.3134 82.6075C61.7184 82.6075 60.3159 82.9742 59.1059 83.7075C57.9142 84.4408 56.8142 85.4767 55.8059 86.815V100.29ZM55.5584 83.46C56.7317 82.0117 58.0884 80.8475 59.6284 79.9675C61.1684 79.0875 62.9284 78.6475 64.9084 78.6475C66.5217 78.6475 67.9792 78.9592 69.2809 79.5825C70.5825 80.1875 71.6917 81.095 72.6084 82.305C73.525 83.4967 74.2309 84.9817 74.7259 86.76C75.2209 88.5383 75.4684 90.5825 75.4684 92.8925C75.4684 94.9458 75.1934 96.8617 74.6434 98.64C74.0934 100.4 73.2959 101.931 72.2509 103.232C71.2242 104.516 69.9592 105.533 68.4559 106.285C66.9709 107.018 65.2934 107.385 63.4234 107.385C61.7184 107.385 60.2517 107.101 59.0234 106.532C57.8134 105.946 56.7409 105.139 55.8059 104.112V116.433H50.8834V79.1425H53.8259C54.5225 79.1425 54.9534 79.4817 55.1184 80.16L55.5584 83.46ZM92.1359 100.29C93.0343 101.5 94.0151 102.352 95.0784 102.847C96.1418 103.342 97.3334 103.59 98.6534 103.59C101.257 103.59 103.255 102.664 104.648 100.812C106.042 98.9608 106.738 96.3208 106.738 92.8925C106.738 91.0775 106.573 89.5192 106.243 88.2175C105.932 86.9158 105.473 85.8525 104.868 85.0275C104.263 84.1842 103.521 83.57 102.641 83.185C101.761 82.8 100.762 82.6075 99.6434 82.6075C98.0484 82.6075 96.6459 82.9742 95.4359 83.7075C94.2443 84.4408 93.1443 85.4767 92.1359 86.815V100.29ZM91.8884 83.46C93.0618 82.0117 94.4184 80.8475 95.9584 79.9675C97.4984 79.0875 99.2584 78.6475 101.238 78.6475C102.852 78.6475 104.309 78.9592 105.611 79.5825C106.913 80.1875 108.022 81.095 108.938 82.305C109.855 83.4967 110.561 84.9817 111.056 86.76C111.551 88.5383 111.798 90.5825 111.798 92.8925C111.798 94.9458 111.523 96.8617 110.973 98.64C110.423 100.4 109.626 101.931 108.581 103.232C107.554 104.516 106.289 105.533 104.786 106.285C103.301 107.018 101.623 107.385 99.7534 107.385C98.0484 107.385 96.5818 107.101 95.3534 106.532C94.1434 105.946 93.0709 105.139 92.1359 104.112V116.433H87.2134V79.1425H90.1559C90.8526 79.1425 91.2834 79.4817 91.4484 80.16L91.8884 83.46ZM135.286 78.7025C137.321 78.7025 139.154 79.0417 140.786 79.72C142.418 80.3983 143.811 81.3608 144.966 82.6075C146.121 83.8542 147.001 85.3667 147.606 87.145C148.229 88.905 148.541 90.8758 148.541 93.0575C148.541 95.2575 148.229 97.2375 147.606 98.9975C147.001 100.757 146.121 102.261 144.966 103.507C143.811 104.754 142.418 105.717 140.786 106.395C139.154 107.055 137.321 107.385 135.286 107.385C133.233 107.385 131.381 107.055 129.731 106.395C128.099 105.717 126.706 104.754 125.551 103.507C124.396 102.261 123.507 100.757 122.884 98.9975C122.279 97.2375 121.976 95.2575 121.976 93.0575C121.976 90.8758 122.279 88.905 122.884 87.145C123.507 85.3667 124.396 83.8542 125.551 82.6075C126.706 81.3608 128.099 80.3983 129.731 79.72C131.381 79.0417 133.233 78.7025 135.286 78.7025ZM135.286 103.562C138.036 103.562 140.089 102.646 141.446 100.812C142.803 98.9608 143.481 96.385 143.481 93.085C143.481 89.7667 142.803 87.1817 141.446 85.33C140.089 83.4783 138.036 82.5525 135.286 82.5525C133.893 82.5525 132.674 82.7908 131.629 83.2675C130.602 83.7442 129.74 84.4317 129.044 85.33C128.365 86.2283 127.852 87.3375 127.504 88.6575C127.174 89.9592 127.009 91.435 127.009 93.085C127.009 96.385 127.687 98.9608 129.044 100.812C130.419 102.646 132.499 103.562 135.286 103.562ZM164.897 84.725C165.777 82.8183 166.859 81.3333 168.142 80.27C169.425 79.1883 170.993 78.6475 172.845 78.6475C173.431 78.6475 173.99 78.7117 174.522 78.84C175.072 78.9683 175.558 79.17 175.98 79.445L175.622 83.1025C175.512 83.5608 175.237 83.79 174.797 83.79C174.54 83.79 174.165 83.735 173.67 83.625C173.175 83.515 172.615 83.46 171.992 83.46C171.112 83.46 170.324 83.5883 169.627 83.845C168.949 84.1017 168.335 84.4867 167.785 85C167.253 85.495 166.767 86.1183 166.327 86.87C165.905 87.6033 165.52 88.4467 165.172 89.4V107H160.25V79.1425H163.055C163.586 79.1425 163.953 79.2433 164.155 79.445C164.356 79.6467 164.494 79.995 164.567 80.49L164.897 84.725ZM194.336 107.44C192.136 107.44 190.44 106.826 189.249 105.597C188.075 104.369 187.489 102.6 187.489 100.29V83.24H184.134C183.84 83.24 183.593 83.1575 183.391 82.9925C183.19 82.8092 183.089 82.5342 183.089 82.1675V80.215L187.654 79.6375L188.781 71.03C188.836 70.755 188.955 70.535 189.139 70.37C189.34 70.1867 189.597 70.095 189.909 70.095H192.384V79.6925H200.441V83.24H192.384V99.96C192.384 101.133 192.668 102.004 193.236 102.572C193.805 103.141 194.538 103.425 195.436 103.425C195.95 103.425 196.39 103.361 196.756 103.232C197.141 103.086 197.471 102.93 197.746 102.765C198.021 102.6 198.25 102.453 198.434 102.325C198.635 102.178 198.81 102.105 198.956 102.105C199.213 102.105 199.442 102.261 199.644 102.572L201.074 104.91C200.23 105.698 199.213 106.322 198.021 106.78C196.83 107.22 195.601 107.44 194.336 107.44ZM233.903 79.1425V107H230.988C230.291 107 229.851 106.661 229.668 105.982L229.283 102.985C228.073 104.323 226.716 105.405 225.213 106.23C223.71 107.037 221.986 107.44 220.043 107.44C218.521 107.44 217.174 107.193 216.001 106.697C214.846 106.184 213.874 105.469 213.086 104.552C212.297 103.636 211.701 102.527 211.298 101.225C210.913 99.9233 210.721 98.4842 210.721 96.9075V79.1425H215.616V96.9075C215.616 99.0158 216.092 100.647 217.046 101.802C218.017 102.957 219.493 103.535 221.473 103.535C222.921 103.535 224.269 103.196 225.516 102.517C226.781 101.821 227.945 100.867 229.008 99.6575V79.1425H233.903ZM251.785 83.185C252.39 82.5067 253.031 81.8925 253.71 81.3425C254.388 80.7925 255.103 80.325 255.855 79.94C256.625 79.5367 257.431 79.2342 258.275 79.0325C259.136 78.8125 260.062 78.7025 261.052 78.7025C262.574 78.7025 263.912 78.9592 265.067 79.4725C266.24 79.9675 267.212 80.6825 267.982 81.6175C268.77 82.5342 269.366 83.6433 269.77 84.945C270.173 86.2467 270.375 87.6858 270.375 89.2625V107H265.452V89.2625C265.452 87.1542 264.966 85.5225 263.995 84.3675C263.041 83.1942 261.584 82.6075 259.622 82.6075C258.174 82.6075 256.817 82.9558 255.552 83.6525C254.305 84.3492 253.15 85.2933 252.087 86.485V107H247.165V79.1425H250.107C250.804 79.1425 251.235 79.4817 251.4 80.16L251.785 83.185ZM288.504 79.1425V107H283.609V79.1425H288.504ZM289.549 70.3975C289.549 70.8742 289.448 71.3233 289.246 71.745C289.063 72.1483 288.806 72.515 288.476 72.845C288.164 73.1567 287.789 73.4042 287.349 73.5875C286.927 73.7708 286.478 73.8625 286.001 73.8625C285.524 73.8625 285.075 73.7708 284.654 73.5875C284.25 73.4042 283.893 73.1567 283.581 72.845C283.269 72.515 283.022 72.1483 282.839 71.745C282.655 71.3233 282.564 70.8742 282.564 70.3975C282.564 69.9208 282.655 69.4717 282.839 69.05C283.022 68.61 283.269 68.2342 283.581 67.9225C283.893 67.5925 284.25 67.3358 284.654 67.1525C285.075 66.9692 285.524 66.8775 286.001 66.8775C286.478 66.8775 286.927 66.9692 287.349 67.1525C287.789 67.3358 288.164 67.5925 288.476 67.9225C288.806 68.2342 289.063 68.61 289.246 69.05C289.448 69.4717 289.549 69.9208 289.549 70.3975ZM327.896 107H323.001V83.24H308.646V99.96C308.646 101.133 308.931 102.004 309.499 102.572C310.067 103.141 310.801 103.425 311.699 103.425C312.212 103.425 312.652 103.361 313.019 103.232C313.404 103.086 313.734 102.93 314.009 102.765C314.284 102.6 314.513 102.453 314.696 102.325C314.898 102.178 315.072 102.105 315.219 102.105C315.476 102.105 315.705 102.261 315.906 102.572L317.336 104.91C316.493 105.698 315.476 106.322 314.284 106.78C313.092 107.22 311.864 107.44 310.599 107.44C308.399 107.44 306.703 106.826 305.511 105.597C304.338 104.369 303.751 102.6 303.751 100.29V83.24H300.396C300.103 83.24 299.856 83.1575 299.654 82.9925C299.452 82.8092 299.351 82.5342 299.351 82.1675V80.215L303.916 79.61L305.044 71.03C305.099 70.755 305.218 70.535 305.401 70.37C305.603 70.1867 305.86 70.095 306.171 70.095H308.646V79.6925H327.896V107ZM329.106 70.205C329.106 70.6817 329.006 71.1308 328.804 71.5525C328.621 71.9558 328.364 72.3133 328.034 72.625C327.722 72.9367 327.356 73.1842 326.934 73.3675C326.512 73.5508 326.063 73.6425 325.586 73.6425C325.11 73.6425 324.661 73.5508 324.239 73.3675C323.836 73.1842 323.478 72.9367 323.166 72.625C322.855 72.3133 322.607 71.9558 322.424 71.5525C322.241 71.1308 322.149 70.6817 322.149 70.205C322.149 69.7283 322.241 69.2792 322.424 68.8575C322.607 68.4175 322.855 68.0417 323.166 67.73C323.478 67.4 323.836 67.1433 324.239 66.96C324.661 66.7767 325.11 66.685 325.586 66.685C326.063 66.685 326.512 66.7767 326.934 66.96C327.356 67.1433 327.722 67.4 328.034 67.73C328.364 68.0417 328.621 68.4175 328.804 68.8575C329.006 69.2792 329.106 69.7283 329.106 70.205ZM360.083 90.0325C360.083 88.8958 359.918 87.86 359.588 86.925C359.276 85.9717 358.809 85.1558 358.186 84.4775C357.581 83.7808 356.838 83.2492 355.958 82.8825C355.078 82.4975 354.079 82.305 352.961 82.305C350.614 82.305 348.753 82.9925 347.378 84.3675C346.021 85.7242 345.178 87.6125 344.848 90.0325H360.083ZM364.043 103.095C363.438 103.828 362.714 104.47 361.871 105.02C361.027 105.552 360.12 105.992 359.148 106.34C358.195 106.688 357.205 106.945 356.178 107.11C355.151 107.293 354.134 107.385 353.126 107.385C351.201 107.385 349.422 107.064 347.791 106.422C346.177 105.762 344.775 104.809 343.583 103.562C342.41 102.297 341.493 100.739 340.833 98.8875C340.173 97.0358 339.843 94.9092 339.843 92.5075C339.843 90.5642 340.136 88.7492 340.723 87.0625C341.328 85.3758 342.19 83.9183 343.308 82.69C344.426 81.4433 345.792 80.4717 347.406 79.775C349.019 79.06 350.834 78.7025 352.851 78.7025C354.519 78.7025 356.059 78.9867 357.471 79.555C358.901 80.105 360.129 80.9117 361.156 81.975C362.201 83.02 363.016 84.3217 363.603 85.88C364.19 87.42 364.483 89.18 364.483 91.16C364.483 91.93 364.401 92.4433 364.236 92.7C364.071 92.9567 363.759 93.085 363.301 93.085H344.683C344.738 94.845 344.976 96.3758 345.398 97.6775C345.838 98.9792 346.443 100.07 347.213 100.95C347.983 101.812 348.9 102.462 349.963 102.902C351.026 103.324 352.218 103.535 353.538 103.535C354.766 103.535 355.821 103.397 356.701 103.122C357.599 102.829 358.369 102.517 359.011 102.187C359.652 101.857 360.184 101.555 360.606 101.28C361.046 100.987 361.421 100.84 361.733 100.84C362.136 100.84 362.448 100.996 362.668 101.307L364.043 103.095ZM392.221 83.735C392.001 84.1383 391.661 84.34 391.203 84.34C390.928 84.34 390.616 84.2392 390.268 84.0375C389.92 83.8358 389.489 83.6158 388.976 83.3775C388.481 83.1208 387.885 82.8917 387.188 82.69C386.491 82.47 385.666 82.36 384.713 82.36C383.888 82.36 383.146 82.47 382.486 82.69C381.826 82.8917 381.257 83.1758 380.781 83.5425C380.322 83.9092 379.965 84.34 379.708 84.835C379.47 85.3117 379.351 85.8342 379.351 86.4025C379.351 87.1175 379.552 87.7133 379.956 88.19C380.377 88.6667 380.927 89.0792 381.606 89.4275C382.284 89.7758 383.054 90.0875 383.916 90.3625C384.777 90.6192 385.657 90.9033 386.556 91.215C387.472 91.5083 388.361 91.8383 389.223 92.205C390.085 92.5717 390.855 93.03 391.533 93.58C392.211 94.13 392.752 94.8083 393.156 95.615C393.577 96.4033 393.788 97.3567 393.788 98.475C393.788 99.7583 393.559 100.95 393.101 102.05C392.642 103.132 391.964 104.076 391.066 104.882C390.167 105.671 389.067 106.294 387.766 106.752C386.464 107.211 384.961 107.44 383.256 107.44C381.312 107.44 379.552 107.128 377.976 106.505C376.399 105.863 375.061 105.047 373.961 104.057L375.116 102.187C375.262 101.949 375.436 101.766 375.638 101.637C375.84 101.509 376.096 101.445 376.408 101.445C376.738 101.445 377.086 101.573 377.453 101.83C377.82 102.087 378.26 102.371 378.773 102.682C379.305 102.994 379.946 103.278 380.698 103.535C381.45 103.792 382.385 103.92 383.503 103.92C384.456 103.92 385.291 103.801 386.006 103.562C386.721 103.306 387.316 102.967 387.793 102.545C388.27 102.123 388.618 101.637 388.838 101.087C389.076 100.537 389.196 99.9508 389.196 99.3275C389.196 98.5575 388.985 97.925 388.563 97.43C388.16 96.9167 387.619 96.4858 386.941 96.1375C386.262 95.7708 385.483 95.4592 384.603 95.2025C383.741 94.9275 382.852 94.6433 381.936 94.35C381.037 94.0567 380.148 93.7267 379.268 93.36C378.406 92.975 377.636 92.4983 376.958 91.93C376.28 91.3617 375.73 90.665 375.308 89.84C374.905 88.9967 374.703 87.9792 374.703 86.7875C374.703 85.7242 374.923 84.7067 375.363 83.735C375.803 82.745 376.445 81.8833 377.288 81.15C378.131 80.3983 379.167 79.8025 380.396 79.3625C381.624 78.9225 383.026 78.7025 384.603 78.7025C386.436 78.7025 388.077 78.9958 389.526 79.5825C390.992 80.1508 392.257 80.9392 393.321 81.9475L392.221 83.735Z" fill="black"/>
</svg>
