<svg width="345" height="72" viewBox="0 0 345 72" fill="none" xmlns="http://www.w3.org/2000/svg">
<path d="M0 65H149.353V72H0V65Z" fill="url(#paint0_linear)"/>
<path d="M36.96 14.5925V54H34.2925C33.8708 54 33.5133 53.9267 33.22 53.78C32.945 53.6333 32.67 53.3858 32.395 53.0375L9.5975 23.3375C9.63417 23.7958 9.66167 24.245 9.68 24.685C9.69833 25.125 9.7075 25.5375 9.7075 25.9225V54H5.0325V14.5925H7.7825C8.02083 14.5925 8.2225 14.6108 8.3875 14.6475C8.5525 14.6658 8.69917 14.7117 8.8275 14.785C8.95583 14.84 9.08417 14.9317 9.2125 15.06C9.34083 15.17 9.47833 15.3167 9.625 15.5L32.4225 45.1725C32.3858 44.6958 32.3492 44.2375 32.3125 43.7975C32.2942 43.3392 32.285 42.9083 32.285 42.505V14.5925H36.96ZM69.1651 37.0325C69.1651 35.8958 69.0001 34.86 68.6701 33.925C68.3584 32.9717 67.8909 32.1558 67.2676 31.4775C66.6626 30.7808 65.9201 30.2492 65.0401 29.8825C64.1601 29.4975 63.1609 29.305 62.0426 29.305C59.6959 29.305 57.8351 29.9925 56.4601 31.3675C55.1034 32.7242 54.2601 34.6125 53.9301 37.0325H69.1651ZM73.1251 50.095C72.5201 50.8283 71.7959 51.47 70.9526 52.02C70.1092 52.5517 69.2017 52.9917 68.2301 53.34C67.2767 53.6883 66.2867 53.945 65.2601 54.11C64.2334 54.2933 63.2159 54.385 62.2076 54.385C60.2826 54.385 58.5042 54.0642 56.8726 53.4225C55.2592 52.7625 53.8567 51.8092 52.6651 50.5625C51.4917 49.2975 50.5751 47.7392 49.9151 45.8875C49.2551 44.0358 48.9251 41.9092 48.9251 39.5075C48.9251 37.5642 49.2184 35.7492 49.8051 34.0625C50.4101 32.3758 51.2717 30.9183 52.3901 29.69C53.5084 28.4433 54.8742 27.4717 56.4876 26.775C58.1009 26.06 59.9159 25.7025 61.9326 25.7025C63.6009 25.7025 65.1409 25.9867 66.5526 26.555C67.9826 27.105 69.2109 27.9117 70.2376 28.975C71.2826 30.02 72.0984 31.3217 72.6851 32.88C73.2717 34.42 73.5651 36.18 73.5651 38.16C73.5651 38.93 73.4826 39.4433 73.3176 39.7C73.1526 39.9567 72.8409 40.085 72.3826 40.085H53.7651C53.8201 41.845 54.0584 43.3758 54.4801 44.6775C54.9201 45.9792 55.5251 47.07 56.2951 47.95C57.0651 48.8117 57.9817 49.4625 59.0451 49.9025C60.1084 50.3242 61.3001 50.535 62.6201 50.535C63.8484 50.535 64.9026 50.3975 65.7826 50.1225C66.6809 49.8292 67.4509 49.5175 68.0926 49.1875C68.7342 48.8575 69.2659 48.555 69.6876 48.28C70.1276 47.9867 70.5034 47.84 70.8151 47.84C71.2184 47.84 71.5301 47.9958 71.7501 48.3075L73.1251 50.095ZM93.4154 54.44C91.2154 54.44 89.5195 53.8258 88.3279 52.5975C87.1545 51.3692 86.5679 49.6 86.5679 47.29V30.24H83.2129C82.9195 30.24 82.672 30.1575 82.4704 29.9925C82.2687 29.8092 82.1679 29.5342 82.1679 29.1675V27.215L86.7329 26.6375L87.8604 18.03C87.9154 17.755 88.0345 17.535 88.2179 17.37C88.4195 17.1867 88.6762 17.095 88.9879 17.095H91.4629V26.6925H99.5204V30.24H91.4629V46.96C91.4629 48.1333 91.747 49.0042 92.3154 49.5725C92.8837 50.1408 93.617 50.425 94.5154 50.425C95.0287 50.425 95.4687 50.3608 95.8354 50.2325C96.2204 50.0858 96.5504 49.93 96.8254 49.765C97.1004 49.6 97.3295 49.4533 97.5129 49.325C97.7145 49.1783 97.8887 49.105 98.0354 49.105C98.292 49.105 98.5212 49.2608 98.7229 49.5725L100.153 51.91C99.3095 52.6983 98.292 53.3217 97.1004 53.78C95.9087 54.22 94.6804 54.44 93.4154 54.44ZM148.492 26.1425L139.472 54H135.595C135.118 54 134.788 53.6883 134.605 53.065L128.445 34.1725C128.298 33.7508 128.179 33.3292 128.087 32.9075C127.996 32.4675 127.904 32.0367 127.812 31.615C127.721 32.0367 127.629 32.4675 127.537 32.9075C127.446 33.3292 127.326 33.76 127.18 34.2L120.91 53.065C120.745 53.6883 120.378 54 119.81 54H116.125L107.105 26.1425H110.955C111.34 26.1425 111.661 26.2433 111.917 26.445C112.192 26.6467 112.376 26.885 112.467 27.16L117.802 45.09C118.114 46.41 118.361 47.6567 118.545 48.83C118.71 48.225 118.875 47.6108 119.04 46.9875C119.223 46.3642 119.416 45.7317 119.617 45.09L125.502 27.05C125.594 26.775 125.75 26.5458 125.97 26.3625C126.208 26.1792 126.492 26.0875 126.822 26.0875H128.967C129.334 26.0875 129.636 26.1792 129.875 26.3625C130.113 26.5458 130.278 26.775 130.37 27.05L136.117 45.09C136.319 45.7317 136.502 46.3642 136.667 46.9875C136.832 47.6108 136.988 48.225 137.135 48.83C137.226 48.225 137.336 47.62 137.465 47.015C137.611 46.3917 137.767 45.75 137.932 45.09L143.377 27.16C143.469 26.8667 143.643 26.6283 143.9 26.445C144.156 26.2433 144.459 26.1425 144.807 26.1425H148.492ZM170.125 25.7025C172.16 25.7025 173.993 26.0417 175.625 26.72C177.257 27.3983 178.65 28.3608 179.805 29.6075C180.96 30.8542 181.84 32.3667 182.445 34.145C183.068 35.905 183.38 37.8758 183.38 40.0575C183.38 42.2575 183.068 44.2375 182.445 45.9975C181.84 47.7575 180.96 49.2608 179.805 50.5075C178.65 51.7542 177.257 52.7167 175.625 53.395C173.993 54.055 172.16 54.385 170.125 54.385C168.072 54.385 166.22 54.055 164.57 53.395C162.938 52.7167 161.545 51.7542 160.39 50.5075C159.235 49.2608 158.346 47.7575 157.722 45.9975C157.117 44.2375 156.815 42.2575 156.815 40.0575C156.815 37.8758 157.117 35.905 157.722 34.145C158.346 32.3667 159.235 30.8542 160.39 29.6075C161.545 28.3608 162.938 27.3983 164.57 26.72C166.22 26.0417 168.072 25.7025 170.125 25.7025ZM170.125 50.5625C172.875 50.5625 174.928 49.6458 176.285 47.8125C177.642 45.9608 178.32 43.385 178.32 40.085C178.32 36.7667 177.642 34.1817 176.285 32.33C174.928 30.4783 172.875 29.5525 170.125 29.5525C168.732 29.5525 167.512 29.7908 166.467 30.2675C165.441 30.7442 164.579 31.4317 163.882 32.33C163.204 33.2283 162.691 34.3375 162.342 35.6575C162.012 36.9592 161.847 38.435 161.847 40.085C161.847 43.385 162.526 45.9608 163.882 47.8125C165.257 49.6458 167.338 50.5625 170.125 50.5625ZM199.736 31.725C200.616 29.8183 201.698 28.3333 202.981 27.27C204.264 26.1883 205.832 25.6475 207.683 25.6475C208.27 25.6475 208.829 25.7117 209.361 25.84C209.911 25.9683 210.397 26.17 210.818 26.445L210.461 30.1025C210.351 30.5608 210.076 30.79 209.636 30.79C209.379 30.79 209.003 30.735 208.508 30.625C208.013 30.515 207.454 30.46 206.831 30.46C205.951 30.46 205.163 30.5883 204.466 30.845C203.788 31.1017 203.173 31.4867 202.623 32C202.092 32.495 201.606 33.1183 201.166 33.87C200.744 34.6033 200.359 35.4467 200.011 36.4V54H195.088V26.1425H197.893C198.425 26.1425 198.792 26.2433 198.993 26.445C199.195 26.6467 199.333 26.995 199.406 27.49L199.736 31.725ZM225.545 13.4925V37.335H226.81C227.177 37.335 227.479 37.2892 227.718 37.1975C227.974 37.0875 228.24 36.8767 228.515 36.565L237.315 27.1325C237.572 26.8208 237.838 26.5825 238.113 26.4175C238.406 26.2342 238.791 26.1425 239.268 26.1425H243.695L233.438 37.06C232.943 37.6833 232.411 38.1692 231.843 38.5175C232.173 38.7375 232.466 38.9942 232.723 39.2875C232.998 39.5625 233.254 39.8833 233.493 40.25L244.383 54H240.01C239.588 54 239.222 53.9358 238.91 53.8075C238.617 53.6608 238.36 53.4042 238.14 53.0375L228.983 41.625C228.708 41.24 228.433 40.9925 228.158 40.8825C227.901 40.7542 227.498 40.69 226.948 40.69H225.545V54H220.623V13.4925H225.545ZM259.222 26.1425V54H254.327V26.1425H259.222ZM260.267 17.3975C260.267 17.8742 260.166 18.3233 259.965 18.745C259.781 19.1483 259.525 19.515 259.195 19.845C258.883 20.1567 258.507 20.4042 258.067 20.5875C257.646 20.7708 257.196 20.8625 256.72 20.8625C256.243 20.8625 255.794 20.7708 255.372 20.5875C254.969 20.4042 254.611 20.1567 254.3 19.845C253.988 19.515 253.741 19.1483 253.557 18.745C253.374 18.3233 253.282 17.8742 253.282 17.3975C253.282 16.9208 253.374 16.4717 253.557 16.05C253.741 15.61 253.988 15.2342 254.3 14.9225C254.611 14.5925 254.969 14.3358 255.372 14.1525C255.794 13.9692 256.243 13.8775 256.72 13.8775C257.196 13.8775 257.646 13.9692 258.067 14.1525C258.507 14.3358 258.883 14.5925 259.195 14.9225C259.525 15.2342 259.781 15.61 259.965 16.05C260.166 16.4717 260.267 16.9208 260.267 17.3975ZM277.385 30.185C277.99 29.5067 278.632 28.8925 279.31 28.3425C279.989 27.7925 280.704 27.325 281.455 26.94C282.225 26.5367 283.032 26.2342 283.875 26.0325C284.737 25.8125 285.663 25.7025 286.653 25.7025C288.174 25.7025 289.513 25.9592 290.668 26.4725C291.841 26.9675 292.813 27.6825 293.583 28.6175C294.371 29.5342 294.967 30.6433 295.37 31.945C295.774 33.2467 295.975 34.6858 295.975 36.2625V54H291.053V36.2625C291.053 34.1542 290.567 32.5225 289.595 31.3675C288.642 30.1942 287.184 29.6075 285.223 29.6075C283.774 29.6075 282.418 29.9558 281.153 30.6525C279.906 31.3492 278.751 32.2933 277.688 33.485V54H272.765V26.1425H275.708C276.404 26.1425 276.835 26.4817 277 27.16L277.385 30.185ZM318.642 40.3875C319.632 40.3875 320.502 40.25 321.254 39.975C322.006 39.7 322.638 39.315 323.152 38.82C323.665 38.325 324.05 37.7383 324.307 37.06C324.563 36.3633 324.692 35.6025 324.692 34.7775C324.692 33.0725 324.169 31.7158 323.124 30.7075C322.097 29.6992 320.603 29.195 318.642 29.195C316.662 29.195 315.149 29.6992 314.104 30.7075C313.077 31.7158 312.564 33.0725 312.564 34.7775C312.564 35.6025 312.692 36.3633 312.949 37.06C313.224 37.7383 313.618 38.325 314.132 38.82C314.645 39.315 315.277 39.7 316.029 39.975C316.781 40.25 317.652 40.3875 318.642 40.3875ZM327.469 55.5125C327.469 54.8342 327.277 54.2842 326.892 53.8625C326.507 53.4408 325.984 53.1108 325.324 52.8725C324.682 52.6342 323.931 52.4692 323.069 52.3775C322.207 52.2675 321.291 52.185 320.319 52.13C319.366 52.075 318.394 52.02 317.404 51.965C316.414 51.91 315.461 51.8183 314.544 51.69C313.517 52.1667 312.674 52.7717 312.014 53.505C311.372 54.22 311.052 55.0633 311.052 56.035C311.052 56.6583 311.207 57.2358 311.519 57.7675C311.849 58.3175 312.344 58.785 313.004 59.17C313.664 59.5733 314.489 59.885 315.479 60.105C316.487 60.3433 317.67 60.4625 319.027 60.4625C320.347 60.4625 321.529 60.3433 322.574 60.105C323.619 59.8667 324.499 59.5275 325.214 59.0875C325.947 58.6475 326.507 58.125 326.892 57.52C327.277 56.915 327.469 56.2458 327.469 55.5125ZM332.447 27.2425V29.0575C332.447 29.6625 332.062 30.0475 331.292 30.2125L328.129 30.625C328.752 31.835 329.064 33.1733 329.064 34.64C329.064 35.9967 328.798 37.2342 328.267 38.3525C327.753 39.4525 327.038 40.3967 326.122 41.185C325.205 41.9733 324.105 42.5783 322.822 43C321.538 43.4217 320.145 43.6325 318.642 43.6325C317.34 43.6325 316.112 43.4767 314.957 43.165C314.37 43.5317 313.921 43.9258 313.609 44.3475C313.297 44.7508 313.142 45.1633 313.142 45.585C313.142 46.245 313.407 46.7492 313.939 47.0975C314.489 47.4275 315.204 47.6658 316.084 47.8125C316.964 47.9592 317.963 48.0508 319.082 48.0875C320.218 48.1242 321.373 48.1883 322.547 48.28C323.738 48.3533 324.893 48.4908 326.012 48.6925C327.148 48.8942 328.157 49.2242 329.037 49.6825C329.917 50.1408 330.622 50.7733 331.154 51.58C331.704 52.3867 331.979 53.4317 331.979 54.715C331.979 55.9067 331.677 57.0617 331.072 58.18C330.485 59.2983 329.632 60.2883 328.514 61.15C327.396 62.03 326.021 62.7267 324.389 63.24C322.776 63.7717 320.952 64.0375 318.917 64.0375C316.882 64.0375 315.103 63.8358 313.582 63.4325C312.06 63.0292 310.795 62.4883 309.787 61.81C308.778 61.1317 308.017 60.3433 307.504 59.445C307.009 58.565 306.762 57.6392 306.762 56.6675C306.762 55.2925 307.192 54.1283 308.054 53.175C308.916 52.2217 310.098 51.4608 311.602 50.8925C310.777 50.5258 310.117 50.04 309.622 49.435C309.145 48.8117 308.907 47.9775 308.907 46.9325C308.907 46.5292 308.98 46.1167 309.127 45.695C309.273 45.255 309.493 44.8242 309.787 44.4025C310.098 43.9625 310.474 43.55 310.914 43.165C311.354 42.78 311.867 42.4408 312.454 42.1475C311.079 41.3775 310.007 40.36 309.237 39.095C308.467 37.8117 308.082 36.3267 308.082 34.64C308.082 33.2833 308.338 32.055 308.852 30.955C309.383 29.8367 310.117 28.8925 311.052 28.1225C311.987 27.3342 313.096 26.7292 314.379 26.3075C315.681 25.8858 317.102 25.675 318.642 25.675C319.852 25.675 320.979 25.8125 322.024 26.0875C323.069 26.3442 324.022 26.7292 324.884 27.2425H332.447Z" fill="black"/>
<defs>
<linearGradient id="paint0_linear" x1="169.664" y1="71.569" x2="159.382" y2="115.727" gradientUnits="userSpaceOnUse">
<stop stop-color="#458ACC"/>
<stop offset="1" stop-color="#B6D15D"/>
</linearGradient>
</defs>
</svg>
