<?xml version="1.0" standalone="no"?>
<!DOCTYPE svg PUBLIC "-//W3C//DTD SVG 20010904//EN"
 "http://www.w3.org/TR/2001/REC-SVG-20010904/DTD/svg10.dtd">
<svg version="1.0" xmlns="http://www.w3.org/2000/svg"
 width="256.000000pt" height="256.000000pt" viewBox="0 0 256.000000 256.000000"
 preserveAspectRatio="xMidYMid meet">

<g transform="translate(0.000000,256.000000) scale(0.100000,-0.100000)"
fill="#000000" stroke="none">
<path d="M692 2468 c-17 -17 -17 -999 0 -1016 8 -8 53 -12 132 -13 l121 0
-115 -59 c-63 -32 -119 -59 -125 -59 -5 -1 -25 28 -43 63 -39 76 -126 162
-200 200 -57 29 -151 56 -194 56 -26 0 -28 -3 -28 -39 l0 -39 55 -7 c74 -9
183 -65 233 -119 37 -40 92 -132 92 -154 0 -4 -37 -26 -81 -47 -78 -38 -87
-46 -211 -190 -86 -101 -128 -157 -126 -170 2 -14 35 -37 120 -80 l117 -60 3
-120 3 -120 418 -210 417 -210 418 210 417 210 3 120 3 120 117 60 c97 50 117
64 117 83 0 14 -45 75 -124 168 l-125 146 -245 123 -246 124 121 0 c79 1 124
5 132 13 17 17 17 679 0 696 -9 9 -76 12 -240 12 l-228 0 0 148 c0 102 -4 152
-12 160 -17 17 -679 17 -696 0z m628 -508 l0 -440 -60 0 -60 0 0 100 c0 93 1
100 20 100 17 0 20 7 20 40 l0 40 -200 0 -200 0 0 -40 c0 -33 3 -40 20 -40 19
0 20 -7 20 -100 l0 -100 -60 0 -60 0 0 440 0 440 280 0 280 0 0 -440z m480
-160 l0 -280 -200 0 -200 0 0 280 0 280 200 0 200 0 0 -280z m-680 -180 l0
-100 -80 0 -80 0 0 100 0 100 80 0 80 0 0 -100z m585 -317 c151 -76 275 -140
275 -143 0 -3 -157 -84 -350 -180 l-350 -175 -350 175 c-192 96 -350 177 -350
181 0 5 45 29 55 29 3 0 5 -7 5 -15 0 -11 11 -15 41 -15 l41 0 -4 36 -3 37
205 103 205 103 152 0 153 1 275 -137z m-495 -559 c0 -3 -41 -52 -91 -110
l-90 -104 -360 180 c-197 99 -359 183 -359 186 0 3 41 52 91 110 l90 104 360
-180 c197 -99 359 -183 359 -186z m949 262 c50 -57 91 -107 91 -110 0 -3 -162
-87 -359 -186 l-360 -180 -90 104 c-50 58 -91 107 -91 110 0 4 697 360 717
365 1 1 42 -46 92 -103z m-1379 -441 c137 -69 256 -125 264 -125 8 0 55 48
105 106 l91 105 0 -230 c0 -127 -2 -231 -5 -231 -3 0 -165 80 -360 177 l-355
178 0 72 c0 40 2 73 5 73 3 0 118 -56 255 -125z m1260 52 l0 -72 -355 -178
c-195 -97 -357 -177 -360 -177 -3 0 -5 104 -5 231 l0 230 91 -105 c50 -58 98
-106 107 -105 10 0 127 56 262 124 135 68 248 124 253 124 4 1 7 -32 7 -72z"/>
<path d="M840 2280 l0 -40 40 0 40 0 0 40 0 40 -40 0 -40 0 0 -40z"/>
<path d="M1000 2280 l0 -40 40 0 40 0 0 40 0 40 -40 0 -40 0 0 -40z"/>
<path d="M1160 2280 l0 -40 40 0 40 0 0 40 0 40 -40 0 -40 0 0 -40z"/>
<path d="M840 2120 l0 -40 40 0 40 0 0 40 0 40 -40 0 -40 0 0 -40z"/>
<path d="M1000 2120 l0 -40 40 0 40 0 0 40 0 40 -40 0 -40 0 0 -40z"/>
<path d="M1160 2120 l0 -40 40 0 40 0 0 40 0 40 -40 0 -40 0 0 -40z"/>
<path d="M840 1960 l0 -40 40 0 40 0 0 40 0 40 -40 0 -40 0 0 -40z"/>
<path d="M1000 1960 l0 -40 40 0 40 0 0 40 0 40 -40 0 -40 0 0 -40z"/>
<path d="M1160 1960 l0 -40 40 0 40 0 0 40 0 40 -40 0 -40 0 0 -40z"/>
<path d="M1480 1960 l0 -40 40 0 40 0 0 40 0 40 -40 0 -40 0 0 -40z"/>
<path d="M1640 1960 l0 -40 40 0 40 0 0 40 0 40 -40 0 -40 0 0 -40z"/>
<path d="M1480 1800 l0 -40 40 0 40 0 0 40 0 40 -40 0 -40 0 0 -40z"/>
<path d="M1640 1800 l0 -40 40 0 40 0 0 40 0 40 -40 0 -40 0 0 -40z"/>
<path d="M1320 1320 l0 -40 40 0 40 0 0 40 0 40 -40 0 -40 0 0 -40z"/>
<path d="M1000 1281 c0 -36 2 -39 35 -45 51 -10 103 -60 117 -112 12 -42 14
-44 50 -44 43 0 46 7 26 74 -16 55 -99 138 -154 154 -67 20 -74 17 -74 -27z"/>
<path d="M1560 1227 c-49 -16 -133 -102 -148 -153 -20 -67 -17 -74 26 -74 36
0 38 2 50 44 14 52 66 102 117 112 33 6 35 9 35 45 0 34 -3 39 -22 38 -13 -1
-39 -6 -58 -12z"/>
<path d="M1160 960 l0 -40 40 0 40 0 0 40 0 40 -40 0 -40 0 0 -40z"/>
<path d="M80 2323 c0 -40 0 -40 45 -46 135 -19 253 -137 272 -272 6 -45 6 -45
46 -45 l40 0 -7 53 c-9 74 -66 186 -122 236 -55 52 -151 98 -221 107 l-53 7 0
-40z"/>
<path d="M2069 2097 c-52 -28 -97 -87 -106 -140 l-6 -37 41 0 c36 0 41 3 47
29 7 35 50 77 88 86 24 6 27 12 27 46 0 34 -3 39 -23 39 -13 0 -44 -10 -68
-23z"/>
<path d="M2240 2080 l0 -40 40 0 40 0 0 40 0 40 -40 0 -40 0 0 -40z"/>
<path d="M400 1840 l0 -40 40 0 40 0 0 40 0 40 -40 0 -40 0 0 -40z"/>
<path d="M2361 1784 c-169 -45 -301 -180 -346 -351 -8 -31 -15 -70 -15 -85 0
-26 3 -28 39 -28 l39 0 6 54 c9 70 54 164 107 220 51 56 159 112 234 121 l55
7 0 39 c0 37 -1 39 -32 38 -18 0 -57 -7 -87 -15z"/>
<path d="M80 1600 l0 -40 40 0 40 0 0 40 0 40 -40 0 -40 0 0 -40z"/>
</g>
</svg>
