<svg width="685" height="208" viewBox="0 0 685 208" fill="none" xmlns="http://www.w3.org/2000/svg">
<path d="M42.3519 67.835L42.2539 72H0.701938V2.665H42.2539V6.83H5.74894V34.858H36.1289V38.925H5.74894V67.835H42.3519ZM91.1146 72H86.6556C86.1983 72 85.8389 71.8693 85.5776 71.608C85.3163 71.314 85.1039 71.0363 84.9406 70.775L70.1426 49.166C70.0119 49.754 69.7669 50.3257 69.4076 50.881L55.2956 70.775C55.0669 71.069 54.8219 71.3467 54.5606 71.608C54.3319 71.8693 54.0216 72 53.6296 72H49.4156L67.1536 47.059L50.1016 23.245H54.5606C55.0179 23.245 55.3609 23.343 55.5896 23.539C55.8183 23.735 56.0143 23.9637 56.1776 24.225L70.4856 44.854C70.5509 44.5927 70.6489 44.315 70.7796 44.021C70.9429 43.727 71.1063 43.433 71.2696 43.139L84.6466 24.274C84.8426 23.98 85.0549 23.735 85.2836 23.539C85.5123 23.343 85.8063 23.245 86.1656 23.245H90.4286L73.4256 46.765L91.1146 72ZM105.986 61.367C106.933 62.7717 107.913 63.964 108.926 64.944C109.971 65.8913 111.066 66.6753 112.209 67.296C113.352 67.884 114.561 68.3087 115.835 68.57C117.142 68.8313 118.514 68.962 119.951 68.962C122.826 68.962 125.341 68.4393 127.497 67.394C129.653 66.3487 131.45 64.8787 132.887 62.984C134.357 61.0567 135.451 58.77 136.17 56.124C136.921 53.4453 137.297 50.5053 137.297 47.304C137.297 40.052 135.958 34.7273 133.279 31.33C130.6 27.9 126.762 26.185 121.764 26.185C118.53 26.185 115.606 27.018 112.993 28.684C110.38 30.35 108.044 32.6693 105.986 35.642V61.367ZM105.79 32.016C107.946 29.076 110.461 26.7403 113.336 25.009C116.243 23.2777 119.494 22.412 123.087 22.412C129.065 22.412 133.72 24.4863 137.052 28.635C140.417 32.7837 142.099 39.0067 142.099 47.304C142.099 50.8647 141.625 54.1967 140.678 57.3C139.763 60.3707 138.391 63.0493 136.562 65.336C134.765 67.59 132.544 69.3703 129.898 70.677C127.285 71.9837 124.263 72.637 120.833 72.637C117.534 72.637 114.675 72.0327 112.258 70.824C109.841 69.6153 107.75 67.835 105.986 65.483V89.248H101.282V23.245H103.879C104.696 23.245 105.169 23.6533 105.3 24.47L105.79 32.016ZM160.499 0.704998V72H155.795V0.704998H160.499ZM196.289 22.461C199.785 22.461 202.904 23.0653 205.648 24.274C208.425 25.45 210.761 27.1323 212.655 29.321C214.55 31.5097 215.987 34.1557 216.967 37.259C217.98 40.3297 218.486 43.776 218.486 47.598C218.486 51.42 217.98 54.8663 216.967 57.937C215.987 61.0077 214.55 63.6373 212.655 65.826C210.761 68.0147 208.425 69.697 205.648 70.873C202.904 72.049 199.785 72.637 196.289 72.637C192.794 72.637 189.658 72.049 186.881 70.873C184.137 69.697 181.802 68.0147 179.874 65.826C177.98 63.6373 176.526 61.0077 175.513 57.937C174.533 54.8663 174.043 51.42 174.043 47.598C174.043 43.776 174.533 40.3297 175.513 37.259C176.526 34.1557 177.98 31.5097 179.874 29.321C181.802 27.1323 184.137 25.45 186.881 24.274C189.658 23.0653 192.794 22.461 196.289 22.461ZM196.289 68.962C199.197 68.962 201.728 68.472 203.884 67.492C206.073 66.4793 207.886 65.042 209.323 63.18C210.793 61.318 211.888 59.0803 212.606 56.467C213.325 53.821 213.684 50.8647 213.684 47.598C213.684 44.364 213.325 41.424 212.606 38.778C211.888 36.132 210.793 33.878 209.323 32.016C207.886 30.1213 206.073 28.6677 203.884 27.655C201.728 26.6423 199.197 26.136 196.289 26.136C193.382 26.136 190.834 26.6423 188.645 27.655C186.489 28.6677 184.676 30.1213 183.206 32.016C181.769 33.878 180.675 36.132 179.923 38.778C179.205 41.424 178.845 44.364 178.845 47.598C178.845 50.8647 179.205 53.821 179.923 56.467C180.675 59.0803 181.769 61.318 183.206 63.18C184.676 65.042 186.489 66.4793 188.645 67.492C190.834 68.472 193.382 68.962 196.289 68.962ZM236.089 35.005C236.84 33.0123 237.689 31.2483 238.637 29.713C239.617 28.145 240.727 26.822 241.969 25.744C243.243 24.666 244.647 23.8493 246.183 23.294C247.751 22.706 249.482 22.412 251.377 22.412C252.389 22.412 253.386 22.51 254.366 22.706C255.346 22.8693 256.211 23.1797 256.963 23.637L256.571 26.871C256.407 27.3937 256.097 27.655 255.64 27.655C255.248 27.655 254.643 27.5407 253.827 27.312C253.043 27.0833 251.997 26.969 250.691 26.969C248.796 26.969 247.114 27.263 245.644 27.851C244.206 28.4063 242.9 29.2557 241.724 30.399C240.58 31.5423 239.568 32.9633 238.686 34.662C237.836 36.328 237.052 38.2553 236.334 40.444V72H231.63V23.245H234.129C234.684 23.245 235.076 23.3593 235.305 23.588C235.533 23.8167 235.68 24.2087 235.746 24.764L236.089 35.005ZM271.468 23.245V72H266.813V23.245H271.468ZM273.477 6.438C273.477 7.026 273.347 7.58133 273.085 8.104C272.857 8.594 272.546 9.035 272.154 9.427C271.762 9.819 271.305 10.1293 270.782 10.358C270.26 10.5867 269.704 10.701 269.116 10.701C268.528 10.701 267.973 10.5867 267.45 10.358C266.928 10.1293 266.47 9.819 266.078 9.427C265.686 9.035 265.376 8.594 265.147 8.104C264.919 7.58133 264.804 7.026 264.804 6.438C264.804 5.85 264.919 5.29466 265.147 4.772C265.376 4.21666 265.686 3.743 266.078 3.351C266.47 2.959 266.928 2.64866 267.45 2.42C267.973 2.19133 268.528 2.077 269.116 2.077C269.704 2.077 270.26 2.19133 270.782 2.42C271.305 2.64866 271.762 2.959 272.154 3.351C272.546 3.743 272.857 4.21666 273.085 4.772C273.347 5.29466 273.477 5.85 273.477 6.438ZM292.554 31.771C294.808 28.9617 297.405 26.7077 300.345 25.009C303.317 23.3103 306.617 22.461 310.243 22.461C312.921 22.461 315.273 22.8857 317.299 23.735C319.357 24.5843 321.055 25.8093 322.395 27.41C323.734 29.0107 324.747 30.938 325.433 33.192C326.119 35.446 326.462 37.994 326.462 40.836V72H321.758V40.836C321.758 36.2627 320.712 32.6857 318.622 30.105C316.531 27.4917 313.346 26.185 309.067 26.185C305.898 26.185 302.925 27.0017 300.149 28.635C297.405 30.2357 294.955 32.4733 292.799 35.348V72H288.095V23.245H290.692C291.508 23.245 291.982 23.6533 292.113 24.47L292.554 31.771ZM357.9 50.44C359.991 50.44 361.853 50.146 363.486 49.558C365.12 48.9373 366.492 48.088 367.602 47.01C368.713 45.932 369.562 44.6417 370.15 43.139C370.738 41.6363 371.032 39.9703 371.032 38.141C371.032 36.3117 370.722 34.6457 370.101 33.143C369.513 31.6077 368.648 30.301 367.504 29.223C366.394 28.145 365.022 27.312 363.388 26.724C361.788 26.136 359.958 25.842 357.9 25.842C355.842 25.842 353.997 26.136 352.363 26.724C350.763 27.312 349.391 28.145 348.247 29.223C347.137 30.301 346.287 31.6077 345.699 33.143C345.111 34.6457 344.817 36.3117 344.817 38.141C344.817 39.9703 345.111 41.6363 345.699 43.139C346.287 44.6417 347.137 45.932 348.247 47.01C349.391 48.088 350.763 48.9373 352.363 49.558C353.997 50.146 355.842 50.44 357.9 50.44ZM376.128 75.283C376.128 73.7477 375.72 72.5227 374.903 71.608C374.119 70.6607 373.058 69.9257 371.718 69.403C370.379 68.8803 368.827 68.521 367.063 68.325C365.332 68.0963 363.503 67.933 361.575 67.835C359.681 67.737 357.77 67.639 355.842 67.541C353.915 67.443 352.102 67.247 350.403 66.953C349.162 67.443 348.019 68.0147 346.973 68.668C345.928 69.2887 345.03 70.0073 344.278 70.824C343.527 71.6407 342.939 72.5227 342.514 73.47C342.09 74.45 341.877 75.4953 341.877 76.606C341.877 78.0433 342.237 79.3663 342.955 80.575C343.707 81.8163 344.785 82.878 346.189 83.76C347.627 84.6747 349.374 85.3933 351.432 85.916C353.49 86.4387 355.859 86.7 358.537 86.7C361.02 86.7 363.323 86.4223 365.446 85.867C367.602 85.3117 369.464 84.5277 371.032 83.515C372.633 82.5023 373.874 81.2937 374.756 79.889C375.671 78.4843 376.128 76.949 376.128 75.283ZM381.224 25.401V27.018C381.224 27.7367 380.767 28.1777 379.852 28.341L372.404 28.88C373.319 30.1213 374.021 31.5097 374.511 33.045C375.001 34.5803 375.246 36.2463 375.246 38.043C375.246 40.395 374.822 42.5347 373.972 44.462C373.156 46.3567 371.98 47.99 370.444 49.362C368.942 50.7013 367.112 51.7467 364.956 52.498C362.833 53.2493 360.481 53.625 357.9 53.625C355.124 53.625 352.592 53.2003 350.305 52.351C348.933 53.135 347.839 54.066 347.022 55.144C346.238 56.1893 345.846 57.2347 345.846 58.28C345.846 59.6847 346.336 60.7627 347.316 61.514C348.329 62.2653 349.636 62.8207 351.236 63.18C352.87 63.5067 354.715 63.719 356.773 63.817C358.864 63.915 360.987 64.0293 363.143 64.16C365.299 64.258 367.406 64.454 369.464 64.748C371.555 65.042 373.401 65.5647 375.001 66.316C376.635 67.0347 377.941 68.0637 378.921 69.403C379.934 70.7097 380.44 72.4573 380.44 74.646C380.44 76.6713 379.934 78.615 378.921 80.477C377.909 82.339 376.439 83.9887 374.511 85.426C372.617 86.8633 370.314 88.0067 367.602 88.856C364.891 89.738 361.853 90.179 358.488 90.179C355.058 90.179 352.053 89.8197 349.472 89.101C346.892 88.415 344.719 87.4677 342.955 86.259C341.224 85.083 339.917 83.711 339.035 82.143C338.153 80.575 337.712 78.909 337.712 77.145C337.712 74.5643 338.562 72.3593 340.26 70.53C341.959 68.668 344.278 67.2143 347.218 66.169C345.585 65.6137 344.262 64.8133 343.249 63.768C342.269 62.69 341.779 61.2363 341.779 59.407C341.779 58.721 341.91 58.0023 342.171 57.251C342.433 56.4997 342.825 55.7647 343.347 55.046C343.87 54.2947 344.507 53.5923 345.258 52.939C346.01 52.2857 346.859 51.6977 347.806 51.175C345.487 49.8357 343.674 48.0553 342.367 45.834C341.093 43.6127 340.456 41.0157 340.456 38.043C340.456 35.691 340.865 33.5677 341.681 31.673C342.531 29.7457 343.723 28.096 345.258 26.724C346.794 25.352 348.623 24.2903 350.746 23.539C352.902 22.7877 355.287 22.412 357.9 22.412C360.056 22.412 362.033 22.6733 363.829 23.196C365.659 23.7187 367.292 24.4537 368.729 25.401H381.224ZM470.117 2.665L441.501 72H437.042L408.426 2.665H412.395C412.853 2.665 413.228 2.79566 413.522 3.057C413.816 3.28566 414.045 3.596 414.208 3.988L437.826 61.514C438.088 62.2327 438.349 63.0003 438.61 63.817C438.872 64.6337 439.117 65.4667 439.345 66.316C439.541 65.4667 439.754 64.6337 439.982 63.817C440.211 63.0003 440.472 62.2327 440.766 61.514L464.335 3.988C464.466 3.62866 464.695 3.31833 465.021 3.057C465.348 2.79566 465.74 2.665 466.197 2.665H470.117ZM499.808 48.431C495.169 48.5943 491.167 48.97 487.803 49.558C484.471 50.1133 481.71 50.881 479.522 51.861C477.366 52.841 475.765 54.017 474.72 55.389C473.674 56.7283 473.152 58.2637 473.152 59.995C473.152 61.6283 473.413 63.0493 473.936 64.258C474.491 65.434 475.21 66.414 476.092 67.198C477.006 67.9493 478.052 68.5047 479.228 68.864C480.404 69.2233 481.629 69.403 482.903 69.403C484.797 69.403 486.529 69.207 488.097 68.815C489.697 68.3903 491.167 67.8187 492.507 67.1C493.879 66.3487 495.153 65.4667 496.329 64.454C497.505 63.4413 498.664 62.347 499.808 61.171V48.431ZM471.143 30.154C473.691 27.606 476.369 25.6787 479.179 24.372C481.988 23.0653 485.173 22.412 488.734 22.412C491.347 22.412 493.634 22.8367 495.594 23.686C497.554 24.5027 499.171 25.695 500.445 27.263C501.751 28.7983 502.731 30.6767 503.385 32.898C504.038 35.0867 504.365 37.5367 504.365 40.248V72H502.503C501.523 72 500.918 71.5427 500.69 70.628L500.004 64.356C498.664 65.6627 497.325 66.8387 495.986 67.884C494.679 68.9293 493.307 69.8113 491.87 70.53C490.432 71.2487 488.881 71.804 487.215 72.196C485.549 72.588 483.719 72.784 481.727 72.784C480.061 72.784 478.444 72.539 476.876 72.049C475.308 71.559 473.903 70.8077 472.662 69.795C471.453 68.7823 470.473 67.492 469.722 65.924C469.003 64.3233 468.644 62.4123 468.644 60.191C468.644 58.133 469.232 56.222 470.408 54.458C471.584 52.694 473.429 51.1587 475.945 49.852C478.46 48.5453 481.678 47.5 485.598 46.716C489.55 45.932 494.287 45.4747 499.808 45.344V40.248C499.808 35.74 498.828 32.2773 496.868 29.86C494.94 27.41 492.066 26.185 488.244 26.185C485.892 26.185 483.883 26.5117 482.217 27.165C480.583 27.8183 479.195 28.537 478.052 29.321C476.908 30.105 475.977 30.8237 475.259 31.477C474.54 32.1303 473.936 32.457 473.446 32.457C473.086 32.457 472.792 32.3753 472.564 32.212C472.335 32.0487 472.139 31.8363 471.976 31.575L471.143 30.154ZM525.128 0.704998V72H520.424V0.704998H525.128ZM579.44 23.245V72H576.843C576.027 72 575.553 71.5753 575.422 70.726L574.981 63.474C572.727 66.2833 570.114 68.5373 567.141 70.236C564.201 71.9347 560.918 72.784 557.292 72.784C554.581 72.784 552.213 72.3593 550.187 71.51C548.162 70.6607 546.48 69.4357 545.14 67.835C543.801 66.2343 542.788 64.307 542.102 62.053C541.416 59.799 541.073 57.251 541.073 54.409V23.245H545.777V54.409C545.777 58.9823 546.823 62.5757 548.913 65.189C551.004 67.7697 554.189 69.06 558.468 69.06C561.637 69.06 564.593 68.2597 567.337 66.659C570.114 65.0257 572.58 62.7717 574.736 59.897V23.245H579.44ZM629.695 42.698C629.695 40.0847 629.319 37.749 628.568 35.691C627.849 33.6003 626.82 31.8363 625.481 30.399C624.142 28.9617 622.541 27.8673 620.679 27.116C618.85 26.332 616.824 25.94 614.603 25.94C612.088 25.94 609.834 26.332 607.841 27.116C605.848 27.9 604.117 29.027 602.647 30.497C601.21 31.967 600.05 33.731 599.168 35.789C598.286 37.847 597.698 40.15 597.404 42.698H629.695ZM597.159 45.687V46.618C597.159 50.2767 597.584 53.4943 598.433 56.271C599.282 59.0477 600.491 61.3833 602.059 63.278C603.627 65.14 605.522 66.5447 607.743 67.492C609.964 68.4393 612.447 68.913 615.191 68.913C617.641 68.913 619.764 68.6517 621.561 68.129C623.358 67.5737 624.86 66.9693 626.069 66.316C627.31 65.63 628.29 65.0257 629.009 64.503C629.728 63.9477 630.25 63.67 630.577 63.67C631.002 63.67 631.328 63.8333 631.557 64.16L632.831 65.728C632.047 66.708 631.002 67.6227 629.695 68.472C628.421 69.3213 626.984 70.0563 625.383 70.677C623.815 71.265 622.116 71.7387 620.287 72.098C618.49 72.4573 616.677 72.637 614.848 72.637C611.516 72.637 608.478 72.0653 605.734 70.922C602.99 69.746 600.638 68.0473 598.678 65.826C596.718 63.6047 595.199 60.8933 594.121 57.692C593.076 54.458 592.553 50.7667 592.553 46.618C592.553 43.1227 593.043 39.905 594.023 36.965C595.036 33.9923 596.473 31.4443 598.335 29.321C600.23 27.165 602.533 25.4827 605.244 24.274C607.988 23.0653 611.091 22.461 614.554 22.461C617.298 22.461 619.846 22.9347 622.198 23.882C624.55 24.8293 626.592 26.2177 628.323 28.047C630.054 29.8437 631.41 32.065 632.39 34.711C633.403 37.357 633.909 40.395 633.909 43.825C633.909 44.5437 633.811 45.0337 633.615 45.295C633.419 45.5563 633.092 45.687 632.635 45.687H597.159ZM679.87 33.731C678.008 30.9217 675.933 28.9453 673.647 27.802C671.393 26.6587 668.812 26.087 665.905 26.087C663.03 26.087 660.515 26.6097 658.359 27.655C656.203 28.7003 654.39 30.1867 652.92 32.114C651.482 34.0087 650.388 36.2953 649.637 38.974C648.918 41.62 648.559 44.5437 648.559 47.745C648.559 54.997 649.882 60.338 652.528 63.768C655.206 67.1653 659.061 68.864 664.092 68.864C667.293 68.864 670.217 68.031 672.863 66.365C675.509 64.699 677.844 62.3633 679.87 59.358V33.731ZM684.525 0.704998V72H681.977C681.127 72 680.637 71.5753 680.507 70.726L680.017 63.033C677.861 65.973 675.345 68.3087 672.471 70.04C669.596 71.7713 666.362 72.637 662.769 72.637C656.758 72.637 652.087 70.5627 648.755 66.414C645.423 62.2653 643.757 56.0423 643.757 47.745C643.757 44.1843 644.214 40.8687 645.129 37.798C646.076 34.6947 647.448 32.016 649.245 29.762C651.041 27.4753 653.246 25.6787 655.86 24.372C658.506 23.0653 661.544 22.412 664.974 22.412C668.273 22.412 671.131 23.0163 673.549 24.225C675.966 25.4337 678.073 27.2303 679.87 29.615V0.704998H684.525ZM108.262 158.052C111.3 158.052 114.028 157.627 116.445 156.778C118.862 155.929 120.904 154.753 122.57 153.25C124.269 151.747 125.559 149.983 126.441 147.958C127.356 145.9 127.813 143.662 127.813 141.245C127.813 135.92 126.18 131.821 122.913 128.946C119.646 126.071 114.763 124.634 108.262 124.634H95.3749V158.052H108.262ZM108.262 120.665C116.396 120.665 122.521 122.445 126.637 126.006C130.786 129.567 132.86 134.646 132.86 141.245C132.86 144.283 132.288 147.076 131.145 149.624C130.002 152.172 128.368 154.377 126.245 156.239C124.122 158.068 121.541 159.506 118.503 160.551C115.465 161.564 112.051 162.07 108.262 162.07H95.3749V190H90.3279V120.665H108.262ZM170.445 166.431C165.807 166.594 161.805 166.97 158.44 167.558C155.108 168.113 152.348 168.881 150.159 169.861C148.003 170.841 146.403 172.017 145.357 173.389C144.312 174.728 143.789 176.264 143.789 177.995C143.789 179.628 144.051 181.049 144.573 182.258C145.129 183.434 145.847 184.414 146.729 185.198C147.644 185.949 148.689 186.505 149.865 186.864C151.041 187.223 152.266 187.403 153.54 187.403C155.435 187.403 157.166 187.207 158.734 186.815C160.335 186.39 161.805 185.819 163.144 185.1C164.516 184.349 165.79 183.467 166.966 182.454C168.142 181.441 169.302 180.347 170.445 179.171V166.431ZM141.78 148.154C144.328 145.606 147.007 143.679 149.816 142.372C152.626 141.065 155.811 140.412 159.371 140.412C161.985 140.412 164.271 140.837 166.231 141.686C168.191 142.503 169.808 143.695 171.082 145.263C172.389 146.798 173.369 148.677 174.022 150.898C174.676 153.087 175.002 155.537 175.002 158.248V190H173.14C172.16 190 171.556 189.543 171.327 188.628L170.641 182.356C169.302 183.663 167.963 184.839 166.623 185.884C165.317 186.929 163.945 187.811 162.507 188.53C161.07 189.249 159.518 189.804 157.852 190.196C156.186 190.588 154.357 190.784 152.364 190.784C150.698 190.784 149.081 190.539 147.513 190.049C145.945 189.559 144.541 188.808 143.299 187.795C142.091 186.782 141.111 185.492 140.359 183.924C139.641 182.323 139.281 180.412 139.281 178.191C139.281 176.133 139.869 174.222 141.045 172.458C142.221 170.694 144.067 169.159 146.582 167.852C149.098 166.545 152.315 165.5 156.235 164.716C160.188 163.932 164.925 163.475 170.445 163.344V158.248C170.445 153.74 169.465 150.277 167.505 147.86C165.578 145.41 162.703 144.185 158.881 144.185C156.529 144.185 154.52 144.512 152.854 145.165C151.221 145.818 149.833 146.537 148.689 147.321C147.546 148.105 146.615 148.824 145.896 149.477C145.178 150.13 144.573 150.457 144.083 150.457C143.724 150.457 143.43 150.375 143.201 150.212C142.973 150.049 142.777 149.836 142.613 149.575L141.78 148.154ZM195.08 153.005C195.831 151.012 196.681 149.248 197.628 147.713C198.608 146.145 199.719 144.822 200.96 143.744C202.234 142.666 203.639 141.849 205.174 141.294C206.742 140.706 208.473 140.412 210.368 140.412C211.381 140.412 212.377 140.51 213.357 140.706C214.337 140.869 215.203 141.18 215.954 141.637L215.562 144.871C215.399 145.394 215.088 145.655 214.631 145.655C214.239 145.655 213.635 145.541 212.818 145.312C212.034 145.083 210.989 144.969 209.682 144.969C207.787 144.969 206.105 145.263 204.635 145.851C203.198 146.406 201.891 147.256 200.715 148.399C199.572 149.542 198.559 150.963 197.677 152.662C196.828 154.328 196.044 156.255 195.325 158.444V190H190.621V141.245H193.12C193.675 141.245 194.067 141.359 194.296 141.588C194.525 141.817 194.672 142.209 194.737 142.764L195.08 153.005ZM238.593 190.784C235.294 190.784 232.713 189.869 230.851 188.04C229.022 186.211 228.107 183.385 228.107 179.563V146.243H221.1C220.741 146.243 220.447 146.145 220.218 145.949C219.99 145.753 219.875 145.475 219.875 145.116V143.303L228.205 142.715L229.381 125.271C229.447 124.977 229.577 124.716 229.773 124.487C229.969 124.258 230.247 124.144 230.606 124.144H232.811V142.764H248.197V146.243H232.811V179.318C232.811 180.657 232.975 181.817 233.301 182.797C233.661 183.744 234.134 184.528 234.722 185.149C235.343 185.77 236.062 186.227 236.878 186.521C237.695 186.815 238.577 186.962 239.524 186.962C240.7 186.962 241.713 186.799 242.562 186.472C243.412 186.113 244.147 185.737 244.767 185.345C245.388 184.92 245.894 184.545 246.286 184.218C246.678 183.859 246.989 183.679 247.217 183.679C247.479 183.679 247.74 183.842 248.001 184.169L249.275 186.227C248.034 187.599 246.45 188.71 244.522 189.559C242.628 190.376 240.651 190.784 238.593 190.784ZM263.316 149.771C265.57 146.962 268.167 144.708 271.107 143.009C274.08 141.31 277.379 140.461 281.005 140.461C283.684 140.461 286.036 140.886 288.061 141.735C290.119 142.584 291.818 143.809 293.157 145.41C294.497 147.011 295.509 148.938 296.195 151.192C296.881 153.446 297.224 155.994 297.224 158.836V190H292.52V158.836C292.52 154.263 291.475 150.686 289.384 148.105C287.294 145.492 284.109 144.185 279.829 144.185C276.661 144.185 273.688 145.002 270.911 146.635C268.167 148.236 265.717 150.473 263.561 153.348V190H258.857V141.245H261.454C262.271 141.245 262.745 141.653 262.875 142.47L263.316 149.771ZM346.94 160.698C346.94 158.085 346.564 155.749 345.813 153.691C345.094 151.6 344.065 149.836 342.726 148.399C341.387 146.962 339.786 145.867 337.924 145.116C336.095 144.332 334.069 143.94 331.848 143.94C329.333 143.94 327.079 144.332 325.086 145.116C323.093 145.9 321.362 147.027 319.892 148.497C318.455 149.967 317.295 151.731 316.413 153.789C315.531 155.847 314.943 158.15 314.649 160.698H346.94ZM314.404 163.687V164.618C314.404 168.277 314.829 171.494 315.678 174.271C316.527 177.048 317.736 179.383 319.304 181.278C320.872 183.14 322.767 184.545 324.988 185.492C327.209 186.439 329.692 186.913 332.436 186.913C334.886 186.913 337.009 186.652 338.806 186.129C340.603 185.574 342.105 184.969 343.314 184.316C344.555 183.63 345.535 183.026 346.254 182.503C346.973 181.948 347.495 181.67 347.822 181.67C348.247 181.67 348.573 181.833 348.802 182.16L350.076 183.728C349.292 184.708 348.247 185.623 346.94 186.472C345.666 187.321 344.229 188.056 342.628 188.677C341.06 189.265 339.361 189.739 337.532 190.098C335.735 190.457 333.922 190.637 332.093 190.637C328.761 190.637 325.723 190.065 322.979 188.922C320.235 187.746 317.883 186.047 315.923 183.826C313.963 181.605 312.444 178.893 311.366 175.692C310.321 172.458 309.798 168.767 309.798 164.618C309.798 161.123 310.288 157.905 311.268 154.965C312.281 151.992 313.718 149.444 315.58 147.321C317.475 145.165 319.778 143.483 322.489 142.274C325.233 141.065 328.336 140.461 331.799 140.461C334.543 140.461 337.091 140.935 339.443 141.882C341.795 142.829 343.837 144.218 345.568 146.047C347.299 147.844 348.655 150.065 349.635 152.711C350.648 155.357 351.154 158.395 351.154 161.825C351.154 162.544 351.056 163.034 350.86 163.295C350.664 163.556 350.337 163.687 349.88 163.687H314.404ZM368.303 153.005C369.054 151.012 369.903 149.248 370.851 147.713C371.831 146.145 372.941 144.822 374.183 143.744C375.457 142.666 376.861 141.849 378.397 141.294C379.965 140.706 381.696 140.412 383.591 140.412C384.603 140.412 385.6 140.51 386.58 140.706C387.56 140.869 388.425 141.18 389.177 141.637L388.785 144.871C388.621 145.394 388.311 145.655 387.854 145.655C387.462 145.655 386.857 145.541 386.041 145.312C385.257 145.083 384.211 144.969 382.905 144.969C381.01 144.969 379.328 145.263 377.858 145.851C376.42 146.406 375.114 147.256 373.938 148.399C372.794 149.542 371.782 150.963 370.9 152.662C370.05 154.328 369.266 156.255 368.548 158.444V190H363.844V141.245H366.343C366.898 141.245 367.29 141.359 367.519 141.588C367.747 141.817 367.894 142.209 367.96 142.764L368.303 153.005ZM424.717 147.272C424.456 147.729 424.08 147.958 423.59 147.958C423.231 147.958 422.773 147.762 422.218 147.37C421.663 146.945 420.911 146.488 419.964 145.998C419.049 145.475 417.906 145.018 416.534 144.626C415.162 144.201 413.496 143.989 411.536 143.989C409.772 143.989 408.155 144.25 406.685 144.773C405.248 145.263 404.006 145.933 402.961 146.782C401.948 147.631 401.164 148.628 400.609 149.771C400.054 150.882 399.776 152.058 399.776 153.299C399.776 154.834 400.168 156.108 400.952 157.121C401.736 158.134 402.749 158.999 403.99 159.718C405.264 160.437 406.718 161.057 408.351 161.58C409.984 162.103 411.634 162.625 413.3 163.148C414.999 163.671 416.665 164.259 418.298 164.912C419.931 165.533 421.369 166.317 422.61 167.264C423.884 168.211 424.913 169.371 425.697 170.743C426.481 172.115 426.873 173.781 426.873 175.741C426.873 177.864 426.497 179.841 425.746 181.67C424.995 183.499 423.884 185.084 422.414 186.423C420.977 187.762 419.196 188.824 417.073 189.608C414.95 190.392 412.516 190.784 409.772 190.784C406.342 190.784 403.386 190.245 400.903 189.167C398.42 188.056 396.199 186.619 394.239 184.855L395.317 183.189C395.48 182.928 395.66 182.732 395.856 182.601C396.085 182.47 396.379 182.405 396.738 182.405C397.163 182.405 397.669 182.666 398.257 183.189C398.878 183.712 399.694 184.283 400.707 184.904C401.72 185.492 402.961 186.047 404.431 186.57C405.934 187.093 407.779 187.354 409.968 187.354C412.026 187.354 413.839 187.076 415.407 186.521C416.975 185.933 418.282 185.149 419.327 184.169C420.372 183.189 421.156 182.046 421.679 180.739C422.234 179.4 422.512 177.995 422.512 176.525C422.512 174.892 422.12 173.536 421.336 172.458C420.552 171.38 419.523 170.465 418.249 169.714C416.975 168.963 415.521 168.326 413.888 167.803C412.287 167.28 410.638 166.758 408.939 166.235C407.24 165.712 405.574 165.141 403.941 164.52C402.34 163.899 400.903 163.115 399.629 162.168C398.355 161.221 397.326 160.077 396.542 158.738C395.758 157.366 395.366 155.667 395.366 153.642C395.366 151.911 395.742 150.245 396.493 148.644C397.244 147.043 398.306 145.639 399.678 144.43C401.083 143.221 402.781 142.258 404.774 141.539C406.767 140.82 409.004 140.461 411.487 140.461C414.46 140.461 417.089 140.886 419.376 141.735C421.695 142.584 423.802 143.891 425.697 145.655L424.717 147.272ZM444.249 149.477C446.503 146.733 449.067 144.544 451.942 142.911C454.849 141.278 458.099 140.461 461.693 140.461C464.371 140.461 466.723 140.886 468.749 141.735C470.807 142.584 472.505 143.809 473.845 145.41C475.184 147.011 476.197 148.938 476.883 151.192C477.569 153.446 477.912 155.994 477.912 158.836V190H473.208V158.836C473.208 154.263 472.162 150.686 470.072 148.105C467.981 145.492 464.796 144.185 460.517 144.185C457.348 144.185 454.375 145.002 451.599 146.635C448.855 148.236 446.405 150.473 444.249 153.348V190H439.545V118.705H444.249V149.477ZM498.62 141.245V190H493.965V141.245H498.62ZM500.629 124.438C500.629 125.026 500.498 125.581 500.237 126.104C500.008 126.594 499.698 127.035 499.306 127.427C498.914 127.819 498.456 128.129 497.934 128.358C497.411 128.587 496.856 128.701 496.268 128.701C495.68 128.701 495.124 128.587 494.602 128.358C494.079 128.129 493.622 127.819 493.23 127.427C492.838 127.035 492.527 126.594 492.299 126.104C492.07 125.581 491.956 125.026 491.956 124.438C491.956 123.85 492.07 123.295 492.299 122.772C492.527 122.217 492.838 121.743 493.23 121.351C493.622 120.959 494.079 120.649 494.602 120.42C495.124 120.191 495.68 120.077 496.268 120.077C496.856 120.077 497.411 120.191 497.934 120.42C498.456 120.649 498.914 120.959 499.306 121.351C499.698 121.743 500.008 122.217 500.237 122.772C500.498 123.295 500.629 123.85 500.629 124.438ZM519.95 179.367C520.897 180.772 521.877 181.964 522.89 182.944C523.935 183.891 525.03 184.675 526.173 185.296C527.316 185.884 528.525 186.309 529.799 186.57C531.106 186.831 532.478 186.962 533.915 186.962C536.79 186.962 539.305 186.439 541.461 185.394C543.617 184.349 545.414 182.879 546.851 180.984C548.321 179.057 549.415 176.77 550.134 174.124C550.885 171.445 551.261 168.505 551.261 165.304C551.261 158.052 549.922 152.727 547.243 149.33C544.564 145.9 540.726 144.185 535.728 144.185C532.494 144.185 529.57 145.018 526.957 146.684C524.344 148.35 522.008 150.669 519.95 153.642V179.367ZM519.754 150.016C521.91 147.076 524.425 144.74 527.3 143.009C530.207 141.278 533.458 140.412 537.051 140.412C543.029 140.412 547.684 142.486 551.016 146.635C554.381 150.784 556.063 157.007 556.063 165.304C556.063 168.865 555.589 172.197 554.642 175.3C553.727 178.371 552.355 181.049 550.526 183.336C548.729 185.59 546.508 187.37 543.862 188.677C541.249 189.984 538.227 190.637 534.797 190.637C531.498 190.637 528.639 190.033 526.222 188.824C523.805 187.615 521.714 185.835 519.95 183.483V207.248H515.246V141.245H517.843C518.66 141.245 519.133 141.653 519.264 142.47L519.754 150.016ZM596.121 147.272C595.86 147.729 595.484 147.958 594.994 147.958C594.635 147.958 594.178 147.762 593.622 147.37C593.067 146.945 592.316 146.488 591.368 145.998C590.454 145.475 589.31 145.018 587.938 144.626C586.566 144.201 584.9 143.989 582.94 143.989C581.176 143.989 579.559 144.25 578.089 144.773C576.652 145.263 575.411 145.933 574.365 146.782C573.353 147.631 572.569 148.628 572.013 149.771C571.458 150.882 571.18 152.058 571.18 153.299C571.18 154.834 571.572 156.108 572.356 157.121C573.14 158.134 574.153 158.999 575.394 159.718C576.668 160.437 578.122 161.057 579.755 161.58C581.389 162.103 583.038 162.625 584.704 163.148C586.403 163.671 588.069 164.259 589.702 164.912C591.336 165.533 592.773 166.317 594.014 167.264C595.288 168.211 596.317 169.371 597.101 170.743C597.885 172.115 598.277 173.781 598.277 175.741C598.277 177.864 597.902 179.841 597.15 181.67C596.399 183.499 595.288 185.084 593.818 186.423C592.381 187.762 590.601 188.824 588.477 189.608C586.354 190.392 583.92 190.784 581.176 190.784C577.746 190.784 574.79 190.245 572.307 189.167C569.825 188.056 567.603 186.619 565.643 184.855L566.721 183.189C566.885 182.928 567.064 182.732 567.26 182.601C567.489 182.47 567.783 182.405 568.142 182.405C568.567 182.405 569.073 182.666 569.661 183.189C570.282 183.712 571.099 184.283 572.111 184.904C573.124 185.492 574.365 186.047 575.835 186.57C577.338 187.093 579.184 187.354 581.372 187.354C583.43 187.354 585.243 187.076 586.811 186.521C588.379 185.933 589.686 185.149 590.731 184.169C591.777 183.189 592.561 182.046 593.083 180.739C593.639 179.4 593.916 177.995 593.916 176.525C593.916 174.892 593.524 173.536 592.74 172.458C591.956 171.38 590.927 170.465 589.653 169.714C588.379 168.963 586.926 168.326 585.292 167.803C583.692 167.28 582.042 166.758 580.343 166.235C578.645 165.712 576.979 165.141 575.345 164.52C573.745 163.899 572.307 163.115 571.033 162.168C569.759 161.221 568.73 160.077 567.946 158.738C567.162 157.366 566.77 155.667 566.77 153.642C566.77 151.911 567.146 150.245 567.897 148.644C568.649 147.043 569.71 145.639 571.082 144.43C572.487 143.221 574.186 142.258 576.178 141.539C578.171 140.82 580.409 140.461 582.891 140.461C585.864 140.461 588.494 140.886 590.78 141.735C593.1 142.584 595.207 143.891 597.101 145.655L596.121 147.272Z" fill="white"/>
</svg>
