<svg width="447" height="52" viewBox="0 0 447 52" fill="none" xmlns="http://www.w3.org/2000/svg">
<path d="M13.125 28.18C15.295 28.18 17.2433 27.8767 18.97 27.27C20.6967 26.6633 22.155 25.8233 23.345 24.75C24.5583 23.6767 25.48 22.4167 26.11 20.97C26.7633 19.5 27.09 17.9017 27.09 16.175C27.09 12.3717 25.9233 9.44333 23.59 7.39C21.2567 5.33666 17.7683 4.31 13.125 4.31H3.92V28.18H13.125ZM13.125 1.475C18.935 1.475 23.31 2.74666 26.25 5.29C29.2133 7.83333 30.695 11.4617 30.695 16.175C30.695 18.345 30.2867 20.34 29.47 22.16C28.6533 23.98 27.4867 25.555 25.97 26.885C24.4533 28.1917 22.61 29.2183 20.44 29.965C18.27 30.6883 15.8317 31.05 13.125 31.05H3.92V51H0.315V1.475H13.125ZM57.5416 34.165C54.2283 34.2817 51.37 34.55 48.9666 34.97C46.5866 35.3667 44.615 35.915 43.0516 36.615C41.5116 37.315 40.3683 38.155 39.6216 39.135C38.875 40.0917 38.5016 41.1883 38.5016 42.425C38.5016 43.5917 38.6883 44.6067 39.0616 45.47C39.4583 46.31 39.9716 47.01 40.6016 47.57C41.255 48.1067 42.0016 48.5033 42.8416 48.76C43.6816 49.0167 44.5566 49.145 45.4666 49.145C46.82 49.145 48.0566 49.005 49.1766 48.725C50.32 48.4217 51.37 48.0133 52.3266 47.5C53.3066 46.9633 54.2166 46.3333 55.0566 45.61C55.8966 44.8867 56.725 44.105 57.5416 43.265V34.165ZM37.0666 21.11C38.8866 19.29 40.8 17.9133 42.8066 16.98C44.8133 16.0467 47.0883 15.58 49.6316 15.58C51.4983 15.58 53.1316 15.8833 54.5316 16.49C55.9316 17.0733 57.0866 17.925 57.9966 19.045C58.93 20.1417 59.63 21.4833 60.0966 23.07C60.5633 24.6333 60.7966 26.3833 60.7966 28.32V51H59.4666C58.7666 51 58.335 50.6733 58.1716 50.02L57.6816 45.54C56.725 46.4733 55.7683 47.3133 54.8116 48.06C53.8783 48.8067 52.8983 49.4367 51.8716 49.95C50.845 50.4633 49.7366 50.86 48.5466 51.14C47.3566 51.42 46.05 51.56 44.6266 51.56C43.4366 51.56 42.2816 51.385 41.1616 51.035C40.0416 50.685 39.0383 50.1483 38.1516 49.425C37.2883 48.7017 36.5883 47.78 36.0516 46.66C35.5383 45.5167 35.2816 44.1517 35.2816 42.565C35.2816 41.095 35.7016 39.73 36.5416 38.47C37.3816 37.21 38.7 36.1133 40.4966 35.18C42.2933 34.2467 44.5916 33.5 47.3916 32.94C50.215 32.38 53.5983 32.0533 57.5416 31.96V28.32C57.5416 25.1 56.8416 22.6267 55.4416 20.9C54.065 19.15 52.0116 18.275 49.2816 18.275C47.6016 18.275 46.1666 18.5083 44.9766 18.975C43.81 19.4417 42.8183 19.955 42.0016 20.515C41.185 21.075 40.52 21.5883 40.0066 22.055C39.4933 22.5217 39.0616 22.755 38.7116 22.755C38.455 22.755 38.245 22.6967 38.0816 22.58C37.9183 22.4633 37.7783 22.3117 37.6616 22.125L37.0666 21.11ZM75.1379 24.575C75.6746 23.1517 76.2812 21.8917 76.9579 20.795C77.6579 19.675 78.4512 18.73 79.3379 17.96C80.2479 17.19 81.2512 16.6067 82.3479 16.21C83.4679 15.79 84.7046 15.58 86.0579 15.58C86.7812 15.58 87.4929 15.65 88.1929 15.79C88.8929 15.9067 89.5112 16.1283 90.0479 16.455L89.7679 18.765C89.6512 19.1383 89.4296 19.325 89.1029 19.325C88.8229 19.325 88.3912 19.2433 87.8079 19.08C87.2479 18.9167 86.5012 18.835 85.5679 18.835C84.2146 18.835 83.0129 19.045 81.9629 19.465C80.9362 19.8617 80.0029 20.4683 79.1629 21.285C78.3462 22.1017 77.6229 23.1167 76.9929 24.33C76.3862 25.52 75.8262 26.8967 75.3129 28.46V51H71.9529V16.175H73.7379C74.1346 16.175 74.4146 16.2567 74.5779 16.42C74.7412 16.5833 74.8462 16.8633 74.8929 17.26L75.1379 24.575ZM106.219 51.56C103.862 51.56 102.019 50.9067 100.689 49.6C99.3823 48.2933 98.729 46.275 98.729 43.545V19.745H93.724C93.4673 19.745 93.2573 19.675 93.094 19.535C92.9307 19.395 92.849 19.1967 92.849 18.94V17.645L98.799 17.225L99.639 4.765C99.6857 4.555 99.779 4.36833 99.919 4.205C100.059 4.04166 100.257 3.96 100.514 3.96H102.089V17.26H113.079V19.745H102.089V43.37C102.089 44.3267 102.206 45.155 102.439 45.855C102.696 46.5317 103.034 47.0917 103.454 47.535C103.897 47.9783 104.411 48.305 104.994 48.515C105.577 48.725 106.207 48.83 106.884 48.83C107.724 48.83 108.447 48.7133 109.054 48.48C109.661 48.2233 110.186 47.955 110.629 47.675C111.072 47.3717 111.434 47.1033 111.714 46.87C111.994 46.6133 112.216 46.485 112.379 46.485C112.566 46.485 112.752 46.6017 112.939 46.835L113.849 48.305C112.962 49.285 111.831 50.0783 110.454 50.685C109.101 51.2683 107.689 51.56 106.219 51.56ZM123.878 22.265C125.488 20.2583 127.343 18.6483 129.443 17.435C131.566 16.2217 133.923 15.615 136.513 15.615C138.426 15.615 140.106 15.9183 141.553 16.525C143.023 17.1317 144.236 18.0067 145.193 19.15C146.15 20.2933 146.873 21.67 147.363 23.28C147.853 24.89 148.098 26.71 148.098 28.74V51H144.738V28.74C144.738 25.4733 143.991 22.9183 142.498 21.075C141.005 19.2083 138.73 18.275 135.673 18.275C133.41 18.275 131.286 18.8583 129.303 20.025C127.343 21.1683 125.593 22.7667 124.053 24.82V51H120.693V16.175H122.548C123.131 16.175 123.47 16.4667 123.563 17.05L123.878 22.265ZM183.609 30.07C183.609 28.2033 183.341 26.535 182.804 25.065C182.291 23.5717 181.556 22.3117 180.599 21.285C179.643 20.2583 178.499 19.4767 177.169 18.94C175.863 18.38 174.416 18.1 172.829 18.1C171.033 18.1 169.423 18.38 167.999 18.94C166.576 19.5 165.339 20.305 164.289 21.355C163.263 22.405 162.434 23.665 161.804 25.135C161.174 26.605 160.754 28.25 160.544 30.07H183.609ZM160.369 32.205V32.87C160.369 35.4833 160.673 37.7817 161.279 39.765C161.886 41.7483 162.749 43.4167 163.869 44.77C164.989 46.1 166.343 47.1033 167.929 47.78C169.516 48.4567 171.289 48.795 173.249 48.795C174.999 48.795 176.516 48.6083 177.799 48.235C179.083 47.8383 180.156 47.4067 181.019 46.94C181.906 46.45 182.606 46.0183 183.119 45.645C183.633 45.2483 184.006 45.05 184.239 45.05C184.543 45.05 184.776 45.1667 184.939 45.4L185.849 46.52C185.289 47.22 184.543 47.8733 183.609 48.48C182.699 49.0867 181.673 49.6117 180.529 50.055C179.409 50.475 178.196 50.8133 176.889 51.07C175.606 51.3267 174.311 51.455 173.004 51.455C170.624 51.455 168.454 51.0467 166.494 50.23C164.534 49.39 162.854 48.1767 161.454 46.59C160.054 45.0033 158.969 43.0667 158.199 40.78C157.453 38.47 157.079 35.8333 157.079 32.87C157.079 30.3733 157.429 28.075 158.129 25.975C158.853 23.8517 159.879 22.0317 161.209 20.515C162.563 18.975 164.208 17.7733 166.144 16.91C168.104 16.0467 170.321 15.615 172.794 15.615C174.754 15.615 176.574 15.9533 178.254 16.63C179.934 17.3067 181.393 18.2983 182.629 19.605C183.866 20.8883 184.834 22.475 185.534 24.365C186.258 26.255 186.619 28.425 186.619 30.875C186.619 31.3883 186.549 31.7383 186.409 31.925C186.269 32.1117 186.036 32.205 185.709 32.205H160.369ZM198.868 24.575C199.405 23.1517 200.012 21.8917 200.688 20.795C201.388 19.675 202.182 18.73 203.068 17.96C203.978 17.19 204.982 16.6067 206.078 16.21C207.198 15.79 208.435 15.58 209.788 15.58C210.512 15.58 211.223 15.65 211.923 15.79C212.623 15.9067 213.242 16.1283 213.778 16.455L213.498 18.765C213.382 19.1383 213.16 19.325 212.833 19.325C212.553 19.325 212.122 19.2433 211.538 19.08C210.978 18.9167 210.232 18.835 209.298 18.835C207.945 18.835 206.743 19.045 205.693 19.465C204.667 19.8617 203.733 20.4683 202.893 21.285C202.077 22.1017 201.353 23.1167 200.723 24.33C200.117 25.52 199.557 26.8967 199.043 28.46V51H195.683V16.175H197.468C197.865 16.175 198.145 16.2567 198.308 16.42C198.472 16.5833 198.577 16.8633 198.623 17.26L198.868 24.575ZM282.451 16.175L270.831 51H268.346C267.949 51 267.681 50.755 267.541 50.265L258.021 21.985C257.904 21.635 257.799 21.285 257.706 20.935C257.612 20.585 257.531 20.235 257.461 19.885C257.344 20.585 257.169 21.285 256.936 21.985L247.276 50.265C247.136 50.755 246.856 51 246.436 51H244.056L232.436 16.175H234.956C235.282 16.175 235.551 16.2683 235.761 16.455C235.971 16.6183 236.111 16.805 236.181 17.015L244.966 44.49C245.106 45.0267 245.234 45.5517 245.351 46.065C245.467 46.555 245.561 47.045 245.631 47.535C245.771 47.045 245.911 46.555 246.051 46.065C246.191 45.5517 246.354 45.0267 246.541 44.49L255.851 16.77C256.014 16.2567 256.341 16 256.831 16H258.196C258.709 16 259.047 16.2567 259.211 16.77L268.451 44.49C268.614 45.0267 268.766 45.54 268.906 46.03C269.046 46.52 269.174 47.01 269.291 47.5C269.384 47.01 269.477 46.52 269.571 46.03C269.687 45.54 269.827 45.0267 269.991 44.49L278.846 17.015C278.939 16.7583 279.091 16.56 279.301 16.42C279.511 16.2567 279.756 16.175 280.036 16.175H282.451ZM293.661 16.175V51H290.336V16.175H293.661ZM295.096 4.17C295.096 4.59 295.003 4.98667 294.816 5.36C294.653 5.71 294.431 6.025 294.151 6.305C293.871 6.585 293.544 6.80666 293.171 6.97C292.798 7.13333 292.401 7.215 291.981 7.215C291.561 7.215 291.164 7.13333 290.791 6.97C290.418 6.80666 290.091 6.585 289.811 6.305C289.531 6.025 289.309 5.71 289.146 5.36C288.983 4.98667 288.901 4.59 288.901 4.17C288.901 3.75 288.983 3.35333 289.146 2.98C289.309 2.58333 289.531 2.245 289.811 1.965C290.091 1.685 290.418 1.46333 290.791 1.3C291.164 1.13666 291.561 1.055 291.981 1.055C292.401 1.055 292.798 1.13666 293.171 1.3C293.544 1.46333 293.871 1.685 294.151 1.965C294.431 2.245 294.653 2.58333 294.816 2.98C295.003 3.35333 295.096 3.75 295.096 4.17ZM315.057 51.56C312.7 51.56 310.857 50.9067 309.527 49.6C308.22 48.2933 307.567 46.275 307.567 43.545V19.745H302.562C302.305 19.745 302.095 19.675 301.932 19.535C301.769 19.395 301.687 19.1967 301.687 18.94V17.645L307.637 17.225L308.477 4.765C308.524 4.555 308.617 4.36833 308.757 4.205C308.897 4.04166 309.095 3.96 309.352 3.96H310.927V17.26H321.917V19.745H310.927V43.37C310.927 44.3267 311.044 45.155 311.277 45.855C311.534 46.5317 311.872 47.0917 312.292 47.535C312.735 47.9783 313.249 48.305 313.832 48.515C314.415 48.725 315.045 48.83 315.722 48.83C316.562 48.83 317.285 48.7133 317.892 48.48C318.499 48.2233 319.024 47.955 319.467 47.675C319.91 47.3717 320.272 47.1033 320.552 46.87C320.832 46.6133 321.054 46.485 321.217 46.485C321.404 46.485 321.59 46.6017 321.777 46.835L322.687 48.305C321.8 49.285 320.669 50.0783 319.292 50.685C317.939 51.2683 316.527 51.56 315.057 51.56ZM332.891 22.055C334.501 20.095 336.333 18.5317 338.386 17.365C340.463 16.1983 342.784 15.615 345.351 15.615C347.264 15.615 348.944 15.9183 350.391 16.525C351.861 17.1317 353.074 18.0067 354.031 19.15C354.988 20.2933 355.711 21.67 356.201 23.28C356.691 24.89 356.936 26.71 356.936 28.74V51H353.576V28.74C353.576 25.4733 352.829 22.9183 351.336 21.075C349.843 19.2083 347.568 18.275 344.511 18.275C342.248 18.275 340.124 18.8583 338.141 20.025C336.181 21.1683 334.431 22.7667 332.891 24.82V51H329.531V0.0749985H332.891V22.055ZM414.041 16.175V51H412.186C411.603 51 411.265 50.6967 411.171 50.09L410.856 44.91C409.246 46.9167 407.38 48.5267 405.256 49.74C403.156 50.9533 400.811 51.56 398.221 51.56C396.285 51.56 394.593 51.2567 393.146 50.65C391.7 50.0433 390.498 49.1683 389.541 48.025C388.585 46.8817 387.861 45.505 387.371 43.895C386.881 42.285 386.636 40.465 386.636 38.435V16.175H389.996V38.435C389.996 41.7017 390.743 44.2683 392.236 46.135C393.73 47.9783 396.005 48.9 399.061 48.9C401.325 48.9 403.436 48.3283 405.396 47.185C407.38 46.0183 409.141 44.4083 410.681 42.355V16.175H414.041ZM444.653 20.48C444.466 20.8067 444.198 20.97 443.848 20.97C443.591 20.97 443.264 20.83 442.868 20.55C442.471 20.2467 441.934 19.92 441.258 19.57C440.604 19.1967 439.788 18.87 438.808 18.59C437.828 18.2867 436.638 18.135 435.238 18.135C433.978 18.135 432.823 18.3217 431.773 18.695C430.746 19.045 429.859 19.5233 429.113 20.13C428.389 20.7367 427.829 21.4483 427.433 22.265C427.036 23.0583 426.838 23.8983 426.838 24.785C426.838 25.8817 427.118 26.7917 427.678 27.515C428.238 28.2383 428.961 28.8567 429.848 29.37C430.758 29.8833 431.796 30.3267 432.963 30.7C434.129 31.0733 435.308 31.4467 436.498 31.82C437.711 32.1933 438.901 32.6133 440.068 33.08C441.234 33.5233 442.261 34.0833 443.148 34.76C444.058 35.4367 444.793 36.265 445.353 37.245C445.913 38.225 446.193 39.415 446.193 40.815C446.193 42.3317 445.924 43.7433 445.388 45.05C444.851 46.3567 444.058 47.4883 443.008 48.445C441.981 49.4017 440.709 50.16 439.193 50.72C437.676 51.28 435.938 51.56 433.978 51.56C431.528 51.56 429.416 51.175 427.643 50.405C425.869 49.6117 424.283 48.585 422.883 47.325L423.653 46.135C423.769 45.9483 423.898 45.8083 424.038 45.715C424.201 45.6217 424.411 45.575 424.668 45.575C424.971 45.575 425.333 45.7617 425.753 46.135C426.196 46.5083 426.779 46.9167 427.503 47.36C428.226 47.78 429.113 48.1767 430.163 48.55C431.236 48.9233 432.554 49.11 434.118 49.11C435.588 49.11 436.883 48.9117 438.003 48.515C439.123 48.095 440.056 47.535 440.803 46.835C441.549 46.135 442.109 45.3183 442.483 44.385C442.879 43.4283 443.078 42.425 443.078 41.375C443.078 40.2083 442.798 39.24 442.238 38.47C441.678 37.7 440.943 37.0467 440.033 36.51C439.123 35.9733 438.084 35.5183 436.918 35.145C435.774 34.7717 434.596 34.3983 433.383 34.025C432.169 33.6517 430.979 33.2433 429.813 32.8C428.669 32.3567 427.643 31.7967 426.733 31.12C425.823 30.4433 425.088 29.6267 424.528 28.67C423.968 27.69 423.688 26.4767 423.688 25.03C423.688 23.7933 423.956 22.6033 424.493 21.46C425.029 20.3167 425.788 19.3133 426.768 18.45C427.771 17.5867 428.984 16.8983 430.408 16.385C431.831 15.8717 433.429 15.615 435.203 15.615C437.326 15.615 439.204 15.9183 440.838 16.525C442.494 17.1317 443.999 18.065 445.353 19.325L444.653 20.48Z" fill="black"/>
</svg>
