<svg width="345" height="72" viewBox="0 0 345 72" fill="none" xmlns="http://www.w3.org/2000/svg">
<path d="M0 65H149.353V72H0V65Z" fill="url(#paint0_linear)"/>
<path d="M16.665 35.025C18.1867 35.025 19.525 34.8233 20.68 34.42C21.8533 34.0167 22.8342 33.4575 23.6225 32.7425C24.4292 32.0092 25.0342 31.1383 25.4375 30.13C25.8408 29.1217 26.0425 28.0125 26.0425 26.8025C26.0425 24.2908 25.2633 22.3292 23.705 20.9175C22.165 19.5058 19.8183 18.8 16.665 18.8H10.34V35.025H16.665ZM16.665 14.5925C19.1583 14.5925 21.3217 14.8858 23.155 15.4725C25.0067 16.0408 26.5375 16.8567 27.7475 17.92C28.9575 18.9833 29.8558 20.2667 30.4425 21.77C31.0475 23.2733 31.35 24.9508 31.35 26.8025C31.35 28.6358 31.0292 30.3133 30.3875 31.835C29.7458 33.3567 28.8017 34.6675 27.555 35.7675C26.3267 36.8675 24.7958 37.7292 22.9625 38.3525C21.1475 38.9575 19.0483 39.26 16.665 39.26H10.34V54H5.0325V14.5925H16.665ZM56.6479 41.46C54.3929 41.5333 52.4679 41.7167 50.8729 42.01C49.2962 42.285 48.0037 42.6517 46.9954 43.11C46.0054 43.5683 45.2812 44.1092 44.8229 44.7325C44.3829 45.3558 44.1629 46.0525 44.1629 46.8225C44.1629 47.5558 44.282 48.1883 44.5204 48.72C44.7587 49.2517 45.0795 49.6917 45.4829 50.04C45.9045 50.37 46.3904 50.6175 46.9404 50.7825C47.5087 50.9292 48.1137 51.0025 48.7554 51.0025C49.617 51.0025 50.4054 50.92 51.1204 50.755C51.8354 50.5717 52.5045 50.315 53.1279 49.985C53.7695 49.655 54.3745 49.2608 54.9429 48.8025C55.5295 48.3442 56.0979 47.8217 56.6479 47.235V41.46ZM40.8354 30.075C42.3754 28.59 44.0345 27.4808 45.8129 26.7475C47.5912 26.0142 49.562 25.6475 51.7254 25.6475C53.2837 25.6475 54.6679 25.9042 55.8779 26.4175C57.0879 26.9308 58.1054 27.6458 58.9304 28.5625C59.7554 29.4792 60.3787 30.5883 60.8004 31.89C61.222 33.1917 61.4329 34.6217 61.4329 36.18V54H59.2604C58.7837 54 58.417 53.9267 58.1604 53.78C57.9037 53.615 57.702 53.3033 57.5554 52.845L57.0054 50.205C56.272 50.8833 55.557 51.4883 54.8604 52.02C54.1637 52.5333 53.4304 52.9733 52.6604 53.34C51.8904 53.6883 51.0654 53.9542 50.1854 54.1375C49.3237 54.3392 48.3612 54.44 47.2979 54.44C46.2162 54.44 45.1987 54.2933 44.2454 54C43.292 53.6883 42.4579 53.23 41.7429 52.625C41.0462 52.02 40.487 51.2592 40.0654 50.3425C39.662 49.4075 39.4604 48.3075 39.4604 47.0425C39.4604 45.9425 39.7629 44.8883 40.3679 43.88C40.9729 42.8533 41.9537 41.9458 43.3104 41.1575C44.667 40.3692 46.4362 39.7275 48.6179 39.2325C50.7995 38.7192 53.4762 38.4258 56.6479 38.3525V36.18C56.6479 34.0167 56.1804 32.385 55.2454 31.285C54.3104 30.1667 52.9445 29.6075 51.1479 29.6075C49.9379 29.6075 48.9204 29.7633 48.0954 30.075C47.2887 30.3683 46.5829 30.7075 45.9779 31.0925C45.3912 31.4592 44.8779 31.7983 44.4379 32.11C44.0162 32.4033 43.5945 32.55 43.1729 32.55C42.8429 32.55 42.5587 32.4675 42.3204 32.3025C42.082 32.1192 41.8804 31.8992 41.7154 31.6425L40.8354 30.075ZM79.0367 31.725C79.9167 29.8183 80.9984 28.3333 82.2817 27.27C83.5651 26.1883 85.1326 25.6475 86.9842 25.6475C87.5709 25.6475 88.1301 25.7117 88.6617 25.84C89.2117 25.9683 89.6976 26.17 90.1192 26.445L89.7617 30.1025C89.6517 30.5608 89.3767 30.79 88.9367 30.79C88.6801 30.79 88.3042 30.735 87.8092 30.625C87.3142 30.515 86.7551 30.46 86.1317 30.46C85.2517 30.46 84.4634 30.5883 83.7667 30.845C83.0884 31.1017 82.4742 31.4867 81.9242 32C81.3926 32.495 80.9067 33.1183 80.4667 33.87C80.0451 34.6033 79.6601 35.4467 79.3117 36.4V54H74.3892V26.1425H77.1942C77.7259 26.1425 78.0926 26.2433 78.2942 26.445C78.4959 26.6467 78.6334 26.995 78.7067 27.49L79.0367 31.725ZM108.476 54.44C106.276 54.44 104.58 53.8258 103.388 52.5975C102.215 51.3692 101.628 49.6 101.628 47.29V30.24H98.2734C97.9801 30.24 97.7326 30.1575 97.5309 29.9925C97.3292 29.8092 97.2284 29.5342 97.2284 29.1675V27.215L101.793 26.6375L102.921 18.03C102.976 17.755 103.095 17.535 103.278 17.37C103.48 17.1867 103.737 17.095 104.048 17.095H106.523V26.6925H114.581V30.24H106.523V46.96C106.523 48.1333 106.808 49.0042 107.376 49.5725C107.944 50.1408 108.678 50.425 109.576 50.425C110.089 50.425 110.529 50.3608 110.896 50.2325C111.281 50.0858 111.611 49.93 111.886 49.765C112.161 49.6 112.39 49.4533 112.573 49.325C112.775 49.1783 112.949 49.105 113.096 49.105C113.353 49.105 113.582 49.2608 113.783 49.5725L115.213 51.91C114.37 52.6983 113.353 53.3217 112.161 53.78C110.969 54.22 109.741 54.44 108.476 54.44ZM129.755 30.185C130.36 29.5067 131.002 28.8925 131.68 28.3425C132.359 27.7925 133.074 27.325 133.825 26.94C134.595 26.5367 135.402 26.2342 136.245 26.0325C137.107 25.8125 138.033 25.7025 139.023 25.7025C140.544 25.7025 141.883 25.9592 143.038 26.4725C144.211 26.9675 145.183 27.6825 145.953 28.6175C146.741 29.5342 147.337 30.6433 147.74 31.945C148.144 33.2467 148.345 34.6858 148.345 36.2625V54H143.423V36.2625C143.423 34.1542 142.937 32.5225 141.965 31.3675C141.012 30.1942 139.554 29.6075 137.593 29.6075C136.144 29.6075 134.788 29.9558 133.523 30.6525C132.276 31.3492 131.121 32.2933 130.058 33.485V54H125.135V26.1425H128.078C128.774 26.1425 129.205 26.4817 129.37 27.16L129.755 30.185ZM179.949 37.0325C179.949 35.8958 179.784 34.86 179.454 33.925C179.143 32.9717 178.675 32.1558 178.052 31.4775C177.447 30.7808 176.704 30.2492 175.824 29.8825C174.944 29.4975 173.945 29.305 172.827 29.305C170.48 29.305 168.619 29.9925 167.244 31.3675C165.888 32.7242 165.044 34.6125 164.714 37.0325H179.949ZM183.909 50.095C183.304 50.8283 182.58 51.47 181.737 52.02C180.893 52.5517 179.986 52.9917 179.014 53.34C178.061 53.6883 177.071 53.945 176.044 54.11C175.018 54.2933 174 54.385 172.992 54.385C171.067 54.385 169.288 54.0642 167.657 53.4225C166.043 52.7625 164.641 51.8092 163.449 50.5625C162.276 49.2975 161.359 47.7392 160.699 45.8875C160.039 44.0358 159.709 41.9092 159.709 39.5075C159.709 37.5642 160.003 35.7492 160.589 34.0625C161.194 32.3758 162.056 30.9183 163.174 29.69C164.293 28.4433 165.658 27.4717 167.272 26.775C168.885 26.06 170.7 25.7025 172.717 25.7025C174.385 25.7025 175.925 25.9867 177.337 26.555C178.767 27.105 179.995 27.9117 181.022 28.975C182.067 30.02 182.883 31.3217 183.469 32.88C184.056 34.42 184.349 36.18 184.349 38.16C184.349 38.93 184.267 39.4433 184.102 39.7C183.937 39.9567 183.625 40.085 183.167 40.085H164.549C164.604 41.845 164.843 43.3758 165.264 44.6775C165.704 45.9792 166.309 47.07 167.079 47.95C167.849 48.8117 168.766 49.4625 169.829 49.9025C170.893 50.3242 172.084 50.535 173.404 50.535C174.633 50.535 175.687 50.3975 176.567 50.1225C177.465 49.8292 178.235 49.5175 178.877 49.1875C179.518 48.8575 180.05 48.555 180.472 48.28C180.912 47.9867 181.288 47.84 181.599 47.84C182.003 47.84 182.314 47.9958 182.534 48.3075L183.909 50.095ZM200.509 31.725C201.389 29.8183 202.471 28.3333 203.754 27.27C205.038 26.1883 206.605 25.6475 208.457 25.6475C209.044 25.6475 209.603 25.7117 210.134 25.84C210.684 25.9683 211.17 26.17 211.592 26.445L211.234 30.1025C211.124 30.5608 210.849 30.79 210.409 30.79C210.153 30.79 209.777 30.735 209.282 30.625C208.787 30.515 208.228 30.46 207.604 30.46C206.724 30.46 205.936 30.5883 205.239 30.845C204.561 31.1017 203.947 31.4867 203.397 32C202.865 32.495 202.379 33.1183 201.939 33.87C201.518 34.6033 201.133 35.4467 200.784 36.4V54H195.862V26.1425H198.667C199.199 26.1425 199.565 26.2433 199.767 26.445C199.969 26.6467 200.106 26.995 200.179 27.49L200.509 31.725ZM226.566 26.1425V54H221.671V26.1425H226.566ZM227.611 17.3975C227.611 17.8742 227.51 18.3233 227.309 18.745C227.125 19.1483 226.869 19.515 226.539 19.845C226.227 20.1567 225.851 20.4042 225.411 20.5875C224.989 20.7708 224.54 20.8625 224.064 20.8625C223.587 20.8625 223.138 20.7708 222.716 20.5875C222.313 20.4042 221.955 20.1567 221.644 19.845C221.332 19.515 221.084 19.1483 220.901 18.745C220.718 18.3233 220.626 17.8742 220.626 17.3975C220.626 16.9208 220.718 16.4717 220.901 16.05C221.084 15.61 221.332 15.2342 221.644 14.9225C221.955 14.5925 222.313 14.3358 222.716 14.1525C223.138 13.9692 223.587 13.8775 224.064 13.8775C224.54 13.8775 224.989 13.9692 225.411 14.1525C225.851 14.3358 226.227 14.5925 226.539 14.9225C226.869 15.2342 227.125 15.61 227.309 16.05C227.51 16.4717 227.611 16.9208 227.611 17.3975ZM244.729 30.185C245.334 29.5067 245.976 28.8925 246.654 28.3425C247.332 27.7925 248.047 27.325 248.799 26.94C249.569 26.5367 250.376 26.2342 251.219 26.0325C252.081 25.8125 253.006 25.7025 253.996 25.7025C255.518 25.7025 256.856 25.9592 258.011 26.4725C259.185 26.9675 260.156 27.6825 260.926 28.6175C261.715 29.5342 262.311 30.6433 262.714 31.945C263.117 33.2467 263.319 34.6858 263.319 36.2625V54H258.396V36.2625C258.396 34.1542 257.911 32.5225 256.939 31.3675C255.986 30.1942 254.528 29.6075 252.566 29.6075C251.118 29.6075 249.761 29.9558 248.496 30.6525C247.25 31.3492 246.095 32.2933 245.031 33.485V54H240.109V26.1425H243.051C243.748 26.1425 244.179 26.4817 244.344 27.16L244.729 30.185ZM285.985 40.3875C286.975 40.3875 287.846 40.25 288.598 39.975C289.35 39.7 289.982 39.315 290.495 38.82C291.009 38.325 291.394 37.7383 291.65 37.06C291.907 36.3633 292.035 35.6025 292.035 34.7775C292.035 33.0725 291.513 31.7158 290.468 30.7075C289.441 29.6992 287.947 29.195 285.985 29.195C284.005 29.195 282.493 29.6992 281.448 30.7075C280.421 31.7158 279.908 33.0725 279.908 34.7775C279.908 35.6025 280.036 36.3633 280.293 37.06C280.568 37.7383 280.962 38.325 281.475 38.82C281.989 39.315 282.621 39.7 283.373 39.975C284.125 40.25 284.995 40.3875 285.985 40.3875ZM294.813 55.5125C294.813 54.8342 294.62 54.2842 294.235 53.8625C293.85 53.4408 293.328 53.1108 292.668 52.8725C292.026 52.6342 291.275 52.4692 290.413 52.3775C289.551 52.2675 288.635 52.185 287.663 52.13C286.71 52.075 285.738 52.02 284.748 51.965C283.758 51.91 282.805 51.8183 281.888 51.69C280.861 52.1667 280.018 52.7717 279.358 53.505C278.716 54.22 278.395 55.0633 278.395 56.035C278.395 56.6583 278.551 57.2358 278.863 57.7675C279.193 58.3175 279.688 58.785 280.348 59.17C281.008 59.5733 281.833 59.885 282.823 60.105C283.831 60.3433 285.014 60.4625 286.37 60.4625C287.69 60.4625 288.873 60.3433 289.918 60.105C290.963 59.8667 291.843 59.5275 292.558 59.0875C293.291 58.6475 293.85 58.125 294.235 57.52C294.62 56.915 294.813 56.2458 294.813 55.5125ZM299.79 27.2425V29.0575C299.79 29.6625 299.405 30.0475 298.635 30.2125L295.473 30.625C296.096 31.835 296.408 33.1733 296.408 34.64C296.408 35.9967 296.142 37.2342 295.61 38.3525C295.097 39.4525 294.382 40.3967 293.465 41.185C292.549 41.9733 291.449 42.5783 290.165 43C288.882 43.4217 287.489 43.6325 285.985 43.6325C284.684 43.6325 283.455 43.4767 282.3 43.165C281.714 43.5317 281.265 43.9258 280.953 44.3475C280.641 44.7508 280.485 45.1633 280.485 45.585C280.485 46.245 280.751 46.7492 281.283 47.0975C281.833 47.4275 282.548 47.6658 283.428 47.8125C284.308 47.9592 285.307 48.0508 286.425 48.0875C287.562 48.1242 288.717 48.1883 289.89 48.28C291.082 48.3533 292.237 48.4908 293.355 48.6925C294.492 48.8942 295.5 49.2242 296.38 49.6825C297.26 50.1408 297.966 50.7733 298.498 51.58C299.048 52.3867 299.323 53.4317 299.323 54.715C299.323 55.9067 299.02 57.0617 298.415 58.18C297.829 59.2983 296.976 60.2883 295.858 61.15C294.74 62.03 293.365 62.7267 291.733 63.24C290.12 63.7717 288.295 64.0375 286.26 64.0375C284.225 64.0375 282.447 63.8358 280.925 63.4325C279.404 63.0292 278.139 62.4883 277.13 61.81C276.122 61.1317 275.361 60.3433 274.848 59.445C274.353 58.565 274.105 57.6392 274.105 56.6675C274.105 55.2925 274.536 54.1283 275.398 53.175C276.26 52.2217 277.442 51.4608 278.945 50.8925C278.12 50.5258 277.46 50.04 276.965 49.435C276.489 48.8117 276.25 47.9775 276.25 46.9325C276.25 46.5292 276.324 46.1167 276.47 45.695C276.617 45.255 276.837 44.8242 277.13 44.4025C277.442 43.9625 277.818 43.55 278.258 43.165C278.698 42.78 279.211 42.4408 279.798 42.1475C278.423 41.3775 277.35 40.36 276.58 39.095C275.81 37.8117 275.425 36.3267 275.425 34.64C275.425 33.2833 275.682 32.055 276.195 30.955C276.727 29.8367 277.46 28.8925 278.395 28.1225C279.33 27.3342 280.44 26.7292 281.723 26.3075C283.025 25.8858 284.445 25.675 285.985 25.675C287.195 25.675 288.323 25.8125 289.368 26.0875C290.413 26.3442 291.366 26.7292 292.228 27.2425H299.79Z" fill="black"/>
<defs>
<linearGradient id="paint0_linear" x1="169.664" y1="71.569" x2="159.382" y2="115.727" gradientUnits="userSpaceOnUse">
<stop stop-color="#458ACC"/>
<stop offset="1" stop-color="#B6D15D"/>
</linearGradient>
</defs>
</svg>
