<svg width="158" height="46" viewBox="0 0 158 46" fill="none" xmlns="http://www.w3.org/2000/svg">
<path d="M31.531 7.119C31.477 7.209 31.42 7.278 31.36 7.326C31.3 7.368 31.222 7.389 31.126 7.389C31.024 7.389 30.904 7.338 30.766 7.236C30.634 7.134 30.463 7.023 30.253 6.903C30.049 6.777 29.8 6.663 29.506 6.561C29.218 6.459 28.867 6.408 28.453 6.408C28.063 6.408 27.718 6.462 27.418 6.57C27.118 6.672 26.866 6.813 26.662 6.993C26.464 7.173 26.314 7.386 26.212 7.632C26.11 7.872 26.059 8.133 26.059 8.415C26.059 8.775 26.146 9.075 26.32 9.315C26.5 9.549 26.734 9.75 27.022 9.918C27.316 10.086 27.646 10.233 28.012 10.359C28.384 10.479 28.762 10.605 29.146 10.737C29.536 10.869 29.914 11.019 30.28 11.187C30.652 11.349 30.982 11.556 31.27 11.808C31.564 12.06 31.798 12.369 31.972 12.735C32.152 13.101 32.242 13.551 32.242 14.085C32.242 14.649 32.146 15.18 31.954 15.678C31.762 16.17 31.48 16.599 31.108 16.965C30.742 17.331 30.289 17.619 29.749 17.829C29.215 18.039 28.606 18.144 27.922 18.144C27.088 18.144 26.326 17.994 25.636 17.694C24.952 17.388 24.367 16.977 23.881 16.461L24.385 15.633C24.433 15.567 24.49 15.513 24.556 15.471C24.628 15.423 24.706 15.399 24.79 15.399C24.916 15.399 25.06 15.468 25.222 15.606C25.384 15.738 25.585 15.885 25.825 16.047C26.071 16.209 26.365 16.359 26.707 16.497C27.055 16.629 27.478 16.695 27.976 16.695C28.39 16.695 28.759 16.638 29.083 16.524C29.407 16.41 29.68 16.251 29.902 16.047C30.13 15.837 30.304 15.588 30.424 15.3C30.544 15.012 30.604 14.691 30.604 14.337C30.604 13.947 30.514 13.629 30.334 13.383C30.16 13.131 29.929 12.921 29.641 12.753C29.353 12.585 29.023 12.444 28.651 12.33C28.285 12.21 27.907 12.09 27.517 11.97C27.133 11.844 26.755 11.7 26.383 11.538C26.017 11.376 25.69 11.166 25.402 10.908C25.114 10.65 24.88 10.329 24.7 9.945C24.526 9.555 24.439 9.075 24.439 8.505C24.439 8.049 24.526 7.608 24.7 7.182C24.88 6.756 25.138 6.378 25.474 6.048C25.81 5.718 26.224 5.454 26.716 5.256C27.214 5.058 27.784 4.959 28.426 4.959C29.146 4.959 29.803 5.073 30.397 5.301C30.991 5.529 31.51 5.859 31.954 6.291L31.531 7.119ZM39.9869 13.176V18H38.2499V5.103H42.0569C42.8729 5.103 43.5809 5.199 44.1809 5.391C44.7869 5.577 45.2879 5.844 45.6839 6.192C46.0799 6.54 46.3739 6.96 46.5659 7.452C46.7639 7.944 46.8629 8.493 46.8629 9.099C46.8629 9.699 46.7579 10.248 46.5479 10.746C46.3379 11.244 46.0289 11.673 45.6209 12.033C45.2189 12.393 44.7179 12.675 44.1179 12.879C43.5179 13.077 42.8309 13.176 42.0569 13.176H39.9869ZM39.9869 11.79H42.0569C42.5549 11.79 42.9929 11.724 43.3709 11.592C43.7549 11.46 44.0759 11.277 44.3339 11.043C44.5919 10.803 44.7869 10.518 44.9189 10.188C45.0509 9.858 45.1169 9.495 45.1169 9.099C45.1169 8.277 44.8619 7.635 44.3519 7.173C43.8479 6.711 43.0829 6.48 42.0569 6.48H39.9869V11.79ZM60.6208 5.103V6.525H54.4288V10.809H59.4418V12.177H54.4288V16.578H60.6208V18H52.6738V5.103H60.6208ZM77.3438 18H75.9938C75.8378 18 75.7118 17.961 75.6158 17.883C75.5198 17.805 75.4478 17.706 75.3998 17.586L74.1938 14.472H68.4068L67.2008 17.586C67.1588 17.694 67.0868 17.79 66.9848 17.874C66.8828 17.958 66.7568 18 66.6068 18H65.2568L70.4138 5.103H72.1868L77.3438 18ZM68.8928 13.212H73.7078L71.6828 7.965C71.5508 7.641 71.4218 7.236 71.2958 6.75C71.2298 6.996 71.1638 7.224 71.0978 7.434C71.0378 7.638 70.9778 7.818 70.9178 7.974L68.8928 13.212ZM84.4842 10.755H85.1412C85.3692 10.755 85.5492 10.728 85.6812 10.674C85.8192 10.614 85.9482 10.515 86.0682 10.377L90.3612 5.517C90.4932 5.367 90.6192 5.262 90.7392 5.202C90.8652 5.136 91.0242 5.103 91.2162 5.103H92.7012L87.7872 10.656C87.6612 10.794 87.5412 10.911 87.4272 11.007C87.3192 11.103 87.2022 11.181 87.0762 11.241C87.2442 11.295 87.3912 11.376 87.5172 11.484C87.6432 11.592 87.7752 11.727 87.9132 11.889L93.0432 18H91.5312C91.4172 18 91.3212 17.991 91.2432 17.973C91.1652 17.955 91.0962 17.931 91.0362 17.901C90.9822 17.871 90.9312 17.832 90.8832 17.784C90.8352 17.736 90.7872 17.685 90.7392 17.631L86.2842 12.51C86.2182 12.438 86.1552 12.378 86.0952 12.33C86.0412 12.276 85.9752 12.231 85.8972 12.195C85.8252 12.159 85.7382 12.135 85.6362 12.123C85.5402 12.105 85.4202 12.096 85.2762 12.096H84.4842V18H82.7472V5.103H84.4842V10.755ZM106.366 5.103V6.525H100.174V10.809H105.187V12.177H100.174V16.578H106.366V18H98.4191V5.103H106.366ZM114.395 12.618V18H112.658V5.103H116.303C117.119 5.103 117.824 5.187 118.418 5.355C119.012 5.517 119.501 5.754 119.885 6.066C120.275 6.378 120.563 6.756 120.749 7.2C120.935 7.638 121.028 8.13 121.028 8.676C121.028 9.132 120.956 9.558 120.812 9.954C120.668 10.35 120.458 10.707 120.182 11.025C119.912 11.337 119.579 11.604 119.183 11.826C118.793 12.048 118.349 12.216 117.851 12.33C118.067 12.456 118.259 12.639 118.427 12.879L122.189 18H120.641C120.323 18 120.089 17.877 119.939 17.631L116.591 13.023C116.489 12.879 116.378 12.777 116.258 12.717C116.138 12.651 115.958 12.618 115.718 12.618H114.395ZM114.395 11.349H116.222C116.732 11.349 117.179 11.289 117.563 11.169C117.953 11.043 118.277 10.869 118.535 10.647C118.799 10.419 118.997 10.149 119.129 9.837C119.261 9.525 119.327 9.18 119.327 8.802C119.327 8.034 119.072 7.455 118.562 7.065C118.058 6.675 117.305 6.48 116.303 6.48H114.395V11.349ZM134.268 7.119C134.214 7.209 134.157 7.278 134.097 7.326C134.037 7.368 133.959 7.389 133.863 7.389C133.761 7.389 133.641 7.338 133.503 7.236C133.371 7.134 133.2 7.023 132.99 6.903C132.786 6.777 132.537 6.663 132.243 6.561C131.955 6.459 131.604 6.408 131.19 6.408C130.8 6.408 130.455 6.462 130.155 6.57C129.855 6.672 129.603 6.813 129.399 6.993C129.201 7.173 129.051 7.386 128.949 7.632C128.847 7.872 128.796 8.133 128.796 8.415C128.796 8.775 128.883 9.075 129.057 9.315C129.237 9.549 129.471 9.75 129.759 9.918C130.053 10.086 130.383 10.233 130.749 10.359C131.121 10.479 131.499 10.605 131.883 10.737C132.273 10.869 132.651 11.019 133.017 11.187C133.389 11.349 133.719 11.556 134.007 11.808C134.301 12.06 134.535 12.369 134.709 12.735C134.889 13.101 134.979 13.551 134.979 14.085C134.979 14.649 134.883 15.18 134.691 15.678C134.499 16.17 134.217 16.599 133.845 16.965C133.479 17.331 133.026 17.619 132.486 17.829C131.952 18.039 131.343 18.144 130.659 18.144C129.825 18.144 129.063 17.994 128.373 17.694C127.689 17.388 127.104 16.977 126.618 16.461L127.122 15.633C127.17 15.567 127.227 15.513 127.293 15.471C127.365 15.423 127.443 15.399 127.527 15.399C127.653 15.399 127.797 15.468 127.959 15.606C128.121 15.738 128.322 15.885 128.562 16.047C128.808 16.209 129.102 16.359 129.444 16.497C129.792 16.629 130.215 16.695 130.713 16.695C131.127 16.695 131.496 16.638 131.82 16.524C132.144 16.41 132.417 16.251 132.639 16.047C132.867 15.837 133.041 15.588 133.161 15.3C133.281 15.012 133.341 14.691 133.341 14.337C133.341 13.947 133.251 13.629 133.071 13.383C132.897 13.131 132.666 12.921 132.378 12.753C132.09 12.585 131.76 12.444 131.388 12.33C131.022 12.21 130.644 12.09 130.254 11.97C129.87 11.844 129.492 11.7 129.12 11.538C128.754 11.376 128.427 11.166 128.139 10.908C127.851 10.65 127.617 10.329 127.437 9.945C127.263 9.555 127.176 9.075 127.176 8.505C127.176 8.049 127.263 7.608 127.437 7.182C127.617 6.756 127.875 6.378 128.211 6.048C128.547 5.718 128.961 5.454 129.453 5.256C129.951 5.058 130.521 4.959 131.163 4.959C131.883 4.959 132.54 5.073 133.134 5.301C133.728 5.529 134.247 5.859 134.691 6.291L134.268 7.119Z" fill="black"/>
<line y1="44.5" x2="158" y2="44.5" stroke="#51BB52" stroke-width="3"/>
</svg>
