<svg width="450" height="148" viewBox="0 0 450 148" fill="none" xmlns="http://www.w3.org/2000/svg">
<path d="M28.36 7.495C28.15 7.89166 27.8467 8.09 27.45 8.09C27.1467 8.09 26.75 7.88 26.26 7.46C25.7933 7.01667 25.1517 6.53833 24.335 6.025C23.5183 5.48833 22.4917 4.99833 21.255 4.555C20.0417 4.11166 18.5367 3.89 16.74 3.89C14.9433 3.89 13.3567 4.14666 11.98 4.66C10.6267 5.17333 9.48333 5.87333 8.55 6.76C7.64 7.64666 6.94 8.67333 6.45 9.84C5.98333 11.0067 5.75 12.2317 5.75 13.515C5.75 15.195 6.1 16.5833 6.8 17.68C7.52333 18.7767 8.46833 19.71 9.635 20.48C10.8017 21.25 12.12 21.9033 13.59 22.44C15.0833 22.9533 16.6117 23.4667 18.175 23.98C19.7383 24.4933 21.255 25.065 22.725 25.695C24.2183 26.3017 25.5483 27.0717 26.715 28.005C27.8817 28.9383 28.815 30.0933 29.515 31.47C30.2383 32.8233 30.6 34.515 30.6 36.545C30.6 38.6217 30.2383 40.5817 29.515 42.425C28.815 44.245 27.7883 45.8317 26.435 47.185C25.0817 48.5383 23.425 49.6117 21.465 50.405C19.505 51.175 17.265 51.56 14.745 51.56C11.4783 51.56 8.66667 50.9883 6.31 49.845C3.95333 48.6783 1.88833 47.0917 0.115 45.085L1.095 43.545C1.375 43.195 1.70167 43.02 2.075 43.02C2.285 43.02 2.55333 43.16 2.88 43.44C3.20667 43.72 3.60333 44.07 4.07 44.49C4.53667 44.8867 5.09667 45.33 5.75 45.82C6.40333 46.2867 7.16167 46.73 8.025 47.15C8.88833 47.5467 9.88 47.885 11 48.165C12.12 48.445 13.3917 48.585 14.815 48.585C16.775 48.585 18.525 48.2933 20.065 47.71C21.605 47.1033 22.9 46.2867 23.95 45.26C25.0233 44.2333 25.84 43.02 26.4 41.62C26.96 40.1967 27.24 38.68 27.24 37.07C27.24 35.32 26.8783 33.885 26.155 32.765C25.455 31.6217 24.5217 30.6767 23.355 29.93C22.1883 29.16 20.8583 28.5183 19.365 28.005C17.895 27.4917 16.3783 26.99 14.815 26.5C13.2517 26.01 11.7233 25.4617 10.23 24.855C8.76 24.2483 7.44167 23.4783 6.275 22.545C5.10833 21.5883 4.16333 20.41 3.44 19.01C2.74 17.5867 2.39 15.8133 2.39 13.69C2.39 12.0333 2.705 10.435 3.335 8.895C3.965 7.355 4.88667 6.00167 6.1 4.835C7.31333 3.645 8.80667 2.7 10.58 2C12.3767 1.27666 14.4183 0.914996 16.705 0.914996C19.2717 0.914996 21.57 1.32333 23.6 2.14C25.6533 2.95666 27.52 4.205 29.2 5.885L28.36 7.495ZM42.809 22.055C44.419 20.095 46.2507 18.5317 48.304 17.365C50.3807 16.1983 52.7023 15.615 55.269 15.615C57.1823 15.615 58.8623 15.9183 60.309 16.525C61.779 17.1317 62.9923 18.0067 63.949 19.15C64.9057 20.2933 65.629 21.67 66.119 23.28C66.609 24.89 66.854 26.71 66.854 28.74V51H63.494V28.74C63.494 25.4733 62.7473 22.9183 61.254 21.075C59.7607 19.2083 57.4857 18.275 54.429 18.275C52.1657 18.275 50.0423 18.8583 48.059 20.025C46.099 21.1683 44.349 22.7667 42.809 24.82V51H39.449V0.0749985H42.809V22.055ZM91.7253 15.615C94.222 15.615 96.4503 16.0467 98.4103 16.91C100.394 17.75 102.062 18.9517 103.415 20.515C104.769 22.0783 105.795 23.9683 106.495 26.185C107.219 28.3783 107.58 30.84 107.58 33.57C107.58 36.3 107.219 38.7617 106.495 40.955C105.795 43.1483 104.769 45.0267 103.415 46.59C102.062 48.1533 100.394 49.355 98.4103 50.195C96.4503 51.035 94.222 51.455 91.7253 51.455C89.2286 51.455 86.9886 51.035 85.0053 50.195C83.0453 49.355 81.377 48.1533 80.0003 46.59C78.647 45.0267 77.6086 43.1483 76.8853 40.955C76.1853 38.7617 75.8353 36.3 75.8353 33.57C75.8353 30.84 76.1853 28.3783 76.8853 26.185C77.6086 23.9683 78.647 22.0783 80.0003 20.515C81.377 18.9517 83.0453 17.75 85.0053 16.91C86.9886 16.0467 89.2286 15.615 91.7253 15.615ZM91.7253 48.83C93.802 48.83 95.6103 48.48 97.1503 47.78C98.7136 47.0567 100.009 46.03 101.035 44.7C102.085 43.37 102.867 41.7717 103.38 39.905C103.894 38.015 104.15 35.9033 104.15 33.57C104.15 31.26 103.894 29.16 103.38 27.27C102.867 25.38 102.085 23.77 101.035 22.44C100.009 21.0867 98.7136 20.0483 97.1503 19.325C95.6103 18.6017 93.802 18.24 91.7253 18.24C89.6486 18.24 87.8286 18.6017 86.2653 19.325C84.7253 20.0483 83.4303 21.0867 82.3803 22.44C81.3536 23.77 80.572 25.38 80.0353 27.27C79.522 29.16 79.2653 31.26 79.2653 33.57C79.2653 35.9033 79.522 38.015 80.0353 39.905C80.572 41.7717 81.3536 43.37 82.3803 44.7C83.4303 46.03 84.7253 47.0567 86.2653 47.78C87.8286 48.48 89.6486 48.83 91.7253 48.83ZM162.583 16.175L150.963 51H148.478C148.082 51 147.813 50.755 147.673 50.265L138.153 21.985C138.037 21.635 137.932 21.285 137.838 20.935C137.745 20.585 137.663 20.235 137.593 19.885C137.477 20.585 137.302 21.285 137.068 21.985L127.408 50.265C127.268 50.755 126.988 51 126.568 51H124.188L112.568 16.175H115.088C115.415 16.175 115.683 16.2683 115.893 16.455C116.103 16.6183 116.243 16.805 116.313 17.015L125.098 44.49C125.238 45.0267 125.367 45.5517 125.483 46.065C125.6 46.555 125.693 47.045 125.763 47.535C125.903 47.045 126.043 46.555 126.183 46.065C126.323 45.5517 126.487 45.0267 126.673 44.49L135.983 16.77C136.147 16.2567 136.473 16 136.963 16H138.328C138.842 16 139.18 16.2567 139.343 16.77L148.583 44.49C148.747 45.0267 148.898 45.54 149.038 46.03C149.178 46.52 149.307 47.01 149.423 47.5C149.517 47.01 149.61 46.52 149.703 46.03C149.82 45.54 149.96 45.0267 150.123 44.49L158.978 17.015C159.072 16.7583 159.223 16.56 159.433 16.42C159.643 16.2567 159.888 16.175 160.168 16.175H162.583ZM193.089 20.83C192.972 20.9467 192.855 21.0517 192.739 21.145C192.645 21.215 192.505 21.25 192.319 21.25C192.085 21.25 191.77 21.0983 191.374 20.795C190.977 20.4683 190.44 20.1183 189.764 19.745C189.087 19.3717 188.235 19.0333 187.209 18.73C186.205 18.4033 184.98 18.24 183.534 18.24C181.527 18.24 179.742 18.6017 178.179 19.325C176.639 20.025 175.332 21.04 174.259 22.37C173.185 23.7 172.369 25.31 171.809 27.2C171.272 29.09 171.004 31.2133 171.004 33.57C171.004 36.02 171.284 38.19 171.844 40.08C172.427 41.97 173.244 43.5683 174.294 44.875C175.344 46.1583 176.615 47.1383 178.109 47.815C179.602 48.4917 181.259 48.83 183.079 48.83C184.759 48.83 186.159 48.6317 187.279 48.235C188.422 47.8383 189.355 47.4067 190.079 46.94C190.825 46.4733 191.409 46.0417 191.829 45.645C192.249 45.2483 192.599 45.05 192.879 45.05C193.159 45.05 193.392 45.1667 193.579 45.4L194.454 46.52C193.917 47.22 193.24 47.8733 192.424 48.48C191.607 49.0867 190.685 49.6117 189.659 50.055C188.632 50.4983 187.512 50.8367 186.299 51.07C185.109 51.3267 183.86 51.455 182.554 51.455C180.337 51.455 178.307 51.0583 176.464 50.265C174.644 49.4483 173.069 48.2817 171.739 46.765C170.432 45.225 169.405 43.3467 168.659 41.13C167.935 38.9133 167.574 36.3933 167.574 33.57C167.574 30.91 167.924 28.4833 168.624 26.29C169.324 24.0967 170.35 22.2067 171.704 20.62C173.057 19.0333 174.702 17.8083 176.639 16.945C178.599 16.0583 180.839 15.615 183.359 15.615C185.622 15.615 187.629 15.9767 189.379 16.7C191.129 17.4233 192.657 18.4033 193.964 19.64L193.089 20.83ZM222.186 34.165C218.873 34.2817 216.015 34.55 213.611 34.97C211.231 35.3667 209.26 35.915 207.696 36.615C206.156 37.315 205.013 38.155 204.266 39.135C203.52 40.0917 203.146 41.1883 203.146 42.425C203.146 43.5917 203.333 44.6067 203.706 45.47C204.103 46.31 204.616 47.01 205.246 47.57C205.9 48.1067 206.646 48.5033 207.486 48.76C208.326 49.0167 209.201 49.145 210.111 49.145C211.465 49.145 212.701 49.005 213.821 48.725C214.965 48.4217 216.015 48.0133 216.971 47.5C217.951 46.9633 218.861 46.3333 219.701 45.61C220.541 44.8867 221.37 44.105 222.186 43.265V34.165ZM201.711 21.11C203.531 19.29 205.445 17.9133 207.451 16.98C209.458 16.0467 211.733 15.58 214.276 15.58C216.143 15.58 217.776 15.8833 219.176 16.49C220.576 17.0733 221.731 17.925 222.641 19.045C223.575 20.1417 224.275 21.4833 224.741 23.07C225.208 24.6333 225.441 26.3833 225.441 28.32V51H224.111C223.411 51 222.98 50.6733 222.816 50.02L222.326 45.54C221.37 46.4733 220.413 47.3133 219.456 48.06C218.523 48.8067 217.543 49.4367 216.516 49.95C215.49 50.4633 214.381 50.86 213.191 51.14C212.001 51.42 210.695 51.56 209.271 51.56C208.081 51.56 206.926 51.385 205.806 51.035C204.686 50.685 203.683 50.1483 202.796 49.425C201.933 48.7017 201.233 47.78 200.696 46.66C200.183 45.5167 199.926 44.1517 199.926 42.565C199.926 41.095 200.346 39.73 201.186 38.47C202.026 37.21 203.345 36.1133 205.141 35.18C206.938 34.2467 209.236 33.5 212.036 32.94C214.86 32.38 218.243 32.0533 222.186 31.96V28.32C222.186 25.1 221.486 22.6267 220.086 20.9C218.71 19.15 216.656 18.275 213.926 18.275C212.246 18.275 210.811 18.5083 209.621 18.975C208.455 19.4417 207.463 19.955 206.646 20.515C205.83 21.075 205.165 21.5883 204.651 22.055C204.138 22.5217 203.706 22.755 203.356 22.755C203.1 22.755 202.89 22.6967 202.726 22.58C202.563 22.4633 202.423 22.3117 202.306 22.125L201.711 21.11ZM255.742 20.48C255.556 20.8067 255.287 20.97 254.937 20.97C254.681 20.97 254.354 20.83 253.957 20.55C253.561 20.2467 253.024 19.92 252.347 19.57C251.694 19.1967 250.877 18.87 249.897 18.59C248.917 18.2867 247.727 18.135 246.327 18.135C245.067 18.135 243.912 18.3217 242.862 18.695C241.836 19.045 240.949 19.5233 240.202 20.13C239.479 20.7367 238.919 21.4483 238.522 22.265C238.126 23.0583 237.927 23.8983 237.927 24.785C237.927 25.8817 238.207 26.7917 238.767 27.515C239.327 28.2383 240.051 28.8567 240.937 29.37C241.847 29.8833 242.886 30.3267 244.052 30.7C245.219 31.0733 246.397 31.4467 247.587 31.82C248.801 32.1933 249.991 32.6133 251.157 33.08C252.324 33.5233 253.351 34.0833 254.237 34.76C255.147 35.4367 255.882 36.265 256.442 37.245C257.002 38.225 257.282 39.415 257.282 40.815C257.282 42.3317 257.014 43.7433 256.477 45.05C255.941 46.3567 255.147 47.4883 254.097 48.445C253.071 49.4017 251.799 50.16 250.282 50.72C248.766 51.28 247.027 51.56 245.067 51.56C242.617 51.56 240.506 51.175 238.732 50.405C236.959 49.6117 235.372 48.585 233.972 47.325L234.742 46.135C234.859 45.9483 234.987 45.8083 235.127 45.715C235.291 45.6217 235.501 45.575 235.757 45.575C236.061 45.575 236.422 45.7617 236.842 46.135C237.286 46.5083 237.869 46.9167 238.592 47.36C239.316 47.78 240.202 48.1767 241.252 48.55C242.326 48.9233 243.644 49.11 245.207 49.11C246.677 49.11 247.972 48.9117 249.092 48.515C250.212 48.095 251.146 47.535 251.892 46.835C252.639 46.135 253.199 45.3183 253.572 44.385C253.969 43.4283 254.167 42.425 254.167 41.375C254.167 40.2083 253.887 39.24 253.327 38.47C252.767 37.7 252.032 37.0467 251.122 36.51C250.212 35.9733 249.174 35.5183 248.007 35.145C246.864 34.7717 245.686 34.3983 244.472 34.025C243.259 33.6517 242.069 33.2433 240.902 32.8C239.759 32.3567 238.732 31.7967 237.822 31.12C236.912 30.4433 236.177 29.6267 235.617 28.67C235.057 27.69 234.777 26.4767 234.777 25.03C234.777 23.7933 235.046 22.6033 235.582 21.46C236.119 20.3167 236.877 19.3133 237.857 18.45C238.861 17.5867 240.074 16.8983 241.497 16.385C242.921 15.8717 244.519 15.615 246.292 15.615C248.416 15.615 250.294 15.9183 251.927 16.525C253.584 17.1317 255.089 18.065 256.442 19.325L255.742 20.48ZM290.764 30.07C290.764 28.2033 290.495 26.535 289.959 25.065C289.445 23.5717 288.71 22.3117 287.754 21.285C286.797 20.2583 285.654 19.4767 284.324 18.94C283.017 18.38 281.57 18.1 279.984 18.1C278.187 18.1 276.577 18.38 275.154 18.94C273.73 19.5 272.494 20.305 271.444 21.355C270.417 22.405 269.589 23.665 268.959 25.135C268.329 26.605 267.909 28.25 267.699 30.07H290.764ZM267.524 32.205V32.87C267.524 35.4833 267.827 37.7817 268.434 39.765C269.04 41.7483 269.904 43.4167 271.024 44.77C272.144 46.1 273.497 47.1033 275.084 47.78C276.67 48.4567 278.444 48.795 280.404 48.795C282.154 48.795 283.67 48.6083 284.954 48.235C286.237 47.8383 287.31 47.4067 288.174 46.94C289.06 46.45 289.76 46.0183 290.274 45.645C290.787 45.2483 291.16 45.05 291.394 45.05C291.697 45.05 291.93 45.1667 292.094 45.4L293.004 46.52C292.444 47.22 291.697 47.8733 290.764 48.48C289.854 49.0867 288.827 49.6117 287.684 50.055C286.564 50.475 285.35 50.8133 284.044 51.07C282.76 51.3267 281.465 51.455 280.159 51.455C277.779 51.455 275.609 51.0467 273.649 50.23C271.689 49.39 270.009 48.1767 268.609 46.59C267.209 45.0033 266.124 43.0667 265.354 40.78C264.607 38.47 264.234 35.8333 264.234 32.87C264.234 30.3733 264.584 28.075 265.284 25.975C266.007 23.8517 267.034 22.0317 268.364 20.515C269.717 18.975 271.362 17.7733 273.299 16.91C275.259 16.0467 277.475 15.615 279.949 15.615C281.909 15.615 283.729 15.9533 285.409 16.63C287.089 17.3067 288.547 18.2983 289.784 19.605C291.02 20.8883 291.989 22.475 292.689 24.365C293.412 26.255 293.774 28.425 293.774 30.875C293.774 31.3883 293.704 31.7383 293.564 31.925C293.424 32.1117 293.19 32.205 292.864 32.205H267.524ZM348.204 16.175L328.184 62.2C328.044 62.5267 327.858 62.795 327.624 63.005C327.414 63.215 327.099 63.32 326.679 63.32H324.299L330.424 49.705L315.689 16.175H318.454C318.804 16.175 319.084 16.2683 319.294 16.455C319.504 16.6183 319.644 16.805 319.714 17.015L331.439 44.105C331.579 44.455 331.696 44.8167 331.789 45.19C331.906 45.54 332.011 45.9017 332.104 46.275C332.221 45.9017 332.338 45.54 332.454 45.19C332.594 44.8167 332.734 44.455 332.874 44.105L344.459 17.015C344.576 16.7583 344.739 16.56 344.949 16.42C345.159 16.2567 345.393 16.175 345.649 16.175H348.204ZM368.171 15.615C370.667 15.615 372.896 16.0467 374.856 16.91C376.839 17.75 378.507 18.9517 379.861 20.515C381.214 22.0783 382.241 23.9683 382.941 26.185C383.664 28.3783 384.026 30.84 384.026 33.57C384.026 36.3 383.664 38.7617 382.941 40.955C382.241 43.1483 381.214 45.0267 379.861 46.59C378.507 48.1533 376.839 49.355 374.856 50.195C372.896 51.035 370.667 51.455 368.171 51.455C365.674 51.455 363.434 51.035 361.451 50.195C359.491 49.355 357.822 48.1533 356.446 46.59C355.092 45.0267 354.054 43.1483 353.331 40.955C352.631 38.7617 352.281 36.3 352.281 33.57C352.281 30.84 352.631 28.3783 353.331 26.185C354.054 23.9683 355.092 22.0783 356.446 20.515C357.822 18.9517 359.491 17.75 361.451 16.91C363.434 16.0467 365.674 15.615 368.171 15.615ZM368.171 48.83C370.247 48.83 372.056 48.48 373.596 47.78C375.159 47.0567 376.454 46.03 377.481 44.7C378.531 43.37 379.312 41.7717 379.826 39.905C380.339 38.015 380.596 35.9033 380.596 33.57C380.596 31.26 380.339 29.16 379.826 27.27C379.312 25.38 378.531 23.77 377.481 22.44C376.454 21.0867 375.159 20.0483 373.596 19.325C372.056 18.6017 370.247 18.24 368.171 18.24C366.094 18.24 364.274 18.6017 362.711 19.325C361.171 20.0483 359.876 21.0867 358.826 22.44C357.799 23.77 357.017 25.38 356.481 27.27C355.967 29.16 355.711 31.26 355.711 33.57C355.711 35.9033 355.967 38.015 356.481 39.905C357.017 41.7717 357.799 43.37 358.826 44.7C359.876 46.03 361.171 47.0567 362.711 47.78C364.274 48.48 366.094 48.83 368.171 48.83ZM420.434 16.175V51H418.579C417.995 51 417.657 50.6967 417.564 50.09L417.249 44.91C415.639 46.9167 413.772 48.5267 411.649 49.74C409.549 50.9533 407.204 51.56 404.614 51.56C402.677 51.56 400.985 51.2567 399.539 50.65C398.092 50.0433 396.89 49.1683 395.934 48.025C394.977 46.8817 394.254 45.505 393.764 43.895C393.274 42.285 393.029 40.465 393.029 38.435V16.175H396.389V38.435C396.389 41.7017 397.135 44.2683 398.629 46.135C400.122 47.9783 402.397 48.9 405.454 48.9C407.717 48.9 409.829 48.3283 411.789 47.185C413.772 46.0183 415.534 44.4083 417.074 42.355V16.175H420.434ZM435.085 24.575C435.622 23.1517 436.228 21.8917 436.905 20.795C437.605 19.675 438.398 18.73 439.285 17.96C440.195 17.19 441.198 16.6067 442.295 16.21C443.415 15.79 444.652 15.58 446.005 15.58C446.728 15.58 447.44 15.65 448.14 15.79C448.84 15.9067 449.458 16.1283 449.995 16.455L449.715 18.765C449.598 19.1383 449.377 19.325 449.05 19.325C448.77 19.325 448.338 19.2433 447.755 19.08C447.195 18.9167 446.448 18.835 445.515 18.835C444.162 18.835 442.96 19.045 441.91 19.465C440.883 19.8617 439.95 20.4683 439.11 21.285C438.293 22.1017 437.57 23.1167 436.94 24.33C436.333 25.52 435.773 26.8967 435.26 28.46V51H431.9V16.175H433.685C434.082 16.175 434.362 16.2567 434.525 16.42C434.688 16.5833 434.793 16.8633 434.84 17.26L435.085 24.575ZM21.885 104.48C21.6983 104.807 21.43 104.97 21.08 104.97C20.8233 104.97 20.4967 104.83 20.1 104.55C19.7033 104.247 19.1667 103.92 18.49 103.57C17.8367 103.197 17.02 102.87 16.04 102.59C15.06 102.287 13.87 102.135 12.47 102.135C11.21 102.135 10.055 102.322 9.005 102.695C7.97833 103.045 7.09167 103.523 6.345 104.13C5.62167 104.737 5.06167 105.448 4.665 106.265C4.26833 107.058 4.07 107.898 4.07 108.785C4.07 109.882 4.35 110.792 4.91 111.515C5.47 112.238 6.19333 112.857 7.08 113.37C7.99 113.883 9.02833 114.327 10.195 114.7C11.3617 115.073 12.54 115.447 13.73 115.82C14.9433 116.193 16.1333 116.613 17.3 117.08C18.4667 117.523 19.4933 118.083 20.38 118.76C21.29 119.437 22.025 120.265 22.585 121.245C23.145 122.225 23.425 123.415 23.425 124.815C23.425 126.332 23.1567 127.743 22.62 129.05C22.0833 130.357 21.29 131.488 20.24 132.445C19.2133 133.402 17.9417 134.16 16.425 134.72C14.9083 135.28 13.17 135.56 11.21 135.56C8.76 135.56 6.64833 135.175 4.875 134.405C3.10167 133.612 1.515 132.585 0.115 131.325L0.885 130.135C1.00167 129.948 1.13 129.808 1.27 129.715C1.43333 129.622 1.64333 129.575 1.9 129.575C2.20333 129.575 2.565 129.762 2.985 130.135C3.42833 130.508 4.01167 130.917 4.735 131.36C5.45833 131.78 6.345 132.177 7.395 132.55C8.46833 132.923 9.78667 133.11 11.35 133.11C12.82 133.11 14.115 132.912 15.235 132.515C16.355 132.095 17.2883 131.535 18.035 130.835C18.7817 130.135 19.3417 129.318 19.715 128.385C20.1117 127.428 20.31 126.425 20.31 125.375C20.31 124.208 20.03 123.24 19.47 122.47C18.91 121.7 18.175 121.047 17.265 120.51C16.355 119.973 15.3167 119.518 14.15 119.145C13.0067 118.772 11.8283 118.398 10.615 118.025C9.40167 117.652 8.21167 117.243 7.045 116.8C5.90167 116.357 4.875 115.797 3.965 115.12C3.055 114.443 2.32 113.627 1.76 112.67C1.2 111.69 0.92 110.477 0.92 109.03C0.92 107.793 1.18833 106.603 1.725 105.46C2.26167 104.317 3.02 103.313 4 102.45C5.00333 101.587 6.21667 100.898 7.64 100.385C9.06333 99.8717 10.6617 99.615 12.435 99.615C14.5583 99.615 16.4367 99.9183 18.07 100.525C19.7267 101.132 21.2317 102.065 22.585 103.325L21.885 104.48ZM41.9963 135.56C39.6397 135.56 37.7963 134.907 36.4663 133.6C35.1597 132.293 34.5063 130.275 34.5063 127.545V103.745H29.5013C29.2447 103.745 29.0347 103.675 28.8713 103.535C28.708 103.395 28.6263 103.197 28.6263 102.94V101.645L34.5763 101.225L35.4163 88.765C35.463 88.555 35.5563 88.3683 35.6963 88.205C35.8363 88.0417 36.0347 87.96 36.2913 87.96H37.8663V101.26H48.8563V103.745H37.8663V127.37C37.8663 128.327 37.983 129.155 38.2163 129.855C38.473 130.532 38.8113 131.092 39.2313 131.535C39.6747 131.978 40.188 132.305 40.7713 132.515C41.3547 132.725 41.9847 132.83 42.6613 132.83C43.5013 132.83 44.2247 132.713 44.8313 132.48C45.438 132.223 45.963 131.955 46.4063 131.675C46.8497 131.372 47.2113 131.103 47.4913 130.87C47.7713 130.613 47.993 130.485 48.1563 130.485C48.343 130.485 48.5297 130.602 48.7163 130.835L49.6263 132.305C48.7397 133.285 47.608 134.078 46.2313 134.685C44.878 135.268 43.4663 135.56 41.9963 135.56ZM75.9655 118.165C72.6521 118.282 69.7938 118.55 67.3905 118.97C65.0105 119.367 63.0388 119.915 61.4755 120.615C59.9355 121.315 58.7921 122.155 58.0455 123.135C57.2988 124.092 56.9255 125.188 56.9255 126.425C56.9255 127.592 57.1121 128.607 57.4855 129.47C57.8821 130.31 58.3955 131.01 59.0255 131.57C59.6788 132.107 60.4255 132.503 61.2655 132.76C62.1055 133.017 62.9805 133.145 63.8905 133.145C65.2438 133.145 66.4805 133.005 67.6005 132.725C68.7438 132.422 69.7938 132.013 70.7505 131.5C71.7305 130.963 72.6405 130.333 73.4805 129.61C74.3205 128.887 75.1488 128.105 75.9655 127.265V118.165ZM55.4905 105.11C57.3105 103.29 59.2238 101.913 61.2305 100.98C63.2371 100.047 65.5121 99.58 68.0555 99.58C69.9221 99.58 71.5555 99.8833 72.9555 100.49C74.3555 101.073 75.5105 101.925 76.4205 103.045C77.3538 104.142 78.0538 105.483 78.5205 107.07C78.9871 108.633 79.2205 110.383 79.2205 112.32V135H77.8905C77.1905 135 76.7588 134.673 76.5955 134.02L76.1055 129.54C75.1488 130.473 74.1921 131.313 73.2355 132.06C72.3021 132.807 71.3221 133.437 70.2955 133.95C69.2688 134.463 68.1605 134.86 66.9705 135.14C65.7805 135.42 64.4738 135.56 63.0505 135.56C61.8605 135.56 60.7055 135.385 59.5855 135.035C58.4655 134.685 57.4621 134.148 56.5755 133.425C55.7121 132.702 55.0121 131.78 54.4755 130.66C53.9621 129.517 53.7055 128.152 53.7055 126.565C53.7055 125.095 54.1255 123.73 54.9655 122.47C55.8055 121.21 57.1238 120.113 58.9205 119.18C60.7171 118.247 63.0155 117.5 65.8155 116.94C68.6388 116.38 72.0221 116.053 75.9655 115.96V112.32C75.9655 109.1 75.2655 106.627 73.8655 104.9C72.4888 103.15 70.4355 102.275 67.7055 102.275C66.0255 102.275 64.5905 102.508 63.4005 102.975C62.2338 103.442 61.2421 103.955 60.4255 104.515C59.6088 105.075 58.9438 105.588 58.4305 106.055C57.9171 106.522 57.4855 106.755 57.1355 106.755C56.8788 106.755 56.6688 106.697 56.5055 106.58C56.3421 106.463 56.2021 106.312 56.0855 106.125L55.4905 105.11ZM93.5617 108.575C94.0984 107.152 94.7051 105.892 95.3817 104.795C96.0817 103.675 96.8751 102.73 97.7617 101.96C98.6717 101.19 99.6751 100.607 100.772 100.21C101.892 99.79 103.128 99.58 104.482 99.58C105.205 99.58 105.917 99.65 106.617 99.79C107.317 99.9067 107.935 100.128 108.472 100.455L108.192 102.765C108.075 103.138 107.853 103.325 107.527 103.325C107.247 103.325 106.815 103.243 106.232 103.08C105.672 102.917 104.925 102.835 103.992 102.835C102.638 102.835 101.437 103.045 100.387 103.465C99.3601 103.862 98.4267 104.468 97.5867 105.285C96.7701 106.102 96.0467 107.117 95.4167 108.33C94.8101 109.52 94.2501 110.897 93.7367 112.46V135H90.3767V100.175H92.1617C92.5584 100.175 92.8384 100.257 93.0017 100.42C93.1651 100.583 93.2701 100.863 93.3167 101.26L93.5617 108.575ZM124.643 135.56C122.286 135.56 120.443 134.907 119.113 133.6C117.806 132.293 117.153 130.275 117.153 127.545V103.745H112.148C111.891 103.745 111.681 103.675 111.518 103.535C111.354 103.395 111.273 103.197 111.273 102.94V101.645L117.223 101.225L118.063 88.765C118.109 88.555 118.203 88.3683 118.343 88.205C118.483 88.0417 118.681 87.96 118.938 87.96H120.513V101.26H131.503V103.745H120.513V127.37C120.513 128.327 120.629 129.155 120.863 129.855C121.119 130.532 121.458 131.092 121.878 131.535C122.321 131.978 122.834 132.305 123.418 132.515C124.001 132.725 124.631 132.83 125.308 132.83C126.148 132.83 126.871 132.713 127.478 132.48C128.084 132.223 128.609 131.955 129.053 131.675C129.496 131.372 129.858 131.103 130.138 130.87C130.418 130.613 130.639 130.485 130.803 130.485C130.989 130.485 131.176 130.602 131.363 130.835L132.273 132.305C131.386 133.285 130.254 134.078 128.878 134.685C127.524 135.268 126.113 135.56 124.643 135.56ZM138.207 112.81H154.482V115.645H138.207V112.81ZM192.045 100.175V135H190.19C189.607 135 189.268 134.697 189.175 134.09L188.86 128.91C187.25 130.917 185.383 132.527 183.26 133.74C181.16 134.953 178.815 135.56 176.225 135.56C174.288 135.56 172.597 135.257 171.15 134.65C169.703 134.043 168.502 133.168 167.545 132.025C166.588 130.882 165.865 129.505 165.375 127.895C164.885 126.285 164.64 124.465 164.64 122.435V100.175H168V122.435C168 125.702 168.747 128.268 170.24 130.135C171.733 131.978 174.008 132.9 177.065 132.9C179.328 132.9 181.44 132.328 183.4 131.185C185.383 130.018 187.145 128.408 188.685 126.355V100.175H192.045ZM206.871 127.405C207.548 128.408 208.248 129.26 208.971 129.96C209.718 130.637 210.5 131.197 211.316 131.64C212.133 132.06 212.996 132.363 213.906 132.55C214.84 132.737 215.82 132.83 216.846 132.83C218.9 132.83 220.696 132.457 222.236 131.71C223.776 130.963 225.06 129.913 226.086 128.56C227.136 127.183 227.918 125.55 228.431 123.66C228.968 121.747 229.236 119.647 229.236 117.36C229.236 112.18 228.28 108.377 226.366 105.95C224.453 103.5 221.711 102.275 218.141 102.275C215.831 102.275 213.743 102.87 211.876 104.06C210.01 105.25 208.341 106.907 206.871 109.03V127.405ZM206.731 106.44C208.271 104.34 210.068 102.672 212.121 101.435C214.198 100.198 216.52 99.58 219.086 99.58C223.356 99.58 226.681 101.062 229.061 104.025C231.465 106.988 232.666 111.433 232.666 117.36C232.666 119.903 232.328 122.283 231.651 124.5C230.998 126.693 230.018 128.607 228.711 130.24C227.428 131.85 225.841 133.122 223.951 134.055C222.085 134.988 219.926 135.455 217.476 135.455C215.12 135.455 213.078 135.023 211.351 134.16C209.625 133.297 208.131 132.025 206.871 130.345V147.32H203.511V100.175H205.366C205.95 100.175 206.288 100.467 206.381 101.05L206.731 106.44Z" fill="black"/>
</svg>
