<svg width="158" height="46" viewBox="0 0 158 46" fill="none" xmlns="http://www.w3.org/2000/svg">
<path d="M31.2595 7.119C31.2055 7.209 31.1485 7.278 31.0885 7.326C31.0285 7.368 30.9505 7.389 30.8545 7.389C30.7525 7.389 30.6325 7.338 30.4945 7.236C30.3625 7.134 30.1915 7.023 29.9815 6.903C29.7775 6.777 29.5285 6.663 29.2345 6.561C28.9465 6.459 28.5955 6.408 28.1815 6.408C27.7915 6.408 27.4465 6.462 27.1465 6.57C26.8465 6.672 26.5945 6.813 26.3905 6.993C26.1925 7.173 26.0425 7.386 25.9405 7.632C25.8385 7.872 25.7875 8.133 25.7875 8.415C25.7875 8.775 25.8745 9.075 26.0485 9.315C26.2285 9.549 26.4625 9.75 26.7505 9.918C27.0445 10.086 27.3745 10.233 27.7405 10.359C28.1125 10.479 28.4905 10.605 28.8745 10.737C29.2645 10.869 29.6425 11.019 30.0085 11.187C30.3805 11.349 30.7105 11.556 30.9985 11.808C31.2925 12.06 31.5265 12.369 31.7005 12.735C31.8805 13.101 31.9705 13.551 31.9705 14.085C31.9705 14.649 31.8745 15.18 31.6825 15.678C31.4905 16.17 31.2085 16.599 30.8365 16.965C30.4705 17.331 30.0175 17.619 29.4775 17.829C28.9435 18.039 28.3345 18.144 27.6505 18.144C26.8165 18.144 26.0545 17.994 25.3645 17.694C24.6805 17.388 24.0955 16.977 23.6095 16.461L24.1135 15.633C24.1615 15.567 24.2185 15.513 24.2845 15.471C24.3565 15.423 24.4345 15.399 24.5185 15.399C24.6445 15.399 24.7885 15.468 24.9505 15.606C25.1125 15.738 25.3135 15.885 25.5535 16.047C25.7995 16.209 26.0935 16.359 26.4355 16.497C26.7835 16.629 27.2065 16.695 27.7045 16.695C28.1185 16.695 28.4875 16.638 28.8115 16.524C29.1355 16.41 29.4085 16.251 29.6305 16.047C29.8585 15.837 30.0325 15.588 30.1525 15.3C30.2725 15.012 30.3325 14.691 30.3325 14.337C30.3325 13.947 30.2425 13.629 30.0625 13.383C29.8885 13.131 29.6575 12.921 29.3695 12.753C29.0815 12.585 28.7515 12.444 28.3795 12.33C28.0135 12.21 27.6355 12.09 27.2455 11.97C26.8615 11.844 26.4835 11.7 26.1115 11.538C25.7455 11.376 25.4185 11.166 25.1305 10.908C24.8425 10.65 24.6085 10.329 24.4285 9.945C24.2545 9.555 24.1675 9.075 24.1675 8.505C24.1675 8.049 24.2545 7.608 24.4285 7.182C24.6085 6.756 24.8665 6.378 25.2025 6.048C25.5385 5.718 25.9525 5.454 26.4445 5.256C26.9425 5.058 27.5125 4.959 28.1545 4.959C28.8745 4.959 29.5315 5.073 30.1255 5.301C30.7195 5.529 31.2385 5.859 31.6825 6.291L31.2595 7.119ZM46.5824 5.103V6.57H42.4154V18H40.6694V6.57H36.4844V5.103H46.5824ZM61.4313 18H60.0813C59.9253 18 59.7993 17.961 59.7033 17.883C59.6073 17.805 59.5353 17.706 59.4873 17.586L58.2813 14.472H52.4943L51.2883 17.586C51.2463 17.694 51.1743 17.79 51.0723 17.874C50.9703 17.958 50.8443 18 50.6943 18H49.3443L54.5013 5.103H56.2743L61.4313 18ZM52.9803 13.212H57.7953L55.7703 7.965C55.6383 7.641 55.5093 7.236 55.3833 6.75C55.3173 6.996 55.2513 7.224 55.1853 7.434C55.1253 7.638 55.0653 7.818 55.0053 7.974L52.9803 13.212ZM68.5717 12.618V18H66.8347V5.103H70.4797C71.2957 5.103 72.0007 5.187 72.5947 5.355C73.1887 5.517 73.6777 5.754 74.0617 6.066C74.4517 6.378 74.7397 6.756 74.9257 7.2C75.1117 7.638 75.2047 8.13 75.2047 8.676C75.2047 9.132 75.1327 9.558 74.9887 9.954C74.8447 10.35 74.6347 10.707 74.3587 11.025C74.0887 11.337 73.7557 11.604 73.3597 11.826C72.9697 12.048 72.5257 12.216 72.0277 12.33C72.2437 12.456 72.4357 12.639 72.6037 12.879L76.3657 18H74.8177C74.4997 18 74.2657 17.877 74.1157 17.631L70.7677 13.023C70.6657 12.879 70.5547 12.777 70.4347 12.717C70.3147 12.651 70.1347 12.618 69.8947 12.618H68.5717ZM68.5717 11.349H70.3987C70.9087 11.349 71.3557 11.289 71.7397 11.169C72.1297 11.043 72.4537 10.869 72.7117 10.647C72.9757 10.419 73.1737 10.149 73.3057 9.837C73.4377 9.525 73.5037 9.18 73.5037 8.802C73.5037 8.034 73.2487 7.455 72.7387 7.065C72.2347 6.675 71.4817 6.48 70.4797 6.48H68.5717V11.349ZM90.1481 5.103V6.57H85.9811V18H84.2351V6.57H80.05V5.103H90.1481ZM100.594 16.614C101.128 16.614 101.605 16.524 102.025 16.344C102.445 16.164 102.799 15.912 103.087 15.588C103.381 15.264 103.603 14.877 103.753 14.427C103.909 13.977 103.987 13.482 103.987 12.942V5.103H105.724V12.942C105.724 13.686 105.604 14.376 105.364 15.012C105.13 15.648 104.791 16.2 104.347 16.668C103.909 17.13 103.372 17.493 102.736 17.757C102.1 18.021 101.386 18.153 100.594 18.153C99.8022 18.153 99.0882 18.021 98.4522 17.757C97.8162 17.493 97.2762 17.13 96.8322 16.668C96.3882 16.2 96.0462 15.648 95.8062 15.012C95.5722 14.376 95.4552 13.686 95.4552 12.942V5.103H97.1922V12.933C97.1922 13.473 97.2672 13.968 97.4172 14.418C97.5732 14.868 97.7952 15.255 98.0832 15.579C98.3772 15.903 98.7342 16.158 99.1542 16.344C99.5802 16.524 100.06 16.614 100.594 16.614ZM114.247 13.176V18H112.51V5.103H116.317C117.133 5.103 117.841 5.199 118.441 5.391C119.047 5.577 119.548 5.844 119.944 6.192C120.34 6.54 120.634 6.96 120.826 7.452C121.024 7.944 121.123 8.493 121.123 9.099C121.123 9.699 121.018 10.248 120.808 10.746C120.598 11.244 120.289 11.673 119.881 12.033C119.479 12.393 118.978 12.675 118.378 12.879C117.778 13.077 117.091 13.176 116.317 13.176H114.247ZM114.247 11.79H116.317C116.815 11.79 117.253 11.724 117.631 11.592C118.015 11.46 118.336 11.277 118.594 11.043C118.852 10.803 119.047 10.518 119.179 10.188C119.311 9.858 119.377 9.495 119.377 9.099C119.377 8.277 119.122 7.635 118.612 7.173C118.108 6.711 117.343 6.48 116.317 6.48H114.247V11.79ZM133.54 7.119C133.486 7.209 133.429 7.278 133.369 7.326C133.309 7.368 133.231 7.389 133.135 7.389C133.033 7.389 132.913 7.338 132.775 7.236C132.643 7.134 132.472 7.023 132.262 6.903C132.058 6.777 131.809 6.663 131.515 6.561C131.227 6.459 130.876 6.408 130.462 6.408C130.072 6.408 129.727 6.462 129.427 6.57C129.127 6.672 128.875 6.813 128.671 6.993C128.473 7.173 128.323 7.386 128.221 7.632C128.119 7.872 128.068 8.133 128.068 8.415C128.068 8.775 128.155 9.075 128.329 9.315C128.509 9.549 128.743 9.75 129.031 9.918C129.325 10.086 129.655 10.233 130.021 10.359C130.393 10.479 130.771 10.605 131.155 10.737C131.545 10.869 131.923 11.019 132.289 11.187C132.661 11.349 132.991 11.556 133.279 11.808C133.573 12.06 133.807 12.369 133.981 12.735C134.161 13.101 134.251 13.551 134.251 14.085C134.251 14.649 134.155 15.18 133.963 15.678C133.771 16.17 133.489 16.599 133.117 16.965C132.751 17.331 132.298 17.619 131.758 17.829C131.224 18.039 130.615 18.144 129.931 18.144C129.097 18.144 128.335 17.994 127.645 17.694C126.961 17.388 126.376 16.977 125.89 16.461L126.394 15.633C126.442 15.567 126.499 15.513 126.565 15.471C126.637 15.423 126.715 15.399 126.799 15.399C126.925 15.399 127.069 15.468 127.231 15.606C127.393 15.738 127.594 15.885 127.834 16.047C128.08 16.209 128.374 16.359 128.716 16.497C129.064 16.629 129.487 16.695 129.985 16.695C130.399 16.695 130.768 16.638 131.092 16.524C131.416 16.41 131.689 16.251 131.911 16.047C132.139 15.837 132.313 15.588 132.433 15.3C132.553 15.012 132.613 14.691 132.613 14.337C132.613 13.947 132.523 13.629 132.343 13.383C132.169 13.131 131.938 12.921 131.65 12.753C131.362 12.585 131.032 12.444 130.66 12.33C130.294 12.21 129.916 12.09 129.526 11.97C129.142 11.844 128.764 11.7 128.392 11.538C128.026 11.376 127.699 11.166 127.411 10.908C127.123 10.65 126.889 10.329 126.709 9.945C126.535 9.555 126.448 9.075 126.448 8.505C126.448 8.049 126.535 7.608 126.709 7.182C126.889 6.756 127.147 6.378 127.483 6.048C127.819 5.718 128.233 5.454 128.725 5.256C129.223 5.058 129.793 4.959 130.435 4.959C131.155 4.959 131.812 5.073 132.406 5.301C133 5.529 133.519 5.859 133.963 6.291L133.54 7.119Z" fill="black"/>
<line y1="44.5" x2="158" y2="44.5" stroke="#51BB52" stroke-width="3"/>
</svg>
