<svg width="412" height="72" viewBox="0 0 412 72" fill="none" xmlns="http://www.w3.org/2000/svg">
<path d="M0 72H149.353V65H0V72Z" fill="url(#paint0_linear)"/>
<path d="M25.19 20.7525C25.025 21.0275 24.8417 21.2383 24.64 21.385C24.4567 21.5133 24.2275 21.5775 23.9525 21.5775C23.6408 21.5775 23.2742 21.4217 22.8525 21.11C22.4308 20.7983 21.8992 20.4592 21.2575 20.0925C20.6342 19.7075 19.8733 19.3592 18.975 19.0475C18.095 18.7358 17.0225 18.58 15.7575 18.58C14.5658 18.58 13.5117 18.745 12.595 19.075C11.6967 19.3867 10.9358 19.8175 10.3125 20.3675C9.7075 20.9175 9.24917 21.5683 8.9375 22.32C8.62583 23.0533 8.47 23.8508 8.47 24.7125C8.47 25.8125 8.73583 26.7292 9.2675 27.4625C9.8175 28.1775 10.5325 28.7917 11.4125 29.305C12.3108 29.8183 13.3192 30.2675 14.4375 30.6525C15.5742 31.0192 16.7292 31.4042 17.9025 31.8075C19.0942 32.2108 20.2492 32.6692 21.3675 33.1825C22.5042 33.6775 23.5125 34.31 24.3925 35.08C25.2908 35.85 26.0058 36.7942 26.5375 37.9125C27.0875 39.0308 27.3625 40.4058 27.3625 42.0375C27.3625 43.7608 27.0692 45.3833 26.4825 46.905C25.8958 48.4083 25.0342 49.7192 23.8975 50.8375C22.7792 51.9558 21.395 52.8358 19.745 53.4775C18.1133 54.1192 16.2525 54.44 14.1625 54.44C11.5958 54.44 9.2675 53.9817 7.1775 53.065C5.0875 52.13 3.3 50.8742 1.815 49.2975L3.355 46.7675C3.50167 46.5658 3.67583 46.4008 3.8775 46.2725C4.0975 46.1258 4.33583 46.0525 4.5925 46.0525C4.83083 46.0525 5.09667 46.1533 5.39 46.355C5.70167 46.5383 6.05 46.7767 6.435 47.07C6.82 47.3633 7.26 47.6842 7.755 48.0325C8.25 48.3808 8.80917 48.7017 9.4325 48.995C10.0742 49.2883 10.7983 49.5358 11.605 49.7375C12.4117 49.9208 13.3192 50.0125 14.3275 50.0125C15.5925 50.0125 16.72 49.8383 17.71 49.49C18.7 49.1417 19.5342 48.6558 20.2125 48.0325C20.9092 47.3908 21.4408 46.63 21.8075 45.75C22.1742 44.87 22.3575 43.8892 22.3575 42.8075C22.3575 41.6158 22.0825 40.6442 21.5325 39.8925C21.0008 39.1225 20.295 38.4808 19.415 37.9675C18.535 37.4542 17.5267 37.0233 16.39 36.675C15.2533 36.3083 14.0983 35.9417 12.925 35.575C11.7517 35.19 10.5967 34.75 9.46 34.255C8.32333 33.76 7.315 33.1183 6.435 32.33C5.555 31.5417 4.84 30.5608 4.29 29.3875C3.75833 28.1958 3.4925 26.7292 3.4925 24.9875C3.4925 23.5942 3.75833 22.2467 4.29 20.945C4.84 19.6433 5.62833 18.4883 6.655 17.48C7.7 16.4717 8.97417 15.665 10.4775 15.06C11.9992 14.455 13.7408 14.1525 15.7025 14.1525C17.9025 14.1525 19.9008 14.5008 21.6975 15.1975C23.5125 15.8942 25.1075 16.9025 26.4825 18.2225L25.19 20.7525ZM46.5579 54.44C44.3579 54.44 42.6621 53.8258 41.4704 52.5975C40.2971 51.3692 39.7104 49.6 39.7104 47.29V30.24H36.3554C36.0621 30.24 35.8146 30.1575 35.6129 29.9925C35.4113 29.8092 35.3104 29.5342 35.3104 29.1675V27.215L39.8754 26.6375L41.0029 18.03C41.0579 17.755 41.1771 17.535 41.3604 17.37C41.5621 17.1867 41.8188 17.095 42.1304 17.095H44.6054V26.6925H52.6629V30.24H44.6054V46.96C44.6054 48.1333 44.8896 49.0042 45.4579 49.5725C46.0263 50.1408 46.7596 50.425 47.6579 50.425C48.1713 50.425 48.6113 50.3608 48.9779 50.2325C49.3629 50.0858 49.6929 49.93 49.9679 49.765C50.2429 49.6 50.4721 49.4533 50.6554 49.325C50.8571 49.1783 51.0313 49.105 51.1779 49.105C51.4346 49.105 51.6638 49.2608 51.8654 49.5725L53.2954 51.91C52.4521 52.6983 51.4346 53.3217 50.2429 53.78C49.0513 54.22 47.8229 54.44 46.5579 54.44ZM78.3148 41.46C76.0598 41.5333 74.1348 41.7167 72.5398 42.01C70.9632 42.285 69.6707 42.6517 68.6623 43.11C67.6723 43.5683 66.9482 44.1092 66.4898 44.7325C66.0498 45.3558 65.8298 46.0525 65.8298 46.8225C65.8298 47.5558 65.949 48.1883 66.1873 48.72C66.4257 49.2517 66.7465 49.6917 67.1498 50.04C67.5715 50.37 68.0573 50.6175 68.6073 50.7825C69.1757 50.9292 69.7807 51.0025 70.4223 51.0025C71.284 51.0025 72.0723 50.92 72.7873 50.755C73.5023 50.5717 74.1715 50.315 74.7948 49.985C75.4365 49.655 76.0415 49.2608 76.6098 48.8025C77.1965 48.3442 77.7648 47.8217 78.3148 47.235V41.46ZM62.5023 30.075C64.0423 28.59 65.7015 27.4808 67.4798 26.7475C69.2582 26.0142 71.229 25.6475 73.3923 25.6475C74.9507 25.6475 76.3348 25.9042 77.5448 26.4175C78.7548 26.9308 79.7723 27.6458 80.5973 28.5625C81.4223 29.4792 82.0457 30.5883 82.4673 31.89C82.889 33.1917 83.0998 34.6217 83.0998 36.18V54H80.9273C80.4507 54 80.084 53.9267 79.8273 53.78C79.5707 53.615 79.369 53.3033 79.2223 52.845L78.6723 50.205C77.939 50.8833 77.224 51.4883 76.5273 52.02C75.8307 52.5333 75.0973 52.9733 74.3273 53.34C73.5573 53.6883 72.7323 53.9542 71.8523 54.1375C70.9907 54.3392 70.0282 54.44 68.9648 54.44C67.8832 54.44 66.8657 54.2933 65.9123 54C64.959 53.6883 64.1248 53.23 63.4098 52.625C62.7132 52.02 62.154 51.2592 61.7323 50.3425C61.329 49.4075 61.1273 48.3075 61.1273 47.0425C61.1273 45.9425 61.4298 44.8883 62.0348 43.88C62.6398 42.8533 63.6207 41.9458 64.9773 41.1575C66.334 40.3692 68.1032 39.7275 70.2848 39.2325C72.4665 38.7192 75.1432 38.4258 78.3148 38.3525V36.18C78.3148 34.0167 77.8473 32.385 76.9123 31.285C75.9773 30.1667 74.6115 29.6075 72.8148 29.6075C71.6048 29.6075 70.5873 29.7633 69.7623 30.075C68.9557 30.3683 68.2498 30.7075 67.6448 31.0925C67.0582 31.4592 66.5448 31.7983 66.1048 32.11C65.6832 32.4033 65.2615 32.55 64.8398 32.55C64.5098 32.55 64.2257 32.4675 63.9873 32.3025C63.749 32.1192 63.5473 31.8992 63.3823 31.6425L62.5023 30.075ZM119.447 26.1425L103.909 62.2225C103.744 62.5892 103.533 62.8825 103.277 63.1025C103.038 63.3225 102.663 63.4325 102.149 63.4325H98.5192L103.607 52.3775L92.1117 26.1425H96.3467C96.7683 26.1425 97.0983 26.2525 97.3367 26.4725C97.5933 26.6742 97.7675 26.9033 97.8592 27.16L105.312 44.705C105.605 45.475 105.853 46.2817 106.054 47.125C106.311 46.2633 106.586 45.4475 106.879 44.6775L114.112 27.16C114.222 26.8667 114.405 26.6283 114.662 26.445C114.937 26.2433 115.239 26.1425 115.569 26.1425H119.447ZM153.991 54H148.656V14.5925H153.991V54ZM172.606 30.185C173.211 29.5067 173.853 28.8925 174.531 28.3425C175.209 27.7925 175.924 27.325 176.676 26.94C177.446 26.5367 178.253 26.2342 179.096 26.0325C179.958 25.8125 180.883 25.7025 181.873 25.7025C183.395 25.7025 184.733 25.9592 185.888 26.4725C187.062 26.9675 188.033 27.6825 188.803 28.6175C189.592 29.5342 190.188 30.6433 190.591 31.945C190.994 33.2467 191.196 34.6858 191.196 36.2625V54H186.273V36.2625C186.273 34.1542 185.788 32.5225 184.816 31.3675C183.863 30.1942 182.405 29.6075 180.443 29.6075C178.995 29.6075 177.638 29.9558 176.373 30.6525C175.127 31.3492 173.972 32.2933 172.908 33.485V54H167.986V26.1425H170.928C171.625 26.1425 172.056 26.4817 172.221 27.16L172.606 30.185ZM205.54 54V30.3225L202.46 29.965C202.075 29.8733 201.754 29.7358 201.498 29.5525C201.259 29.3508 201.14 29.0667 201.14 28.7V26.6925H205.54V23.9975C205.54 22.4025 205.76 20.9908 206.2 19.7625C206.658 18.5158 207.3 17.4708 208.125 16.6275C208.968 15.7658 209.977 15.115 211.15 14.675C212.323 14.235 213.643 14.015 215.11 14.015C216.357 14.015 217.503 14.1983 218.548 14.565L218.438 17.0125C218.401 17.4525 218.153 17.6908 217.695 17.7275C217.255 17.7642 216.659 17.7825 215.908 17.7825C215.064 17.7825 214.294 17.8925 213.598 18.1125C212.919 18.3325 212.333 18.69 211.838 19.185C211.343 19.68 210.958 20.3308 210.683 21.1375C210.426 21.9442 210.298 22.9433 210.298 24.135V26.6925H218.328V30.24H210.463V54H205.54ZM239.337 25.7025C241.372 25.7025 243.205 26.0417 244.837 26.72C246.468 27.3983 247.862 28.3608 249.017 29.6075C250.172 30.8542 251.052 32.3667 251.657 34.145C252.28 35.905 252.592 37.8758 252.592 40.0575C252.592 42.2575 252.28 44.2375 251.657 45.9975C251.052 47.7575 250.172 49.2608 249.017 50.5075C247.862 51.7542 246.468 52.7167 244.837 53.395C243.205 54.055 241.372 54.385 239.337 54.385C237.283 54.385 235.432 54.055 233.782 53.395C232.15 52.7167 230.757 51.7542 229.602 50.5075C228.447 49.2608 227.558 47.7575 226.934 45.9975C226.329 44.2375 226.027 42.2575 226.027 40.0575C226.027 37.8758 226.329 35.905 226.934 34.145C227.558 32.3667 228.447 30.8542 229.602 29.6075C230.757 28.3608 232.15 27.3983 233.782 26.72C235.432 26.0417 237.283 25.7025 239.337 25.7025ZM239.337 50.5625C242.087 50.5625 244.14 49.6458 245.497 47.8125C246.853 45.9608 247.532 43.385 247.532 40.085C247.532 36.7667 246.853 34.1817 245.497 32.33C244.14 30.4783 242.087 29.5525 239.337 29.5525C237.943 29.5525 236.724 29.7908 235.679 30.2675C234.653 30.7442 233.791 31.4317 233.094 32.33C232.416 33.2283 231.903 34.3375 231.554 35.6575C231.224 36.9592 231.059 38.435 231.059 40.085C231.059 43.385 231.738 45.9608 233.094 47.8125C234.469 49.6458 236.55 50.5625 239.337 50.5625ZM268.948 31.725C269.828 29.8183 270.91 28.3333 272.193 27.27C273.476 26.1883 275.044 25.6475 276.895 25.6475C277.482 25.6475 278.041 25.7117 278.573 25.84C279.123 25.9683 279.609 26.17 280.03 26.445L279.673 30.1025C279.563 30.5608 279.288 30.79 278.848 30.79C278.591 30.79 278.215 30.735 277.72 30.625C277.225 30.515 276.666 30.46 276.043 30.46C275.163 30.46 274.375 30.5883 273.678 30.845C273 31.1017 272.385 31.4867 271.835 32C271.304 32.495 270.818 33.1183 270.378 33.87C269.956 34.6033 269.571 35.4467 269.223 36.4V54H264.3V26.1425H267.105C267.637 26.1425 268.004 26.2433 268.205 26.445C268.407 26.6467 268.545 26.995 268.618 27.49L268.948 31.725ZM289.835 54V26.1425H292.777C293.474 26.1425 293.905 26.4817 294.07 27.16L294.427 30.02C295.454 28.755 296.609 27.7192 297.892 26.9125C299.175 26.1058 300.66 25.7025 302.347 25.7025C304.217 25.7025 305.73 26.225 306.885 27.27C308.058 28.315 308.901 29.7267 309.415 31.505C309.818 30.4967 310.331 29.6258 310.955 28.8925C311.596 28.1592 312.311 27.5542 313.1 27.0775C313.888 26.6008 314.722 26.2525 315.602 26.0325C316.5 25.8125 317.408 25.7025 318.325 25.7025C319.791 25.7025 321.093 25.9408 322.23 26.4175C323.385 26.8758 324.356 27.5542 325.145 28.4525C325.951 29.3508 326.565 30.46 326.987 31.78C327.409 33.0817 327.62 34.5758 327.62 36.2625V54H322.697V36.2625C322.697 34.0808 322.22 32.4308 321.267 31.3125C320.314 30.1758 318.939 29.6075 317.142 29.6075C316.335 29.6075 315.565 29.7542 314.832 30.0475C314.117 30.3225 313.485 30.735 312.935 31.285C312.385 31.835 311.945 32.5317 311.615 33.375C311.303 34.2 311.147 35.1625 311.147 36.2625V54H306.225V36.2625C306.225 34.0258 305.775 32.3575 304.877 31.2575C303.979 30.1575 302.668 29.6075 300.945 29.6075C299.735 29.6075 298.616 29.9375 297.59 30.5975C296.563 31.2392 295.619 32.1192 294.757 33.2375V54H289.835ZM359.204 37.0325C359.204 35.8958 359.039 34.86 358.709 33.925C358.397 32.9717 357.93 32.1558 357.307 31.4775C356.702 30.7808 355.959 30.2492 355.079 29.8825C354.199 29.4975 353.2 29.305 352.082 29.305C349.735 29.305 347.874 29.9925 346.499 31.3675C345.142 32.7242 344.299 34.6125 343.969 37.0325H359.204ZM363.164 50.095C362.559 50.8283 361.835 51.47 360.992 52.02C360.148 52.5517 359.241 52.9917 358.269 53.34C357.316 53.6883 356.326 53.945 355.299 54.11C354.272 54.2933 353.255 54.385 352.247 54.385C350.322 54.385 348.543 54.0642 346.912 53.4225C345.298 52.7625 343.896 51.8092 342.704 50.5625C341.531 49.2975 340.614 47.7392 339.954 45.8875C339.294 44.0358 338.964 41.9092 338.964 39.5075C338.964 37.5642 339.257 35.7492 339.844 34.0625C340.449 32.3758 341.311 30.9183 342.429 29.69C343.547 28.4433 344.913 27.4717 346.527 26.775C348.14 26.06 349.955 25.7025 351.972 25.7025C353.64 25.7025 355.18 25.9867 356.592 26.555C358.022 27.105 359.25 27.9117 360.277 28.975C361.322 30.02 362.137 31.3217 362.724 32.88C363.311 34.42 363.604 36.18 363.604 38.16C363.604 38.93 363.522 39.4433 363.357 39.7C363.192 39.9567 362.88 40.085 362.422 40.085H343.804C343.859 41.845 344.097 43.3758 344.519 44.6775C344.959 45.9792 345.564 47.07 346.334 47.95C347.104 48.8117 348.021 49.4625 349.084 49.9025C350.147 50.3242 351.339 50.535 352.659 50.535C353.887 50.535 354.942 50.3975 355.822 50.1225C356.72 49.8292 357.49 49.5175 358.132 49.1875C358.773 48.8575 359.305 48.555 359.727 48.28C360.167 47.9867 360.542 47.84 360.854 47.84C361.257 47.84 361.569 47.9958 361.789 48.3075L363.164 50.095ZM393.267 32.77C392.35 31.5417 391.36 30.6892 390.297 30.2125C389.233 29.7175 388.042 29.47 386.722 29.47C384.137 29.47 382.148 30.3958 380.754 32.2475C379.361 34.0992 378.664 36.7392 378.664 40.1675C378.664 41.9825 378.82 43.5408 379.132 44.8425C379.443 46.1258 379.902 47.1892 380.507 48.0325C381.112 48.8575 381.854 49.4625 382.734 49.8475C383.614 50.2325 384.613 50.425 385.732 50.425C387.345 50.425 388.748 50.0583 389.939 49.325C391.149 48.5917 392.258 47.5558 393.267 46.2175V32.77ZM398.162 13.4925V54H395.247C394.55 54 394.11 53.6608 393.927 52.9825L393.487 49.6C392.295 51.03 390.938 52.185 389.417 53.065C387.895 53.945 386.135 54.385 384.137 54.385C382.542 54.385 381.093 54.0825 379.792 53.4775C378.49 52.8542 377.381 51.9467 376.464 50.755C375.548 49.5633 374.842 48.0783 374.347 46.3C373.852 44.5217 373.604 42.4775 373.604 40.1675C373.604 38.1142 373.879 36.2075 374.429 34.4475C374.979 32.6692 375.768 31.1292 376.794 29.8275C377.821 28.5258 379.077 27.5083 380.562 26.775C382.065 26.0233 383.752 25.6475 385.622 25.6475C387.327 25.6475 388.784 25.9408 389.994 26.5275C391.223 27.0958 392.313 27.8933 393.267 28.92V13.4925H398.162Z" fill="black"/>
<defs>
<linearGradient id="paint0_linear" x1="169.664" y1="65.431" x2="159.382" y2="21.2732" gradientUnits="userSpaceOnUse">
<stop stop-color="#458ACC"/>
<stop offset="1" stop-color="#B6D15D"/>
</linearGradient>
</defs>
</svg>
