<svg width="341" height="139" viewBox="0 0 341 139" fill="none" xmlns="http://www.w3.org/2000/svg">
<path d="M0 139H129.783V132H0V139Z" fill="url(#paint0_linear)"/>
<path d="M31.68 19.075H18.92V54H13.6125V19.075H0.825V14.5925H31.68V19.075ZM46.3117 29.855C47.5034 28.59 48.8234 27.5817 50.2717 26.83C51.7201 26.0783 53.3884 25.7025 55.2767 25.7025C56.7984 25.7025 58.1367 25.9592 59.2917 26.4725C60.4651 26.9675 61.4367 27.6825 62.2067 28.6175C62.9951 29.5342 63.5909 30.6433 63.9942 31.945C64.3976 33.2467 64.5992 34.6858 64.5992 36.2625V54H59.6767V36.2625C59.6767 34.1542 59.1909 32.5225 58.2192 31.3675C57.2659 30.1942 55.8084 29.6075 53.8467 29.6075C52.3984 29.6075 51.0417 29.9558 49.7767 30.6525C48.5301 31.3492 47.3751 32.2933 46.3117 33.485V54H41.3892V13.4925H46.3117V29.855ZM89.3007 25.7025C91.3357 25.7025 93.169 26.0417 94.8007 26.72C96.4323 27.3983 97.8257 28.3608 98.9807 29.6075C100.136 30.8542 101.016 32.3667 101.621 34.145C102.244 35.905 102.556 37.8758 102.556 40.0575C102.556 42.2575 102.244 44.2375 101.621 45.9975C101.016 47.7575 100.136 49.2608 98.9807 50.5075C97.8257 51.7542 96.4323 52.7167 94.8007 53.395C93.169 54.055 91.3357 54.385 89.3007 54.385C87.2473 54.385 85.3957 54.055 83.7457 53.395C82.114 52.7167 80.7207 51.7542 79.5657 50.5075C78.4107 49.2608 77.5215 47.7575 76.8982 45.9975C76.2932 44.2375 75.9907 42.2575 75.9907 40.0575C75.9907 37.8758 76.2932 35.905 76.8982 34.145C77.5215 32.3667 78.4107 30.8542 79.5657 29.6075C80.7207 28.3608 82.114 27.3983 83.7457 26.72C85.3957 26.0417 87.2473 25.7025 89.3007 25.7025ZM89.3007 50.5625C92.0507 50.5625 94.104 49.6458 95.4607 47.8125C96.8173 45.9608 97.4957 43.385 97.4957 40.085C97.4957 36.7667 96.8173 34.1817 95.4607 32.33C94.104 30.4783 92.0507 29.5525 89.3007 29.5525C87.9073 29.5525 86.6882 29.7908 85.6432 30.2675C84.6165 30.7442 83.7548 31.4317 83.0582 32.33C82.3798 33.2283 81.8665 34.3375 81.5182 35.6575C81.1882 36.9592 81.0232 38.435 81.0232 40.085C81.0232 43.385 81.7015 45.9608 83.0582 47.8125C84.4332 49.6458 86.514 50.5625 89.3007 50.5625ZM137.172 26.1425V54H134.257C133.56 54 133.12 53.6608 132.937 52.9825L132.552 49.985C131.342 51.3233 129.985 52.405 128.482 53.23C126.978 54.0367 125.255 54.44 123.312 54.44C121.79 54.44 120.443 54.1925 119.269 53.6975C118.114 53.1842 117.143 52.4692 116.354 51.5525C115.566 50.6358 114.97 49.5267 114.567 48.225C114.182 46.9233 113.989 45.4842 113.989 43.9075V26.1425H118.884V43.9075C118.884 46.0158 119.361 47.6475 120.314 48.8025C121.286 49.9575 122.762 50.535 124.742 50.535C126.19 50.535 127.538 50.1958 128.784 49.5175C130.049 48.8208 131.213 47.8675 132.277 46.6575V26.1425H137.172ZM160.141 40.3875C161.131 40.3875 162.001 40.25 162.753 39.975C163.505 39.7 164.137 39.315 164.651 38.82C165.164 38.325 165.549 37.7383 165.806 37.06C166.062 36.3633 166.191 35.6025 166.191 34.7775C166.191 33.0725 165.668 31.7158 164.623 30.7075C163.596 29.6992 162.102 29.195 160.141 29.195C158.161 29.195 156.648 29.6992 155.603 30.7075C154.576 31.7158 154.063 33.0725 154.063 34.7775C154.063 35.6025 154.191 36.3633 154.448 37.06C154.723 37.7383 155.117 38.325 155.631 38.82C156.144 39.315 156.776 39.7 157.528 39.975C158.28 40.25 159.151 40.3875 160.141 40.3875ZM168.968 55.5125C168.968 54.8342 168.776 54.2842 168.391 53.8625C168.006 53.4408 167.483 53.1108 166.823 52.8725C166.181 52.6342 165.43 52.4692 164.568 52.3775C163.706 52.2675 162.79 52.185 161.818 52.13C160.865 52.075 159.893 52.02 158.903 51.965C157.913 51.91 156.96 51.8183 156.043 51.69C155.016 52.1667 154.173 52.7717 153.513 53.505C152.871 54.22 152.551 55.0633 152.551 56.035C152.551 56.6583 152.706 57.2358 153.018 57.7675C153.348 58.3175 153.843 58.785 154.503 59.17C155.163 59.5733 155.988 59.885 156.978 60.105C157.986 60.3433 159.169 60.4625 160.526 60.4625C161.846 60.4625 163.028 60.3433 164.073 60.105C165.118 59.8667 165.998 59.5275 166.713 59.0875C167.446 58.6475 168.006 58.125 168.391 57.52C168.776 56.915 168.968 56.2458 168.968 55.5125ZM173.946 27.2425V29.0575C173.946 29.6625 173.561 30.0475 172.791 30.2125L169.628 30.625C170.251 31.835 170.563 33.1733 170.563 34.64C170.563 35.9967 170.297 37.2342 169.766 38.3525C169.252 39.4525 168.537 40.3967 167.621 41.185C166.704 41.9733 165.604 42.5783 164.321 43C163.037 43.4217 161.644 43.6325 160.141 43.6325C158.839 43.6325 157.611 43.4767 156.456 43.165C155.869 43.5317 155.42 43.9258 155.108 44.3475C154.796 44.7508 154.641 45.1633 154.641 45.585C154.641 46.245 154.906 46.7492 155.438 47.0975C155.988 47.4275 156.703 47.6658 157.583 47.8125C158.463 47.9592 159.462 48.0508 160.581 48.0875C161.717 48.1242 162.872 48.1883 164.046 48.28C165.237 48.3533 166.392 48.4908 167.511 48.6925C168.647 48.8942 169.656 49.2242 170.536 49.6825C171.416 50.1408 172.121 50.7733 172.653 51.58C173.203 52.3867 173.478 53.4317 173.478 54.715C173.478 55.9067 173.176 57.0617 172.571 58.18C171.984 59.2983 171.131 60.2883 170.013 61.15C168.895 62.03 167.52 62.7267 165.888 63.24C164.275 63.7717 162.451 64.0375 160.416 64.0375C158.381 64.0375 156.602 63.8358 155.081 63.4325C153.559 63.0292 152.294 62.4883 151.286 61.81C150.277 61.1317 149.516 60.3433 149.003 59.445C148.508 58.565 148.261 57.6392 148.261 56.6675C148.261 55.2925 148.691 54.1283 149.553 53.175C150.415 52.2217 151.597 51.4608 153.101 50.8925C152.276 50.5258 151.616 50.04 151.121 49.435C150.644 48.8117 150.406 47.9775 150.406 46.9325C150.406 46.5292 150.479 46.1167 150.626 45.695C150.772 45.255 150.992 44.8242 151.286 44.4025C151.597 43.9625 151.973 43.55 152.413 43.165C152.853 42.78 153.366 42.4408 153.953 42.1475C152.578 41.3775 151.506 40.36 150.736 39.095C149.966 37.8117 149.581 36.3267 149.581 34.64C149.581 33.2833 149.837 32.055 150.351 30.955C150.882 29.8367 151.616 28.8925 152.551 28.1225C153.486 27.3342 154.595 26.7292 155.878 26.3075C157.18 25.8858 158.601 25.675 160.141 25.675C161.351 25.675 162.478 25.8125 163.523 26.0875C164.568 26.3442 165.521 26.7292 166.383 27.2425H173.946ZM189.43 29.855C190.622 28.59 191.942 27.5817 193.39 26.83C194.838 26.0783 196.507 25.7025 198.395 25.7025C199.917 25.7025 201.255 25.9592 202.41 26.4725C203.583 26.9675 204.555 27.6825 205.325 28.6175C206.113 29.5342 206.709 30.6433 207.112 31.945C207.516 33.2467 207.717 34.6858 207.717 36.2625V54H202.795V36.2625C202.795 34.1542 202.309 32.5225 201.337 31.3675C200.384 30.1942 198.927 29.6075 196.965 29.6075C195.517 29.6075 194.16 29.9558 192.895 30.6525C191.648 31.3492 190.493 32.2933 189.43 33.485V54H184.507V13.4925H189.43V29.855ZM228.853 54.44C226.653 54.44 224.957 53.8258 223.765 52.5975C222.592 51.3692 222.005 49.6 222.005 47.29V30.24H218.65C218.357 30.24 218.11 30.1575 217.908 29.9925C217.706 29.8092 217.605 29.5342 217.605 29.1675V27.215L222.17 26.6375L223.298 18.03C223.353 17.755 223.472 17.535 223.655 17.37C223.857 17.1867 224.114 17.095 224.425 17.095H226.9V26.6925H234.958V30.24H226.9V46.96C226.9 48.1333 227.185 49.0042 227.753 49.5725C228.321 50.1408 229.055 50.425 229.953 50.425C230.466 50.425 230.906 50.3608 231.273 50.2325C231.658 50.0858 231.988 49.93 232.263 49.765C232.538 49.6 232.767 49.4533 232.95 49.325C233.152 49.1783 233.326 49.105 233.473 49.105C233.73 49.105 233.959 49.2608 234.16 49.5725L235.59 51.91C234.747 52.6983 233.73 53.3217 232.538 53.78C231.346 54.22 230.118 54.44 228.853 54.44ZM27.39 115.517V120H5.0325V80.5925H10.34V115.517H27.39ZM54.2872 103.032C54.2872 101.896 54.1222 100.86 53.7922 99.925C53.4805 98.9717 53.013 98.1558 52.3897 97.4775C51.7846 96.7808 51.0421 96.2492 50.1621 95.8825C49.2821 95.4975 48.283 95.305 47.1646 95.305C44.818 95.305 42.9571 95.9925 41.5821 97.3675C40.2255 98.7242 39.3821 100.612 39.0521 103.032H54.2872ZM58.2472 116.095C57.6422 116.828 56.918 117.47 56.0747 118.02C55.2313 118.552 54.3238 118.992 53.3521 119.34C52.3988 119.688 51.4088 119.945 50.3821 120.11C49.3555 120.293 48.338 120.385 47.3296 120.385C45.4046 120.385 43.6263 120.064 41.9946 119.422C40.3813 118.762 38.9788 117.809 37.7871 116.562C36.6138 115.297 35.6971 113.739 35.0371 111.887C34.3771 110.036 34.0471 107.909 34.0471 105.507C34.0471 103.564 34.3405 101.749 34.9271 100.062C35.5321 98.3758 36.3938 96.9183 37.5121 95.69C38.6305 94.4433 39.9963 93.4717 41.6096 92.775C43.223 92.06 45.038 91.7025 47.0546 91.7025C48.723 91.7025 50.263 91.9867 51.6746 92.555C53.1046 93.105 54.333 93.9117 55.3596 94.975C56.4046 96.02 57.2205 97.3217 57.8071 98.88C58.3938 100.42 58.6871 102.18 58.6871 104.16C58.6871 104.93 58.6046 105.443 58.4396 105.7C58.2746 105.957 57.963 106.085 57.5046 106.085H38.8871C38.9421 107.845 39.1805 109.376 39.6021 110.677C40.0421 111.979 40.6471 113.07 41.4171 113.95C42.1871 114.812 43.1038 115.462 44.1671 115.902C45.2305 116.324 46.4221 116.535 47.7421 116.535C48.9705 116.535 50.0246 116.397 50.9046 116.122C51.803 115.829 52.573 115.517 53.2146 115.187C53.8563 114.857 54.388 114.555 54.8097 114.28C55.2496 113.987 55.6255 113.84 55.9372 113.84C56.3405 113.84 56.6521 113.996 56.8721 114.307L58.2472 116.095ZM85.2973 107.46C83.0423 107.533 81.1173 107.717 79.5223 108.01C77.9456 108.285 76.6531 108.652 75.6448 109.11C74.6548 109.568 73.9306 110.109 73.4723 110.732C73.0323 111.356 72.8123 112.052 72.8123 112.822C72.8123 113.556 72.9314 114.188 73.1698 114.72C73.4081 115.252 73.7289 115.692 74.1323 116.04C74.5539 116.37 75.0398 116.617 75.5898 116.782C76.1581 116.929 76.7631 117.002 77.4048 117.002C78.2664 117.002 79.0548 116.92 79.7698 116.755C80.4848 116.572 81.1539 116.315 81.7773 115.985C82.4189 115.655 83.0239 115.261 83.5923 114.802C84.1789 114.344 84.7473 113.822 85.2973 113.235V107.46ZM69.4848 96.075C71.0248 94.59 72.6839 93.4808 74.4623 92.7475C76.2406 92.0142 78.2114 91.6475 80.3748 91.6475C81.9331 91.6475 83.3173 91.9042 84.5273 92.4175C85.7373 92.9308 86.7548 93.6458 87.5798 94.5625C88.4048 95.4792 89.0281 96.5883 89.4498 97.89C89.8714 99.1917 90.0823 100.622 90.0823 102.18V120H87.9098C87.4331 120 87.0664 119.927 86.8098 119.78C86.5531 119.615 86.3514 119.303 86.2048 118.845L85.6548 116.205C84.9214 116.883 84.2064 117.488 83.5098 118.02C82.8131 118.533 82.0798 118.973 81.3098 119.34C80.5398 119.688 79.7148 119.954 78.8348 120.138C77.9731 120.339 77.0106 120.44 75.9473 120.44C74.8656 120.44 73.8481 120.293 72.8948 120C71.9414 119.688 71.1073 119.23 70.3923 118.625C69.6956 118.02 69.1364 117.259 68.7148 116.342C68.3114 115.407 68.1098 114.307 68.1098 113.042C68.1098 111.942 68.4123 110.888 69.0173 109.88C69.6223 108.853 70.6031 107.946 71.9598 107.157C73.3164 106.369 75.0856 105.727 77.2673 105.232C79.4489 104.719 82.1256 104.426 85.2973 104.352V102.18C85.2973 100.017 84.8298 98.385 83.8948 97.285C82.9598 96.1667 81.5939 95.6075 79.7973 95.6075C78.5873 95.6075 77.5698 95.7633 76.7448 96.075C75.9381 96.3683 75.2323 96.7075 74.6273 97.0925C74.0406 97.4592 73.5273 97.7983 73.0873 98.11C72.6656 98.4033 72.2439 98.55 71.8223 98.55C71.4923 98.55 71.2081 98.4675 70.9698 98.3025C70.7314 98.1192 70.5298 97.8992 70.3648 97.6425L69.4848 96.075ZM121.189 98.77C120.272 97.5417 119.282 96.6892 118.219 96.2125C117.155 95.7175 115.964 95.47 114.644 95.47C112.059 95.47 110.069 96.3958 108.676 98.2475C107.283 100.099 106.586 102.739 106.586 106.167C106.586 107.982 106.742 109.541 107.054 110.842C107.365 112.126 107.824 113.189 108.429 114.032C109.034 114.857 109.776 115.462 110.656 115.847C111.536 116.232 112.535 116.425 113.654 116.425C115.267 116.425 116.669 116.058 117.861 115.325C119.071 114.592 120.18 113.556 121.189 112.217V98.77ZM126.084 79.4925V120H123.169C122.472 120 122.032 119.661 121.849 118.982L121.409 115.6C120.217 117.03 118.86 118.185 117.339 119.065C115.817 119.945 114.057 120.385 112.059 120.385C110.464 120.385 109.015 120.082 107.714 119.477C106.412 118.854 105.303 117.947 104.386 116.755C103.469 115.563 102.764 114.078 102.269 112.3C101.774 110.522 101.526 108.477 101.526 106.167C101.526 104.114 101.801 102.207 102.351 100.447C102.901 98.6692 103.689 97.1292 104.716 95.8275C105.743 94.5258 106.999 93.5083 108.484 92.775C109.987 92.0233 111.674 91.6475 113.544 91.6475C115.249 91.6475 116.706 91.9408 117.916 92.5275C119.144 93.0958 120.235 93.8933 121.189 94.92V79.4925H126.084ZM157.96 103.032C157.96 101.896 157.795 100.86 157.465 99.925C157.153 98.9717 156.686 98.1558 156.063 97.4775C155.458 96.7808 154.715 96.2492 153.835 95.8825C152.955 95.4975 151.956 95.305 150.838 95.305C148.491 95.305 146.63 95.9925 145.255 97.3675C143.898 98.7242 143.055 100.612 142.725 103.032H157.96ZM161.92 116.095C161.315 116.828 160.591 117.47 159.748 118.02C158.904 118.552 157.997 118.992 157.025 119.34C156.072 119.688 155.082 119.945 154.055 120.11C153.028 120.293 152.011 120.385 151.003 120.385C149.078 120.385 147.299 120.064 145.668 119.422C144.054 118.762 142.652 117.809 141.46 116.562C140.287 115.297 139.37 113.739 138.71 111.887C138.05 110.036 137.72 107.909 137.72 105.507C137.72 103.564 138.013 101.749 138.6 100.062C139.205 98.3758 140.067 96.9183 141.185 95.69C142.303 94.4433 143.669 93.4717 145.283 92.775C146.896 92.06 148.711 91.7025 150.728 91.7025C152.396 91.7025 153.936 91.9867 155.348 92.555C156.778 93.105 158.006 93.9117 159.033 94.975C160.078 96.02 160.893 97.3217 161.48 98.88C162.067 100.42 162.36 102.18 162.36 104.16C162.36 104.93 162.278 105.443 162.113 105.7C161.948 105.957 161.636 106.085 161.178 106.085H142.56C142.615 107.845 142.853 109.376 143.275 110.677C143.715 111.979 144.32 113.07 145.09 113.95C145.86 114.812 146.777 115.462 147.84 115.902C148.903 116.324 150.095 116.535 151.415 116.535C152.643 116.535 153.698 116.397 154.578 116.122C155.476 115.829 156.246 115.517 156.888 115.187C157.529 114.857 158.061 114.555 158.483 114.28C158.923 113.987 159.298 113.84 159.61 113.84C160.013 113.84 160.325 113.996 160.545 114.307L161.92 116.095ZM178.52 97.725C179.4 95.8183 180.482 94.3333 181.765 93.27C183.048 92.1883 184.616 91.6475 186.468 91.6475C187.054 91.6475 187.613 91.7117 188.145 91.84C188.695 91.9683 189.181 92.17 189.603 92.445L189.245 96.1025C189.135 96.5608 188.86 96.79 188.42 96.79C188.163 96.79 187.788 96.735 187.293 96.625C186.798 96.515 186.238 96.46 185.615 96.46C184.735 96.46 183.947 96.5883 183.25 96.845C182.572 97.1017 181.958 97.4867 181.408 98C180.876 98.495 180.39 99.1183 179.95 99.87C179.528 100.603 179.143 101.447 178.795 102.4V120H173.873V92.1425H176.678C177.209 92.1425 177.576 92.2433 177.778 92.445C177.979 92.6467 178.117 92.995 178.19 93.49L178.52 97.725ZM215.471 96.735C215.251 97.1383 214.911 97.34 214.453 97.34C214.178 97.34 213.866 97.2392 213.518 97.0375C213.17 96.8358 212.739 96.6158 212.226 96.3775C211.731 96.1208 211.135 95.8917 210.438 95.69C209.741 95.47 208.916 95.36 207.963 95.36C207.138 95.36 206.396 95.47 205.736 95.69C205.076 95.8917 204.507 96.1758 204.031 96.5425C203.572 96.9092 203.215 97.34 202.958 97.835C202.72 98.3117 202.601 98.8342 202.601 99.4025C202.601 100.117 202.802 100.713 203.206 101.19C203.627 101.667 204.177 102.079 204.856 102.427C205.534 102.776 206.304 103.087 207.166 103.362C208.027 103.619 208.907 103.903 209.806 104.215C210.722 104.508 211.611 104.838 212.473 105.205C213.335 105.572 214.105 106.03 214.783 106.58C215.461 107.13 216.002 107.808 216.406 108.615C216.827 109.403 217.038 110.357 217.038 111.475C217.038 112.758 216.809 113.95 216.351 115.05C215.892 116.132 215.214 117.076 214.316 117.882C213.417 118.671 212.317 119.294 211.016 119.752C209.714 120.211 208.211 120.44 206.506 120.44C204.562 120.44 202.802 120.128 201.226 119.505C199.649 118.863 198.311 118.047 197.211 117.057L198.366 115.187C198.512 114.949 198.686 114.766 198.888 114.637C199.09 114.509 199.346 114.445 199.658 114.445C199.988 114.445 200.336 114.573 200.703 114.83C201.07 115.087 201.51 115.371 202.023 115.682C202.555 115.994 203.196 116.278 203.948 116.535C204.7 116.792 205.635 116.92 206.753 116.92C207.706 116.92 208.541 116.801 209.256 116.562C209.971 116.306 210.566 115.967 211.043 115.545C211.52 115.123 211.868 114.637 212.088 114.087C212.326 113.537 212.446 112.951 212.446 112.327C212.446 111.557 212.235 110.925 211.813 110.43C211.41 109.917 210.869 109.486 210.191 109.137C209.512 108.771 208.733 108.459 207.853 108.202C206.991 107.927 206.102 107.643 205.186 107.35C204.287 107.057 203.398 106.727 202.518 106.36C201.656 105.975 200.886 105.498 200.208 104.93C199.53 104.362 198.98 103.665 198.558 102.84C198.155 101.997 197.953 100.979 197.953 99.7875C197.953 98.7242 198.173 97.7067 198.613 96.735C199.053 95.745 199.695 94.8833 200.538 94.15C201.381 93.3983 202.417 92.8025 203.646 92.3625C204.874 91.9225 206.276 91.7025 207.853 91.7025C209.686 91.7025 211.327 91.9958 212.776 92.5825C214.242 93.1508 215.507 93.9392 216.571 94.9475L215.471 96.735ZM233.462 95.855C234.654 94.59 235.974 93.5817 237.422 92.83C238.87 92.0783 240.539 91.7025 242.427 91.7025C243.949 91.7025 245.287 91.9592 246.442 92.4725C247.615 92.9675 248.587 93.6825 249.357 94.6175C250.145 95.5342 250.741 96.6433 251.145 97.945C251.548 99.2467 251.75 100.686 251.75 102.262V120H246.827V102.262C246.827 100.154 246.341 98.5225 245.37 97.3675C244.416 96.1942 242.959 95.6075 240.997 95.6075C239.549 95.6075 238.192 95.9558 236.927 96.6525C235.68 97.3492 234.525 98.2933 233.462 99.485V120H228.54V79.4925H233.462V95.855ZM269.879 92.1425V120H264.984V92.1425H269.879ZM270.924 83.3975C270.924 83.8742 270.823 84.3233 270.621 84.745C270.438 85.1483 270.181 85.515 269.851 85.845C269.539 86.1567 269.164 86.4042 268.724 86.5875C268.302 86.7708 267.853 86.8625 267.376 86.8625C266.899 86.8625 266.45 86.7708 266.029 86.5875C265.625 86.4042 265.268 86.1567 264.956 85.845C264.644 85.515 264.397 85.1483 264.214 84.745C264.03 84.3233 263.939 83.8742 263.939 83.3975C263.939 82.9208 264.03 82.4717 264.214 82.05C264.397 81.61 264.644 81.2342 264.956 80.9225C265.268 80.5925 265.625 80.3358 266.029 80.1525C266.45 79.9692 266.899 79.8775 267.376 79.8775C267.853 79.8775 268.302 79.9692 268.724 80.1525C269.164 80.3358 269.539 80.5925 269.851 80.9225C270.181 81.2342 270.438 81.61 270.621 82.05C270.823 82.4717 270.924 82.9208 270.924 83.3975ZM288.344 113.29C289.242 114.5 290.223 115.352 291.286 115.847C292.35 116.342 293.541 116.59 294.861 116.59C297.465 116.59 299.463 115.664 300.856 113.812C302.25 111.961 302.946 109.321 302.946 105.892C302.946 104.077 302.781 102.519 302.451 101.217C302.14 99.9158 301.681 98.8525 301.076 98.0275C300.471 97.1842 299.729 96.57 298.849 96.185C297.969 95.8 296.97 95.6075 295.851 95.6075C294.256 95.6075 292.854 95.9742 291.644 96.7075C290.452 97.4408 289.352 98.4767 288.344 99.815V113.29ZM288.096 96.46C289.27 95.0117 290.626 93.8475 292.166 92.9675C293.706 92.0875 295.466 91.6475 297.446 91.6475C299.06 91.6475 300.517 91.9592 301.819 92.5825C303.121 93.1875 304.23 94.095 305.146 95.305C306.063 96.4967 306.769 97.9817 307.264 99.76C307.759 101.538 308.006 103.582 308.006 105.892C308.006 107.946 307.731 109.862 307.181 111.64C306.631 113.4 305.834 114.931 304.789 116.232C303.762 117.516 302.497 118.533 300.994 119.285C299.509 120.018 297.831 120.385 295.961 120.385C294.256 120.385 292.79 120.101 291.561 119.532C290.351 118.946 289.279 118.139 288.344 117.112V129.433H283.421V92.1425H286.364C287.061 92.1425 287.491 92.4817 287.656 93.16L288.096 96.46Z" fill="black"/>
<defs>
<linearGradient id="paint0_linear" x1="147.432" y1="132.431" x2="135.794" y2="88.9975" gradientUnits="userSpaceOnUse">
<stop stop-color="#458ACC"/>
<stop offset="1" stop-color="#B6D15D"/>
</linearGradient>
</defs>
</svg>
