<svg width="158" height="46" viewBox="0 0 158 46" fill="none" xmlns="http://www.w3.org/2000/svg">
<path d="M42.4189 5.103H43.8139C43.9699 5.103 44.0959 5.142 44.1919 5.22C44.2879 5.298 44.3599 5.397 44.4079 5.517L48.0529 14.616C48.1369 14.82 48.2119 15.042 48.2779 15.282C48.3499 15.522 48.4189 15.771 48.4849 16.029C48.5389 15.771 48.5959 15.522 48.6559 15.282C48.7219 15.042 48.7969 14.82 48.8809 14.616L52.5079 5.517C52.5499 5.415 52.6219 5.322 52.7239 5.238C52.8259 5.148 52.9519 5.103 53.1019 5.103H54.5059L49.2499 18H47.6749L42.4189 5.103ZM67.6942 5.103V6.525H61.5022V10.809H66.5153V12.177H61.5022V16.578H67.6942V18H59.7472V5.103H67.6942ZM74.7062 5.103C74.8622 5.103 74.9762 5.124 75.0482 5.166C75.1262 5.202 75.2132 5.28 75.3092 5.4L82.7792 15.12C82.7612 14.964 82.7492 14.814 82.7432 14.67C82.7372 14.52 82.7342 14.376 82.7342 14.238V5.103H84.2642V18H83.3822C83.2442 18 83.1272 17.976 83.0312 17.928C82.9412 17.88 82.8512 17.799 82.7612 17.685L75.3002 7.974C75.3122 8.124 75.3212 8.271 75.3272 8.415C75.3332 8.559 75.3362 8.691 75.3362 8.811V18H73.8062V5.103H74.7062ZM96.0247 16.614C96.5587 16.614 97.0357 16.524 97.4557 16.344C97.8757 16.164 98.2297 15.912 98.5177 15.588C98.8117 15.264 99.0337 14.877 99.1837 14.427C99.3397 13.977 99.4177 13.482 99.4177 12.942V5.103H101.155V12.942C101.155 13.686 101.035 14.376 100.795 15.012C100.561 15.648 100.222 16.2 99.7777 16.668C99.3397 17.13 98.8027 17.493 98.1667 17.757C97.5307 18.021 96.8167 18.153 96.0247 18.153C95.2327 18.153 94.5187 18.021 93.8827 17.757C93.2467 17.493 92.7067 17.13 92.2627 16.668C91.8187 16.2 91.4767 15.648 91.2367 15.012C91.0027 14.376 90.8857 13.686 90.8857 12.942V5.103H92.6227V12.933C92.6227 13.473 92.6977 13.968 92.8477 14.418C93.0037 14.868 93.2257 15.255 93.5137 15.579C93.8077 15.903 94.1647 16.158 94.5847 16.344C95.0107 16.524 95.4907 16.614 96.0247 16.614ZM115.707 5.103V6.525H109.515V10.809H114.528V12.177H109.515V16.578H115.707V18H107.76V5.103H115.707Z" fill="black"/>
<line y1="44.5" x2="158" y2="44.5" stroke="#51BB52" stroke-width="3"/>
</svg>
