<svg width="453" height="136" viewBox="0 0 453 136" fill="none" xmlns="http://www.w3.org/2000/svg">
<path d="M22.19 34.48C22.19 37.2567 21.8517 39.7067 21.175 41.83C20.4983 43.9533 19.5183 45.7383 18.235 47.185C16.9517 48.6317 15.4 49.7283 13.58 50.475C11.76 51.1983 9.70667 51.56 7.42 51.56C6.37 51.56 5.30833 51.4783 4.235 51.315C3.16167 51.1517 2.05333 50.895 0.91 50.545C0.933333 50.2183 0.956667 49.8917 0.98 49.565C1.02667 49.2383 1.07333 48.9117 1.12 48.585C1.16667 48.375 1.24833 48.1883 1.365 48.025C1.505 47.8617 1.73833 47.78 2.065 47.78C2.275 47.78 2.52 47.8267 2.8 47.92C3.10333 47.99 3.45333 48.0717 3.85 48.165C4.24667 48.2583 4.71333 48.3517 5.25 48.445C5.78667 48.515 6.405 48.55 7.105 48.55C8.87833 48.55 10.4767 48.27 11.9 47.71C13.3233 47.15 14.5367 46.2983 15.54 45.155C16.5433 43.9883 17.3017 42.53 17.815 40.78C18.3517 39.0067 18.62 36.93 18.62 34.55V1.475H22.19V34.48ZM47.1472 15.615C49.6439 15.615 51.8722 16.0467 53.8322 16.91C55.8155 17.75 57.4839 18.9517 58.8372 20.515C60.1905 22.0783 61.2172 23.9683 61.9172 26.185C62.6405 28.3783 63.0022 30.84 63.0022 33.57C63.0022 36.3 62.6405 38.7617 61.9172 40.955C61.2172 43.1483 60.1905 45.0267 58.8372 46.59C57.4839 48.1533 55.8155 49.355 53.8322 50.195C51.8722 51.035 49.6439 51.455 47.1472 51.455C44.6505 51.455 42.4105 51.035 40.4272 50.195C38.4672 49.355 36.7989 48.1533 35.4222 46.59C34.0689 45.0267 33.0305 43.1483 32.3072 40.955C31.6072 38.7617 31.2572 36.3 31.2572 33.57C31.2572 30.84 31.6072 28.3783 32.3072 26.185C33.0305 23.9683 34.0689 22.0783 35.4222 20.515C36.7989 18.9517 38.4672 17.75 40.4272 16.91C42.4105 16.0467 44.6505 15.615 47.1472 15.615ZM47.1472 48.83C49.2239 48.83 51.0322 48.48 52.5722 47.78C54.1355 47.0567 55.4305 46.03 56.4572 44.7C57.5072 43.37 58.2889 41.7717 58.8022 39.905C59.3155 38.015 59.5722 35.9033 59.5722 33.57C59.5722 31.26 59.3155 29.16 58.8022 27.27C58.2889 25.38 57.5072 23.77 56.4572 22.44C55.4305 21.0867 54.1355 20.0483 52.5722 19.325C51.0322 18.6017 49.2239 18.24 47.1472 18.24C45.0705 18.24 43.2505 18.6017 41.6872 19.325C40.1472 20.0483 38.8522 21.0867 37.8022 22.44C36.7755 23.77 35.9939 25.38 35.4572 27.27C34.9439 29.16 34.6872 31.26 34.6872 33.57C34.6872 35.9033 34.9439 38.015 35.4572 39.905C35.9939 41.7717 36.7755 43.37 37.8022 44.7C38.8522 46.03 40.1472 47.0567 41.6872 47.78C43.2505 48.48 45.0705 48.83 47.1472 48.83ZM76.1004 16.175V51H72.7754V16.175H76.1004ZM77.5354 4.17C77.5354 4.59 77.4421 4.98667 77.2554 5.36C77.0921 5.71 76.8704 6.025 76.5904 6.305C76.3104 6.585 75.9837 6.80666 75.6104 6.97C75.2371 7.13333 74.8404 7.215 74.4204 7.215C74.0004 7.215 73.6037 7.13333 73.2304 6.97C72.8571 6.80666 72.5304 6.585 72.2504 6.305C71.9704 6.025 71.7487 5.71 71.5854 5.36C71.4221 4.98667 71.3404 4.59 71.3404 4.17C71.3404 3.75 71.4221 3.35333 71.5854 2.98C71.7487 2.58333 71.9704 2.245 72.2504 1.965C72.5304 1.685 72.8571 1.46333 73.2304 1.3C73.6037 1.13666 74.0004 1.055 74.4204 1.055C74.8404 1.055 75.2371 1.13666 75.6104 1.3C75.9837 1.46333 76.3104 1.685 76.5904 1.965C76.8704 2.245 77.0921 2.58333 77.2554 2.98C77.4421 3.35333 77.5354 3.75 77.5354 4.17ZM91.1613 22.265C92.7713 20.2583 94.6263 18.6483 96.7263 17.435C98.8497 16.2217 101.206 15.615 103.796 15.615C105.71 15.615 107.39 15.9183 108.836 16.525C110.306 17.1317 111.52 18.0067 112.476 19.15C113.433 20.2933 114.156 21.67 114.646 23.28C115.136 24.89 115.381 26.71 115.381 28.74V51H112.021V28.74C112.021 25.4733 111.275 22.9183 109.781 21.075C108.288 19.2083 106.013 18.275 102.956 18.275C100.693 18.275 98.5697 18.8583 96.5863 20.025C94.6263 21.1683 92.8763 22.7667 91.3363 24.82V51H87.9763V16.175H89.8313C90.4147 16.175 90.753 16.4667 90.8463 17.05L91.1613 22.265ZM154.987 51.56C152.63 51.56 150.787 50.9067 149.457 49.6C148.15 48.2933 147.497 46.275 147.497 43.545V19.745H142.492C142.235 19.745 142.025 19.675 141.862 19.535C141.698 19.395 141.617 19.1967 141.617 18.94V17.645L147.567 17.225L148.407 4.765C148.453 4.555 148.547 4.36833 148.687 4.205C148.827 4.04166 149.025 3.96 149.282 3.96H150.857V17.26H161.847V19.745H150.857V43.37C150.857 44.3267 150.973 45.155 151.207 45.855C151.463 46.5317 151.802 47.0917 152.222 47.535C152.665 47.9783 153.178 48.305 153.762 48.515C154.345 48.725 154.975 48.83 155.652 48.83C156.492 48.83 157.215 48.7133 157.822 48.48C158.428 48.2233 158.953 47.955 159.397 47.675C159.84 47.3717 160.202 47.1033 160.482 46.87C160.762 46.6133 160.983 46.485 161.147 46.485C161.333 46.485 161.52 46.6017 161.707 46.835L162.617 48.305C161.73 49.285 160.598 50.0783 159.222 50.685C157.868 51.2683 156.457 51.56 154.987 51.56ZM172.821 22.055C174.431 20.095 176.262 18.5317 178.316 17.365C180.392 16.1983 182.714 15.615 185.281 15.615C187.194 15.615 188.874 15.9183 190.321 16.525C191.791 17.1317 193.004 18.0067 193.961 19.15C194.917 20.2933 195.641 21.67 196.131 23.28C196.621 24.89 196.866 26.71 196.866 28.74V51H193.506V28.74C193.506 25.4733 192.759 22.9183 191.266 21.075C189.772 19.2083 187.497 18.275 184.441 18.275C182.177 18.275 180.054 18.8583 178.071 20.025C176.111 21.1683 174.361 22.7667 172.821 24.82V51H169.461V0.0749985H172.821V22.055ZM232.377 30.07C232.377 28.2033 232.109 26.535 231.572 25.065C231.059 23.5717 230.324 22.3117 229.367 21.285C228.41 20.2583 227.267 19.4767 225.937 18.94C224.63 18.38 223.184 18.1 221.597 18.1C219.8 18.1 218.19 18.38 216.767 18.94C215.344 19.5 214.107 20.305 213.057 21.355C212.03 22.405 211.202 23.665 210.572 25.135C209.942 26.605 209.522 28.25 209.312 30.07H232.377ZM209.137 32.205V32.87C209.137 35.4833 209.44 37.7817 210.047 39.765C210.654 41.7483 211.517 43.4167 212.637 44.77C213.757 46.1 215.11 47.1033 216.697 47.78C218.284 48.4567 220.057 48.795 222.017 48.795C223.767 48.795 225.284 48.6083 226.567 48.235C227.85 47.8383 228.924 47.4067 229.787 46.94C230.674 46.45 231.374 46.0183 231.887 45.645C232.4 45.2483 232.774 45.05 233.007 45.05C233.31 45.05 233.544 45.1667 233.707 45.4L234.617 46.52C234.057 47.22 233.31 47.8733 232.377 48.48C231.467 49.0867 230.44 49.6117 229.297 50.055C228.177 50.475 226.964 50.8133 225.657 51.07C224.374 51.3267 223.079 51.455 221.772 51.455C219.392 51.455 217.222 51.0467 215.262 50.23C213.302 49.39 211.622 48.1767 210.222 46.59C208.822 45.0033 207.737 43.0667 206.967 40.78C206.22 38.47 205.847 35.8333 205.847 32.87C205.847 30.3733 206.197 28.075 206.897 25.975C207.62 23.8517 208.647 22.0317 209.977 20.515C211.33 18.975 212.975 17.7733 214.912 16.91C216.872 16.0467 219.089 15.615 221.562 15.615C223.522 15.615 225.342 15.9533 227.022 16.63C228.702 17.3067 230.16 18.2983 231.397 19.605C232.634 20.8883 233.602 22.475 234.302 24.365C235.025 26.255 235.387 28.425 235.387 30.875C235.387 31.3883 235.317 31.7383 235.177 31.925C235.037 32.1117 234.804 32.205 234.477 32.205H209.137ZM303.25 1.475V51H299.645V27.27H268.635V51H265.03V1.475H268.635V24.575H299.645V1.475H303.25ZM339.633 30.07C339.633 28.2033 339.365 26.535 338.828 25.065C338.315 23.5717 337.58 22.3117 336.623 21.285C335.666 20.2583 334.523 19.4767 333.193 18.94C331.886 18.38 330.44 18.1 328.853 18.1C327.056 18.1 325.446 18.38 324.023 18.94C322.6 19.5 321.363 20.305 320.313 21.355C319.286 22.405 318.458 23.665 317.828 25.135C317.198 26.605 316.778 28.25 316.568 30.07H339.633ZM316.393 32.205V32.87C316.393 35.4833 316.696 37.7817 317.303 39.765C317.91 41.7483 318.773 43.4167 319.893 44.77C321.013 46.1 322.366 47.1033 323.953 47.78C325.54 48.4567 327.313 48.795 329.273 48.795C331.023 48.795 332.54 48.6083 333.823 48.235C335.106 47.8383 336.18 47.4067 337.043 46.94C337.93 46.45 338.63 46.0183 339.143 45.645C339.656 45.2483 340.03 45.05 340.263 45.05C340.566 45.05 340.8 45.1667 340.963 45.4L341.873 46.52C341.313 47.22 340.566 47.8733 339.633 48.48C338.723 49.0867 337.696 49.6117 336.553 50.055C335.433 50.475 334.22 50.8133 332.913 51.07C331.63 51.3267 330.335 51.455 329.028 51.455C326.648 51.455 324.478 51.0467 322.518 50.23C320.558 49.39 318.878 48.1767 317.478 46.59C316.078 45.0033 314.993 43.0667 314.223 40.78C313.476 38.47 313.103 35.8333 313.103 32.87C313.103 30.3733 313.453 28.075 314.153 25.975C314.876 23.8517 315.903 22.0317 317.233 20.515C318.586 18.975 320.231 17.7733 322.168 16.91C324.128 16.0467 326.345 15.615 328.818 15.615C330.778 15.615 332.598 15.9533 334.278 16.63C335.958 17.3067 337.416 18.2983 338.653 19.605C339.89 20.8883 340.858 22.475 341.558 24.365C342.281 26.255 342.643 28.425 342.643 30.875C342.643 31.3883 342.573 31.7383 342.433 31.925C342.293 32.1117 342.06 32.205 341.733 32.205H316.393ZM371.202 34.165C367.888 34.2817 365.03 34.55 362.627 34.97C360.247 35.3667 358.275 35.915 356.712 36.615C355.172 37.315 354.028 38.155 353.282 39.135C352.535 40.0917 352.162 41.1883 352.162 42.425C352.162 43.5917 352.348 44.6067 352.722 45.47C353.118 46.31 353.632 47.01 354.262 47.57C354.915 48.1067 355.662 48.5033 356.502 48.76C357.342 49.0167 358.217 49.145 359.127 49.145C360.48 49.145 361.717 49.005 362.837 48.725C363.98 48.4217 365.03 48.0133 365.987 47.5C366.967 46.9633 367.877 46.3333 368.717 45.61C369.557 44.8867 370.385 44.105 371.202 43.265V34.165ZM350.727 21.11C352.547 19.29 354.46 17.9133 356.467 16.98C358.473 16.0467 360.748 15.58 363.292 15.58C365.158 15.58 366.792 15.8833 368.192 16.49C369.592 17.0733 370.747 17.925 371.657 19.045C372.59 20.1417 373.29 21.4833 373.757 23.07C374.223 24.6333 374.457 26.3833 374.457 28.32V51H373.127C372.427 51 371.995 50.6733 371.832 50.02L371.342 45.54C370.385 46.4733 369.428 47.3133 368.472 48.06C367.538 48.8067 366.558 49.4367 365.532 49.95C364.505 50.4633 363.397 50.86 362.207 51.14C361.017 51.42 359.71 51.56 358.287 51.56C357.097 51.56 355.942 51.385 354.822 51.035C353.702 50.685 352.698 50.1483 351.812 49.425C350.948 48.7017 350.248 47.78 349.712 46.66C349.198 45.5167 348.942 44.1517 348.942 42.565C348.942 41.095 349.362 39.73 350.202 38.47C351.042 37.21 352.36 36.1133 354.157 35.18C355.953 34.2467 358.252 33.5 361.052 32.94C363.875 32.38 367.258 32.0533 371.202 31.96V28.32C371.202 25.1 370.502 22.6267 369.102 20.9C367.725 19.15 365.672 18.275 362.942 18.275C361.262 18.275 359.827 18.5083 358.637 18.975C357.47 19.4417 356.478 19.955 355.662 20.515C354.845 21.075 354.18 21.5883 353.667 22.055C353.153 22.5217 352.722 22.755 352.372 22.755C352.115 22.755 351.905 22.6967 351.742 22.58C351.578 22.4633 351.438 22.3117 351.322 22.125L350.727 21.11ZM389.288 0.0749985V51H385.928V0.0749985H389.288ZM410.582 51.56C408.226 51.56 406.382 50.9067 405.052 49.6C403.746 48.2933 403.092 46.275 403.092 43.545V19.745H398.087C397.831 19.745 397.621 19.675 397.457 19.535C397.294 19.395 397.212 19.1967 397.212 18.94V17.645L403.162 17.225L404.002 4.765C404.049 4.555 404.142 4.36833 404.282 4.205C404.422 4.04166 404.621 3.96 404.877 3.96H406.452V17.26H417.442V19.745H406.452V43.37C406.452 44.3267 406.569 45.155 406.802 45.855C407.059 46.5317 407.397 47.0917 407.817 47.535C408.261 47.9783 408.774 48.305 409.357 48.515C409.941 48.725 410.571 48.83 411.247 48.83C412.087 48.83 412.811 48.7133 413.417 48.48C414.024 48.2233 414.549 47.955 414.992 47.675C415.436 47.3717 415.797 47.1033 416.077 46.87C416.357 46.6133 416.579 46.485 416.742 46.485C416.929 46.485 417.116 46.6017 417.302 46.835L418.212 48.305C417.326 49.285 416.194 50.0783 414.817 50.685C413.464 51.2683 412.052 51.56 410.582 51.56ZM428.416 22.055C430.026 20.095 431.858 18.5317 433.911 17.365C435.988 16.1983 438.31 15.615 440.876 15.615C442.79 15.615 444.47 15.9183 445.916 16.525C447.386 17.1317 448.6 18.0067 449.556 19.15C450.513 20.2933 451.236 21.67 451.726 23.28C452.216 24.89 452.461 26.71 452.461 28.74V51H449.101V28.74C449.101 25.4733 448.355 22.9183 446.861 21.075C445.368 19.2083 443.093 18.275 440.036 18.275C437.773 18.275 435.65 18.8583 433.666 20.025C431.706 21.1683 429.956 22.7667 428.416 24.82V51H425.056V0.0749985H428.416V22.055ZM19.495 109.94C21.6883 109.94 23.6483 109.683 25.375 109.17C27.125 108.633 28.595 107.875 29.785 106.895C30.9983 105.915 31.92 104.737 32.55 103.36C33.18 101.983 33.495 100.432 33.495 98.705C33.495 95.1817 32.34 92.5683 30.03 90.865C27.7433 89.1617 24.395 88.31 19.985 88.31H10.92V109.94H19.495ZM41.475 135H38.395C37.9983 135 37.66 134.942 37.38 134.825C37.1233 134.685 36.8783 134.44 36.645 134.09L20.755 114C20.5683 113.743 20.37 113.522 20.16 113.335C19.9733 113.148 19.7517 113.008 19.495 112.915C19.2617 112.798 18.97 112.717 18.62 112.67C18.2933 112.623 17.885 112.6 17.395 112.6H10.92V135H7.315V85.475H19.985C25.6783 85.475 29.9367 86.5833 32.76 88.8C35.6067 90.9933 37.03 94.225 37.03 98.495C37.03 100.385 36.7033 102.112 36.05 103.675C35.3967 105.238 34.4517 106.615 33.215 107.805C32.0017 108.972 30.52 109.928 28.77 110.675C27.0433 111.422 25.095 111.923 22.925 112.18C23.485 112.53 23.9867 112.997 24.43 113.58L41.475 135ZM70.502 114.07C70.502 112.203 70.2337 110.535 69.697 109.065C69.1837 107.572 68.4487 106.312 67.492 105.285C66.5354 104.258 65.392 103.477 64.062 102.94C62.7554 102.38 61.3087 102.1 59.722 102.1C57.9254 102.1 56.3154 102.38 54.892 102.94C53.4687 103.5 52.232 104.305 51.182 105.355C50.1554 106.405 49.327 107.665 48.697 109.135C48.067 110.605 47.647 112.25 47.437 114.07H70.502ZM47.262 116.205V116.87C47.262 119.483 47.5654 121.782 48.172 123.765C48.7787 125.748 49.642 127.417 50.762 128.77C51.882 130.1 53.2354 131.103 54.822 131.78C56.4087 132.457 58.182 132.795 60.142 132.795C61.892 132.795 63.4087 132.608 64.692 132.235C65.9754 131.838 67.0487 131.407 67.912 130.94C68.7987 130.45 69.4987 130.018 70.012 129.645C70.5254 129.248 70.8987 129.05 71.132 129.05C71.4354 129.05 71.6687 129.167 71.832 129.4L72.742 130.52C72.182 131.22 71.4354 131.873 70.502 132.48C69.592 133.087 68.5654 133.612 67.422 134.055C66.302 134.475 65.0887 134.813 63.782 135.07C62.4987 135.327 61.2037 135.455 59.897 135.455C57.517 135.455 55.347 135.047 53.387 134.23C51.427 133.39 49.747 132.177 48.347 130.59C46.947 129.003 45.862 127.067 45.092 124.78C44.3454 122.47 43.972 119.833 43.972 116.87C43.972 114.373 44.322 112.075 45.022 109.975C45.7454 107.852 46.772 106.032 48.102 104.515C49.4554 102.975 51.1004 101.773 53.037 100.91C54.997 100.047 57.2137 99.615 59.687 99.615C61.647 99.615 63.467 99.9533 65.147 100.63C66.827 101.307 68.2854 102.298 69.522 103.605C70.7587 104.888 71.727 106.475 72.427 108.365C73.1504 110.255 73.512 112.425 73.512 114.875C73.512 115.388 73.442 115.738 73.302 115.925C73.162 116.112 72.9287 116.205 72.602 116.205H47.262ZM109.926 100.175L95.2257 135H92.2857L77.5857 100.175H80.2107C80.5374 100.175 80.8057 100.268 81.0157 100.455C81.2257 100.618 81.3657 100.805 81.4357 101.015L92.9507 128.49C93.3007 129.517 93.5807 130.532 93.7907 131.535C94.0007 130.532 94.2924 129.517 94.6657 128.49L106.216 101.015C106.332 100.758 106.484 100.56 106.671 100.42C106.881 100.257 107.126 100.175 107.406 100.175H109.926ZM130.067 99.615C132.564 99.615 134.792 100.047 136.752 100.91C138.735 101.75 140.404 102.952 141.757 104.515C143.11 106.078 144.137 107.968 144.837 110.185C145.56 112.378 145.922 114.84 145.922 117.57C145.922 120.3 145.56 122.762 144.837 124.955C144.137 127.148 143.11 129.027 141.757 130.59C140.404 132.153 138.735 133.355 136.752 134.195C134.792 135.035 132.564 135.455 130.067 135.455C127.57 135.455 125.33 135.035 123.347 134.195C121.387 133.355 119.719 132.153 118.342 130.59C116.989 129.027 115.95 127.148 115.227 124.955C114.527 122.762 114.177 120.3 114.177 117.57C114.177 114.84 114.527 112.378 115.227 110.185C115.95 107.968 116.989 106.078 118.342 104.515C119.719 102.952 121.387 101.75 123.347 100.91C125.33 100.047 127.57 99.615 130.067 99.615ZM130.067 132.83C132.144 132.83 133.952 132.48 135.492 131.78C137.055 131.057 138.35 130.03 139.377 128.7C140.427 127.37 141.209 125.772 141.722 123.905C142.235 122.015 142.492 119.903 142.492 117.57C142.492 115.26 142.235 113.16 141.722 111.27C141.209 109.38 140.427 107.77 139.377 106.44C138.35 105.087 137.055 104.048 135.492 103.325C133.952 102.602 132.144 102.24 130.067 102.24C127.99 102.24 126.17 102.602 124.607 103.325C123.067 104.048 121.772 105.087 120.722 106.44C119.695 107.77 118.914 109.38 118.377 111.27C117.864 113.16 117.607 115.26 117.607 117.57C117.607 119.903 117.864 122.015 118.377 123.905C118.914 125.772 119.695 127.37 120.722 128.7C121.772 130.03 123.067 131.057 124.607 131.78C126.17 132.48 127.99 132.83 130.067 132.83ZM158.985 84.075V135H155.625V84.075H158.985ZM197.78 100.175V135H195.925C195.341 135 195.003 134.697 194.91 134.09L194.595 128.91C192.985 130.917 191.118 132.527 188.995 133.74C186.895 134.953 184.55 135.56 181.96 135.56C180.023 135.56 178.331 135.257 176.885 134.65C175.438 134.043 174.236 133.168 173.28 132.025C172.323 130.882 171.6 129.505 171.11 127.895C170.62 126.285 170.375 124.465 170.375 122.435V100.175H173.735V122.435C173.735 125.702 174.481 128.268 175.975 130.135C177.468 131.978 179.743 132.9 182.8 132.9C185.063 132.9 187.175 132.328 189.135 131.185C191.118 130.018 192.88 128.408 194.42 126.355V100.175H197.78ZM238.156 135H234.796V103.745H214.636V127.37C214.636 128.327 214.753 129.155 214.986 129.855C215.243 130.532 215.581 131.092 216.001 131.535C216.444 131.978 216.958 132.305 217.541 132.515C218.124 132.725 218.754 132.83 219.431 132.83C220.271 132.83 220.994 132.713 221.601 132.48C222.208 132.223 222.733 131.955 223.176 131.675C223.619 131.372 223.981 131.103 224.261 130.87C224.541 130.613 224.763 130.485 224.926 130.485C225.113 130.485 225.299 130.602 225.486 130.835L226.396 132.305C225.509 133.285 224.378 134.078 223.001 134.685C221.648 135.268 220.236 135.56 218.766 135.56C216.409 135.56 214.566 134.907 213.236 133.6C211.929 132.293 211.276 130.275 211.276 127.545V103.745H206.271C206.014 103.745 205.804 103.675 205.641 103.535C205.478 103.395 205.396 103.197 205.396 102.94V101.645L211.346 101.225L212.186 88.765C212.233 88.555 212.326 88.3683 212.466 88.205C212.606 88.0417 212.804 87.96 213.061 87.96H214.636V101.26H238.156V135ZM239.696 87.75C239.696 88.17 239.603 88.5667 239.416 88.94C239.253 89.29 239.019 89.605 238.716 89.885C238.436 90.165 238.109 90.3867 237.736 90.55C237.363 90.7133 236.966 90.795 236.546 90.795C236.126 90.795 235.729 90.7133 235.356 90.55C234.983 90.3867 234.656 90.165 234.376 89.885C234.096 89.605 233.874 89.29 233.711 88.94C233.548 88.5667 233.466 88.17 233.466 87.75C233.466 87.33 233.548 86.9333 233.711 86.56C233.874 86.1633 234.096 85.825 234.376 85.545C234.656 85.265 234.983 85.0433 235.356 84.88C235.729 84.7167 236.126 84.635 236.546 84.635C236.966 84.635 237.363 84.7167 237.736 84.88C238.109 85.0433 238.436 85.265 238.716 85.545C239.019 85.825 239.253 86.1633 239.416 86.56C239.603 86.9333 239.696 87.33 239.696 87.75ZM263.778 99.615C266.275 99.615 268.503 100.047 270.463 100.91C272.446 101.75 274.115 102.952 275.468 104.515C276.821 106.078 277.848 107.968 278.548 110.185C279.271 112.378 279.633 114.84 279.633 117.57C279.633 120.3 279.271 122.762 278.548 124.955C277.848 127.148 276.821 129.027 275.468 130.59C274.115 132.153 272.446 133.355 270.463 134.195C268.503 135.035 266.275 135.455 263.778 135.455C261.281 135.455 259.041 135.035 257.058 134.195C255.098 133.355 253.43 132.153 252.053 130.59C250.7 129.027 249.661 127.148 248.938 124.955C248.238 122.762 247.888 120.3 247.888 117.57C247.888 114.84 248.238 112.378 248.938 110.185C249.661 107.968 250.7 106.078 252.053 104.515C253.43 102.952 255.098 101.75 257.058 100.91C259.041 100.047 261.281 99.615 263.778 99.615ZM263.778 132.83C265.855 132.83 267.663 132.48 269.203 131.78C270.766 131.057 272.061 130.03 273.088 128.7C274.138 127.37 274.92 125.772 275.433 123.905C275.946 122.015 276.203 119.903 276.203 117.57C276.203 115.26 275.946 113.16 275.433 111.27C274.92 109.38 274.138 107.77 273.088 106.44C272.061 105.087 270.766 104.048 269.203 103.325C267.663 102.602 265.855 102.24 263.778 102.24C261.701 102.24 259.881 102.602 258.318 103.325C256.778 104.048 255.483 105.087 254.433 106.44C253.406 107.77 252.625 109.38 252.088 111.27C251.575 113.16 251.318 115.26 251.318 117.57C251.318 119.903 251.575 122.015 252.088 123.905C252.625 125.772 253.406 127.37 254.433 128.7C255.483 130.03 256.778 131.057 258.318 131.78C259.881 132.48 261.701 132.83 263.778 132.83ZM292.206 106.265C293.816 104.258 295.671 102.648 297.771 101.435C299.895 100.222 302.251 99.615 304.841 99.615C306.755 99.615 308.435 99.9183 309.881 100.525C311.351 101.132 312.565 102.007 313.521 103.15C314.478 104.293 315.201 105.67 315.691 107.28C316.181 108.89 316.426 110.71 316.426 112.74V135H313.066V112.74C313.066 109.473 312.32 106.918 310.826 105.075C309.333 103.208 307.058 102.275 304.001 102.275C301.738 102.275 299.615 102.858 297.631 104.025C295.671 105.168 293.921 106.767 292.381 108.82V135H289.021V100.175H290.876C291.46 100.175 291.798 100.467 291.891 101.05L292.206 106.265Z" fill="black"/>
</svg>
