<svg width="527" height="136" viewBox="0 0 527 136" fill="none" xmlns="http://www.w3.org/2000/svg">
<path d="M68.51 1.475L52.935 51H49.715L35.085 8.02C34.8983 7.43667 34.735 6.83 34.595 6.2C34.455 6.83 34.2917 7.43667 34.105 8.02L19.44 51H16.255L0.645 1.475H3.62C4.29667 1.475 4.72833 1.79 4.915 2.42L17.41 43.125C17.6667 44.0583 17.9 45.12 18.11 46.31C18.2267 45.7033 18.3433 45.1433 18.46 44.63C18.5767 44.0933 18.7167 43.5917 18.88 43.125L32.88 2.42C32.9733 2.16333 33.1367 1.94166 33.37 1.755C33.6033 1.56833 33.8833 1.475 34.21 1.475H35.19C35.5167 1.475 35.785 1.56833 35.995 1.755C36.205 1.91833 36.3683 2.14 36.485 2.42L50.485 43.125C50.6483 43.5683 50.7883 44.0583 50.905 44.595C51.045 45.1317 51.1733 45.6917 51.29 46.275C51.4067 45.6917 51.5117 45.1433 51.605 44.63C51.7217 44.0933 51.8383 43.5917 51.955 43.125L64.45 2.42C64.52 2.16333 64.6717 1.94166 64.905 1.755C65.1617 1.56833 65.4533 1.475 65.78 1.475H68.51ZM79.057 22.055C80.667 20.095 82.4987 18.5317 84.552 17.365C86.6287 16.1983 88.9504 15.615 91.517 15.615C93.4304 15.615 95.1104 15.9183 96.557 16.525C98.027 17.1317 99.2404 18.0067 100.197 19.15C101.154 20.2933 101.877 21.67 102.367 23.28C102.857 24.89 103.102 26.71 103.102 28.74V51H99.742V28.74C99.742 25.4733 98.9954 22.9183 97.502 21.075C96.0087 19.2083 93.7337 18.275 90.677 18.275C88.4137 18.275 86.2904 18.8583 84.307 20.025C82.347 21.1683 80.597 22.7667 79.057 24.82V51H75.697V0.0749985H79.057V22.055ZM133.678 34.165C130.365 34.2817 127.507 34.55 125.103 34.97C122.723 35.3667 120.752 35.915 119.188 36.615C117.648 37.315 116.505 38.155 115.758 39.135C115.012 40.0917 114.638 41.1883 114.638 42.425C114.638 43.5917 114.825 44.6067 115.198 45.47C115.595 46.31 116.108 47.01 116.738 47.57C117.392 48.1067 118.138 48.5033 118.978 48.76C119.818 49.0167 120.693 49.145 121.603 49.145C122.957 49.145 124.193 49.005 125.313 48.725C126.457 48.4217 127.507 48.0133 128.463 47.5C129.443 46.9633 130.353 46.3333 131.193 45.61C132.033 44.8867 132.862 44.105 133.678 43.265V34.165ZM113.203 21.11C115.023 19.29 116.937 17.9133 118.943 16.98C120.95 16.0467 123.225 15.58 125.768 15.58C127.635 15.58 129.268 15.8833 130.668 16.49C132.068 17.0733 133.223 17.925 134.133 19.045C135.067 20.1417 135.767 21.4833 136.233 23.07C136.7 24.6333 136.933 26.3833 136.933 28.32V51H135.603C134.903 51 134.472 50.6733 134.308 50.02L133.818 45.54C132.862 46.4733 131.905 47.3133 130.948 48.06C130.015 48.8067 129.035 49.4367 128.008 49.95C126.982 50.4633 125.873 50.86 124.683 51.14C123.493 51.42 122.187 51.56 120.763 51.56C119.573 51.56 118.418 51.385 117.298 51.035C116.178 50.685 115.175 50.1483 114.288 49.425C113.425 48.7017 112.725 47.78 112.188 46.66C111.675 45.5167 111.418 44.1517 111.418 42.565C111.418 41.095 111.838 39.73 112.678 38.47C113.518 37.21 114.837 36.1133 116.633 35.18C118.43 34.2467 120.728 33.5 123.528 32.94C126.352 32.38 129.735 32.0533 133.678 31.96V28.32C133.678 25.1 132.978 22.6267 131.578 20.9C130.202 19.15 128.148 18.275 125.418 18.275C123.738 18.275 122.303 18.5083 121.113 18.975C119.947 19.4417 118.955 19.955 118.138 20.515C117.322 21.075 116.657 21.5883 116.143 22.055C115.63 22.5217 115.198 22.755 114.848 22.755C114.592 22.755 114.382 22.6967 114.218 22.58C114.055 22.4633 113.915 22.3117 113.798 22.125L113.203 21.11ZM157.199 51.56C154.843 51.56 152.999 50.9067 151.669 49.6C150.363 48.2933 149.709 46.275 149.709 43.545V19.745H144.704C144.448 19.745 144.238 19.675 144.074 19.535C143.911 19.395 143.829 19.1967 143.829 18.94V17.645L149.779 17.225L150.619 4.765C150.666 4.555 150.759 4.36833 150.899 4.205C151.039 4.04166 151.238 3.96 151.494 3.96H153.069V17.26H164.059V19.745H153.069V43.37C153.069 44.3267 153.186 45.155 153.419 45.855C153.676 46.5317 154.014 47.0917 154.434 47.535C154.878 47.9783 155.391 48.305 155.974 48.515C156.558 48.725 157.188 48.83 157.864 48.83C158.704 48.83 159.428 48.7133 160.034 48.48C160.641 48.2233 161.166 47.955 161.609 47.675C162.053 47.3717 162.414 47.1033 162.694 46.87C162.974 46.6133 163.196 46.485 163.359 46.485C163.546 46.485 163.733 46.6017 163.919 46.835L164.829 48.305C163.943 49.285 162.811 50.0783 161.434 50.685C160.081 51.2683 158.669 51.56 157.199 51.56ZM194.388 16.175V51H191.063V16.175H194.388ZM195.823 4.17C195.823 4.59 195.729 4.98667 195.543 5.36C195.379 5.71 195.158 6.025 194.878 6.305C194.598 6.585 194.271 6.80666 193.898 6.97C193.524 7.13333 193.128 7.215 192.708 7.215C192.288 7.215 191.891 7.13333 191.518 6.97C191.144 6.80666 190.818 6.585 190.538 6.305C190.258 6.025 190.036 5.71 189.873 5.36C189.709 4.98667 189.628 4.59 189.628 4.17C189.628 3.75 189.709 3.35333 189.873 2.98C190.036 2.58333 190.258 2.245 190.538 1.965C190.818 1.685 191.144 1.46333 191.518 1.3C191.891 1.13666 192.288 1.055 192.708 1.055C193.128 1.055 193.524 1.13666 193.898 1.3C194.271 1.46333 194.598 1.685 194.878 1.965C195.158 2.245 195.379 2.58333 195.543 2.98C195.729 3.35333 195.823 3.75 195.823 4.17ZM225.408 20.48C225.222 20.8067 224.953 20.97 224.603 20.97C224.347 20.97 224.02 20.83 223.623 20.55C223.227 20.2467 222.69 19.92 222.013 19.57C221.36 19.1967 220.543 18.87 219.563 18.59C218.583 18.2867 217.393 18.135 215.993 18.135C214.733 18.135 213.578 18.3217 212.528 18.695C211.502 19.045 210.615 19.5233 209.868 20.13C209.145 20.7367 208.585 21.4483 208.188 22.265C207.792 23.0583 207.593 23.8983 207.593 24.785C207.593 25.8817 207.873 26.7917 208.433 27.515C208.993 28.2383 209.717 28.8567 210.603 29.37C211.513 29.8833 212.552 30.3267 213.718 30.7C214.885 31.0733 216.063 31.4467 217.253 31.82C218.467 32.1933 219.657 32.6133 220.823 33.08C221.99 33.5233 223.017 34.0833 223.903 34.76C224.813 35.4367 225.548 36.265 226.108 37.245C226.668 38.225 226.948 39.415 226.948 40.815C226.948 42.3317 226.68 43.7433 226.143 45.05C225.607 46.3567 224.813 47.4883 223.763 48.445C222.737 49.4017 221.465 50.16 219.948 50.72C218.432 51.28 216.693 51.56 214.733 51.56C212.283 51.56 210.172 51.175 208.398 50.405C206.625 49.6117 205.038 48.585 203.638 47.325L204.408 46.135C204.525 45.9483 204.653 45.8083 204.793 45.715C204.957 45.6217 205.167 45.575 205.423 45.575C205.727 45.575 206.088 45.7617 206.508 46.135C206.952 46.5083 207.535 46.9167 208.258 47.36C208.982 47.78 209.868 48.1767 210.918 48.55C211.992 48.9233 213.31 49.11 214.873 49.11C216.343 49.11 217.638 48.9117 218.758 48.515C219.878 48.095 220.812 47.535 221.558 46.835C222.305 46.135 222.865 45.3183 223.238 44.385C223.635 43.4283 223.833 42.425 223.833 41.375C223.833 40.2083 223.553 39.24 222.993 38.47C222.433 37.7 221.698 37.0467 220.788 36.51C219.878 35.9733 218.84 35.5183 217.673 35.145C216.53 34.7717 215.352 34.3983 214.138 34.025C212.925 33.6517 211.735 33.2433 210.568 32.8C209.425 32.3567 208.398 31.7967 207.488 31.12C206.578 30.4433 205.843 29.6267 205.283 28.67C204.723 27.69 204.443 26.4767 204.443 25.03C204.443 23.7933 204.712 22.6033 205.248 21.46C205.785 20.3167 206.543 19.3133 207.523 18.45C208.527 17.5867 209.74 16.8983 211.163 16.385C212.587 15.8717 214.185 15.615 215.958 15.615C218.082 15.615 219.96 15.9183 221.593 16.525C223.25 17.1317 224.755 18.065 226.108 19.325L225.408 20.48ZM264.524 51.56C262.167 51.56 260.324 50.9067 258.994 49.6C257.687 48.2933 257.034 46.275 257.034 43.545V19.745H252.029C251.772 19.745 251.562 19.675 251.399 19.535C251.235 19.395 251.154 19.1967 251.154 18.94V17.645L257.104 17.225L257.944 4.765C257.99 4.555 258.084 4.36833 258.224 4.205C258.364 4.04166 258.562 3.96 258.819 3.96H260.394V17.26H271.384V19.745H260.394V43.37C260.394 44.3267 260.51 45.155 260.744 45.855C261 46.5317 261.339 47.0917 261.759 47.535C262.202 47.9783 262.715 48.305 263.299 48.515C263.882 48.725 264.512 48.83 265.189 48.83C266.029 48.83 266.752 48.7133 267.359 48.48C267.965 48.2233 268.49 47.955 268.934 47.675C269.377 47.3717 269.739 47.1033 270.019 46.87C270.299 46.6133 270.52 46.485 270.684 46.485C270.87 46.485 271.057 46.6017 271.244 46.835L272.154 48.305C271.267 49.285 270.135 50.0783 268.759 50.685C267.405 51.2683 265.994 51.56 264.524 51.56ZM282.358 22.055C283.968 20.095 285.799 18.5317 287.853 17.365C289.929 16.1983 292.251 15.615 294.818 15.615C296.731 15.615 298.411 15.9183 299.858 16.525C301.328 17.1317 302.541 18.0067 303.498 19.15C304.454 20.2933 305.178 21.67 305.668 23.28C306.158 24.89 306.403 26.71 306.403 28.74V51H303.043V28.74C303.043 25.4733 302.296 22.9183 300.803 21.075C299.309 19.2083 297.034 18.275 293.978 18.275C291.714 18.275 289.591 18.8583 287.608 20.025C285.648 21.1683 283.898 22.7667 282.358 24.82V51H278.998V0.0749985H282.358V22.055ZM341.914 30.07C341.914 28.2033 341.646 26.535 341.109 25.065C340.596 23.5717 339.861 22.3117 338.904 21.285C337.947 20.2583 336.804 19.4767 335.474 18.94C334.167 18.38 332.721 18.1 331.134 18.1C329.337 18.1 327.727 18.38 326.304 18.94C324.881 19.5 323.644 20.305 322.594 21.355C321.567 22.405 320.739 23.665 320.109 25.135C319.479 26.605 319.059 28.25 318.849 30.07H341.914ZM318.674 32.205V32.87C318.674 35.4833 318.977 37.7817 319.584 39.765C320.191 41.7483 321.054 43.4167 322.174 44.77C323.294 46.1 324.647 47.1033 326.234 47.78C327.821 48.4567 329.594 48.795 331.554 48.795C333.304 48.795 334.821 48.6083 336.104 48.235C337.387 47.8383 338.461 47.4067 339.324 46.94C340.211 46.45 340.911 46.0183 341.424 45.645C341.937 45.2483 342.311 45.05 342.544 45.05C342.847 45.05 343.081 45.1667 343.244 45.4L344.154 46.52C343.594 47.22 342.847 47.8733 341.914 48.48C341.004 49.0867 339.977 49.6117 338.834 50.055C337.714 50.475 336.501 50.8133 335.194 51.07C333.911 51.3267 332.616 51.455 331.309 51.455C328.929 51.455 326.759 51.0467 324.799 50.23C322.839 49.39 321.159 48.1767 319.759 46.59C318.359 45.0033 317.274 43.0667 316.504 40.78C315.757 38.47 315.384 35.8333 315.384 32.87C315.384 30.3733 315.734 28.075 316.434 25.975C317.157 23.8517 318.184 22.0317 319.514 20.515C320.867 18.975 322.512 17.7733 324.449 16.91C326.409 16.0467 328.626 15.615 331.099 15.615C333.059 15.615 334.879 15.9533 336.559 16.63C338.239 17.3067 339.697 18.2983 340.934 19.605C342.171 20.8883 343.139 22.475 343.839 24.365C344.562 26.255 344.924 28.425 344.924 30.875C344.924 31.3883 344.854 31.7383 344.714 31.925C344.574 32.1117 344.341 32.205 344.014 32.205H318.674ZM9.92 135H6.315V85.475H9.92V135ZM25.6301 106.265C27.2401 104.258 29.0951 102.648 31.1951 101.435C33.3184 100.222 35.6751 99.615 38.2651 99.615C40.1784 99.615 41.8584 99.9183 43.3051 100.525C44.7751 101.132 45.9884 102.007 46.9451 103.15C47.9017 104.293 48.6251 105.67 49.1151 107.28C49.6051 108.89 49.8501 110.71 49.8501 112.74V135H46.4901V112.74C46.4901 109.473 45.7434 106.918 44.2501 105.075C42.7567 103.208 40.4817 102.275 37.4251 102.275C35.1617 102.275 33.0384 102.858 31.0551 104.025C29.0951 105.168 27.3451 106.767 25.8051 108.82V135H22.4451V100.175H24.3001C24.8834 100.175 25.2217 100.467 25.3151 101.05L25.6301 106.265ZM64.1164 106.265C65.7264 104.258 67.5814 102.648 69.6814 101.435C71.8047 100.222 74.1614 99.615 76.7514 99.615C78.6647 99.615 80.3447 99.9183 81.7914 100.525C83.2614 101.132 84.4747 102.007 85.4314 103.15C86.3881 104.293 87.1114 105.67 87.6014 107.28C88.0914 108.89 88.3364 110.71 88.3364 112.74V135H84.9764V112.74C84.9764 109.473 84.2297 106.918 82.7364 105.075C81.2431 103.208 78.9681 102.275 75.9114 102.275C73.6481 102.275 71.5247 102.858 69.5414 104.025C67.5814 105.168 65.8314 106.767 64.2914 108.82V135H60.9314V100.175H62.7864C63.3697 100.175 63.7081 100.467 63.8014 101.05L64.1164 106.265ZM113.208 99.615C115.704 99.615 117.933 100.047 119.893 100.91C121.876 101.75 123.544 102.952 124.898 104.515C126.251 106.078 127.278 107.968 127.978 110.185C128.701 112.378 129.063 114.84 129.063 117.57C129.063 120.3 128.701 122.762 127.978 124.955C127.278 127.148 126.251 129.027 124.898 130.59C123.544 132.153 121.876 133.355 119.893 134.195C117.933 135.035 115.704 135.455 113.208 135.455C110.711 135.455 108.471 135.035 106.488 134.195C104.528 133.355 102.859 132.153 101.483 130.59C100.129 129.027 99.0911 127.148 98.3677 124.955C97.6677 122.762 97.3177 120.3 97.3177 117.57C97.3177 114.84 97.6677 112.378 98.3677 110.185C99.0911 107.968 100.129 106.078 101.483 104.515C102.859 102.952 104.528 101.75 106.488 100.91C108.471 100.047 110.711 99.615 113.208 99.615ZM113.208 132.83C115.284 132.83 117.093 132.48 118.633 131.78C120.196 131.057 121.491 130.03 122.518 128.7C123.568 127.37 124.349 125.772 124.863 123.905C125.376 122.015 125.633 119.903 125.633 117.57C125.633 115.26 125.376 113.16 124.863 111.27C124.349 109.38 123.568 107.77 122.518 106.44C121.491 105.087 120.196 104.048 118.633 103.325C117.093 102.602 115.284 102.24 113.208 102.24C111.131 102.24 109.311 102.602 107.748 103.325C106.208 104.048 104.913 105.087 103.863 106.44C102.836 107.77 102.054 109.38 101.518 111.27C101.004 113.16 100.748 115.26 100.748 117.57C100.748 119.903 101.004 122.015 101.518 123.905C102.054 125.772 102.836 127.37 103.863 128.7C104.913 130.03 106.208 131.057 107.748 131.78C109.311 132.48 111.131 132.83 113.208 132.83ZM165.596 100.175L150.896 135H147.956L133.256 100.175H135.881C136.207 100.175 136.476 100.268 136.686 100.455C136.896 100.618 137.036 100.805 137.106 101.015L148.621 128.49C148.971 129.517 149.251 130.532 149.461 131.535C149.671 130.532 149.962 129.517 150.336 128.49L161.886 101.015C162.002 100.758 162.154 100.56 162.341 100.42C162.551 100.257 162.796 100.175 163.076 100.175H165.596ZM191.579 118.165C188.265 118.282 185.407 118.55 183.004 118.97C180.624 119.367 178.652 119.915 177.089 120.615C175.549 121.315 174.405 122.155 173.659 123.135C172.912 124.092 172.539 125.188 172.539 126.425C172.539 127.592 172.725 128.607 173.099 129.47C173.495 130.31 174.009 131.01 174.639 131.57C175.292 132.107 176.039 132.503 176.879 132.76C177.719 133.017 178.594 133.145 179.504 133.145C180.857 133.145 182.094 133.005 183.214 132.725C184.357 132.422 185.407 132.013 186.364 131.5C187.344 130.963 188.254 130.333 189.094 129.61C189.934 128.887 190.762 128.105 191.579 127.265V118.165ZM171.104 105.11C172.924 103.29 174.837 101.913 176.844 100.98C178.85 100.047 181.125 99.58 183.669 99.58C185.535 99.58 187.169 99.8833 188.569 100.49C189.969 101.073 191.124 101.925 192.034 103.045C192.967 104.142 193.667 105.483 194.134 107.07C194.6 108.633 194.834 110.383 194.834 112.32V135H193.504C192.804 135 192.372 134.673 192.209 134.02L191.719 129.54C190.762 130.473 189.805 131.313 188.849 132.06C187.915 132.807 186.935 133.437 185.909 133.95C184.882 134.463 183.774 134.86 182.584 135.14C181.394 135.42 180.087 135.56 178.664 135.56C177.474 135.56 176.319 135.385 175.199 135.035C174.079 134.685 173.075 134.148 172.189 133.425C171.325 132.702 170.625 131.78 170.089 130.66C169.575 129.517 169.319 128.152 169.319 126.565C169.319 125.095 169.739 123.73 170.579 122.47C171.419 121.21 172.737 120.113 174.534 119.18C176.33 118.247 178.629 117.5 181.429 116.94C184.252 116.38 187.635 116.053 191.579 115.96V112.32C191.579 109.1 190.879 106.627 189.479 104.9C188.102 103.15 186.049 102.275 183.319 102.275C181.639 102.275 180.204 102.508 179.014 102.975C177.847 103.442 176.855 103.955 176.039 104.515C175.222 105.075 174.557 105.588 174.044 106.055C173.53 106.522 173.099 106.755 172.749 106.755C172.492 106.755 172.282 106.697 172.119 106.58C171.955 106.463 171.815 106.312 171.699 106.125L171.104 105.11ZM234.49 135H231.13V103.745H210.97V127.37C210.97 128.327 211.087 129.155 211.32 129.855C211.577 130.532 211.915 131.092 212.335 131.535C212.778 131.978 213.292 132.305 213.875 132.515C214.458 132.725 215.088 132.83 215.765 132.83C216.605 132.83 217.328 132.713 217.935 132.48C218.542 132.223 219.067 131.955 219.51 131.675C219.953 131.372 220.315 131.103 220.595 130.87C220.875 130.613 221.097 130.485 221.26 130.485C221.447 130.485 221.633 130.602 221.82 130.835L222.73 132.305C221.843 133.285 220.712 134.078 219.335 134.685C217.982 135.268 216.57 135.56 215.1 135.56C212.743 135.56 210.9 134.907 209.57 133.6C208.263 132.293 207.61 130.275 207.61 127.545V103.745H202.605C202.348 103.745 202.138 103.675 201.975 103.535C201.812 103.395 201.73 103.197 201.73 102.94V101.645L207.68 101.225L208.52 88.765C208.567 88.555 208.66 88.3683 208.8 88.205C208.94 88.0417 209.138 87.96 209.395 87.96H210.97V101.26H234.49V135ZM236.03 87.75C236.03 88.17 235.937 88.5667 235.75 88.94C235.587 89.29 235.353 89.605 235.05 89.885C234.77 90.165 234.443 90.3867 234.07 90.55C233.697 90.7133 233.3 90.795 232.88 90.795C232.46 90.795 232.063 90.7133 231.69 90.55C231.317 90.3867 230.99 90.165 230.71 89.885C230.43 89.605 230.208 89.29 230.045 88.94C229.882 88.5667 229.8 88.17 229.8 87.75C229.8 87.33 229.882 86.9333 230.045 86.56C230.208 86.1633 230.43 85.825 230.71 85.545C230.99 85.265 231.317 85.0433 231.69 84.88C232.063 84.7167 232.46 84.635 232.88 84.635C233.3 84.635 233.697 84.7167 234.07 84.88C234.443 85.0433 234.77 85.265 235.05 85.545C235.353 85.825 235.587 86.1633 235.75 86.56C235.937 86.9333 236.03 87.33 236.03 87.75ZM260.112 99.615C262.609 99.615 264.837 100.047 266.797 100.91C268.78 101.75 270.449 102.952 271.802 104.515C273.155 106.078 274.182 107.968 274.882 110.185C275.605 112.378 275.967 114.84 275.967 117.57C275.967 120.3 275.605 122.762 274.882 124.955C274.182 127.148 273.155 129.027 271.802 130.59C270.449 132.153 268.78 133.355 266.797 134.195C264.837 135.035 262.609 135.455 260.112 135.455C257.615 135.455 255.375 135.035 253.392 134.195C251.432 133.355 249.764 132.153 248.387 130.59C247.034 129.027 245.995 127.148 245.272 124.955C244.572 122.762 244.222 120.3 244.222 117.57C244.222 114.84 244.572 112.378 245.272 110.185C245.995 107.968 247.034 106.078 248.387 104.515C249.764 102.952 251.432 101.75 253.392 100.91C255.375 100.047 257.615 99.615 260.112 99.615ZM260.112 132.83C262.189 132.83 263.997 132.48 265.537 131.78C267.1 131.057 268.395 130.03 269.422 128.7C270.472 127.37 271.254 125.772 271.767 123.905C272.28 122.015 272.537 119.903 272.537 117.57C272.537 115.26 272.28 113.16 271.767 111.27C271.254 109.38 270.472 107.77 269.422 106.44C268.395 105.087 267.1 104.048 265.537 103.325C263.997 102.602 262.189 102.24 260.112 102.24C258.035 102.24 256.215 102.602 254.652 103.325C253.112 104.048 251.817 105.087 250.767 106.44C249.74 107.77 248.959 109.38 248.422 111.27C247.909 113.16 247.652 115.26 247.652 117.57C247.652 119.903 247.909 122.015 248.422 123.905C248.959 125.772 249.74 127.37 250.767 128.7C251.817 130.03 253.112 131.057 254.652 131.78C256.215 132.48 258.035 132.83 260.112 132.83ZM288.54 106.265C290.15 104.258 292.005 102.648 294.105 101.435C296.229 100.222 298.585 99.615 301.175 99.615C303.089 99.615 304.769 99.9183 306.215 100.525C307.685 101.132 308.899 102.007 309.855 103.15C310.812 104.293 311.535 105.67 312.025 107.28C312.515 108.89 312.76 110.71 312.76 112.74V135H309.4V112.74C309.4 109.473 308.654 106.918 307.16 105.075C305.667 103.208 303.392 102.275 300.335 102.275C298.072 102.275 295.949 102.858 293.965 104.025C292.005 105.168 290.255 106.767 288.715 108.82V135H285.355V100.175H287.21C287.794 100.175 288.132 100.467 288.225 101.05L288.54 106.265ZM348.025 88.45V109.275H370.6V112.25H348.025V135H344.42V85.475H374.1V88.45H348.025ZM393.208 99.615C395.704 99.615 397.933 100.047 399.893 100.91C401.876 101.75 403.544 102.952 404.898 104.515C406.251 106.078 407.278 107.968 407.978 110.185C408.701 112.378 409.063 114.84 409.063 117.57C409.063 120.3 408.701 122.762 407.978 124.955C407.278 127.148 406.251 129.027 404.898 130.59C403.544 132.153 401.876 133.355 399.893 134.195C397.933 135.035 395.704 135.455 393.208 135.455C390.711 135.455 388.471 135.035 386.488 134.195C384.528 133.355 382.859 132.153 381.483 130.59C380.129 129.027 379.091 127.148 378.368 124.955C377.668 122.762 377.318 120.3 377.318 117.57C377.318 114.84 377.668 112.378 378.368 110.185C379.091 107.968 380.129 106.078 381.483 104.515C382.859 102.952 384.528 101.75 386.488 100.91C388.471 100.047 390.711 99.615 393.208 99.615ZM393.208 132.83C395.284 132.83 397.093 132.48 398.633 131.78C400.196 131.057 401.491 130.03 402.518 128.7C403.568 127.37 404.349 125.772 404.863 123.905C405.376 122.015 405.633 119.903 405.633 117.57C405.633 115.26 405.376 113.16 404.863 111.27C404.349 109.38 403.568 107.77 402.518 106.44C401.491 105.087 400.196 104.048 398.633 103.325C397.093 102.602 395.284 102.24 393.208 102.24C391.131 102.24 389.311 102.602 387.748 103.325C386.208 104.048 384.913 105.087 383.863 106.44C382.836 107.77 382.054 109.38 381.518 111.27C381.004 113.16 380.748 115.26 380.748 117.57C380.748 119.903 381.004 122.015 381.518 123.905C382.054 125.772 382.836 127.37 383.863 128.7C384.913 130.03 386.208 131.057 387.748 131.78C389.311 132.48 391.131 132.83 393.208 132.83ZM421.636 108.575C422.173 107.152 422.779 105.892 423.456 104.795C424.156 103.675 424.949 102.73 425.836 101.96C426.746 101.19 427.749 100.607 428.846 100.21C429.966 99.79 431.203 99.58 432.556 99.58C433.279 99.58 433.991 99.65 434.691 99.79C435.391 99.9067 436.009 100.128 436.546 100.455L436.266 102.765C436.149 103.138 435.928 103.325 435.601 103.325C435.321 103.325 434.889 103.243 434.306 103.08C433.746 102.917 432.999 102.835 432.066 102.835C430.713 102.835 429.511 103.045 428.461 103.465C427.434 103.862 426.501 104.468 425.661 105.285C424.844 106.102 424.121 107.117 423.491 108.33C422.884 109.52 422.324 110.897 421.811 112.46V135H418.451V100.175H420.236C420.633 100.175 420.913 100.257 421.076 100.42C421.239 100.583 421.344 100.863 421.391 101.26L421.636 108.575ZM470.217 100.175V135H468.362C467.779 135 467.44 134.697 467.347 134.09L467.032 128.91C465.422 130.917 463.555 132.527 461.432 133.74C459.332 134.953 456.987 135.56 454.397 135.56C452.46 135.56 450.769 135.257 449.322 134.65C447.875 134.043 446.674 133.168 445.717 132.025C444.76 130.882 444.037 129.505 443.547 127.895C443.057 126.285 442.812 124.465 442.812 122.435V100.175H446.172V122.435C446.172 125.702 446.919 128.268 448.412 130.135C449.905 131.978 452.18 132.9 455.237 132.9C457.5 132.9 459.612 132.328 461.572 131.185C463.555 130.018 465.317 128.408 466.857 126.355V100.175H470.217ZM481.683 135V100.175H483.538C484.122 100.175 484.46 100.467 484.553 101.05L484.868 106.09C486.222 104.153 487.773 102.59 489.523 101.4C491.273 100.21 493.245 99.615 495.438 99.615C497.982 99.615 500.012 100.35 501.528 101.82C503.068 103.29 504.107 105.332 504.643 107.945C505.063 106.522 505.647 105.285 506.393 104.235C507.163 103.185 508.038 102.322 509.018 101.645C509.998 100.945 511.06 100.432 512.203 100.105C513.37 99.7783 514.56 99.615 515.773 99.615C517.5 99.615 519.052 99.9067 520.428 100.49C521.805 101.05 522.972 101.89 523.928 103.01C524.885 104.13 525.62 105.507 526.133 107.14C526.647 108.773 526.903 110.64 526.903 112.74V135H523.578V112.74C523.578 109.333 522.843 106.743 521.373 104.97C519.903 103.173 517.803 102.275 515.073 102.275C513.86 102.275 512.693 102.497 511.573 102.94C510.477 103.383 509.497 104.048 508.633 104.935C507.793 105.798 507.117 106.883 506.603 108.19C506.113 109.497 505.868 111.013 505.868 112.74V135H502.508V112.74C502.508 109.357 501.832 106.767 500.478 104.97C499.148 103.173 497.188 102.275 494.598 102.275C492.708 102.275 490.958 102.835 489.348 103.955C487.738 105.075 486.303 106.627 485.043 108.61V135H481.683Z" fill="black"/>
</svg>
